<svg xmlns="http://www.w3.org/2000/svg" viewBox="0 0 16 16"><path fill="#8b5cf6" fill-opacity=".4" fill-rule="evenodd" d="M7.66.62a1 1 0 0 1 .68 0l5.17 1.85a2 2 0 0 1 1.32 2.1l-.77 6.91a1 1 0 0 1-.52.77l-5.06 2.74a1 1 0 0 1-.96 0l-5.06-2.74a1 1 0 0 1-.52-.77l-.76-6.9a2 2 0 0 1 1.31-2.11z"/><path fill="none" stroke="#0f172a" stroke-opacity="0.1" d="m8.13 1.08.04.01 5.17 1.85a1.5 1.5 0 0 1 .99 1.58l-.77 6.9a.5.5 0 0 1-.26.39l-5.06 2.74a.5.5 0 0 1-.48 0L2.7 11.81a.5.5 0 0 1-.26-.38l-.77-6.91a1.5 1.5 0 0 1 .99-1.58l5.17-1.85a.5.5 0 0 1 .3-.01Z"/><path fill="#8b5cf6" fill-opacity=".4" fill-rule="evenodd" d="m2.49 2.47 3.73-1.34-4.3 9.9-.02.04-.72-6.5a2 2 0 0 1 1.31-2.1"/><path fill="none" stroke="#0f172a" stroke-opacity="0.1" d="m2.19 9.16-.52-4.64a1.5 1.5 0 0 1 .99-1.58l2.64-.95Z"/><path fill="#8b5cf6" fill-opacity=".4" fill-rule="evenodd" d="m14.83 4.57-.73 6.5-.02-.04-4.3-9.9 3.73 1.34a2 2 0 0 1 1.31 2.1"/><path fill="none" stroke="#0f172a" stroke-opacity="0.1" d="M13.34 2.94a1.5 1.5 0 0 1 .99 1.58l-.52 4.64L10.7 2Z"/><path fill="#8b5cf6" fill-opacity=".4" fill-rule="evenodd" d="M5.14 11h5.72a.3.3 0 0 1 .21.12l1.16 1.84-3.75 2.03a1 1 0 0 1-.84.06l-.12-.06-3.75-2.03 1.16-1.84a.3.3 0 0 1 .14-.11z"/><path fill="none" stroke="#0f172a" stroke-opacity="0.1" d="m10.72 11.5.8 1.27-3.28 1.78a.5.5 0 0 1-.42.03l-.09-.04-3.25-1.76.8-1.28Z"/><path fill="#d946ef" fill-rule="evenodd" d="m5.64 8.65 2.13-5.1a.25.25 0 0 1 .46 0l2.13 5.1a.25.25 0 0 1-.23.35H5.87a.25.25 0 0 1-.23-.35"/><path fill="none" stroke="#0f172a" stroke-opacity="0.1" d="M9.75 8.5h-3.5L8 4.3Z"/></svg>