<svg xmlns="http://www.w3.org/2000/svg" viewBox="0 0 16 16"><path fill="#64748b" fill-opacity=".4" fill-rule="evenodd" d="M14.96 10.85C13.53 13.62 12.39 15 11.34 15q-.72 0-1.42-.45a2.2 2.2 0 0 0-2.25-.05q-.84.5-1.6.5C4.52 15 2 10.43 2 7.92 2 5.25 3.45 3 5.66 3c1.03 0 1.93.65 2.68.95q.5.2 1-.03c.6-.28 1.41-.92 2.41-.92 1.22 0 2.28.79 3.17 1.93a.4.4 0 0 1-.08.55q-1.48 1.07-1.47 2.44c.02 1.37.48 1.72 1.47 2.44.16.11.2.32.12.49"/><path fill="none" stroke="#0f172a" stroke-opacity="0.1" d="M14.45 5.15q-1.56 1.17-1.57 2.77 0 1.6 1.59 2.79c-1.36 2.6-2.39 3.79-3.13 3.79q-.57 0-1.15-.37a2.7 2.7 0 0 0-2.77-.06q-.74.43-1.36.43c-1.15 0-3.56-4.26-3.56-6.58 0-2.53 1.34-4.42 3.16-4.42.47 0 .91.15 1.62.5l.43.22.45.2c.44.17.95.16 1.39-.04a6 6 0 0 0 .75-.41c.59-.32 1-.47 1.45-.47q1.4.01 2.7 1.65Z"/><path fill="#64748b" fill-rule="evenodd" d="M8.38 3A.4.4 0 0 1 8 2.63 2.63 2.63 0 0 1 10.63 0a.4.4 0 0 1 .37.38A2.63 2.63 0 0 1 8.38 3"/></svg>