<svg xmlns="http://www.w3.org/2000/svg" viewBox="0 0 16 16"><path fill="#0ea5e9" fill-opacity=".4" fill-rule="evenodd" d="M7.03 4H1.5a.5.5 0 0 0-.5.5v3.83a.5.5 0 0 0 .11.3l1.48 1.85a.5.5 0 0 0 .8-.02L7.43 4.8a.5.5 0 0 0-.4-.8"/><path fill="none" stroke="#0f172a" stroke-opacity="0.1" d="M2.98 10.17 1.5 8.32V4.5h5.53Z"/><path fill="#0ea5e9" fill-opacity=".4" fill-rule="evenodd" d="M12 8.97v5.53a.5.5 0 0 1-.5.5H7.68a.5.5 0 0 1-.32-.11l-1.84-1.48a.5.5 0 0 1 .02-.8l5.67-4.04a.5.5 0 0 1 .79.4"/><path fill="none" stroke="#0f172a" stroke-opacity="0.1" d="M11.5 14.5H7.68l-1.85-1.48 5.67-4.05Z"/><path fill="#0ea5e9" fill-rule="evenodd" d="M14 1a1 1 0 0 1 1 1v4.45a2 2 0 0 1-.87 1.65l-6.45 4.43a1 1 0 0 1-1.27-.12L3.6 9.6a1 1 0 0 1-.12-1.28L7.9 1.87A2 2 0 0 1 9.55 1zm-2.5 2a1.5 1.5 0 1 0 0 3 1.5 1.5 0 0 0 0-3"/><path fill="none" stroke="#0f172a" stroke-opacity="0.1" d="M14.5 2v4.45a1.5 1.5 0 0 1-.65 1.23L7.4 12.12a.5.5 0 0 1-.64-.06L3.94 9.23a.5.5 0 0 1-.06-.63l4.44-6.45a1.5 1.5 0 0 1 1.23-.65H14a.5.5 0 0 1 .5.5Zm-5 2.5a2 2 0 1 0 4 0 2 2 0 0 0-4 0Z"/><path fill="#0ea5e9" d="M7.53 8.47a.75.75 0 0 1 0 1.06l-2.75 2.75a.75.75 0 0 1-1.06-1.06l2.75-2.75a.75.75 0 0 1 1.06 0"/><path fill="#0ea5e9" fill-opacity=".4" d="M2.5 12.75v.75h.75a.75.75 0 1 1 0 1.5h-1.5a.75.75 0 0 1-.75-.75v-1.5a.75.75 0 1 1 1.5 0"/></svg>