<svg xmlns="http://www.w3.org/2000/svg" viewBox="0 0 16 16"><path fill="#14b8a6" fill-rule="evenodd" d="M13 4.61V1.5a.5.5 0 0 0-.5-.5h-3a.5.5 0 0 0-.5.5v3.86a.5.5 0 0 0 .62.48l3-.75a.5.5 0 0 0 .38-.48"/><path fill="none" stroke="#0f172a" stroke-opacity="0.1" d="M12.5 1.5v3.11l-3 .75V1.5Z"/><path fill="#14b8a6" fill-opacity=".4" fill-rule="evenodd" d="m12.62 8.9-3-.75a.5.5 0 0 0-.62.49V9.9l.04.19 1.83 4.6a.5.5 0 0 0 .47.31h1.16a.5.5 0 0 0 .5-.5V9.39a.5.5 0 0 0-.38-.48"/><path fill="none" stroke="#0f172a" stroke-opacity="0.1" d="M12.5 9.39v5.11h-1.16L9.5 9.9V8.64Z"/><path fill="#14b8a6" fill-rule="evenodd" d="M3 4.61V1.5a.5.5 0 0 1 .5-.5h3a.5.5 0 0 1 .5.5v3.86a.5.5 0 0 1-.62.48l-3-.75A.5.5 0 0 1 3 4.62"/><path fill="none" stroke="#0f172a" stroke-opacity="0.1" d="M6.5 1.5v3.86l-3-.75V1.5Z"/><path fill="#14b8a6" fill-opacity=".4" fill-rule="evenodd" d="m3.38 8.9 3-.75a.5.5 0 0 1 .62.49V9.9l-.04.19-1.83 4.6a.5.5 0 0 1-.47.31H3.5a.5.5 0 0 1-.5-.5V9.39a.5.5 0 0 1 .38-.48"/><path fill="none" stroke="#0f172a" stroke-opacity="0.1" d="m6.5 9.9-1.84 4.6H3.5V9.39l3-.75Z"/><path fill="#14b8a6" fill-rule="evenodd" d="m10 7 3-1v2zM6 7 3 6v2z"/></svg>