<svg xmlns="http://www.w3.org/2000/svg" viewBox="0 0 16 16"><path fill="#3b82f6" fill-rule="evenodd" d="m3.4 9.93-1.55.71a.25.25 0 0 1-.35-.25l.2-1.7a.3.3 0 0 0-.07-.2L.48 7.26a.25.25 0 0 1 .13-.42l1.67-.33a.3.3 0 0 0 .17-.12l.83-1.49a.25.25 0 0 1 .44 0l.83 1.49a.3.3 0 0 0 .17.12l1.67.33a.25.25 0 0 1 .13.42L5.37 8.5a.3.3 0 0 0-.07.2l.2 1.69a.25.25 0 0 1-.35.25L3.6 9.93a.3.3 0 0 0-.2 0"/><path fill="none" stroke="#0f172a" stroke-opacity="0.1" d="M4.11 6.62a.8.8 0 0 0 .51.37l1.23.24-.85.93a.8.8 0 0 0-.2.6L4.96 10l-1.13-.52a.8.8 0 0 0-.63 0L2.05 10l.15-1.24a.8.8 0 0 0-.2-.6l-.85-.92 1.23-.25a.8.8 0 0 0 .5-.37l.62-1.1Z"/><path fill="#14b8a6" fill-rule="evenodd" d="M8.54 7h6.53a.5.5 0 0 0 .41-.78L12.3 1.45a1 1 0 0 0-.84-.45H4.93a.5.5 0 0 0-.41.78L7.7 6.55a1 1 0 0 0 .84.45"/><path fill="none" stroke="#0f172a" stroke-opacity="0.1" d="m11.86 1.7.02.02 3.19 4.78H8.54a.5.5 0 0 1-.42-.22L4.93 1.5h6.53a.5.5 0 0 1 .4.2Z"/><path fill="#8b5cf6" fill-opacity=".4" fill-rule="evenodd" d="M8.54 9h6.53a.5.5 0 0 1 .41.78l-3.18 4.77a1 1 0 0 1-.84.45H4.93a.5.5 0 0 1-.41-.78L7.7 9.45A1 1 0 0 1 8.54 9"/><path fill="none" stroke="#0f172a" stroke-opacity="0.1" d="m15.07 9.5-3.19 4.78a.5.5 0 0 1-.42.22H4.93l3.19-4.78a.5.5 0 0 1 .42-.22Z"/></svg>