<svg xmlns="http://www.w3.org/2000/svg" xmlns:xlink="http://www.w3.org/1999/xlink" viewBox="0 0 16 16"><defs><linearGradient id="a" x1="0%" x2="100%" y1="50%" y2="50%"><stop offset="0%" stop-color="#22c55e" stop-opacity=".8"/><stop offset="100%" stop-color="#3b82f6" stop-opacity=".8"/></linearGradient></defs><path fill="#22c55e" fill-opacity=".4" fill-rule="evenodd" d="M.54 5.33A4.3 4.3 0 0 1 5 4.21q1.5.4 2.44 3.63l.08.3q1.05 3.99 3.2 4.6 2.1.64 3.92-.28A8 8 0 0 1 .41 5.45z"/><path fill="none" stroke="#0f172a" stroke-opacity="0.1" d="M4.86 4.69c.8.22 1.53 1.3 2.1 3.3l.08.27c.76 2.84 1.9 4.51 3.55 4.97q1.32.39 2.57.21A7.5 7.5 0 0 1 8 15.5 7.5 7.5 0 0 1 .85 5.72l.03-.02c1.21-1.13 2.5-1.45 3.98-1Z"/><path fill="#3b82f6" fill-opacity=".4" fill-rule="evenodd" d="M8 0a8 8 0 0 1 7.58 10.55Q13.53 12.56 11 11.8c-.98-.28-1.81-1.46-2.43-3.63l-.08-.29q-1.05-4-3.21-4.63a5.2 5.2 0 0 0-3.92.3A8 8 0 0 1 8 0"/><path fill="none" stroke="#0f172a" stroke-opacity="0.1" d="M15.5 8q0 1.18-.35 2.28c-1.23 1.15-2.52 1.47-4 1.03-.8-.22-1.53-1.3-2.1-3.29l-.08-.28C8.2 4.9 7.06 3.23 5.4 2.77a6 6 0 0 0-2.57-.21A7.5 7.5 0 0 1 8 .5 7.5 7.5 0 0 1 15.5 8Z"/><circle cx="8" cy="8" r="5" fill="url(#a)" fill-rule="evenodd"/><path fill="#0f172a" fill-rule="evenodd" d="M8.39 7.69a.5.5 0 0 1-.08.7 5.7 5.7 0 0 0-2.3 4.2 5 5 0 0 1-.95-.54A6.7 6.7 0 0 1 7.7 7.6a.5.5 0 0 1 .7.08"/><path fill="#0f172a" fill-rule="evenodd" d="m8.4 7.54.09.33q.95 3.5 2.51 3.92l.2.05a5 5 0 0 1-1.05.68q-1.73-.95-2.63-4.39Q6.56 4.63 5 4.21l-.2-.05a5 5 0 0 1 1.05-.68l.1.05q1.57.94 2.44 4.01"/><circle cx="8" cy="8" r="4.5" fill="none" stroke="#0f172a" stroke-opacity="0.1"/></svg>