<svg xmlns="http://www.w3.org/2000/svg" xmlns:xlink="http://www.w3.org/1999/xlink" viewBox="0 0 16 16"><defs><path id="a" d="M11.33 5.78A1 1 0 0 1 9.67 6.9a2 2 0 1 0 0 2.21 1 1 0 0 1 1.67 1.1 4 4 0 1 1-.01-4.42"/></defs><path fill="#3b82f6" fill-opacity=".4" fill-rule="evenodd" d="m4.65 13.92-.87.03a1.67 1.67 0 0 1-1.73-1.73l.03-.87a2 2 0 0 0-.63-1.53l-.64-.6a1.67 1.67 0 0 1 0-2.44l.64-.6a2 2 0 0 0 .63-1.53l-.03-.87a1.67 1.67 0 0 1 1.73-1.73l.87.03a2 2 0 0 0 1.53-.63l.6-.64a1.67 1.67 0 0 1 2.44 0l.6.64a2 2 0 0 0 1.53.63l.87-.03a1.67 1.67 0 0 1 1.73 1.73l-.03.87a2 2 0 0 0 .63 1.53l.64.6a1.67 1.67 0 0 1 0 2.44l-.64.6a2 2 0 0 0-.63 1.53l.03.87a1.67 1.67 0 0 1-1.73 1.73l-.87-.03a2 2 0 0 0-1.53.63l-.6.64a1.67 1.67 0 0 1-2.44 0l-.6-.64a2 2 0 0 0-1.53-.63"/><path fill="none" stroke="#0f172a" stroke-opacity="0.1" d="m8.76 1.06.1.09.59.64a2.5 2.5 0 0 0 1.92.8l.87-.04c.68-.02 1.23.53 1.2 1.2l-.02.88a2.5 2.5 0 0 0 .8 1.92l.63.6c.5.46.5 1.24 0 1.7l-.64.6a2.5 2.5 0 0 0-.8 1.92l.04.87c.02.68-.53 1.23-1.2 1.2l-.88-.02a2.5 2.5 0 0 0-1.92.8l-.6.63a1.17 1.17 0 0 1-1.7 0l-.6-.64a2.5 2.5 0 0 0-1.92-.8l-.87.04a1.17 1.17 0 0 1-1.2-1.2l.02-.88a2.5 2.5 0 0 0-.8-1.92l-.63-.6a1.17 1.17 0 0 1 0-1.7l.64-.6a2.5 2.5 0 0 0 .8-1.92l-.04-.87a1.17 1.17 0 0 1 1.2-1.2l.88.02a2.5 2.5 0 0 0 1.92-.8l.6-.63a1.17 1.17 0 0 1 1.61-.09Z"/><use fill="#3b82f6" href="#a"/><use fill="#0f172a" fill-opacity="0.1" href="#a"/></svg>