<svg xmlns="http://www.w3.org/2000/svg" viewBox="0 0 16 16"><path fill="#3b82f6" fill-rule="evenodd" d="m13 13-.5 2H7.48a1 1 0 0 1-.78-.37l-2.48-3.1A1 1 0 0 1 4 10.9V4z"/><path fill="none" stroke="#0f172a" stroke-opacity="0.1" d="m12.45 13.15-.34 1.35H7.48a.5.5 0 0 1-.39-.19l-2.48-3.1a.5.5 0 0 1-.11-.31V5.2Z"/><path fill="#3b82f6" fill-opacity=".4" fill-rule="evenodd" d="M4 4h6.9a1 1 0 0 1 .62.22l3.1 2.48a1 1 0 0 1 .38.78v5.02l-2 .5z"/><path fill="none" stroke="#0f172a" stroke-opacity="0.1" d="m11.18 4.58.03.03 3.1 2.48a.5.5 0 0 1 .19.39v4.63l-1.35.34L5.21 4.5h5.69a.5.5 0 0 1 .28.08Z"/><path fill="#3b82f6" fill-opacity=".4" fill-rule="evenodd" d="M4 4 1.36 6.82a1.5 1.5 0 0 0 .16 2.2L4 11z"/><path fill="none" stroke="#0f172a" stroke-opacity="0.1" d="M3.5 9.96 1.83 8.62a1 1 0 0 1-.1-1.46l1.77-1.9Z"/><path fill="#3b82f6" fill-opacity=".8" fill-rule="evenodd" d="M6.82 1.36 4 4h7L9.01 1.52a1.5 1.5 0 0 0-2.2-.16"/><path fill="none" stroke="#0f172a" stroke-opacity="0.1" d="m8.55 1.75.07.08L9.96 3.5h-4.7l1.9-1.78a1 1 0 0 1 1.4.03Z"/></svg>