<svg xmlns="http://www.w3.org/2000/svg" xmlns:xlink="http://www.w3.org/1999/xlink" viewBox="0 0 16 16"><defs><path id="a" d="M12.5 7A2.5 2.5 0 0 1 15 9.5v.59a1.5 1.5 0 0 1 1 1.41v3a1.5 1.5 0 0 1-1.5 1.5h-4A1.5 1.5 0 0 1 9 14.5v-3a1.5 1.5 0 0 1 1-1.41V9.5A2.5 2.5 0 0 1 12.5 7m0 1A1.5 1.5 0 0 0 11 9.5v.5h3v-.5A1.5 1.5 0 0 0 12.5 8"/></defs><use xlink:href="#a" fill="#64748b" fill-rule="evenodd"/><use xlink:href="#a" fill="#0f172a" fill-opacity="0.1" fill-rule="evenodd"/><path fill="#64748b" fill-opacity=".4" fill-rule="evenodd" d="M7 0a7 7 0 0 1 6.76 5.18 4.5 4.5 0 0 0-5.73 3.85A3.5 3.5 0 0 0 7 11.5V14A7 7 0 0 1 7 0"/><path fill="#0f172a" fill-opacity="0.1" fill-rule="evenodd" d="M7 0a7 7 0 0 1 6.76 5.18 5 5 0 0 0-1.1-.18A6 6 0 0 0 1 7a6 6 0 0 0 6 6v1h-.24A7 7 0 0 1 7 0"/><path fill="#64748b" fill-rule="evenodd" d="M10.64 3.88q1 .46 1.31 1.15a4.5 4.5 0 0 0-3.64 2.83l-.54-.08a5 5 0 0 1-.76-.2.1.1 0 0 0-.1.03q-.04.06 0 .1c.1.12.43.36.68.47-.21.18-.36.58-.42.8a3 3 0 0 0-.07.84l.1.52q-.2.54-.2 1.16V14h-.31a7 7 0 0 1-3.67-1.24A7 7 0 0 1 2.25 11c-1-3.25 1.02-7.36 3.16-8.54.79-.44 1.56-.6 2.25-.32 1.06.43 1.67 1.14 2.98 1.74M7 3a1 1 0 1 0 0 2 1 1 0 0 0 0-2"/><path fill="#0f172a" fill-opacity="0.1" fill-rule="evenodd" d="M10.64 3.88q1 .46 1.31 1.15a4 4 0 0 0-1.02.25 2 2 0 0 0-.7-.5A9 9 0 0 1 9 4.1a2 2 0 0 1-4-.06c-1.48 1.53-2.46 4.51-1.8 6.67q.26.82.56 1.33A6 6 0 0 0 7 13v1h-.31a7 7 0 0 1-3.67-1.24A7 7 0 0 1 2.25 11c-1-3.25 1.02-7.36 3.16-8.54.79-.44 1.56-.6 2.25-.32 1.06.43 1.67 1.14 2.98 1.74m-2.7 2.91.14.03.11.02.62.08q-.3.43-.5.94l-.54-.08a5 5 0 0 1-.76-.2.1.1 0 0 0-.1.03q-.04.06 0 .1c.1.12.43.36.68.47-.22.18-.36.58-.42.8a3 3 0 0 0-.07.84l.1.52q-.2.54-.2 1.16v.65c-.5-.59-.8-1.4-.9-2.2-.03-.33 0-.86.1-1.24l.07-.22-.1-.1a1.09 1.09 0 0 1 1.17-1.75q.3.1.6.15M7 3a1 1 0 1 0 0 2 1 1 0 0 0 0-2"/></svg>