<svg xmlns="http://www.w3.org/2000/svg" viewBox="0 0 16 16"><path fill="#f43f5e" fill-rule="evenodd" d="M8 6V1H5.5a2.5 2.5 0 0 0 0 5z"/><path fill="none" stroke="#0f172a" stroke-opacity="0.1" d="M7.5 1.5v4h-2a2 2 0 1 1 0-4Z"/><path fill="#8b5cf6" fill-opacity=".4" fill-rule="evenodd" d="M8 11V6H5.5a2.5 2.5 0 0 0 0 5z"/><path fill="none" stroke="#0f172a" stroke-opacity="0.1" d="M7.5 6.5v4h-2a2 2 0 1 1 0-4Z"/><circle cx="10.5" cy="8.5" r="2.5" fill="#3b82f6" fill-opacity=".4" fill-rule="evenodd"/><circle cx="10.5" cy="8.5" r="2" fill="none" stroke="#0f172a" stroke-opacity="0.1"/><path fill="#f97316" fill-rule="evenodd" d="M8 6V1h2.5a2.5 2.5 0 1 1 0 5z"/><path fill="none" stroke="#0f172a" stroke-opacity="0.1" d="M12.5 3.5a2 2 0 0 1-2 2h-2v-4h2a2 2 0 0 1 2 2Z"/><path fill="#22c55e" fill-rule="evenodd" d="M5.5 16A2.5 2.5 0 0 0 8 13.5V11H5.5a2.5 2.5 0 1 0 0 5"/><path fill="none" stroke="#0f172a" stroke-opacity="0.1" d="M7.5 11.5v2a2 2 0 1 1-2-2Z"/></svg>