<svg xmlns="http://www.w3.org/2000/svg" viewBox="0 0 16 16"><path fill="#64748b" fill-opacity=".4" fill-rule="evenodd" d="M5 1h3.76a3 3 0 0 1 2.12.88l2.24 2.24A3 3 0 0 1 14 6.24V12a3 3 0 0 1-3 3H5a3 3 0 0 1-3-3V4a3 3 0 0 1 3-3"/><path fill="none" stroke="#0f172a" stroke-opacity="0.1" d="m10.34 2.07.19.16 2.24 2.24a2.5 2.5 0 0 1 .73 1.77V12a2.5 2.5 0 0 1-2.5 2.5H5A2.5 2.5 0 0 1 2.5 12V4A2.5 2.5 0 0 1 5 1.5h3.76a2.5 2.5 0 0 1 1.58.57Z"/><path fill="#64748b" fill-rule="evenodd" d="M9 1c.64 0 1.25.25 1.7.7l2.6 2.6c.45.45.7 1.06.7 1.7a1 1 0 0 1-1 1h-3a2 2 0 0 1-2-2V2a1 1 0 0 1 1-1"/></svg>