<svg xmlns="http://www.w3.org/2000/svg" xmlns:xlink="http://www.w3.org/1999/xlink" viewBox="0 0 16 16"><defs><path id="a" d="M11 7a1 1 0 0 1 1 1h1a2 2 0 0 1 2 2v.5l1 1.5-1 1.5v.5a2 2 0 0 1-2 2H9a2 2 0 0 1-2-2v-.5L6 12l1-1.5V10a2 2 0 0 1 2-2h1a1 1 0 0 1 1-1m-2 3a1 1 0 0 0-1 1v2a1 1 0 0 0 2 0v-2a1 1 0 0 0-1-1m4 0a1 1 0 0 0-1 1v2a1 1 0 0 0 2 0v-2a1 1 0 0 0-1-1"/><path id="b" d="M9.5 3H12a3 3 0 0 1 3 3v.54a4 4 0 0 0-.54-.26A3 3 0 0 0 12 5H4a3 3 0 0 0-3 3V4a3 3 0 0 1 3-3h1.5C8 1 8 3 9.5 3"/></defs><use xlink:href="#a" fill="#8b5cf6" fill-rule="evenodd"/><use xlink:href="#a" fill="#0f172a" fill-opacity="0.1" fill-rule="evenodd"/><use xlink:href="#b" fill="#8b5cf6" fill-opacity=".4" fill-rule="evenodd"/><use xlink:href="#b" fill="#0f172a" fill-opacity="0.1" fill-rule="evenodd"/><path fill="#8b5cf6" fill-opacity=".8" fill-rule="evenodd" d="M4 5h7c-.9 0-1.7.39-2.24 1.01A4 4 0 0 0 5 9.9l-.67 1a2 2 0 0 0 0 2.22l.67 1q0 .46.12.9L4 15a3 3 0 0 1-3-3V8a3 3 0 0 1 3-3m8 0a3 3 0 0 1 2.46 1.28A4 4 0 0 0 13.24 6a3 3 0 0 0-2.21-1z"/><path fill="#0f172a" fill-opacity="0.1" fill-rule="evenodd" d="M4 5h7a3 3 0 0 0-2.23 1H4a2 2 0 0 0-2 2v4a2 2 0 0 0 2 2h.93l.08.11q0 .46.12.9L4 15a3 3 0 0 1-3-3V8a3 3 0 0 1 3-3m8 0a3 3 0 0 1 2.46 1.28A4 4 0 0 0 13.24 6a3 3 0 0 0-2.21-1z"/></svg>