<svg xmlns="http://www.w3.org/2000/svg" xmlns:xlink="http://www.w3.org/1999/xlink" viewBox="0 0 16 16"><defs><path id="a" d="M16 13.5v1a1.5 1.5 0 0 1-1.5 1.5h-6A1.5 1.5 0 0 1 7 14.5v-1A1.5 1.5 0 0 0 8.5 15h6a1.5 1.5 0 0 0 1.5-1.5"/><path id="b" d="m14.2 10.3-2-2-.08-.09-.14-.09a1 1 0 0 0-.33-.1L11.62 8h-.12a1 1 0 0 0-.48.13l-.11.07-.12.1.1-.09-.1.08-2 2a1 1 0 0 0 1.42 1.42l.29-.3V14H9a2 2 0 0 1-2-2V9a2 2 0 0 1 2-2h5a2 2 0 0 1 2 2v3a2 2 0 0 1-2 2h-1.5v-2.59l.3.3a1 1 0 0 0 1.31.08l.1-.08a1 1 0 0 0 0-1.42"/><path id="c" d="M9.5 3H12a3 3 0 0 1 2.86 2.1A4 4 0 0 0 14 5H4a3 3 0 0 0-3 3V4a3 3 0 0 1 3-3h1.5C8 1 8 3 9.5 3"/></defs><use xlink:href="#a" fill="#64748b" fill-rule="evenodd"/><use xlink:href="#a" fill="#0f172a" fill-opacity="0.1" fill-rule="evenodd"/><use xlink:href="#b" fill="#3b82f6" fill-rule="evenodd"/><use xlink:href="#b" fill="#0f172a" fill-opacity="0.1" fill-rule="evenodd"/><use xlink:href="#c" fill="#3b82f6" fill-opacity=".4" fill-rule="evenodd"/><use xlink:href="#c" fill="#0f172a" fill-opacity="0.1" fill-rule="evenodd"/><path fill="#3b82f6" fill-opacity=".8" fill-rule="evenodd" d="M4 5h5a4 4 0 0 0-4 4v6H4a3 3 0 0 1-3-3V8a3 3 0 0 1 3-3"/><path fill="#0f172a" fill-opacity="0.1" fill-rule="evenodd" d="M4 5h5c-1.01 0-1.94.38-2.65 1H4a2 2 0 0 0-2 2v4a2 2 0 0 0 2 2h1v1H4a3 3 0 0 1-3-3V8a3 3 0 0 1 3-3"/></svg>