<svg xmlns="http://www.w3.org/2000/svg" xmlns:xlink="http://www.w3.org/1999/xlink" viewBox="0 0 16 16"><defs><linearGradient id="a" x1="50%" x2="50%" y1="0%" y2="20.63%"><stop offset="0%" stop-color="#0f172a" stop-opacity="0.1"/><stop offset="50.37%" stop-color="#0f172a" stop-opacity="0.1"/><stop offset="100%" stop-color="#0f172a" stop-opacity="0.1"/></linearGradient></defs><path fill="#64748b" fill-opacity=".4" fill-rule="evenodd" d="M4 1h1.75C8 1 8 3 9 3h3a3 3 0 0 1 3 3v6a3 3 0 0 1-3 3H4a3 3 0 0 1-3-3V4a3 3 0 0 1 3-3"/><path fill="none" stroke="#0f172a" stroke-opacity="0.1" d="m7.46 2.32.42.54c.34.42.66.64 1.12.64h3A2.5 2.5 0 0 1 14.5 6v6a2.5 2.5 0 0 1-2.5 2.5H4A2.5 2.5 0 0 1 1.5 12V4A2.5 2.5 0 0 1 4 1.5h1.75c.8 0 1.25.26 1.7.82Z"/><path fill="#3b82f6" fill-rule="evenodd" d="M5 4h6a2 2 0 0 1 2 2v5a2 2 0 0 1-2 2H5a2 2 0 0 1-2-2V6a2 2 0 0 1 2-2"/><path fill="none" stroke="#0f172a" stroke-opacity="0.1" d="M12.5 6v5a1.5 1.5 0 0 1-1.5 1.5H5A1.5 1.5 0 0 1 3.5 11V6A1.5 1.5 0 0 1 5 4.5h6A1.5 1.5 0 0 1 12.5 6Z"/><path fill="#64748b" fill-opacity=".6" fill-rule="evenodd" d="M4 5h8a3 3 0 0 1 3 3v4a3 3 0 0 1-3 3H4a3 3 0 0 1-3-3V8a3 3 0 0 1 3-3"/><path fill="none" stroke="url(#a)" d="M14.5 8v4a2.5 2.5 0 0 1-2.5 2.5H4A2.5 2.5 0 0 1 1.5 12V8A2.5 2.5 0 0 1 4 5.5h8A2.5 2.5 0 0 1 14.5 8Z"/></svg>