<svg xmlns="http://www.w3.org/2000/svg" xmlns:xlink="http://www.w3.org/1999/xlink" viewBox="0 0 16 16"><defs><path id="a" d="M7.03 11h2.02q-.05.24-.05.5a2.5 2.5 0 0 0 2 2.45v2.02A4.5 4.5 0 0 1 7.03 11"/><path id="b" d="M11.5 7a4.5 4.5 0 1 1-.5 8.97v-2.02q.24.05.5.05a2.5 2.5 0 1 0-.5-4.95V7.03z"/><path id="d" d="M9.5 3H12a3 3 0 0 1 3 3v.02a7 7 0 0 0-1.97-.84A3 3 0 0 0 12 5H4a3 3 0 0 0-3 3V4a3 3 0 0 1 3-3h1.5C8 1 8 3 9.5 3"/><circle id="c" cx="11.5" cy="11.5" r="1.5"/></defs><use xlink:href="#a" fill="#f43f5e" fill-rule="evenodd"/><use xlink:href="#a" fill="#0f172a" fill-opacity="0.1" fill-rule="evenodd"/><use xlink:href="#b" fill="#3b82f6" fill-rule="evenodd"/><use xlink:href="#b" fill="#0f172a" fill-opacity="0.1" fill-rule="evenodd"/><use xlink:href="#c" fill="#64748b" fill-rule="evenodd"/><use xlink:href="#c" fill="#0f172a" fill-opacity="0.1" fill-rule="evenodd"/><use xlink:href="#d" fill="#3b82f6" fill-opacity=".4" fill-rule="evenodd"/><use xlink:href="#d" fill="#0f172a" fill-opacity="0.1" fill-rule="evenodd"/><path fill="#3b82f6" fill-opacity=".8" fill-rule="evenodd" d="M4 5h7.5a7 7 0 0 0-2.5.5V9H5.5a6.5 6.5 0 0 0 .52 6H4a3 3 0 0 1-3-3V8a3 3 0 0 1 3-3"/><path fill="#0f172a" fill-opacity="0.1" fill-rule="evenodd" d="M4 5h7.5a7 7 0 0 0-2.5.5V6H4a2 2 0 0 0-2 2v4a2 2 0 0 0 2 2h1.5q.22.53.52 1H4a3 3 0 0 1-3-3V8a3 3 0 0 1 3-3"/></svg>