<svg xmlns="http://www.w3.org/2000/svg" xmlns:xlink="http://www.w3.org/1999/xlink" viewBox="0 0 16 16"><defs><path id="a" d="M12 15.36V7.64a.5.5 0 0 1 .62-.48l2.62.65a1 1 0 0 1 .76.97v5.44a1 1 0 0 1-.76.97l-2.62.65a.5.5 0 0 1-.62-.48m-2-.86v-6a.5.5 0 1 1 1 0v6a.5.5 0 1 1-1 0m-2-1v-4a.5.5 0 0 1 1 0v4a.5.5 0 1 1-1 0"/><path id="b" d="M9.5 3H13a2 2 0 0 1 2 2H1V4a3 3 0 0 1 3-3h1.5C8 1 8 3 9.5 3"/></defs><use xlink:href="#a" fill="#84cc16" fill-rule="evenodd"/><use xlink:href="#a" fill="#0f172a" fill-opacity="0.1" fill-rule="evenodd"/><use xlink:href="#b" fill="#84cc16" fill-opacity=".4" fill-rule="evenodd"/><use xlink:href="#b" fill="#0f172a" fill-opacity="0.1" fill-rule="evenodd"/><path fill="#84cc16" fill-opacity=".8" fill-rule="evenodd" d="M10.61 6h-.11c-.82 0-1.54.4-2 1A2.5 2.5 0 0 0 6 9.5v4q.02.86.5 1.5H3.9a3 3 0 0 1-2.92-2.35L.04 8.44 0 8.16v-.32A2 2 0 0 1 2 6z"/><path fill="#0f172a" fill-opacity="0.1" fill-rule="evenodd" d="M10.61 6h-.11c-.82 0-1.54.4-2 1H2a1 1 0 0 0-.98 1.22l.93 4.21A2 2 0 0 0 3.91 14h2.14q.12.56.45 1H3.9a3 3 0 0 1-2.92-2.35L.04 8.44 0 8.16v-.32A2 2 0 0 1 2 6z"/></svg>