<svg xmlns="http://www.w3.org/2000/svg" xmlns:xlink="http://www.w3.org/1999/xlink" viewBox="0 0 16 16"><defs><path id="a" d="M10.25 14.75c-.55.61-2.5 1.5-3 1s.39-2.45 1-3z"/><path id="b" d="M15 7h1v1q0 2.5-2 4l-3 2-2-2 2-3q1.5-2 4-2m-2 2a1 1 0 1 0 0 2 1 1 0 0 0 0-2"/><path id="c" d="M14 12v2l-2 2h-1v-2zM9 9h2l-2 3H7v-1z"/><path id="d" d="M9.5 3H12a3 3 0 0 1 2.83 2H15q-.97 0-1.85.23A3 3 0 0 0 12 5H4a3 3 0 0 0-3 3V4a3 3 0 0 1 3-3h1.5C8 1 8 3 9.5 3"/></defs><use xlink:href="#a" fill="#eab308"/><use xlink:href="#a" fill="#0f172a" fill-opacity="0.1"/><use xlink:href="#b" fill="#f43f5e" fill-rule="evenodd"/><use xlink:href="#b" fill="#0f172a" fill-opacity="0.1" fill-rule="evenodd"/><use xlink:href="#c" fill="#3b82f6" fill-rule="evenodd"/><use xlink:href="#c" fill="#0f172a" fill-opacity="0.1" fill-rule="evenodd"/><use xlink:href="#d" fill="#f43f5e" fill-opacity=".4" fill-rule="evenodd"/><use xlink:href="#d" fill="#0f172a" fill-opacity="0.1" fill-rule="evenodd"/><path fill="#f43f5e" fill-opacity=".8" fill-rule="evenodd" d="M12 5q.61 0 1.15.23A6.6 6.6 0 0 0 10.09 7H9a2 2 0 0 0-1.41.59l-2 2A2 2 0 0 0 5 11v1q.02.81.54 1.37a5 5 0 0 0-.42 1.6V15H4a3 3 0 0 1-3-3V8a3 3 0 0 1 3-3z"/><path fill="#0f172a" fill-opacity="0.1" fill-rule="evenodd" d="M12 5q.61 0 1.15.23a7 7 0 0 0-1.8.77H4a2 2 0 0 0-2 2v4a2 2 0 0 0 2 2h1.31a5 5 0 0 0-.2.98V15H4a3 3 0 0 1-3-3V8a3 3 0 0 1 3-3z"/></svg>