<svg xmlns="http://www.w3.org/2000/svg" xmlns:xlink="http://www.w3.org/1999/xlink" viewBox="0 0 16 16"><defs><path id="a" d="M13.5 12h1a.5.5 0 0 1 .5.5.5.5 0 0 0 .5.5.5.5 0 0 1 .5.5v1a.5.5 0 0 1-.5.5.5.5 0 0 0-.5.5.5.5 0 0 1-.5.5h-1a.5.5 0 0 1-.5-.5.5.5 0 0 0-.5-.5.5.5 0 0 1-.5-.5v-1a.5.5 0 0 1 .5-.5.5.5 0 0 0 .5-.5.5.5 0 0 1 .5-.5"/><path id="b" d="M8.5 12h1a1.5 1.5 0 0 1 1.5 1.5v1A1.5 1.5 0 0 1 9.5 16h-1A1.5 1.5 0 0 1 7 14.5v-1A1.5 1.5 0 0 1 8.5 12"/><path id="c" d="M8.5 7h1A1.5 1.5 0 0 1 11 8.5v1A1.5 1.5 0 0 1 9.5 11h-1A1.5 1.5 0 0 1 7 9.5v-1A1.5 1.5 0 0 1 8.5 7"/><path id="d" d="M13.5 7h1A1.5 1.5 0 0 1 16 8.5v1a1.5 1.5 0 0 1-1.5 1.5h-1A1.5 1.5 0 0 1 12 9.5v-1A1.5 1.5 0 0 1 13.5 7"/><path id="e" d="M9.5 3H13a2 2 0 0 1 2 2H1V4a3 3 0 0 1 3-3h1.5C8 1 8 3 9.5 3"/></defs><use xlink:href="#a" fill="#22c55e" fill-rule="evenodd"/><use xlink:href="#a" fill="#0f172a" fill-opacity="0.1" fill-rule="evenodd"/><use xlink:href="#b" fill="#eab308" fill-rule="evenodd"/><use xlink:href="#b" fill="#0f172a" fill-opacity="0.1" fill-rule="evenodd"/><use xlink:href="#c" fill="#f43f5e" fill-rule="evenodd"/><use xlink:href="#c" fill="#0f172a" fill-opacity="0.1" fill-rule="evenodd"/><use xlink:href="#d" fill="#3b82f6" fill-rule="evenodd"/><use xlink:href="#d" fill="#0f172a" fill-opacity="0.1" fill-rule="evenodd"/><use xlink:href="#e" fill="#3b82f6" fill-opacity=".4" fill-rule="evenodd"/><use xlink:href="#e" fill="#0f172a" fill-opacity="0.1" fill-rule="evenodd"/><path fill="#3b82f6" fill-opacity=".8" fill-rule="evenodd" d="M5 8.5v1q.02 1.13.63 2a3.5 3.5 0 0 0-.63 2v1q0 .26.04.5H3.9a3 3 0 0 1-2.93-2.35L.04 8.44 0 8.16v-.32A2 2 0 0 1 2 6h4.05A3.5 3.5 0 0 0 5 8.5"/><path fill="#0f172a" fill-opacity="0.1" fill-rule="evenodd" d="M5.45 6.78 5.34 7H1.99a1 1 0 0 0-.97 1.22l.93 4.21A2 2 0 0 0 3.91 14H5v.5q0 .26.04.5H3.9a3 3 0 0 1-2.93-2.35L.04 8.44 0 8.16v-.32A2 2 0 0 1 2 6h4.05q-.35.35-.6.78"/></svg>