<svg xmlns="http://www.w3.org/2000/svg" xmlns:xlink="http://www.w3.org/1999/xlink" viewBox="0 0 16 16"><defs><path id="a" d="M16.04 9.16v.38A2.5 2.5 0 0 0 12 11.5v.16c.05.71.39 1.34.9 1.76l.1.08-.1.08a2.5 2.5 0 0 0-.9 1.92v.5q-4.27-.71-4.04-6.83a1 1 0 0 1 .65-.9l3.04-1.14a1 1 0 0 1 .7 0l3.04 1.14a1 1 0 0 1 .65.9M14.5 14a1.5 1.5 0 0 1 1.5 1.5v.5h-3v-.5a1.5 1.5 0 0 1 1.5-1.5m0-4a1.5 1.5 0 1 1 0 3 1.5 1.5 0 0 1 0-3"/><path id="b" d="M9.5 3H13a2 2 0 0 1 2 2H1V4a3 3 0 0 1 3-3h1.5C8 1 8 3 9.5 3"/></defs><use xlink:href="#a" fill="#3b82f6" fill-rule="evenodd"/><use xlink:href="#a" fill="#0f172a" fill-opacity="0.1" fill-rule="evenodd"/><use xlink:href="#b" fill="#3b82f6" fill-opacity=".4" fill-rule="evenodd"/><use xlink:href="#b" fill="#0f172a" fill-opacity="0.1" fill-rule="evenodd"/><path fill="#3b82f6" fill-opacity=".8" fill-rule="evenodd" d="m8.97 6-1.06.4a3 3 0 0 0-1.95 2.69q-.15 3.6 1.17 5.86l.03.05H3.91a3 3 0 0 1-2.93-2.35L.04 8.44 0 8.16v-.32A2 2 0 0 1 2 6z"/><path fill="#0f172a" fill-opacity="0.1" fill-rule="evenodd" d="m8.97 6-1.06.4a3 3 0 0 0-.98.6H2a1 1 0 0 0-.97 1.22l.93 4.21A2 2 0 0 0 3.91 14h2.75q.2.5.47.95l.03.05H3.91a3 3 0 0 1-2.93-2.35L.04 8.44 0 8.16v-.32A2 2 0 0 1 2 6z"/></svg>