<svg xmlns="http://www.w3.org/2000/svg" xmlns:xlink="http://www.w3.org/1999/xlink" viewBox="0 0 16 16"><defs><path id="a" d="m10.76 8.31-3.08 3.4A.77.77 0 0 0 8.25 13H9.5a.5.5 0 0 1 .5.5V15a1 1 0 0 0 1 1h1a1 1 0 0 0 1-1v-1.5a.5.5 0 0 1 .5-.5h1.25a.77.77 0 0 0 .57-1.3l-3.08-3.39a1 1 0 0 0-1.48 0"/><path id="b" d="M9.5 3H12a3 3 0 0 1 3 3v2a3 3 0 0 0-3-3H4a3 3 0 0 0-3 3V4a3 3 0 0 1 3-3h1.5C8 1 8 3 9.5 3"/></defs><use xlink:href="#a" fill="#3b82f6" fill-rule="evenodd"/><use xlink:href="#a" fill="#0f172a" fill-opacity="0.1" fill-rule="evenodd"/><use xlink:href="#b" fill="#3b82f6" fill-opacity=".4" fill-rule="evenodd"/><use xlink:href="#b" fill="#0f172a" fill-opacity="0.1" fill-rule="evenodd"/><path fill="#3b82f6" fill-opacity=".8" fill-rule="evenodd" d="M8 14.98V15H4a3 3 0 0 1-3-3V8a3 3 0 0 1 3-3h8a3 3 0 0 1 3 3v.38l-1.28-1.41a3 3 0 0 0-4.06-.36l-.15.13-.23.23-3.08 3.39A2.77 2.77 0 0 0 8 14.98"/><path fill="#0f172a" fill-opacity="0.1" fill-rule="evenodd" d="M15 8v.38l-1.3-1.43A2 2 0 0 0 12 6h-.22a3 3 0 0 0-.57 0H4a2 2 0 0 0-2 2v4a2 2 0 0 0 2 2h2.12a2.7 2.7 0 0 0 1.88.98V15H4a3 3 0 0 1-3-3V8a3 3 0 0 1 3-3h8a3 3 0 0 1 3 3"/></svg>