<svg xmlns="http://www.w3.org/2000/svg" xmlns:xlink="http://www.w3.org/1999/xlink" viewBox="0 0 16 16"><defs><path id="b" d="M9.5 3H13a2 2 0 0 1 2 2H1V4a3 3 0 0 1 3-3h1.5C8 1 8 3 9.5 3"/><path id="a" d="M12.57 8.2q.19 1.04-.12 2.14l-.05.17.52.8q.94-.14 1.6-.03.66.1 1.07.5c.38.37.5.9.35 1.41-.13.48-.48.78-.92.93a3.2 3.2 0 0 1-2.87-.63q-.58.15-1.14.34a6 6 0 0 1-1.74 1.9c-.64.45-1.67.35-2.1-.4a1.4 1.4 0 0 1 0-1.36q.22-.42.57-.7a8 8 0 0 1 1.86-1.04q.15-.3.28-.63l.06-.16.28-.72a5 5 0 0 1-.54-1.55q-.09-.55.03-1.03c.16-.63.65-1.09 1.36-1.14.66-.05 1.37.53 1.5 1.2"/></defs><use fill="#f43f5e" href="#a"/><use fill="#0f172a" fill-opacity="0.1" href="#a"/><use xlink:href="#b" fill="#f43f5e" fill-opacity=".4" fill-rule="evenodd"/><use xlink:href="#b" fill="#0f172a" fill-opacity="0.1" fill-rule="evenodd"/><path fill="#f43f5e" fill-opacity=".8" fill-rule="evenodd" d="M7.77 7.65c-.15.6-.16 1.15-.07 1.8q.1.64.34 1.3a9 9 0 0 0-1.55.96 4 4 0 0 0-1.1 1.37A3.5 3.5 0 0 0 5 15H3.9a3 3 0 0 1-2.93-2.35L.04 8.44 0 8.16v-.32A2 2 0 0 1 2 6h6.7a3.6 3.6 0 0 0-.93 1.65M14.01 6a2 2 0 0 1 2 1.84l-.01.32-.04.27-.25 1.1a5 5 0 0 0-1.08-.26q.03-.71-.1-1.43a3.5 3.5 0 0 0-1-1.84z"/><path fill="#0f172a" fill-opacity="0.1" fill-rule="evenodd" d="M8.12 6.78 8 7H2a1 1 0 0 0-.98 1.22l.93 4.21A2 2 0 0 0 3.91 14h1.15q-.1.5-.05 1h-1.1a3 3 0 0 1-2.93-2.35L.04 8.44 0 8.16v-.32A2 2 0 0 1 2 6h6.7q-.34.35-.58.78M14 6a2 2 0 0 1 2 1.84l-.01.32-.04.27-.25 1.1a5 5 0 0 0-.86-.23l-.1-.01.23-1.07.02-.12a1 1 0 0 0-.73-1.06A4 4 0 0 0 13.53 6z"/></svg>