<svg xmlns="http://www.w3.org/2000/svg" xmlns:xlink="http://www.w3.org/1999/xlink" viewBox="0 0 16 16"><defs><path id="a" d="m12.53 7.12-3.18 5.5-.37.66.64.37 3.53 2.04a4.5 4.5 0 1 1-.62-8.57m2.05 7.66-3.55-2.05 2.9-5.02A4.5 4.5 0 0 1 16 11.5a4.5 4.5 0 0 1-1.42 3.28m.46-4.52a.75.75 0 1 0-1.42.5 2.3 2.3 0 0 1 0 1.5.75.75 0 0 0 1.41.5 3.8 3.8 0 0 0 0-2.5"/><path id="b" d="M9.5 3H12a3 3 0 0 1 3 3v.02a7 7 0 0 0-1.97-.84A3 3 0 0 0 12 5H4a3 3 0 0 0-3 3V4a3 3 0 0 1 3-3h1.5C8 1 8 3 9.5 3"/></defs><use xlink:href="#a" fill="#f97316" fill-rule="evenodd"/><use xlink:href="#a" fill="#0f172a" fill-opacity="0.1" fill-rule="evenodd"/><use xlink:href="#b" fill="#f97316" fill-opacity=".4" fill-rule="evenodd"/><use xlink:href="#b" fill="#0f172a" fill-opacity="0.1" fill-rule="evenodd"/><path fill="#f97316" fill-opacity=".8" fill-rule="evenodd" d="M12 5a3 3 0 0 1 1.03.18 6.5 6.5 0 0 0-7 9.82H4a3 3 0 0 1-3-3V8a3 3 0 0 1 3-3z"/><path fill="#0f172a" fill-opacity="0.1" fill-rule="evenodd" d="M12 5a3 3 0 0 1 1.03.18A7 7 0 0 0 11.5 5a6.5 6.5 0 0 0-3.46 1H4a2 2 0 0 0-2 2v4a2 2 0 0 0 2 2h1.5q.22.53.52 1H4a3 3 0 0 1-3-3V8a3 3 0 0 1 3-3z"/></svg>