<svg xmlns="http://www.w3.org/2000/svg" xmlns:xlink="http://www.w3.org/1999/xlink" viewBox="0 0 16 16"><defs><path id="a" d="M14.5 7a1.5 1.5 0 1 1-1 2.62L10.94 11a2 2 0 0 1 0 .98l2.56 1.4a1.5 1.5 0 1 1-.48.87l-2.56-1.4a2 2 0 1 1 0-2.73l2.56-1.4A1.5 1.5 0 0 1 14.5 7"/><path id="b" d="M9.5 3H13a2 2 0 0 1 2 2H1V4a3 3 0 0 1 3-3h1.5C8 1 8 3 9.5 3"/></defs><use xlink:href="#a" fill="#3b82f6" fill-rule="evenodd"/><use xlink:href="#a" fill="#0f172a" fill-opacity="0.1" fill-rule="evenodd"/><use xlink:href="#b" fill="#3b82f6" fill-opacity=".4" fill-rule="evenodd"/><use xlink:href="#b" fill="#0f172a" fill-opacity="0.1" fill-rule="evenodd"/><path fill="#3b82f6" fill-opacity=".8" fill-rule="evenodd" d="m11.15 7.48-.6.33a4 4 0 0 0-3.48 7.2L3.9 15a3 3 0 0 1-2.93-2.35L.04 8.44 0 8.16v-.32A2 2 0 0 1 2 6h10.05q-.63.61-.9 1.48"/><path fill="#0f172a" fill-opacity="0.1" fill-rule="evenodd" d="m11.45 6.78-.11.22H1.99a1 1 0 0 0-.97 1.22l.93 4.21A2 2 0 0 0 3.91 14h1.97q.49.61 1.19 1H3.9a3 3 0 0 1-2.93-2.35L.04 8.44 0 8.16v-.32A2 2 0 0 1 2 6h10.05a4 4 0 0 0-.6.78"/></svg>