<svg xmlns="http://www.w3.org/2000/svg" xmlns:xlink="http://www.w3.org/1999/xlink" viewBox="0 0 16 16"><defs><path id="a" d="m9.69 14 1 2H8.5A1.5 1.5 0 0 1 7 14.5V14zm2.5 2h-.38l-1.36-2.72a.5.5 0 0 0-.27-.24L10.1 13H10v-2a.5.5 0 0 0 .33-.13l.09-.1.03-.05L11.8 8h2.69A1.5 1.5 0 0 1 16 9.5v.5h-2.5a.5.5 0 0 0-.5.41v3.09a.5.5 0 0 0 .23.42zM16 14v.5a1.5 1.5 0 0 1-1.5 1.5h-1.2l1-2zm-2-3h2v2h-2zm-5 0v2H7v-2zm1.69-3-1 2H7v-.5A1.5 1.5 0 0 1 8.5 8z"/><path id="b" d="M9.5 3H12a3 3 0 0 1 3 3v.04L14.5 6h-.26A3 3 0 0 0 12 5H4a3 3 0 0 0-3 3V4a3 3 0 0 1 3-3h1.5C8 1 8 3 9.5 3"/></defs><use xlink:href="#a" fill="#f43f5e" fill-rule="evenodd"/><use xlink:href="#a" fill="#0f172a" fill-opacity="0.1" fill-rule="evenodd"/><use xlink:href="#b" fill="#f43f5e" fill-opacity=".4" fill-rule="evenodd"/><use xlink:href="#b" fill="#0f172a" fill-opacity="0.1" fill-rule="evenodd"/><path fill="#f43f5e" fill-opacity=".8" fill-rule="evenodd" d="M12 5c.89 0 1.69.39 2.24 1H8.5A3.5 3.5 0 0 0 5 9.5v5q0 .26.04.5H4a3 3 0 0 1-3-3V8a3 3 0 0 1 3-3z"/><path fill="#0f172a" fill-opacity="0.1" fill-rule="evenodd" d="M14.24 6H4a2 2 0 0 0-2 2v4a2 2 0 0 0 2 2h1v.5q0 .26.04.5H4a3 3 0 0 1-3-3V8a3 3 0 0 1 3-3h8c.89 0 1.69.39 2.24 1"/></svg>