<svg xmlns="http://www.w3.org/2000/svg" xmlns:xlink="http://www.w3.org/1999/xlink" viewBox="0 0 16 16"><defs><path id="a" d="M14 8a2 2 0 0 1 2 2v4a2 2 0 0 1-2 2h-4a2 2 0 0 1-2-2v-4a2 2 0 0 1 2-2zm-4 6h3.12l.05-.01.05-.01h.01l.07-.02.02-.01h.02l.06-.03.03-.02h.02l.15-.1.1-.1.03-.02.02-.02.02-.02.02-.02.02-.03.1-.16v-.03l.03-.06v-.02l.02-.03.01-.05v-.02l.02-.07L14 13v.07V10a1 1 0 0 0-2 0v.58l-1.34-1.33a1 1 0 0 0-1.41 1.41L10.59 12H10a1 1 0 0 0 0 2"/><path id="b" d="M9.5 3H13a2 2 0 0 1 2 2H1V4a3 3 0 0 1 3-3h1.5C8 1 8 3 9.5 3"/></defs><use xlink:href="#a" fill="#84cc16" fill-rule="evenodd"/><use xlink:href="#a" fill="#0f172a" fill-opacity="0.1" fill-rule="evenodd"/><use xlink:href="#b" fill="#84cc16" fill-opacity=".4" fill-rule="evenodd"/><use xlink:href="#b" fill="#0f172a" fill-opacity="0.1" fill-rule="evenodd"/><path fill="#84cc16" fill-opacity=".8" fill-rule="evenodd" d="M2 6h8a4 4 0 0 0-4 4v4q0 .52.13 1H3.9a3 3 0 0 1-2.93-2.35L.04 8.44 0 8.16v-.32A2 2 0 0 1 2 6"/><path fill="#0f172a" fill-opacity="0.1" fill-rule="evenodd" d="M2 6h8c-1.01 0-1.94.38-2.65 1H2a1 1 0 0 0-.97 1.22l.93 4.21A2 2 0 0 0 3.91 14H6q0 .52.13 1H3.9a3 3 0 0 1-2.93-2.35L.04 8.44 0 8.16v-.32A2 2 0 0 1 2 6"/></svg>