<svg xmlns="http://www.w3.org/2000/svg" xmlns:xlink="http://www.w3.org/1999/xlink" viewBox="0 0 16 16"><defs><path id="a" d="M15.44 9.14a.75.75 0 0 1 .17 1.05l-.86 1.2A4.5 4.5 0 0 1 16 14.5V16H7v-1.5c0-1.2.48-2.3 1.25-3.11l-.86-1.2a.75.75 0 1 1 1.22-.88l.84 1.18A4.5 4.5 0 0 1 11.5 10a4.5 4.5 0 0 1 2.05.5l.84-1.19a.75.75 0 0 1 1.05-.17M10 12a1 1 0 1 0 0 2 1 1 0 0 0 0-2m3 0a1 1 0 1 0 0 2 1 1 0 0 0 0-2"/><path id="b" d="M9.5 3H12a3 3 0 0 1 3 3v1h-.17A3 3 0 0 0 12 5H4a3 3 0 0 0-3 3V4a3 3 0 0 1 3-3h1.5C8 1 8 3 9.5 3"/></defs><use xlink:href="#a" fill="#22c55e" fill-rule="evenodd"/><use xlink:href="#a" fill="#0f172a" fill-opacity="0.1" fill-rule="evenodd"/><use xlink:href="#b" fill="#22c55e" fill-opacity=".4" fill-rule="evenodd"/><use xlink:href="#b" fill="#0f172a" fill-opacity="0.1" fill-rule="evenodd"/><path fill="#22c55e" fill-opacity=".8" fill-rule="evenodd" d="M12 5a3 3 0 0 1 2.83 2c-.79.05-1.55.44-2.05 1.13A6 6 0 0 0 11.5 8q-.65 0-1.28.13a2.75 2.75 0 0 0-4.56 3.07l.14.2c-.52.93-.8 2-.8 3.1v.5H4a3 3 0 0 1-3-3V8a3 3 0 0 1 3-3z"/><path fill="#0f172a" fill-opacity="0.1" fill-rule="evenodd" d="M12 5a3 3 0 0 1 2.83 2q-.51.04-.98.25A2 2 0 0 0 12 6H4a2 2 0 0 0-2 2v4a2 2 0 0 0 2 2h1.02l-.02.5v.5H4a3 3 0 0 1-3-3V8a3 3 0 0 1 3-3z"/></svg>