<svg xmlns="http://www.w3.org/2000/svg" xmlns:xlink="http://www.w3.org/1999/xlink" viewBox="0 0 16 16"><defs><path id="a" d="m12.38 7.43 3.19 3.19a1.25 1.25 0 0 1 0 1.76l-3.19 3.19a1.25 1.25 0 0 1-1.76 0l-3.19-3.19a1.25 1.25 0 0 1 0-1.76l3.19-3.19a1.25 1.25 0 0 1 1.76 0M10 9v5h1v-1.27a2 2 0 1 0 0-3.46V9zm2 1a1 1 0 1 1 0 2 1 1 0 0 1 0-2"/><path id="b" d="M9.5 3H12a3 3 0 0 1 3 3v1.22l-.14-.15a3 3 0 0 0-1.97-1.94A2.25 2.25 0 0 0 10.3 5H4a3 3 0 0 0-3 3V4a3 3 0 0 1 3-3h1.5C8 1 8 3 9.5 3"/></defs><use xlink:href="#a" fill="#eab308" fill-rule="evenodd"/><use xlink:href="#a" fill="#0f172a" fill-opacity="0.1" fill-rule="evenodd"/><use xlink:href="#b" fill="#eab308" fill-opacity=".4" fill-rule="evenodd"/><use xlink:href="#b" fill="#0f172a" fill-opacity="0.1" fill-rule="evenodd"/><path fill="#eab308" fill-opacity=".8" fill-rule="evenodd" d="m10.04 5.2-.13.11-4.6 4.6a2.25 2.25 0 0 0 0 3.18L7.22 15H4a3 3 0 0 1-3-3V8a3 3 0 0 1 3-3h6.3zm2.85-.07.12.04a3 3 0 0 1 1.85 1.9l-1.77-1.76z"/><path fill="#0f172a" fill-opacity="0.1" fill-rule="evenodd" d="m10.04 5.2-.13.11-.69.69H4a2 2 0 0 0-2 2v4a2 2 0 0 0 2 2h2.22l1 1H4a3 3 0 0 1-3-3V8a3 3 0 0 1 3-3h6.3zm2.85-.07.12.04a3 3 0 0 1 1.85 1.9l-1.77-1.76z"/></svg>