<svg xmlns="http://www.w3.org/2000/svg" xmlns:xlink="http://www.w3.org/1999/xlink" viewBox="0 0 16 16"><defs><path id="a" d="m14 14-1.5 2h-3l1.5-2zm-.5-6L12 10H9l1.5-2zm1 5 1.5-2H8.5L7 13z"/><path id="b" d="M9.5 3H13a2 2 0 0 1 2 2H1V4a3 3 0 0 1 3-3h1.5C8 1 8 3 9.5 3"/></defs><use xlink:href="#a" fill="#3b82f6" fill-rule="evenodd"/><use xlink:href="#a" fill="#0f172a" fill-opacity="0.1" fill-rule="evenodd"/><use xlink:href="#b" fill="#3b82f6" fill-opacity=".4" fill-rule="evenodd"/><use xlink:href="#b" fill="#0f172a" fill-opacity="0.1" fill-rule="evenodd"/><path fill="#3b82f6" fill-opacity=".8" fill-rule="evenodd" d="M7 15h.77-3.86a3 3 0 0 1-2.93-2.35L.04 8.44 0 8.16v-.32A2 2 0 0 1 2 6h8.5a2 2 0 0 0-1.6.8l-1.5 2q-.3.4-.37.84l-.13.16-1.5 2A2 2 0 0 0 7 15m7-9a2 2 0 0 1 2 1.83v.33q-.01.14-.04.27l-.13.57h-.6a2 2 0 0 0-1.7-3z"/><path fill="#0f172a" fill-opacity="0.1" fill-rule="evenodd" d="M7 15h.77-3.86a3 3 0 0 1-2.93-2.35L.04 8.44 0 8.16v-.32A2 2 0 0 1 2 6h8.5a2 2 0 0 0-1.6.8l-.15.2H1.99a1 1 0 0 0-.97 1.22l.93 4.21A2 2 0 0 0 3.91 14h1.36c.33.58.95 1 1.73 1m7-9a2 2 0 0 1 2 1.83v.33q-.01.14-.04.27l-.13.57h-.6a2 2 0 0 0-1.7-3z"/></svg>