<svg xmlns="http://www.w3.org/2000/svg" xmlns:xlink="http://www.w3.org/1999/xlink" viewBox="0 0 16 16"><defs><path id="a" d="M7 15s1.52-.8 3.04-.8l1.15-3.85q.08-.3.31-.31c.23-.01.27.12.31.3l1.15 3.86c1.8 0 3.04.8 3.04.8l-2.52-7.16A1.25 1.25 0 0 0 12.3 7h-1.6a1.25 1.25 0 0 0-1.18.84z"/><path id="b" d="M9.5 3H13a2 2 0 0 1 2 2H1V4a3 3 0 0 1 3-3h1.5C8 1 8 3 9.5 3"/></defs><use xlink:href="#a" fill="#8b5cf6" fill-rule="evenodd"/><use xlink:href="#a" fill="#0f172a" fill-opacity="0.1" fill-rule="evenodd"/><path fill="#f43f5e" fill-rule="evenodd" d="M10.93 14h1.14a.5.5 0 0 1 .41.78l-.56.85a.5.5 0 0 1-.84 0l-.56-.85a.5.5 0 0 1 .41-.78"/><use xlink:href="#b" fill="#8b5cf6" fill-opacity=".4" fill-rule="evenodd"/><use xlink:href="#b" fill="#0f172a" fill-opacity="0.1" fill-rule="evenodd"/><path fill="#8b5cf6" fill-opacity=".8" fill-rule="evenodd" d="M7.63 7.17 5.06 14.5a2 2 0 0 0-.11.5H3.9a3 3 0 0 1-2.93-2.35L.04 8.44 0 8.16v-.32A2 2 0 0 1 2 6h6.35a3 3 0 0 0-.72 1.17m7.16-1.01.04.02A2 2 0 0 1 16 7.84v.33l-.04.27-.06.25-.53-1.52a3 3 0 0 0-.58-1.01"/><path fill="#0f172a" fill-opacity="0.1" fill-rule="evenodd" d="M7.8 6.78 7.7 7H2a1 1 0 0 0-.98 1.22l.93 4.21A2 2 0 0 0 3.91 14h1.32l-.17.5a2 2 0 0 0-.11.5H3.9a3 3 0 0 1-2.93-2.35L.04 8.44 0 8.16v-.32A2 2 0 0 1 2 6h6.35q-.33.34-.55.78m6.99-.62.04.02A2 2 0 0 1 16 7.83v.33q-.01.14-.04.27l-.06.26-.53-1.52a3 3 0 0 0-.58-1.01"/></svg>