<svg xmlns="http://www.w3.org/2000/svg" xmlns:xlink="http://www.w3.org/1999/xlink" viewBox="0 0 16 16"><defs><path id="a" d="M15.87 11q.13.48.13 1a4 4 0 0 1-3.5 3.97V12.5a.5.5 0 1 0-1 0v3.47A4 4 0 0 1 8.13 11zM9.85 7.15l1.02 1.01a4 4 0 0 1 2.26 0l1.02-1.01a.5.5 0 0 1 .7.7l-.74.75a4 4 0 0 1 1.36 1.4H8.54a4 4 0 0 1 1.35-1.4l-.74-.75a.5.5 0 1 1 .7-.7"/><path id="b" d="M9.5 3H12a3 3 0 0 1 2.84 2.02 2.5 2.5 0 0 0-1.53.28Q12.71 5 12 5H4a3 3 0 0 0-3 3V4a3 3 0 0 1 3-3h1.5C8 1 8 3 9.5 3"/></defs><use xlink:href="#a" fill="#f43f5e" fill-rule="evenodd"/><use xlink:href="#a" fill="#0f172a" fill-opacity="0.1" fill-rule="evenodd"/><use xlink:href="#b" fill="#f43f5e" fill-opacity=".4" fill-rule="evenodd"/><use xlink:href="#b" fill="#0f172a" fill-opacity="0.1" fill-rule="evenodd"/><path fill="#f43f5e" fill-opacity=".8" fill-rule="evenodd" d="M12 5q.71 0 1.31.3a3 3 0 0 0-.58.43l-.28.29a6 6 0 0 0-.9 0l-.28-.29a2.5 2.5 0 0 0-4.1 2.7L6.8 9q-.21.38-.25.78-.26.3-.36.72A6 6 0 0 0 6.8 15H4a3 3 0 0 1-3-3V8a3 3 0 0 1 3-3z"/><path fill="#0f172a" fill-opacity="0.1" fill-rule="evenodd" d="M12 6h-.46l-.27-.27A2.5 2.5 0 0 0 7.5 6H4a2 2 0 0 0-2 2v4a2 2 0 0 0 2 2h2.34q.19.53.46 1H4a3 3 0 0 1-3-3V8a3 3 0 0 1 3-3h8q.71 0 1.31.3a3 3 0 0 0-.58.43l-.28.29z"/></svg>