<svg xmlns="http://www.w3.org/2000/svg" xmlns:xlink="http://www.w3.org/1999/xlink" viewBox="0 0 16 16"><defs><path id="a" d="M12 15.36V7.64a.5.5 0 0 1 .62-.48l2.62.65a1 1 0 0 1 .76.97v5.44a1 1 0 0 1-.76.97l-2.62.65a.5.5 0 0 1-.62-.48m-2-.86v-6a.5.5 0 1 1 1 0v6a.5.5 0 1 1-1 0m-2-1v-4a.5.5 0 0 1 1 0v4a.5.5 0 1 1-1 0"/><path id="b" d="M9.5 3H12a3 3 0 0 1 2.98 2.68l-1.85-.46A3 3 0 0 0 12 5H4a3 3 0 0 0-3 3V4a3 3 0 0 1 3-3h1.5C8 1 8 3 9.5 3"/></defs><use xlink:href="#a" fill="#84cc16" fill-rule="evenodd"/><use xlink:href="#a" fill="#0f172a" fill-opacity="0.1" fill-rule="evenodd"/><use xlink:href="#b" fill="#84cc16" fill-opacity=".4" fill-rule="evenodd"/><use xlink:href="#b" fill="#0f172a" fill-opacity="0.1" fill-rule="evenodd"/><path fill="#84cc16" fill-opacity=".8" fill-rule="evenodd" d="M13.13 5.22h-.02a2.5 2.5 0 0 0-2.5.79L10.5 6c-.82 0-1.54.4-2 1A2.5 2.5 0 0 0 6 9.5v4q.02.86.5 1.5H4a3 3 0 0 1-3-3V8a3 3 0 0 1 3-3h8a3 3 0 0 1 1.13.22"/><path fill="#0f172a" fill-opacity="0.1" fill-rule="evenodd" d="M13.13 5.22h-.02a2.5 2.5 0 0 0-2.5.78H4a2 2 0 0 0-2 2v4a2 2 0 0 0 2 2h2.05q.12.56.45 1H4a3 3 0 0 1-3-3V8a3 3 0 0 1 3-3h8a3 3 0 0 1 1.13.22"/></svg>