<svg xmlns="http://www.w3.org/2000/svg" xmlns:xlink="http://www.w3.org/1999/xlink" viewBox="0 0 16 16"><defs><path id="a" d="M11.8 7.09c.08.05.18.1.47.66a1 1 0 0 1 .33-.01.4.4 0 0 1 .29.21 3.4 3.4 0 0 1-.49 3.53 2.8 2.8 0 0 1 .85 2.19l.36-.2c.37-.2.91-.52 1.56-.52.43 0 .77.25.82.63a.7.7 0 0 1-.57.77c-.4.1-.58.16-1.11.48a8 8 0 0 1-1.84.8 1 1 0 0 1-.42.19c-.45.1-2 .18-2.12.18h-.02c-.48 0-.74-.14-.89-.28-.4.19-.92.1-1.3-.08a.6.6 0 0 1-.34-.65l-.1-.11a1.7 1.7 0 0 1-.27-1.11c.03-.42.34-.78.53-.98q-.02-.67.25-1.29a3 3 0 0 1 .8-.99c-.19-.3-.39-.78-.2-1.26.14-.34.26-.53.5-.61a1 1 0 0 0 .3-.15c.36-.37.86-.6 1.4-.63l.07-.16q.3-.55.63-.67a.6.6 0 0 1 .52.06"/><path id="b" d="M9.5 3H12a3 3 0 0 1 3 3v1.94-.01V8a3 3 0 0 0-3-3H4a3 3 0 0 0-3 3V4a3 3 0 0 1 3-3h1.5C8 1 8 3 9.5 3"/></defs><use xlink:href="#a" fill="#8b5cf6"/><use xlink:href="#a" fill="#0f172a" fill-opacity="0.1"/><use xlink:href="#b" fill="#8b5cf6" fill-opacity=".4" fill-rule="evenodd"/><use xlink:href="#b" fill="#0f172a" fill-opacity="0.1" fill-rule="evenodd"/><path fill="#8b5cf6" fill-opacity=".8" fill-rule="evenodd" d="m6.08 10.46-.12.24a5 5 0 0 0-.37 1.32A3 3 0 0 0 5 13.6q-.05.77.14 1.4H4a3 3 0 0 1-3-3V8a3 3 0 0 1 3-3h7.46q-.42 0-.82.14a3 3 0 0 0-1.33.96q-.7.24-1.26.72A2.6 2.6 0 0 0 7 7.64a4 4 0 0 0-.47.87 3 3 0 0 0-.2 1.52zm7.09-4.85-.1-.08-.1-.07-.1-.07h-.02l-.01-.01q-.62-.36-1.32-.38H12a3 3 0 0 1 3 2.93 4 4 0 0 0-.37-.95 2.4 2.4 0 0 0-1.15-1.05z"/><path fill="#0f172a" fill-opacity="0.1" fill-rule="evenodd" d="M4 5h7.46A2.7 2.7 0 0 0 9.4 6H4a2 2 0 0 0-2 2v4a2 2 0 0 0 2 2h1q0 .54.15 1H4a3 3 0 0 1-3-3V8a3 3 0 0 1 3-3m9.17.61-.1-.08-.1-.07-.1-.07h-.02l-.01-.01q-.62-.36-1.32-.38H12a3 3 0 0 1 3 2.93 4 4 0 0 0-.37-.95 2.4 2.4 0 0 0-1.15-1.05z"/></svg>