<svg xmlns="http://www.w3.org/2000/svg" xmlns:xlink="http://www.w3.org/1999/xlink" viewBox="0 0 16 16"><defs><path id="a" d="M9 8h3a1 1 0 0 1 0 2H9a1 1 0 1 1 0-2m6 0a1 1 0 1 1 0 2 1 1 0 0 1 0-2m0 3h-3a1 1 0 0 0 0 2h3a1 1 0 0 0 0-2m-6 0a1 1 0 1 0 0 2 1 1 0 0 0 0-2m0 3h3a1 1 0 0 1 0 2H9a1 1 0 0 1 0-2m6 0a1 1 0 1 1 0 2 1 1 0 0 1 0-2"/><path id="b" d="M9.5 3H13a2 2 0 0 1 2 2H1V4a3 3 0 0 1 3-3h1.5C8 1 8 3 9.5 3"/></defs><use xlink:href="#a" fill="#f97316" fill-rule="evenodd"/><use xlink:href="#a" fill="#0f172a" fill-opacity="0.1" fill-rule="evenodd"/><use xlink:href="#b" fill="#f97316" fill-opacity=".4" fill-rule="evenodd"/><use xlink:href="#b" fill="#0f172a" fill-opacity="0.1" fill-rule="evenodd"/><path fill="#f97316" fill-opacity=".8" fill-rule="evenodd" d="M2 6h7a3 3 0 0 0-2.6 4.5 3 3 0 0 0 0 3q-.39.67-.4 1.5H3.9a3 3 0 0 1-2.92-2.35L.04 8.44 0 8.16v-.33A2 2 0 0 1 2 6m12 0q.24 0 .46.05a3 3 0 0 0-.96.36A3 3 0 0 0 12 6z"/><path fill="#0f172a" fill-opacity="0.1" fill-rule="evenodd" d="M2 6h7c-.89 0-1.69.39-2.24 1H2a1 1 0 0 0-.97 1.22l.93 4.21A2 2 0 0 0 3.91 14h2.26Q6 14.47 6 15H3.9a3 3 0 0 1-2.92-2.35L.04 8.44 0 8.16v-.33A2 2 0 0 1 2 6m12 0q.24 0 .46.05a3 3 0 0 0-.96.36A3 3 0 0 0 12 6z"/></svg>