<svg xmlns="http://www.w3.org/2000/svg" xmlns:xlink="http://www.w3.org/1999/xlink" viewBox="0 0 16 16"><defs><path id="a" d="m12.03 7.28 3.87 3.87a.5.5 0 0 1-.36.85H14v2l-1.97 1.77a.75.75 0 0 1-1.03-.02l-3.72-3.72a.75.75 0 0 1 0-1.06l3.69-3.69a.75.75 0 0 1 1.06 0m-.7 2.4-1.65 1.64a.25.25 0 0 0 0 .36l1.9 1.9a.25.25 0 0 0 .42-.18v-1.15a.25.25 0 0 1 .25-.25h1.15a.25.25 0 0 0 .17-.43l-1.9-1.9a.25.25 0 0 0-.35 0"/><path id="b" d="M9.5 3H12a3 3 0 0 1 3 3v1.42l-.07-.07A3 3 0 0 0 12 5H4a3 3 0 0 0-3 3V4a3 3 0 0 1 3-3h1.5C8 1 8 3 9.5 3"/></defs><use xlink:href="#a" fill="#14b8a6"/><use xlink:href="#a" fill="#0f172a" fill-opacity="0.1"/><use xlink:href="#b" fill="#14b8a6" fill-opacity=".4" fill-rule="evenodd"/><use xlink:href="#b" fill="#0f172a" fill-opacity="0.1" fill-rule="evenodd"/><path fill="#14b8a6" fill-opacity=".8" fill-rule="evenodd" d="M12 5a3 3 0 0 1 2.93 2.35l-1.48-1.48a2.75 2.75 0 0 0-3.76-.13l-.13.13-3.7 3.69a2.75 2.75 0 0 0 0 3.88L7.43 15H4a3 3 0 0 1-3-3V8a3 3 0 0 1 3-3z"/><path fill="#0f172a" fill-opacity="0.1" fill-rule="evenodd" d="M12 5a3 3 0 0 1 2.93 2.35l-1.48-1.48a2.75 2.75 0 0 0-3.76-.13l-.13.13-.14.13H4a2 2 0 0 0-2 2v4a2 2 0 0 0 2 2h2.42l1 1H4a3 3 0 0 1-3-3V8a3 3 0 0 1 3-3z"/></svg>