<svg xmlns="http://www.w3.org/2000/svg" xmlns:xlink="http://www.w3.org/1999/xlink" viewBox="0 0 16 16"><defs><path id="a" d="M13.7 8.41q.22.45.25.96l.56-.15a1 1 0 0 1 .75.1l.25.14a.7.7 0 0 1 .26.95l-.7 1.22a.7.7 0 0 1-.96.25l-.24-.14a1 1 0 0 1-.47-.6l-.15-.56q-.45.22-.96.25l-1.14-.66a1 1 0 0 1-.43-.52l-.26-.68-1.38.12a1 1 0 0 1-.6-.13l-.2-.12c2.4-2.5 3.96-1.27 5.41-.43m-5.33 5.97 2.27-3.54a.88.88 0 0 1 1.52.88l-1.93 3.73a1.07 1.07 0 1 1-1.85-1.07"/><path id="b" d="M9.5 3H13a2 2 0 0 1 2 2H1V4a3 3 0 0 1 3-3h1.5C8 1 8 3 9.5 3"/></defs><use xlink:href="#a" fill="#3b82f6" fill-rule="evenodd"/><use xlink:href="#a" fill="#0f172a" fill-opacity="0.1" fill-rule="evenodd"/><use xlink:href="#b" fill="#3b82f6" fill-opacity=".4" fill-rule="evenodd"/><use xlink:href="#b" fill="#0f172a" fill-opacity="0.1" fill-rule="evenodd"/><path fill="#3b82f6" fill-opacity=".8" fill-rule="evenodd" d="M6.84 7.45a2 2 0 0 0 .44 3.12l.2.12q.33.19.69.29L6.68 13.3A3 3 0 0 0 6.2 15H3.9a3 3 0 0 1-2.92-2.35L.04 8.44 0 8.16v-.32A2 2 0 0 1 2 6h6.67q-.93.52-1.83 1.45m9.08-.03.08.03a3 3 0 0 0-.69-.21 2 2 0 0 0-.62-.56l-.09-.06-.2-.12-.64-.37L13.5 6h.5a2 2 0 0 1 1.92 1.42"/><path fill="#0f172a" fill-opacity="0.1" fill-rule="evenodd" d="M7.57 6.76 7.3 7H2a1 1 0 0 0-.98 1.22l.93 4.21A2 2 0 0 0 3.91 14h2.44a3 3 0 0 0-.15 1H3.9a3 3 0 0 1-2.92-2.35L.04 8.44 0 8.16v-.32A2 2 0 0 1 2 6h6.67q-.56.3-1.1.76m8.35.66.08.03a3 3 0 0 0-.69-.21 2 2 0 0 0-.62-.56l-.09-.06-.2-.12-.64-.37L13.5 6h.5a2 2 0 0 1 1.92 1.42"/></svg>