<svg xmlns="http://www.w3.org/2000/svg" xmlns:xlink="http://www.w3.org/1999/xlink" viewBox="0 0 16 16"><defs><path id="a" d="M12 7.75c.5 0 1 0 1.5.25.5-1 1.75-1 1.75-1 .5.75.25 1.25 0 1.5.75.5.75 1.25.75 2 0 2.25-1.5 2.5-3 2.5.5 0 1 .5 1 1v1.5a.5.5 0 0 1-.5.5h-3a.5.5 0 0 1-.5-.5v-.46c-.65 0-1.13-.25-1.57-.7l-.3-.3-.1-.1a.5.5 0 1 1 .44-.89q.19.1.36.27l.31.32c.26.26.5.4.86.4V14c0-.5.5-1 1-1-1.5 0-3-.5-3-2.75 0-.5 0-1.25.64-1.74-.14-.26-.39-.76.11-1.51 0 0 1.25 0 1.75 1 .5-.25 1-.25 1.5-.25"/><path id="b" d="M9.5 3H12a3 3 0 0 1 2.84 2.03q-.1 0-.22.03a4 4 0 0 0-1.12.34A3 3 0 0 0 12 5H4a3 3 0 0 0-3 3V4a3 3 0 0 1 3-3h1.5C8 1 8 3 9.5 3"/></defs><use xlink:href="#a" fill="#64748b"/><use xlink:href="#a" fill="#0f172a" fill-opacity="0.1"/><use xlink:href="#b" fill="#64748b" fill-opacity=".4" fill-rule="evenodd"/><use xlink:href="#b" fill="#0f172a" fill-opacity="0.1" fill-rule="evenodd"/><path fill="#64748b" fill-opacity=".8" fill-rule="evenodd" d="M4 5h4.75a2 2 0 0 0-1.66.89q-.7 1.05-.63 2.17a4 4 0 0 0-.33.87c-.11.45-.13.77-.13 1.32q0 .95.26 1.74-.14.18-.25.4A2.5 2.5 0 0 0 6.25 15H4a3 3 0 0 1-3-3V8a3 3 0 0 1 3-3m9.5.4-.12.06a4 4 0 0 0-.54.32 8 8 0 0 0-.84-.03c-.38 0-.6 0-.84.03a4 4 0 0 0-.54-.32 4 4 0 0 0-1.24-.4A4 4 0 0 0 8.8 5H12q.83 0 1.5.4"/><path fill="#0f172a" fill-opacity="0.1" fill-rule="evenodd" d="M4 5h4.75a2 2 0 0 0-1.66.89L7.02 6H4a2 2 0 0 0-2 2v4a2 2 0 0 0 2 2h1.8q.12.54.45 1H4a3 3 0 0 1-3-3V8a3 3 0 0 1 3-3m9.5.4-.12.06a4 4 0 0 0-.54.32 8 8 0 0 0-.84-.03c-.38 0-.6 0-.84.03a4 4 0 0 0-.54-.32 4 4 0 0 0-1.24-.4A4 4 0 0 0 8.8 5H12q.83 0 1.5.4"/></svg>