<svg xmlns="http://www.w3.org/2000/svg" xmlns:xlink="http://www.w3.org/1999/xlink" viewBox="0 0 16 16"><defs><path id="a" d="M13.35 8.72c.58.53.9 1.29.91 2.07.99.08 1.74 1 1.74 2.1 0 1.15-.83 2.11-1.89 2.11H9.36C8.05 15 7 13.84 7 12.43c0-1.26.84-2.33 1.97-2.53a2.8 2.8 0 0 1 1.7-1.75 2.7 2.7 0 0 1 2.68.57"/><path id="b" d="M9.5 3H12a3 3 0 0 1 3 3v1.54l-.04-.04A3 3 0 0 0 12 5H4a3 3 0 0 0-3 3V4a3 3 0 0 1 3-3h1.5C8 1 8 3 9.5 3"/></defs><use xlink:href="#a" fill="#0ea5e9"/><use xlink:href="#a" fill="#0f172a" fill-opacity="0.1"/><use xlink:href="#b" fill="#0ea5e9" fill-opacity=".4" fill-rule="evenodd"/><use xlink:href="#b" fill="#0f172a" fill-opacity="0.1" fill-rule="evenodd"/><path fill="#0ea5e9" fill-opacity=".8" fill-rule="evenodd" d="M12 5a3 3 0 0 1 2.96 2.5A4.7 4.7 0 0 0 10 6.26 4.7 4.7 0 0 0 7.52 8.3 4.6 4.6 0 0 0 5 12.43c0 .95.28 1.83.76 2.57H4a3 3 0 0 1-3-3V8a3 3 0 0 1 3-3z"/><path fill="#0f172a" fill-opacity="0.1" fill-rule="evenodd" d="M12 5a3 3 0 0 1 2.96 2.5 4.7 4.7 0 0 0-2.1-1.3A2 2 0 0 0 12 6H4a2 2 0 0 0-2 2v4a2 2 0 0 0 2 2h1.27q.18.54.49 1H4a3 3 0 0 1-3-3V8a3 3 0 0 1 3-3z"/></svg>