<svg xmlns="http://www.w3.org/2000/svg" xmlns:xlink="http://www.w3.org/1999/xlink" viewBox="0 0 16 16"><defs><path id="a" d="M13.71 9.6a1 1 0 0 1-.38-.09l-2.87-1.43a.3.3 0 0 0-.28.03l-3.36 3-.25.11-1.86.34a.24.24 0 0 0-.2.24q.02.18.2.2h2.07l.24-.06 1.58-.88a.3.3 0 0 1 .23 0l1.2.6a.5.5 0 0 1 .28.45v.78l.05.21 1.28 2.76a.3.3 0 0 0 .23.14h.29a.25.25 0 0 0 .23-.33l-.8-2.27a.5.5 0 0 1 .02-.4l.43-.85a.5.5 0 0 1 .22-.23l2.11-1.05a.3.3 0 0 1 .26.02l.61.46a.3.3 0 0 0 .15.05h.42c.22 0 .35-.24.24-.42l-1.44-2.3a.25.25 0 0 0-.45.06l-.2.68a.3.3 0 0 1-.24.18"/><path id="b" d="M9.5 3H12a3 3 0 0 1 3 3v.64l-.36-.07A3 3 0 0 0 12 5H4a3 3 0 0 0-3 3V4a3 3 0 0 1 3-3h1.5C8 1 8 3 9.5 3"/></defs><use xlink:href="#a" fill="#64748b"/><use xlink:href="#a" fill="#0f172a" fill-opacity="0.1"/><use xlink:href="#b" fill="#64748b" fill-opacity=".4" fill-rule="evenodd"/><use xlink:href="#b" fill="#0f172a" fill-opacity="0.1" fill-rule="evenodd"/><path fill="#64748b" fill-opacity=".8" fill-rule="evenodd" d="M12 5a3 3 0 0 1 2.64 1.57 2.3 2.3 0 0 0-1.7.51l-1.6-.8a2.25 2.25 0 0 0-2.5.34L5.8 9.33l-1.45.27a2.24 2.24 0 0 0-1.84 2.2A2.2 2.2 0 0 0 4.7 14h2.07a2.5 2.5 0 0 0 1.22-.31l.38-.22q.06.25.17.48L9.02 15H4a3 3 0 0 1-3-3V8a3 3 0 0 1 3-3zm2.32 8.13q.18.1.39.16a3 3 0 0 1-.72.95l-.28-.8z"/><path fill="#0f172a" fill-opacity="0.1" fill-rule="evenodd" d="M4 14h4.56l.47 1H4a3 3 0 0 1-3-3V8a3 3 0 0 1 3-3h8a3 3 0 0 1 2.64 1.57 2.3 2.3 0 0 0-1.1.15A2 2 0 0 0 12 6H4a2 2 0 0 0-2 2v4a2 2 0 0 0 2 2m10.32-.87q.18.1.39.16a3 3 0 0 1-.72.95l-.28-.8z"/></svg>