<svg xmlns="http://www.w3.org/2000/svg" xmlns:xlink="http://www.w3.org/1999/xlink" viewBox="0 0 16 16"><defs><path id="a" d="M4.75 4h6a.25.25 0 0 1 .25.25v2.5a.25.25 0 0 1-.25.25h-.6a.3.3 0 0 1-.22-.14l-.36-.72A.3.3 0 0 0 9.35 6h-2.1a.25.25 0 0 0-.25.25v1.5c0 .14.11.25.25.25h.5A.25.25 0 0 0 8 7.75v-.5A.25.25 0 0 1 8.25 7h.5a.25.25 0 0 1 .25.25v2.5a.25.25 0 0 1-.25.25h-.5A.25.25 0 0 1 8 9.75v-.5A.25.25 0 0 0 7.75 9h-.5a.25.25 0 0 0-.25.25v1.1a.3.3 0 0 0 .14.22l.72.36a.3.3 0 0 1 .14.23v.59a.25.25 0 0 1-.25.25h-3a.25.25 0 0 1-.25-.25v-.65a.3.3 0 0 1 .07-.17l.36-.36A.3.3 0 0 0 5 10.4V5.6a.3.3 0 0 0-.07-.17l-.36-.36a.3.3 0 0 1-.07-.17v-.65A.25.25 0 0 1 4.75 4"/></defs><path fill="#8b5cf6" fill-opacity=".4" fill-rule="evenodd" d="M5 1h6a4 4 0 0 1 4 4v6a4 4 0 0 1-4 4H5a4 4 0 0 1-4-4V5a4 4 0 0 1 4-4"/><path fill="none" stroke="#0f172a" stroke-opacity="0.1" d="M14.5 5v6a3.5 3.5 0 0 1-3.5 3.5H5A3.5 3.5 0 0 1 1.5 11V5A3.5 3.5 0 0 1 5 1.5h6A3.5 3.5 0 0 1 14.5 5Z"/><use xlink:href="#a" fill="#8b5cf6" fill-rule="evenodd"/><use xlink:href="#a" fill="#0f172a" fill-opacity="0.1" fill-rule="evenodd"/></svg>