<svg xmlns="http://www.w3.org/2000/svg" xmlns:xlink="http://www.w3.org/1999/xlink" viewBox="0 0 16 16"><defs><path id="a" d="m5.1 1.4 1.75 1.75a1.5 1.5 0 0 1 2 2l1 1a1.5 1.5 0 1 1-.7.7l-1-1-.15.06V9.1a1.5 1.5 0 1 1-1 0V5.9a1.5 1.5 0 0 1-.85-2.06L4.4 2.1z"/></defs><path fill="#f97316" fill-opacity=".4" fill-rule="evenodd" d="m14.67 10.83-3.84 3.84a4 4 0 0 1-5.66 0l-3.84-3.84a4 4 0 0 1 0-5.66l3.84-3.84a4 4 0 0 1 5.66 0l3.84 3.84a4 4 0 0 1 0 5.66"/><path fill="none" stroke="#0f172a" stroke-opacity="0.1" d="m10.21 1.44.27.24 3.84 3.85a3.5 3.5 0 0 1 0 4.95l-3.84 3.84a3.5 3.5 0 0 1-4.95 0l-3.85-3.84a3.5 3.5 0 0 1 0-4.95l3.85-3.85a3.5 3.5 0 0 1 4.68-.24Z"/><use xlink:href="#a" fill="#f97316" fill-rule="evenodd"/><use xlink:href="#a" fill="#0f172a" fill-opacity="0.1" fill-rule="evenodd"/></svg>