<svg xmlns="http://www.w3.org/2000/svg" viewBox="0 0 16 16"><path fill="#f97316" fill-opacity=".4" fill-rule="evenodd" d="m9.13 14.72 4.36-3a4 4 0 0 0 1.5-4.6l-1.9-5.47c-.31-.91-1.62-.84-1.84.1l-.4 1.7A2 2 0 0 1 8.92 5H7.09a2 2 0 0 1-1.95-1.55l-.39-1.7C4.53.81 3.22.74 2.9 1.65L1 7.12a4 4 0 0 0 1.51 4.6l4.36 3a2 2 0 0 0 2.26 0"/><path fill="none" stroke="#0f172a" stroke-opacity="0.1" d="m4.26 1.86.4 1.7A2.5 2.5 0 0 0 7.09 5.5h1.82a2.5 2.5 0 0 0 2.44-1.94l.39-1.7c.1-.43.7-.48.87-.08l.01.04 1.9 5.46a3.5 3.5 0 0 1-1.32 4.04L8.85 14.3a1.5 1.5 0 0 1-1.7 0l-4.35-3a3.5 3.5 0 0 1-1.33-4.03l1.9-5.46c.16-.44.79-.4.9.04Z"/><path fill="#f97316" fill-rule="evenodd" d="M11.25 1.75c.22-.94 1.53-1.01 1.85-.1l1.5 4.32-5.47 3.75a2 2 0 0 1-2.12.09l-.14-.09L1.4 5.96l1.5-4.31c.3-.87 1.52-.84 1.82-.02l.03.12.4 1.7A2 2 0 0 0 7.08 5H8.9a2 2 0 0 0 1.95-1.55z"/><path fill="none" stroke="#0f172a" stroke-opacity="0.1" d="m4.24 1.8.03.09.39 1.67A2.5 2.5 0 0 0 7.08 5.5H8.9a2.5 2.5 0 0 0 2.44-1.94l.39-1.7c.1-.45.73-.48.88-.04L14 5.77 8.85 9.3a1.5 1.5 0 0 1-1.6.07l-.12-.08L2 5.77l1.38-3.95c.14-.41.72-.41.86-.03Z"/></svg>