<svg xmlns="http://www.w3.org/2000/svg" viewBox="0 0 16 16"><path fill="#64748b" fill-opacity=".4" d="M10.75 5.95q.04.08.15.22.23.29.69.68l.61.5 1.05.78.28.2c.3.22.48.37.62.55q.37.42.28.98c-.08.44-.25.65-1.09 1.53q-.7.72-1.49.81c-.4.05-.73 0-1.23-.17l-.1-.04-.44-.12a7 7 0 0 1-1.5-.58l-.34-.17-1.36-.72.74-1.3.1.05a31 31 0 0 0 1.5.78c.53.26.95.42 1.16.47.19.03.33.08.61.17l.1.03c.58.2.76.17 1.17-.25l.6-.65-.22-.15-.28-.2-.33-.25-.76-.57-.67-.55C9.72 7.2 9.25 6.63 9.25 6h1.5v-.07z"/><path fill="#d946ef" fill-rule="evenodd" d="M12.85 4.86c.29-.2.38-.7.17-.98l-.8-1.16a.76.76 0 0 0-1-.18L8 4.81a1 1 0 0 1-1.4-.24L4.34 1.32c-.2-.3-.7-.38-.98-.17l-1.16.8a.8.8 0 0 0-.17 1c3.65 5.2 3.59 2.66 2.2 10.53q-.17.99.81 1.16l.99.18q.98.17 1.15-.81c1.4-7.88.47-5.5 5.68-9.16"/><path fill="none" stroke="#0f172a" stroke-opacity="0.1" d="m3.91 1.6.01.02L6.2 4.85a1.5 1.5 0 0 0 2.09.37l3.23-2.27c.07-.04.25 0 .3.05l.8 1.16c.05.07.02.25-.05.3-.36.24-3.94 2.47-4.4 3.1-.54.8-.17-1.06-1.48 6.37-.07.38-.2.47-.58.4l-.98-.17c-.39-.07-.48-.2-.4-.58 1.3-7.43 1.02-5.56.77-6.49-.2-.75-2.81-4.07-3.06-4.43-.05-.06-.02-.24.05-.28l1.16-.81c.05-.05.22-.02.27.04Z"/><path fill="#64748b" d="M4.97 2.6a.5.5 0 0 1-.12.7l-1.16.81a.5.5 0 1 1-.57-.82l1.16-.8a.5.5 0 0 1 .7.12m4.91 1.21a.5.5 0 0 0 .12.7l1.16.81a.5.5 0 1 0 .58-.82l-1.16-.81a.5.5 0 0 0-.7.12"/></svg>