<svg xmlns="http://www.w3.org/2000/svg" viewBox="0 0 16 16"><path fill="#eab308" fill-opacity=".4" fill-rule="evenodd" d="M5 1h6a4 4 0 0 1 4 4v6a4 4 0 0 1-4 4H5a4 4 0 0 1-4-4V5a4 4 0 0 1 4-4"/><path fill="none" stroke="#0f172a" stroke-opacity="0.1" d="M14.5 5v6a3.5 3.5 0 0 1-3.5 3.5H5A3.5 3.5 0 0 1 1.5 11V5A3.5 3.5 0 0 1 5 1.5h6A3.5 3.5 0 0 1 14.5 5Z"/><path fill="#eab308" fill-rule="evenodd" d="M13 10c0 .78-.3 1.57-.92 1.87l.25.38a1 1 0 0 1 .17.55v.8a3 3 0 0 1-1.5.4h-.5v-1.2a1 1 0 0 1 .17-.55l.25-.38c-.61-.3-.92-1.09-.92-1.87 0-1 0-1.5 1.5-3C13 8.5 13 9 13 10"/><path fill="#8b5cf6" fill-rule="evenodd" d="M7.55 10.9a.5.5 0 0 1 .9 0l.5 1 .05.22V14H7v-1.88l.02-.15.03-.08z"/><path fill="#64748b" fill-opacity=".4" fill-rule="evenodd" d="M9.66 2A6 6 0 0 1 2 9.66V5a3 3 0 0 1 3-3z"/><path fill="#0f172a" fill-opacity="0.1" fill-rule="evenodd" d="M10 4a6 6 0 0 1-8 5.66V8.58A5 5 0 0 0 8.58 2h1.08A6 6 0 0 1 10 4"/><path fill="#f43f5e" fill-rule="evenodd" d="M7 3a1 1 0 1 1 0 2 1 1 0 0 1 0-2"/><path fill="#22c55e" fill-rule="evenodd" d="M6 5a1 1 0 1 1 0 2 1 1 0 0 1 0-2"/><path fill="#3b82f6" fill-rule="evenodd" d="M4 6a1 1 0 1 1 0 2 1 1 0 0 1 0-2"/></svg>