<svg xmlns="http://www.w3.org/2000/svg" viewBox="0 0 16 16"><path fill="#8b5cf6" fill-opacity=".4" fill-rule="evenodd" d="M5 1h6a4 4 0 0 1 4 4v6a4 4 0 0 1-4 4H5a4 4 0 0 1-4-4V5a4 4 0 0 1 4-4"/><path fill="none" stroke="#0f172a" stroke-opacity="0.1" d="M14.5 5v6a3.5 3.5 0 0 1-3.5 3.5H5A3.5 3.5 0 0 1 1.5 11V5A3.5 3.5 0 0 1 5 1.5h6A3.5 3.5 0 0 1 14.5 5Z"/><path fill="#8b5cf6" fill-rule="evenodd" d="M10.06 2.9a1.5 1.5 0 0 1 .83 1.95q-.1.23-.38.6.36-.3.59-.4a1.5 1.5 0 0 1 1.17 2.77q-.23.1-.7.15.47.05.7.14a1.5 1.5 0 1 1-1.12 2.78q-.23-.1-.6-.38.3.36.4.59a1.5 1.5 0 1 1-2.77 1.17q-.1-.23-.15-.7-.05.47-.14.7a1.5 1.5 0 1 1-2.78-1.12q.1-.23.38-.6a3 3 0 0 1-.51.36l-.08.03a1.5 1.5 0 1 1-1.17-2.76q.23-.1.7-.15-.47-.05-.7-.14a1.5 1.5 0 0 1 1.12-2.78q.23.1.6.38-.3-.36-.4-.59a1.5 1.5 0 1 1 2.77-1.17q.1.23.15.7.05-.47.14-.7a1.5 1.5 0 0 1 1.95-.83"/><path fill="none" stroke="#0f172a" stroke-opacity="0.1" d="M7.53 11.53q-.03.4-.1.55a1 1 0 1 1-1.86-.75q.06-.15.32-.47l1.96-2.49Zm2.63-.7q.26.3.32.46a1 1 0 0 1-1.84.78q-.06-.15-.11-.55l-.37-3.15Zm-4.98-.67q-.27.23-.43.3l-.06.03a1 1 0 0 1-1.3-.54 1 1 0 0 1 .54-1.3q.15-.07.55-.12l3.15-.37Zm6.35-1.7q.4.05.55.11a1 1 0 1 1-.75 1.86q-.15-.06-.47-.32L8.37 8.15ZM4.67 5.58q.15.06.47.32l2.5 1.97-3.17-.33a2 2 0 0 1-.55-.1 1 1 0 0 1 .75-1.86Zm7.93.48a1 1 0 0 1-.53 1.3q-.15.08-.55.12l-3.16.38 2.46-2.01q.32-.26.47-.32a1 1 0 0 1 1.31.53ZM7.36 3.93q.06.15.11.55l.38 3.16-2.01-2.46a2 2 0 0 1-.32-.47 1 1 0 0 1 1.84-.78Zm2.51-.57a1 1 0 0 1 .56 1.3q-.06.16-.31.48l-1.97 2.5.32-3.17q.04-.4.1-.55a1 1 0 0 1 1.3-.56Z"/><circle cx="8" cy="8" r="1.5" fill="#eab308" fill-rule="evenodd"/></svg>