<svg xmlns="http://www.w3.org/2000/svg" xmlns:xlink="http://www.w3.org/1999/xlink" viewBox="0 0 16 16"><defs><path id="a" d="M12.73 5h-.23a5.5 5.5 0 0 0-4.4 2.21A3 3 0 0 1 8 6.5C8 5.07 8.99 4 10.5 4h.5l.24.03q1.04.26 1.49.97"/><path id="b" d="M6.99 5.1v.13L7 5.5V10c0 1.05-.95 2-2 2l-.5-.02a2 2 0 0 1-.74-.27Q2.98 11.16 3 10a1 1 0 0 1 2-.04V6h-.5a1 1 0 1 1 0-2h1l.4.01A1.2 1.2 0 0 1 6.99 5.1"/></defs><path fill="#f43f5e" fill-rule="evenodd" d="M12.5 16q3.5-3.57 3.5-5.5a3.5 3.5 0 0 0-7 0q0 1.93 3.5 5.5"/><path fill="none" stroke="#0f172a" stroke-opacity="0.1" d="M15.5 10.5q0 1.6-3 4.78c-2-2.1-3-3.73-3-4.78a3 3 0 0 1 6 0Z"/><path fill="#eab308" fill-opacity=".4" fill-rule="evenodd" d="M11 1a4 4 0 0 1 4 4v.6a5.5 5.5 0 0 0-8 4.9c0 1.37.66 2.83 1.95 4.5H5a4 4 0 0 1-4-4V5a4 4 0 0 1 4-4z"/><path fill="#0f172a" fill-opacity="0.1" fill-rule="evenodd" d="M11 1a4 4 0 0 1 4 4v.6a6 6 0 0 0-1-.4V5a3 3 0 0 0-3-3H5a3 3 0 0 0-3 3v6a3 3 0 0 0 3 3h3.24q.31.49.7 1H5a4 4 0 0 1-4-4V5a4 4 0 0 1 4-4z"/><use fill="#eab308" href="#a"/><use fill="#0f172a" fill-opacity="0.1" href="#a"/><use fill="#eab308" href="#b"/><use fill="#0f172a" fill-opacity="0.1" href="#b"/></svg>