<svg xmlns="http://www.w3.org/2000/svg" viewBox="0 0 16 16"><path fill="#f97316" fill-opacity=".4" fill-rule="evenodd" d="m.59 12.48 5.46-5.1a1.5 1.5 0 0 1 1.96-.07l.28.23a1.5 1.5 0 0 1 .21 2.14l-4.9 5.78a1.5 1.5 0 0 1-2.25.04l-.84-.9a1.5 1.5 0 0 1 .08-2.12"/><path fill="none" stroke="#0f172a" stroke-opacity="0.1" d="m7.63 7.65.07.05.28.23a1 1 0 0 1 .14 1.42l-4.9 5.78a1 1 0 0 1-1.5.04l-.84-.91a1 1 0 0 1 .05-1.41l5.46-5.1a1 1 0 0 1 1.24-.1Z"/><path fill="#64748b" fill-rule="evenodd" d="m3.32 2.29.48.48a1 1 0 0 0 .54.28l2.7.47.14 1.59a1 1 0 0 0 .29.61L9.32 7.6q.88.18 1.77 0v1.35a1 1 0 0 0 .3.71l.76.77a1 1 0 0 0 1.41 0L15.7 8.3a1 1 0 0 0 0-1.42l-.76-.76a1 1 0 0 0-.71-.3h-1.35a5 5 0 0 0 0-1.77C10.75 1.93 8.62-.89 3.32 2.3"/><path fill="none" stroke="#0f172a" stroke-opacity="0.1" d="m11.83 3.71.57.59q.12.7-.02 1.42l-.13.6h1.97a.5.5 0 0 1 .35.15l.77.77a.5.5 0 0 1 0 .7l-2.12 2.12a.5.5 0 0 1-.7 0l-.78-.76a.5.5 0 0 1-.14-.36V6.98l-.6.12a4 4 0 0 1-1.43.03L7.82 5.37a.5.5 0 0 1-.15-.3l-.14-1.6-.04-.37-.37-.07-2.7-.47a.5.5 0 0 1-.26-.14l-.02-.02C7.5.53 9.27 1.1 11.83 3.7Z"/></svg>