<svg xmlns="http://www.w3.org/2000/svg" viewBox="0 0 16 16"><path fill="#eab308" fill-opacity=".4" fill-rule="evenodd" d="m.5 7-.52-2.4a.5.5 0 0 1 .74-.55l.78.45.75-.5.48-1.76a.5.5 0 0 1 .88-.17l.89 1.18a8 8 0 0 1 2-.25l1.06-1.94a.5.5 0 0 1 .88 0L9.5 3q1 0 2 .25l.89-1.18a.5.5 0 0 1 .88.17L13.75 4l.75.5.78-.44a.5.5 0 0 1 .74.53L15.5 7 15 8h-2c-1-1.5-2.5-2-5-2s-4 .5-5 2H1.5z"/><path fill="none" stroke="#0f172a" stroke-opacity="0.1" d="m9.06 3.24.14.26h.3q.94 0 1.88.24l.32.07.2-.26.89-1.18.48 1.76.05.18.15.1.75.5.26.18.27-.16.78-.44-.5 2.34-.34.67h-1.43c-1.07-1.44-2.64-2-5.26-2s-4.19.56-5.26 2H1.71l-.75-.75-.49-2.26.78.44.27.16.26-.17.75-.5.15-.1.05-.19.48-1.76.89 1.18.2.27.32-.08A8 8 0 0 1 6.5 3.5h.3l.14-.26L8 1.29Z"/><path fill="#eab308" fill-rule="evenodd" d="m14.75 6.63-.56.83a.5.5 0 0 1-.53.2l-.27-.06a.5.5 0 0 0-.57.26l-.49.97a.5.5 0 0 1-.26.24l-.86.35a.5.5 0 0 1-.41-.02L8.45 8.22a1 1 0 0 0-.9 0L5.2 9.4a.5.5 0 0 1-.41.02l-.86-.35a.5.5 0 0 1-.27-.24l-.48-.97a.5.5 0 0 0-.57-.26l-.27.06a.5.5 0 0 1-.54-.2l-.55-.84a.3.3 0 0 0-.5 0l-.12.18a.5.5 0 0 0-.05.43L2 11.5Q4 14 8 14t6-2.5l1.42-4.27a.5.5 0 0 0-.06-.43l-.11-.17a.3.3 0 0 0-.5 0"/><path fill="none" stroke="#0f172a" stroke-opacity="0.1" d="M13.56 11.25Q11.73 13.5 8 13.5c-3.73 0-4.33-.75-5.56-2.25L1.16 7.38l.23.35a1 1 0 0 0 1.07.42l.27-.07.49.97a1 1 0 0 0 .52.48l.87.35a1 1 0 0 0 .81-.03l2.36-1.18a.5.5 0 0 1 .44 0l2.36 1.18a1 1 0 0 0 .81.03l.87-.35a1 1 0 0 0 .52-.48l.49-.97.27.07a1 1 0 0 0 1.07-.42l.24-.35Z"/></svg>