<svg xmlns="http://www.w3.org/2000/svg" viewBox="0 0 16 16"><path fill="#22c55e" fill-opacity=".4" fill-rule="evenodd" d="M15 6.03v3.94a3.5 3.5 0 0 1-1.76 3.04l-3.5 2a3.5 3.5 0 0 1-3.48 0l-3.5-2A3.5 3.5 0 0 1 1 9.97V6.03A3.5 3.5 0 0 1 2.76 3l3.5-2a3.5 3.5 0 0 1 3.48 0l3.5 2A3.5 3.5 0 0 1 15 6.03"/><path fill="none" stroke="#0f172a" stroke-opacity="0.1" d="m9.31 1.33.18.1 3.5 2a3 3 0 0 1 1.51 2.6v3.94a3 3 0 0 1-1.51 2.6l-3.5 2a3 3 0 0 1-2.98 0l-3.5-2a3 3 0 0 1-1.51-2.6V6.03a3 3 0 0 1 1.51-2.6l3.5-2a3 3 0 0 1 2.8-.1Z"/><path fill="#22c55e" fill-opacity=".6" fill-rule="evenodd" d="m13.09 4.18-4.33-2.5a1.5 1.5 0 0 0-2.05.55L2.36 9.77a1.5 1.5 0 0 0 .55 2.05l4.33 2.5a1.5 1.5 0 0 0 2.05-.55l4.35-7.54a1.5 1.5 0 0 0-.55-2.05"/><path fill="none" stroke="#0f172a" stroke-opacity="0.1" d="m8.42 2.07.09.05 4.33 2.5a1 1 0 0 1 .37 1.36l-4.35 7.54a1 1 0 0 1-1.37.36l-4.33-2.5a1 1 0 0 1-.37-1.36l4.35-7.54a1 1 0 0 1 1.28-.41Z"/><path fill="#22c55e" fill-rule="evenodd" d="m2.91 4.18 4.33-2.5a1.5 1.5 0 0 1 2.05.55l4.35 7.54a1.5 1.5 0 0 1-.55 2.05l-4.33 2.5a1.5 1.5 0 0 1-2.05-.55L2.36 6.23a1.5 1.5 0 0 1 .55-2.05"/><path fill="none" stroke="#0f172a" stroke-opacity="0.1" d="m8.8 2.4.06.08 4.35 7.54a1 1 0 0 1-.37 1.36l-4.33 2.5a1 1 0 0 1-1.37-.36L2.8 5.98a1 1 0 0 1 .37-1.36l4.33-2.5a1 1 0 0 1 1.31.28Z"/></svg>