<svg xmlns="http://www.w3.org/2000/svg" viewBox="0 0 16 16"><path fill="#f97316" fill-opacity=".4" fill-rule="evenodd" d="M6 1h6a3 3 0 0 1 3 3v6a3 3 0 0 1-3 3V7a3 3 0 0 0-3-3H3a3 3 0 0 1 3-3"/><path fill="none" stroke="#0f172a" stroke-opacity="0.1" d="M14.5 4v6a2.5 2.5 0 0 1-2 2.45V7A3.5 3.5 0 0 0 9 3.5H3.55A2.5 2.5 0 0 1 6 1.5h6A2.5 2.5 0 0 1 14.5 4Z"/><path fill="#f97316" fill-rule="evenodd" d="M4.75 11h.5c.5 1.5 1.5 2.5 2 4H4a3 3 0 0 1-.5-.04c.26-1.97 1.25-2.72 1.25-3.96m2 0C9 11 9.25 9 10 9h1.5c.75 0 .75-1.25 0-1.25s-1.25-1-2.25-.75-.5 2-1.5 2-1-3-2.25-3-.75 2-1.75 2S3.25 6 2 6c-.91 0-.76 1.06-1 1.64V6a3 3 0 0 1 3-3h6a3 3 0 0 1 3 3v6a3 3 0 0 1-3 3H8c0-1-1-1.5-1.25-4m-4 4v-.27A3 3 0 0 1 1 12v-.64q.3-.34.5-.86.5.75 2 .5c0 1.5-.75 2.25-.75 4"/><path fill="none" stroke="#0f172a" stroke-opacity="0.1" d="M12.5 12a2.5 2.5 0 0 1-2.5 2.5H8.44l-.08-.23c-.08-.24-.5-1.06-.56-1.17a6 6 0 0 1-.49-1.64c.84-.12 1.46-.5 2-1.13.12-.13.54-.68.63-.77L10 9.5h1.5a1 1 0 0 0 1-.72Zm-6.68 1.26c.33.54.54.9.7 1.24H4.08c.1-.44.25-.85.46-1.31l.24-.51.22-.51.08-.22c.17.36.4.75.73 1.3Zm-2.86-1.7a6 6 0 0 1-.23.94l-.08.26a10 10 0 0 0-.3 1.12A2.5 2.5 0 0 1 1.5 12v-.46l.16-.24q.51.3 1.3.26ZM12.5 6v1.98a1 1 0 0 0-1-.73q-.14 0-.43-.17l-.21-.14c-.66-.43-1.1-.59-1.73-.43s-.87.56-1.08 1.35l-.03.1c-.13.47-.17.54-.27.54-.06 0-.21-.25-.47-.93l-.1-.25C6.72 6.04 6.35 5.5 5.5 5.5c-.82 0-1.16.45-1.45 1.35l-.03.12c-.14.45-.2.53-.27.53s-.13-.08-.27-.53l-.03-.12C3.16 5.95 2.82 5.5 2 5.5q-.26 0-.46.06A2.5 2.5 0 0 1 4 3.5h6A2.5 2.5 0 0 1 12.5 6Z"/></svg>