<svg xmlns="http://www.w3.org/2000/svg" xmlns:xlink="http://www.w3.org/1999/xlink" viewBox="0 0 16 16"><defs><path id="a" d="M11.1 5.37c.17.94.1 1.85-.16 2.86l-.12.42q.4.65 1.01 1.53a8 8 0 0 1 2.43-.07q.79.1 1.28.59c.43.42.56 1 .4 1.6-.15.53-.55.86-1.05 1.04a4.1 4.1 0 0 1-3.83-.97q-1.06.25-2.05.6a8 8 0 0 1-2.43 2.73c-.74.5-1.91.4-2.39-.44-.28-.5-.23-1.04.01-1.54q.27-.51.7-.86a11 11 0 0 1 2.7-1.49q.26-.5.48-1.08l.09-.23.47-1.2a7 7 0 0 1-.8-2.24c-.08-.5-.09-.9.02-1.3.18-.74.73-1.26 1.55-1.32.73-.05 1.55.61 1.7 1.37"/></defs><path fill="#f43f5e" fill-opacity=".4" fill-rule="evenodd" d="M5 1h3.76a3 3 0 0 1 2.12.88l2.24 2.24A3 3 0 0 1 14 6.24V12a3 3 0 0 1-3 3H5a3 3 0 0 1-3-3V4a3 3 0 0 1 3-3"/><path fill="none" stroke="#0f172a" stroke-opacity="0.1" d="m10.34 2.07.19.16 2.24 2.24a2.5 2.5 0 0 1 .73 1.77V12a2.5 2.5 0 0 1-2.5 2.5H5A2.5 2.5 0 0 1 2.5 12V4A2.5 2.5 0 0 1 5 1.5h3.76a2.5 2.5 0 0 1 1.58.57Z"/><use fill="#f43f5e" href="#a"/><use fill="#0f172a" fill-opacity="0.1" href="#a"/></svg>