<svg xmlns="http://www.w3.org/2000/svg" viewBox="0 0 16 16"><path fill="#64748b" d="M6.5 1H9a2 2 0 0 1 2 2v3a1.5 1.5 0 0 1-1.5 1.5H6a2 2 0 0 0-2 2V11H2.5A1.5 1.5 0 0 1 1 9.5V7.48a2.5 2.5 0 0 1 2.48-2.5L8 4.95V4H5V2.5A1.5 1.5 0 0 1 6.5 1M8 2H6v1h2z"/><path fill="none" stroke="#0f172a" stroke-opacity="0.1" d="M10.5 3v3a1 1 0 0 1-1 1H6a2.5 2.5 0 0 0-2.5 2.5v1h-1a1 1 0 0 1-1-1V7.48a2 2 0 0 1 1.99-2L8 5.45h.5V1.5H9A1.5 1.5 0 0 1 10.5 3Z"/><path fill="#64748b" fill-opacity=".4" d="M9.5 15H7a2 2 0 0 1-2-2v-3a1.5 1.5 0 0 1 1.5-1.5H10a2 2 0 0 0 2-2V5h1.5A1.5 1.5 0 0 1 15 6.5v2.52a2 2 0 0 1-1.98 2L8 11.05V12h3v1.5A1.5 1.5 0 0 1 9.5 15M8 14h2v-1H8z"/><path fill="none" stroke="#0f172a" stroke-opacity="0.1" d="M14.5 6.5v2.52a1.5 1.5 0 0 1-1.49 1.5L8 10.55h-.5v3.95H7A1.5 1.5 0 0 1 5.5 13v-3a1 1 0 0 1 1-1H10a2.5 2.5 0 0 0 2.5-2.5v-1h1a1 1 0 0 1 1 1Zm-4 7v-1Z"/></svg>