<svg xmlns="http://www.w3.org/2000/svg" xmlns:xlink="http://www.w3.org/1999/xlink" viewBox="0 0 16 16"><defs><path id="a" d="M13 15.25V14h-2v-.9l4.27-.09a.75.75 0 0 0 .73-.75V9.75a.75.75 0 0 0-.75-.75H14v1.5a1 1 0 0 1-1 1h-3a1 1 0 0 0-1 1v2.75c0 .41.34.75.75.75h2.5a.75.75 0 0 0 .75-.75"/><path id="b" d="M9 6.75V8h2v.9L6.73 9a.75.75 0 0 0-.73.75v2.51c0 .41.34.75.75.75H8v-1.5a1 1 0 0 1 1-1h3a1 1 0 0 0 1-1V6.75a.75.75 0 0 0-.75-.75h-2.5a.75.75 0 0 0-.75.75"/></defs><use xlink:href="#a" fill="#eab308"/><use xlink:href="#a" fill="#0f172a" fill-opacity="0.1"/><use xlink:href="#b" fill="#3b82f6"/><use xlink:href="#b" fill="#0f172a" fill-opacity="0.1"/><path fill="#64748b" fill-opacity=".4" fill-rule="evenodd" d="m10.88 1.88 2.27 2.27a3 3 0 0 0-.9-.15h-2.5A2.75 2.75 0 0 0 7 6.75v.23h-.3A2.75 2.75 0 0 0 4 9.75v2.51A2.75 2.75 0 0 0 6.75 15H7 5a3 3 0 0 1-3-3V4a3 3 0 0 1 3-3h3.76a3 3 0 0 1 2.12.88"/><path fill="#0f172a" fill-opacity="0.1" fill-rule="evenodd" d="m10.88 1.88 2.27 2.27a3 3 0 0 0-.9-.15h-.66l-1.42-1.41-.14-.14A2 2 0 0 0 8.76 2H5a2 2 0 0 0-2 2v8a2 2 0 0 0 1.6 1.96A2.8 2.8 0 0 0 6.74 15H7 5a3 3 0 0 1-3-3V4a3 3 0 0 1 3-3h3.76a3 3 0 0 1 2.12.88"/></svg>