<svg xmlns="http://www.w3.org/2000/svg" viewBox="0 0 16 16"><path fill="#f43f5e" fill-rule="evenodd" d="M8.4 6.95a17 17 0 0 1 3.2 7.06A7 7 0 0 1 8 15a7 7 0 0 1-3.37-.86 17 17 0 0 1 3.22-7.19l.28-.35z"/><path fill="none" stroke="#0f172a" stroke-opacity="0.1" d="M11.03 13.75A6.4 6.4 0 0 1 8 14.5a6.5 6.5 0 0 1-2.8-.63q.66-3.37 2.93-6.44a16 16 0 0 1 2.9 6.32Z"/><path fill="#f43f5e" fill-opacity=".4" fill-rule="evenodd" d="M3.19 2.92A12 12 0 0 1 7.1 5.47q-.24.28-.46.58-2.54 3.38-3.36 7.13a7 7 0 0 1-.24-10.13z"/><path fill="none" stroke="#0f172a" stroke-opacity="0.1" d="M6.43 5.52q-.1.11-.18.23-2.3 3.06-3.22 6.42a6.44 6.44 0 0 1 .28-8.66 11 11 0 0 1 3.12 2Z"/><path fill="#3b82f6" fill-rule="evenodd" d="M8 1a7 7 0 0 1 4.91 11.99q-.84-3.65-3.31-6.94a13.5 13.5 0 0 0-5.02-4.16A7 7 0 0 1 8 1"/><path fill="none" stroke="#0f172a" stroke-opacity="0.1" d="M14.5 8a6.4 6.4 0 0 1-1.34 3.94Q12.22 8.71 10 5.75a14 14 0 0 0-4.3-3.83A6.5 6.5 0 0 1 14.5 8Z"/></svg>