<svg xmlns="http://www.w3.org/2000/svg" viewBox="0 0 16 16"><path fill="#14b8a6" fill-opacity=".4" fill-rule="evenodd" d="M8 3.5Q9.25 2 11.5 2q1.83 0 3 1.33a2 2 0 0 1 .5 1.31v7.67a1.25 1.25 0 0 1-1.85 1.1A3.4 3.4 0 0 0 11.5 13q-1.9 0-3.08 1.07a.25.25 0 0 1-.42-.19z"/><path fill="none" stroke="#0f172a" stroke-opacity="0.1" d="m13.86 3.39.27.27q.36.42.37.98v7.67a.75.75 0 0 1-1.1.66 4 4 0 0 0-1.9-.47q-1.77 0-3 .87V3.69a3.8 3.8 0 0 1 3-1.19q1.41 0 2.36.89Z"/><path fill="#14b8a6" fill-rule="evenodd" d="M1 12.31V4.64a2 2 0 0 1 .5-1.31Q2.67 2 4.5 2 6.75 2 8 3.5v10.38a.25.25 0 0 1-.42.19Q6.4 13 4.5 13a3.4 3.4 0 0 0-1.65.4A1.25 1.25 0 0 1 1 12.32"/><path fill="none" stroke="#0f172a" stroke-opacity="0.1" d="M7.5 3.69v9.68a5 5 0 0 0-3-.87 4 4 0 0 0-1.9.47.75.75 0 0 1-1.1-.66V4.64q0-.56.37-.98A3.3 3.3 0 0 1 4.5 2.5q1.93 0 3 1.19Z"/></svg>