<svg xmlns="http://www.w3.org/2000/svg" viewBox="0 0 16 16"><path fill="#f97316" fill-opacity=".4" fill-rule="evenodd" d="M1.81 8.11Q4.46 9 8 9t6.42-.9a.5.5 0 0 1 .54.18L16.25 10q-.25 1.5-.75 2.25T14 13l.37-2.24q-.7.25-1.37.45v1.29q0 2.5-3 2.5l1-2H9q.23-.68.56-1.05a16 16 0 0 1-3.05.07q.29.36.49.98H5l1 2q-3 0-3-2.5v-1.14q-.64-.2-1.27-.45L2.25 13q-1 0-1.5-.75t-1-2.25l1.53-1.75a.5.5 0 0 1 .53-.14"/><path fill="none" stroke="#0f172a" stroke-opacity="0.1" d="M8 9.5q3.62 0 6.56-.91l1.16 1.54a5 5 0 0 1-.64 1.84 1 1 0 0 1-.47.42l.26-1.55.14-.85-.8.3q-.7.25-1.35.45l-.36.1v1.66c0 1.12-.51 1.75-1.66 1.94l.6-1.22.37-.72H9.77q.08-.13.16-.22l.88-.99-1.31.16a15 15 0 0 1-2.96.07l-1.14-.08.71.9.12.16H4.2l.36.72.6 1.22c-1.14-.19-1.65-.82-1.65-1.94v-1.51l-.35-.11a17 17 0 0 1-1.24-.44l-.9-.35.23.94.33 1.32a1 1 0 0 1-.4-.38q-.42-.62-.85-1.86l1.33-1.53Q4.38 9.5 8 9.5Zm6.57-.91Z"/><path fill="#f97316" fill-rule="evenodd" d="m8.4 1.53.84 1.12a.5.5 0 0 0 .64.13l.86-.49a.5.5 0 0 1 .72.26l.42 1.13a.5.5 0 0 0 .47.32h1.15a.5.5 0 0 1 .5.5v1a.5.5 0 0 0 .5.5h.94a.5.5 0 0 1 .45.72l-.84 1.68-.16.18Q12.87 10 8 10T1.1 8.58L.95 8.4.1 6.72A.5.5 0 0 1 .56 6h.94a.5.5 0 0 0 .5-.5v-1a.5.5 0 0 1 .5-.5h1.15a.5.5 0 0 0 .47-.32l.42-1.13a.5.5 0 0 1 .72-.26l.86.5a.5.5 0 0 0 .64-.14l.84-1.12a.5.5 0 0 1 .8 0M6 7a1 1 0 1 0 0 2 1 1 0 0 0 0-2m4 0a1 1 0 1 0 0 2 1 1 0 0 0 0-2"/><path fill="none" stroke="#0f172a" stroke-opacity="0.1" d="M8.84 2.95a1 1 0 0 0 1.3.26l.85-.49.42 1.13a1 1 0 0 0 .94.65h1.15v1a1 1 0 0 0 1 1h.94l-.83 1.67q-1.3.9-4 1.2a1.5 1.5 0 1 0-.99.08 24 24 0 0 1-3.24 0 1.5 1.5 0 1 0-1-.08q-2.69-.3-3.98-1.2L.55 6.5h.94a1 1 0 0 0 1-1v-1h1.15a1 1 0 0 0 .94-.65L5 2.73l.86.49a1 1 0 0 0 1.3-.27L8 1.83Z"/></svg>