<svg xmlns="http://www.w3.org/2000/svg" viewBox="0 0 16 16"><path fill="#3b82f6" fill-rule="evenodd" d="M10.46.23 2.61 6.51a.5.5 0 0 0 .09.84l4.77 2.38c.47.24.9-.36.53-.73L6.3 7.3a.5.5 0 0 1-.04-.65L10.82.58c.17-.24-.13-.53-.36-.35"/><path fill="none" stroke="#0f172a" stroke-opacity="0.1" d="M5.86 6.35a1 1 0 0 0 .1 1.31l1.5 1.52L2.93 6.9l6.32-5.05Z"/><path fill="#3b82f6" fill-opacity=".4" fill-rule="evenodd" d="m5.54 15.77 7.85-6.28a.5.5 0 0 0-.09-.84L8.53 6.26c-.47-.23-.9.37-.53.74l1.7 1.7a.5.5 0 0 1 .04.65l-4.56 6.08c-.17.23.13.52.36.34"/><path fill="none" stroke="#0f172a" stroke-opacity="0.1" d="m13.08 9.1-6.32 5.05 3.38-4.5a1 1 0 0 0-.1-1.31l-1.5-1.51Z"/></svg>