<svg xmlns="http://www.w3.org/2000/svg" xmlns:xlink="http://www.w3.org/1999/xlink" viewBox="0 0 16 16"><defs><path id="a" d="M11.5 5a1 1 0 0 1-1 1H9v5a1 1 0 0 1-2 0V6H5.5a1 1 0 1 1 0-2h5a1 1 0 0 1 1 1"/></defs><path fill="#64748b" fill-opacity=".4" fill-rule="evenodd" d="M5 1h6a4 4 0 0 1 4 4v6a4 4 0 0 1-4 4H5a4 4 0 0 1-4-4V5a4 4 0 0 1 4-4"/><path fill="none" stroke="#0f172a" stroke-opacity="0.1" d="M14.5 5v6a3.5 3.5 0 0 1-3.5 3.5H5A3.5 3.5 0 0 1 1.5 11V5A3.5 3.5 0 0 1 5 1.5h6A3.5 3.5 0 0 1 14.5 5Z"/><use fill="#f43f5e" href="#a"/><use fill="#0f172a" fill-opacity="0.1" href="#a"/></svg>