<svg xmlns="http://www.w3.org/2000/svg" viewBox="0 0 16 16"><path fill="#22c55e" fill-opacity=".6" fill-rule="evenodd" d="M11 15c.5-6.5-1-14-5.75-14C3 1 1.25 3.25 2.5 3s3 .5 3.5 2.5c.36 1.44 0 6.5-.5 9.5z"/><path fill="none" stroke="#0f172a" stroke-opacity="0.1" d="M10.53 14.5H6.09c.5-3.31.73-7.77.4-9.12C6.02 3.52 4.46 2.4 2.9 2.46a3.6 3.6 0 0 1 2.34-.96c3.73 0 5.74 5.74 5.28 13Z"/><path fill="#22c55e" fill-opacity=".8" fill-rule="evenodd" d="M12 15c-.25-1-.5-3.75.75-5 1-1 2.25-.75 2.5-1s-1.25-2.25-3-2.25Q7.5 6.75 7 15z"/><path fill="none" stroke="#0f172a" stroke-opacity="0.1" d="M14.16 8.15q.27.25.45.5l-.17.03-.4.08a4 4 0 0 0-.9.34q-.4.21-.74.55c-1.06 1.05-1.3 3.12-1.01 4.85H7.54c.39-4.91 1.97-7.25 4.7-7.25.64 0 1.33.34 1.92.9Z"/><path fill="#22c55e" fill-rule="evenodd" d="M4.75 15C4.75 12.5 4 9.5 1 8c2.5-2.5 8.5-.5 9 7z"/><path fill="none" stroke="#0f172a" stroke-opacity="0.1" d="M9.44 14.5h-4.2c-.1-2.84-1.15-5.18-3.36-6.57 2.65-1.78 6.95 1.02 7.56 6.57Z"/></svg>