<svg xmlns="http://www.w3.org/2000/svg" viewBox="0 0 16 16"><path fill="#3b82f6" fill-opacity=".4" fill-rule="evenodd" d="M2 14V3a1 1 0 0 1 1-1h3a1 1 0 0 1 1 1v11a1 1 0 0 1-1 1H3a1 1 0 0 1-1-1"/><path fill="none" stroke="#0f172a" stroke-opacity="0.1" d="M6.5 3v11a.5.5 0 0 1-.5.5H3a.5.5 0 0 1-.5-.5V3a.5.5 0 0 1 .5-.5h3a.5.5 0 0 1 .5.5Z"/><path fill="#22c55e" fill-rule="evenodd" d="M14 4v3a1 1 0 0 1-1 1h-1a5 5 0 0 0-5 5v1a1 1 0 0 1-1 1H3a1 1 0 0 1-1-1v-1.5A9.5 9.5 0 0 1 11.5 3H13a1 1 0 0 1 1 1"/><path fill="none" stroke="#0f172a" stroke-opacity="0.1" d="M13.5 4v3a.5.5 0 0 1-.5.5h-1A5.5 5.5 0 0 0 6.5 13v1a.5.5 0 0 1-.5.5H3a.5.5 0 0 1-.5-.5v-1.5a9 9 0 0 1 9-9H13a.5.5 0 0 1 .5.5Z"/></svg>