<svg xmlns="http://www.w3.org/2000/svg" xmlns:xlink="http://www.w3.org/1999/xlink" viewBox="0 0 16 16"><defs><path id="b" d="M5 13v-1.86l.12-.06.18-.1L7 10v3a1 1 0 0 1-2 0m6.47-6h1.03c.89 0 1.5.61 1.5 1.5a1 1 0 0 1-1.87.5h-.63c-.41 0-.5.08-.5.25 0 .06.23.25.5.25 1.29 0 2.5.98 2.5 2.25 0 1.32-1.03 2.25-2.5 2.25h-1c-.89 0-1.5-.61-1.5-1.5a1 1 0 0 1 1.87-.5h.63c.41 0 .5-.08.5-.25 0-.06-.23-.25-.5-.25-1.29 0-2.5-.97-2.5-2.25q0-.22.04-.43l1.17-.67A4 4 0 0 0 11.47 7"/><path id="a" fill="#14b8a6" d="M.8 3.19 5.7.35a2 2 0 0 1 1.52-.2l3.01.81a1 1 0 0 1 .71 1.23l-.8 3.01a2 2 0 0 1-.94 1.21L4.3 9.25a1.5 1.5 0 0 1-2.05-.55l-2-3.46A1.5 1.5 0 0 1 .8 3.19m5.33-.77a1.5 1.5 0 1 0 1.5 2.6 1.5 1.5 0 0 0-1.5-2.6"/></defs><use xlink:href="#a" fill-rule="evenodd"/><path fill="none" stroke="#0f172a" stroke-opacity="0.1" d="m7.1.64 3.01.8a.5.5 0 0 1 .36.62l-.81 3.01a1.5 1.5 0 0 1-.7.91L4.05 8.82a1 1 0 0 1-1.37-.37L.68 5a1 1 0 0 1 .37-1.37L5.96.8A1.5 1.5 0 0 1 7.1.64ZM5.88 1.99a2 2 0 1 0 2 3.46 2 2 0 0 0-2-3.46Z"/><use xlink:href="#a" fill-rule="evenodd"/><path fill="#3b82f6" fill-opacity=".4" fill-rule="evenodd" d="M12.98 2H13a3 3 0 0 1 3 3v8a3 3 0 0 1-3 3H5a3 3 0 0 1-3-3v-1.91a3.5 3.5 0 0 0 3.12-.01l.18-.1 4.91-2.83a4 4 0 0 0 1.86-2.43l.81-3.02q.1-.35.1-.7"/><path fill="#0f172a" fill-opacity="0.1" fill-rule="evenodd" d="M12.98 2H13a3 3 0 0 1 3 3v8a3 3 0 0 1-3 3H5a3 3 0 0 1-3-3v-1.91a4 4 0 0 0 1 .32V13a2 2 0 0 0 2 2h8a2 2 0 0 0 2-2V5a2 2 0 0 0-2-2h-.2l.08-.3q.1-.35.1-.7"/><use xlink:href="#b" fill="#3b82f6" fill-rule="evenodd"/><use xlink:href="#b" fill="#0f172a" fill-opacity="0.1" fill-rule="evenodd"/></svg>