<svg xmlns="http://www.w3.org/2000/svg" xmlns:xlink="http://www.w3.org/1999/xlink" viewBox="0 0 16 16"><defs><path id="a" d="M8.2 6.02a1 1 0 0 1 .78 1.18l-1 5a1 1 0 0 1-1.9.2l-.58-1.36-.58 1.35a1 1 0 0 1-1.9-.2l-1-5a1 1 0 0 1 1.96-.39l.37 1.85.23-.54a1 1 0 0 1 1.84 0l.23.54.37-1.85a1 1 0 0 1 1.18-.78m4.26.7 1.5 5a1 1 0 0 1-1.92.57l-.54-1.81-.54 1.8a1 1 0 0 1-1.92-.57l1.5-5a1 1 0 0 1 1.92 0"/></defs><path fill="#8b5cf6" fill-opacity=".4" fill-rule="evenodd" d="M11.5 1A3.5 3.5 0 0 1 15 4.5v7a3.5 3.5 0 0 1-3.5 3.5h-7A3.5 3.5 0 0 1 1 11.5v-7A3.5 3.5 0 0 1 4.5 1H6a2 2 0 1 0 4 0z"/><path fill="none" stroke="#0f172a" stroke-opacity="0.1" d="M8 3.5a2.5 2.5 0 0 0 2.45-2h1.05a3 3 0 0 1 3 3v7a3 3 0 0 1-3 3h-7a3 3 0 0 1-3-3v-7a3 3 0 0 1 3-3h1.05A2.5 2.5 0 0 0 8 3.5Z"/><use xlink:href="#a" fill="#8b5cf6" fill-rule="evenodd"/><use xlink:href="#a" fill="#0f172a" fill-opacity="0.1" fill-rule="evenodd"/></svg>