<svg xmlns="http://www.w3.org/2000/svg" viewBox="0 0 16 16"><path fill="#3b82f6" fill-opacity=".4" fill-rule="evenodd" d="M15 6.03v3.94a3.5 3.5 0 0 1-1.76 3.04l-3.5 2a3.5 3.5 0 0 1-3.48 0l-3.5-2A3.5 3.5 0 0 1 1 9.97V6.03A3.5 3.5 0 0 1 2.76 3l3.5-2a3.5 3.5 0 0 1 3.48 0l3.5 2A3.5 3.5 0 0 1 15 6.03"/><path fill="none" stroke="#0f172a" stroke-opacity="0.1" d="m9.31 1.33.18.1 3.5 2a3 3 0 0 1 1.51 2.6v3.94a3 3 0 0 1-1.51 2.6l-3.5 2a3 3 0 0 1-2.98 0l-3.5-2a3 3 0 0 1-1.51-2.6V6.03a3 3 0 0 1 1.51-2.6l3.5-2a3 3 0 0 1 2.8-.1Z"/><path fill="#3b82f6" fill-opacity=".8" fill-rule="evenodd" d="M7.23 2.96a1.5 1.5 0 0 1 1.54 0l3.5 2.1a1.5 1.5 0 0 1 .53.54L8 8 3.2 5.6a1.5 1.5 0 0 1 .53-.54z"/><path fill="#3b82f6" fill-rule="evenodd" d="m3.13 5.74.07-.14L8 8v5.25a1.5 1.5 0 0 1-.77-.21l-3.5-2.1A1.5 1.5 0 0 1 3 9.65v-3.3q0-.32.13-.61"/><path fill="#3b82f6" fill-opacity=".4" fill-rule="evenodd" d="M12.8 5.6q.2.34.2.75v3.3a1.5 1.5 0 0 1-.73 1.29l-3.5 2.1a1.5 1.5 0 0 1-.77.21V8z"/><path fill="none" stroke="#0f172a" stroke-opacity="0.1" d="m8.45 3.36.06.03 3.5 2.1a1 1 0 0 1 .49.86v3.3a1 1 0 0 1-.49.86l-3.5 2.1a1 1 0 0 1-1.02 0l-3.5-2.1a1 1 0 0 1-.49-.86v-3.3a1 1 0 0 1 .49-.86l3.5-2.1a1 1 0 0 1 .96-.03Z"/></svg>