<svg xmlns="http://www.w3.org/2000/svg" xmlns:xlink="http://www.w3.org/1999/xlink" viewBox="0 0 16 16"><defs><path id="a" d="M2 7.5v4a.5.5 0 1 1-1 0v-4a.5.5 0 0 1 1 0m13 0v4a.5.5 0 1 1-1 0v-4a.5.5 0 1 1 1 0m-9 7v1a.5.5 0 1 1-1 0v-1a.5.5 0 1 1 1 0m5 0v1a.5.5 0 1 1-1 0v-1a.5.5 0 1 1 1 0"/><path id="b" d="m4.93.24.75 1.25a.5.5 0 0 1-.86.52L4.07.76a.5.5 0 0 1 .86-.52m6.83-.17a.5.5 0 0 1 .17.69L11.18 2a.5.5 0 0 1-.86-.52l.75-1.25a.5.5 0 0 1 .69-.17"/></defs><use xlink:href="#a" fill="#16a34a" fill-opacity=".4" fill-rule="evenodd"/><use xlink:href="#a" fill="#020617" fill-opacity="0.1" fill-rule="evenodd"/><use xlink:href="#b" fill="#16a34a" fill-rule="evenodd"/><use xlink:href="#b" fill="#020617" fill-opacity="0.1" fill-rule="evenodd"/><path fill="#16a34a" fill-opacity=".4" fill-rule="evenodd" d="M5 14h6a2 2 0 0 0 2-2V7H3v5a2 2 0 0 0 2 2"/><path fill="none" stroke="#020617" stroke-opacity="0.1" d="M12.5 12a1.5 1.5 0 0 1-1.5 1.5H5A1.5 1.5 0 0 1 3.5 12V7.5h9Z"/><path fill="#16a34a" fill-rule="evenodd" d="M13 6A5 5 0 0 0 3 6z"/><path fill="none" stroke="#020617" stroke-opacity="0.1" d="M12.47 5.5H3.53a4.5 4.5 0 0 1 8.94 0Z"/></svg>