<svg xmlns="http://www.w3.org/2000/svg" xmlns:xlink="http://www.w3.org/1999/xlink" viewBox="0 0 16 16"><defs><path id="a" d="M6.14 13.82c-.6-.62-.78-1.9-.53-2.82.44.58 1.04.77 1.67.87.97.17 1.92.1 2.82-.38l.31-.2q.12.39.08.81a2.3 2.3 0 0 1-.86 1.6l-.6.44c-.62.46-.79 1-.55 1.78l.02.08a1.7 1.7 0 0 1-.72-.68 2 2 0 0 1-.28-1.03q0-.28-.02-.55-.08-.63-.6-.64c-.36-.01-.64.23-.72.62z"/></defs><use xlink:href="#a" fill="#e11d48" fill-opacity=".6"/><use xlink:href="#a" fill="#020617" fill-opacity="0.1"/><path fill="#7c3aed" fill-rule="evenodd" d="M1.5 12s2.2-1.2 4.4-1.2l1.65-5.78c.06-.28.24-.47.45-.47s.39.2.45.47l1.66 5.78c2.6 0 4.39 1.2 4.39 1.2L10.72.85A1.25 1.25 0 0 0 9.55 0H6.46a1.25 1.25 0 0 0-1.19.85z"/><path fill="none" stroke="#020617" stroke-opacity="0.1" d="m10.23.95.02.06 3.38 10-.17-.08a9 9 0 0 0-2.97-.62L8.93 4.88c-.1-.45-.46-.83-.93-.83s-.83.38-.94.86l-1.55 5.4q-1.37.09-2.81.62l-.36.14L5.75 1a.75.75 0 0 1 .71-.5h3.08a.8.8 0 0 1 .7.45Z"/></svg>