<svg xmlns="http://www.w3.org/2000/svg" viewBox="0 0 16 16"><circle cx="12.5" cy="7" r="2.5" fill="#e11d48" fill-opacity=".4" fill-rule="evenodd"/><circle cx="12.5" cy="7" r="2" fill="none" stroke="#020617" stroke-opacity="0.1"/><path fill="#e11d48" fill-rule="evenodd" d="M2.5 2H7c3.04 0 6 2.5 6 6s-2.96 6-6 6H2.5A1.5 1.5 0 0 1 1 12.5v-9A1.5 1.5 0 0 1 2.5 2M4 5v6h2.5c1.93 0 3.5-1 3.5-3S8.43 5 6.5 5z"/><path fill="none" stroke="#020617" stroke-opacity="0.1" d="M12.5 8c0 3.06-2.57 5.5-5.5 5.5H2.5a1 1 0 0 1-1-1v-9a1 1 0 0 1 1-1H7c2.93 0 5.5 2.44 5.5 5.5Zm-9-3.5v7h3c2.34 0 4-1.31 4-3.5s-1.66-3.5-4-3.5Z"/><circle cx="14.5" cy="2.5" r="1.5" fill="#e11d48" fill-opacity=".4" fill-rule="evenodd"/><circle cx="14.5" cy="2.5" r="1" fill="none" stroke="#020617" stroke-opacity="0.1"/></svg>