<svg xmlns="http://www.w3.org/2000/svg" viewBox="0 0 16 16"><path fill="#7c3aed" fill-opacity=".8" fill-rule="evenodd" d="M8 1a7 7 0 1 1 0 14A7 7 0 0 1 8 1m0 6a1 1 0 1 0 0 2 1 1 0 0 0 0-2"/><path fill="#e11d48" fill-rule="evenodd" d="M15 8H9a1 1 0 0 0-.04-.3l5.72-1.79Q15 6.91 15 8"/><path fill="#ca8a04" fill-rule="evenodd" d="m14.57 5.58.11.33-5.72 1.8a1 1 0 0 0-.14-.28l4.95-3.4q.5.72.8 1.55"/><path fill="#ea580c" fill-rule="evenodd" d="m13.77 4.03-4.94 3.4a1 1 0 0 0-.23-.23l3.6-4.8a7 7 0 0 1 1.57 1.63"/><path fill="#c026d3" fill-rule="evenodd" d="m11.93 2.2.27.2-3.6 4.8a1 1 0 0 0-.25-.14l2.1-5.62a7 7 0 0 1 1.48.77"/><path fill="#2563eb" fill-rule="evenodd" d="M1.01 8.36 1 8h6q0 .16.05.3l-5.73 1.79A7 7 0 0 1 1 8.36"/><path fill="#16a34a" fill-rule="evenodd" d="m7.18 8.57-4.95 3.4a7 7 0 0 1-.91-1.88l5.73-1.8q.04.15.13.28"/><path fill="#0d9488" fill-rule="evenodd" d="m7.32 8.73.08.07-3.6 4.8a7 7 0 0 1-1.57-1.63l4.95-3.4q.06.09.14.16"/><path fill="#65a30d" fill-rule="evenodd" d="m7.65 8.94-2.11 5.62a7 7 0 0 1-1.74-.96l3.6-4.8q.11.09.25.14"/><path fill="#020617" fill-opacity=".25" fill-rule="evenodd" d="M8 5a3 3 0 1 1 0 6 3 3 0 0 1 0-6m0 2a1 1 0 0 0-.12 2H8a1 1 0 0 0 .12-2z"/><path fill="none" stroke="#020617" stroke-opacity="0.1" d="M14.5 8a6.5 6.5 0 1 1-13 0 6.5 6.5 0 0 1 13 0Zm-8 0a1.5 1.5 0 1 0 3 0 1.5 1.5 0 0 0-3 0Z"/></svg>