<svg xmlns="http://www.w3.org/2000/svg" viewBox="0 0 16 16"><path fill="#16a34a" fill-rule="evenodd" d="M10 12.5v-10a.5.5 0 0 0-.5-.5h-2a.5.5 0 0 0-.5.5v2.75C4.5 5 2 6.68 2 9c0 2.4 1.25 4 4.25 4 1.75 0 2.5-.28 3.75-.5M4.75 9.25C4.75 8 5 7 7 7v4c-1.5 0-2.25-.5-2.25-1.75"/><path fill="none" stroke="#020617" stroke-opacity="0.1" d="m9.5 12.09-.2.04-.53.1c-.92.2-1.55.27-2.52.27-2.56 0-3.75-1.21-3.75-3.5 0-1.93 2.15-3.48 4.45-3.25l.55.05V2.5h2ZM7 6.5c-2.05 0-2.75.91-2.75 2.75 0 1.53.96 2.25 2.75 2.25h.5v-5Z"/><path fill="#16a34a" fill-opacity=".4" fill-rule="evenodd" d="M14.5 6h-2a.5.5 0 0 0-.5.5V11c0 2-1.25 3-2.5 3.75L12.25 16C14.5 14.75 15 13.5 15 11V6.5a.5.5 0 0 0-.5-.5"/><path fill="none" stroke="#020617" stroke-opacity="0.1" d="M14.5 6.5V11c0 2.38-.48 3.39-2.28 4.44l-1.7-.77c1.32-.96 1.98-2.04 1.98-3.67V6.5Z"/><path fill="#16a34a" fill-opacity=".4" fill-rule="evenodd" d="M12 2.5v2a.5.5 0 0 0 .5.5h2a.5.5 0 0 0 .5-.5v-2a.5.5 0 0 0-.5-.5h-2a.5.5 0 0 0-.5.5"/><path fill="none" stroke="#020617" stroke-opacity="0.1" d="M14.5 2.5v2h-2v-2Z"/></svg>