<svg xmlns="http://www.w3.org/2000/svg" xmlns:xlink="http://www.w3.org/1999/xlink" viewBox="0 0 16 16"><defs><path id="a" d="m8.07 13.56.25.43a1.75 1.75 0 0 0 2.39.64l3.36-1.94a1.38 1.38 0 0 0-1.38-2.38l-2.38 1.38A1.38 1.38 0 0 1 8.93 9.3l3.36-1.94a1.75 1.75 0 0 1 2.39.64l.25.43"/><path id="b" d="M9.5 3H13a2 2 0 0 1 1.99 1.77 4.5 4.5 0 0 0-4.07.22l-.03.01H1V4a3 3 0 0 1 3-3h1.5C8 1 8 3 9.5 3"/></defs><use xlink:href="#a" fill="none" stroke="#ea580c" stroke-linecap="round" stroke-linejoin="round" stroke-width="1.5"/><use xlink:href="#a" fill="none" stroke="#020617" stroke-linecap="round" stroke-linejoin="round" stroke-opacity="0.1" stroke-width="1.5"/><use xlink:href="#b" fill="#ea580c" fill-opacity=".4" fill-rule="evenodd"/><use xlink:href="#b" fill="#020617" fill-opacity="0.1" fill-rule="evenodd"/><path fill="#ea580c" fill-opacity=".8" fill-rule="evenodd" d="m9.16 6-1.6.92a4.1 4.1 0 0 0-1.77 5.1 2.7 2.7 0 0 0-.1 2.91l.04.07H3.9a3 3 0 0 1-2.93-2.35L.04 8.44 0 8.16v-.32A2 2 0 0 1 2 6z"/><path fill="#020617" fill-opacity="0.1" fill-rule="evenodd" d="m9.16 6-1.6.92-.13.08H2a1 1 0 0 0-.97 1.22l.93 4.21A2 2 0 0 0 3.91 14h1.44q.09.49.34.93l.04.07H3.9a3 3 0 0 1-2.93-2.35L.04 8.44 0 8.16v-.32A2 2 0 0 1 2 6z"/></svg>