<svg xmlns="http://www.w3.org/2000/svg" xmlns:xlink="http://www.w3.org/1999/xlink" viewBox="0 0 16 16"><defs><path id="a" d="M9 8v1.75c0 .69.56 1.25 1.25 1.25h1.5c.69 0 1.25-.56 1.25-1.25V8h.54a.5.5 0 0 1 .36.15l1.95 1.95a.5.5 0 0 1 .15.36v5.04a.5.5 0 0 1-.5.5H15v-2.75a1.25 1.25 0 0 0-1.12-1.24l-.13-.01h-3.5C9.56 12 9 12.56 9 13.25V16h-.5a.5.5 0 0 1-.5-.5v-7a.5.5 0 0 1 .5-.5zm1.25 5h3.5a.25.25 0 0 1 .25.25V16h-4v-2.75a.25.25 0 0 1 .2-.24zM12 8v1.75a.25.25 0 0 1-.25.25h-1.5a.25.25 0 0 1-.25-.25V8z"/><path id="b" d="M9.5 3H13a2 2 0 0 1 2 2H1V4a3 3 0 0 1 3-3h1.5C8 1 8 3 9.5 3"/></defs><use xlink:href="#a" fill="#475569" fill-rule="evenodd"/><use xlink:href="#a" fill="#020617" fill-opacity="0.1" fill-rule="evenodd"/><use xlink:href="#b" fill="#475569" fill-opacity=".4" fill-rule="evenodd"/><use xlink:href="#b" fill="#020617" fill-opacity="0.1" fill-rule="evenodd"/><path fill="#475569" fill-opacity=".8" fill-rule="evenodd" d="M2 6h6.5A2.5 2.5 0 0 0 6 8.5V15H3.9a3 3 0 0 1-2.92-2.35L.04 8.44 0 8.16v-.32A2 2 0 0 1 2 6m12 0a2 2 0 0 1 1.88 1.3l-.57-.57A2.5 2.5 0 0 0 13.57 6z"/><path fill="#020617" fill-opacity="0.1" fill-rule="evenodd" d="M2 6h6.5c-.82 0-1.54.4-2 1H2a1 1 0 0 0-.98 1.22l.93 4.21A2 2 0 0 0 3.91 14H6v1H3.9a3 3 0 0 1-2.92-2.35L.04 8.44 0 8.16v-.32A2 2 0 0 1 2 6m12 0a2 2 0 0 1 1.88 1.3l-.57-.57A2.5 2.5 0 0 0 13.57 6z"/></svg>