<svg xmlns="http://www.w3.org/2000/svg" xmlns:xlink="http://www.w3.org/1999/xlink" viewBox="0 0 16 16"><defs><path id="b" d="M9.5 3H13a2 2 0 0 1 2 2H1V4a3 3 0 0 1 3-3h1.5C8 1 8 3 9.5 3"/><path id="a" d="m12.4 7.55 3.5 7a1 1 0 0 1-1.3 1.36l-4.5-2a1 1 0 0 1-.33-.22l-.88 1.76a1 1 0 0 1-1.78-.9l3.5-7a1 1 0 0 1 1.78 0m-1.78 4.46a1 1 0 0 1 .3.08l1.95.86-1.36-2.71z"/></defs><use fill="#0d9488" href="#a"/><use fill="#020617" fill-opacity="0.1" href="#a"/><use xlink:href="#b" fill="#0d9488" fill-opacity=".4" fill-rule="evenodd"/><use xlink:href="#b" fill="#020617" fill-opacity="0.1" fill-rule="evenodd"/><path fill="#0d9488" fill-opacity=".8" fill-rule="evenodd" d="m8.91 6.48-.1.18-3.5 7A3 3 0 0 0 5 15H3.9a3 3 0 0 1-2.92-2.35L.04 8.44 0 8.16v-.32A2 2 0 0 1 2 6h7.26a3 3 0 0 0-.35.48m5.1-.48a2 2 0 0 1 2 1.83v.33l-.05.27-.28 1.23-1.5-3a3 3 0 0 0-.44-.66z"/><path fill="#020617" fill-opacity="0.1" fill-rule="evenodd" d="m8.91 6.48-.1.18-.17.34H2a1 1 0 0 0-.97 1.22l.93 4.21A2 2 0 0 0 3.91 14h1.26A3 3 0 0 0 5 15H3.9a3 3 0 0 1-2.92-2.35L.04 8.44 0 8.16v-.32A2 2 0 0 1 2 6h7.26a3 3 0 0 0-.35.48m5.1-.48a2 2 0 0 1 2 1.83v.33l-.05.27-.28 1.23-.7-1.41v-.03L15 8.1a1 1 0 0 0-.6-1.02l-.22-.42a3 3 0 0 0-.44-.66z"/></svg>