<svg xmlns="http://www.w3.org/2000/svg" xmlns:xlink="http://www.w3.org/1999/xlink" viewBox="0 0 16 16"><defs><path id="a" d="M14 8a2 2 0 0 1 2 2v4a2 2 0 0 1-2 2h-4a2 2 0 0 1-2-2v-4a2 2 0 0 1 2-2zm-4 6h3.12l.05-.01.05-.01h.01l.07-.02.02-.01h.02l.06-.03.03-.02h.02l.15-.1.1-.1.03-.02.02-.02.02-.02.02-.02.02-.03.1-.16v-.03l.03-.06v-.02l.02-.03.01-.05v-.02l.02-.07L14 13v.07V10a1 1 0 0 0-2 0v.58l-1.34-1.33a1 1 0 0 0-1.41 1.41L10.59 12H10a1 1 0 0 0 0 2"/><path id="b" d="M9.5 3H12a3 3 0 0 1 3 3v.13a4 4 0 0 0-.76-.12A3 3 0 0 0 12 5H4a3 3 0 0 0-3 3V4a3 3 0 0 1 3-3h1.5C8 1 8 3 9.5 3"/></defs><use xlink:href="#a" fill="#65a30d" fill-rule="evenodd"/><use xlink:href="#a" fill="#020617" fill-opacity="0.1" fill-rule="evenodd"/><use xlink:href="#b" fill="#65a30d" fill-opacity=".4" fill-rule="evenodd"/><use xlink:href="#b" fill="#020617" fill-opacity="0.1" fill-rule="evenodd"/><path fill="#65a30d" fill-opacity=".8" fill-rule="evenodd" d="M14.24 6H10a4 4 0 0 0-4 4v4q0 .52.13 1H4a3 3 0 0 1-3-3V8a3 3 0 0 1 3-3h8a3 3 0 0 1 2.24 1"/><path fill="#020617" fill-opacity="0.1" fill-rule="evenodd" d="M14.24 6H4a2 2 0 0 0-2 2v4a2 2 0 0 0 2 2h2q0 .52.13 1H4a3 3 0 0 1-3-3V8a3 3 0 0 1 3-3h8a3 3 0 0 1 2.24 1"/></svg>