<svg xmlns="http://www.w3.org/2000/svg" xmlns:xlink="http://www.w3.org/1999/xlink" viewBox="0 0 16 16"><defs><path id="a" d="M14.5 13a.5.5 0 0 1 .5.5v.5h.5a.5.5 0 1 1 0 1H15v.5a.5.5 0 1 1-1 0V15h-.5a.5.5 0 1 1 0-1h.5v-.5a.5.5 0 0 1 .5-.5m-2.92-5.53.36 1.24a2 2 0 0 0 1.36 1.35l1.23.36a.6.6 0 0 1 0 1.16l-1.23.36a2 2 0 0 0-1.36 1.36l-.36 1.23a.6.6 0 0 1-1.16 0l-.36-1.23a2 2 0 0 0-1.35-1.36l-1.24-.36a.6.6 0 0 1 0-1.16l1.24-.36a2 2 0 0 0 1.35-1.35l.36-1.24a.6.6 0 0 1 1.16 0"/><path id="b" d="M9.5 3H13a2 2 0 0 1 2 2H1V4a3 3 0 0 1 3-3h1.5C8 1 8 3 9.5 3"/></defs><use xlink:href="#a" fill="#7c3aed" fill-rule="evenodd"/><use xlink:href="#a" fill="#020617" fill-opacity="0.1" fill-rule="evenodd"/><use xlink:href="#b" fill="#7c3aed" fill-opacity=".4" fill-rule="evenodd"/><use xlink:href="#b" fill="#020617" fill-opacity="0.1" fill-rule="evenodd"/><path fill="#7c3aed" fill-opacity=".8" fill-rule="evenodd" d="m8.5 6.9-.36 1.24-1.23.37c-2.5.72-2.5 4.26 0 4.99l1.23.36.34 1.14H3.9a3 3 0 0 1-2.93-2.35L.04 8.44 0 8.16v-.32A2 2 0 0 1 2 6h6.97q-.3.38-.47.9M14 6a2 2 0 0 1 2 1.85v.3l-.04.28-.1.44-.02-.02a3 3 0 0 0-.75-.34l-1.23-.37-.37-1.23a3 3 0 0 0-.46-.91z"/><path fill="#020617" fill-opacity="0.1" fill-rule="evenodd" d="m8.5 6.9-.02.1H1.99a1 1 0 0 0-.97 1.22l.93 4.21A2 2 0 0 0 3.91 14h4.27l.3 1H3.9a3 3 0 0 1-2.93-2.35L.04 8.44 0 8.16v-.32A2 2 0 0 1 2 6h6.97q-.3.38-.47.9M14 6a2 2 0 0 1 2 1.85v.3l-.04.28-.1.44-.02-.02a3 3 0 0 0-.75-.34l-.16-.05.05-.24.02-.12A1 1 0 0 0 14 7h-.48l-.02-.1a3 3 0 0 0-.46-.9z"/></svg>