<svg xmlns="http://www.w3.org/2000/svg" xmlns:xlink="http://www.w3.org/1999/xlink" viewBox="0 0 16 16"><defs><path id="a" d="M13 15a.5.5 0 1 1 0 1h-3a.5.5 0 1 1 0-1H8a1 1 0 0 1-1-1V9a1 1 0 0 1 1-1h7a1 1 0 0 1 1 1v5a1 1 0 0 1-1 1zM8.5 9.5v4h6v-4z"/><path id="b" d="M9.5 3H12a3 3 0 0 1 3 3h-.76A3 3 0 0 0 12 5H4a3 3 0 0 0-3 3V4a3 3 0 0 1 3-3h1.5C8 1 8 3 9.5 3"/></defs><use xlink:href="#a" fill="#7c3aed" fill-rule="evenodd"/><use xlink:href="#a" fill="#020617" fill-opacity="0.1" fill-rule="evenodd"/><use xlink:href="#b" fill="#7c3aed" fill-opacity=".4" fill-rule="evenodd"/><use xlink:href="#b" fill="#020617" fill-opacity="0.1" fill-rule="evenodd"/><path fill="#7c3aed" fill-opacity=".8" fill-rule="evenodd" d="M12 5c.89 0 1.69.39 2.24 1H8a3 3 0 0 0-3 3v5q0 .53.17 1H4a3 3 0 0 1-3-3V8a3 3 0 0 1 3-3z"/><path fill="#020617" fill-opacity="0.1" fill-rule="evenodd" d="M14.24 6H4a2 2 0 0 0-2 2v4a2 2 0 0 0 2 2h1v.23q.04.4.17.77H4a3 3 0 0 1-3-3V8a3 3 0 0 1 3-3h8c.89 0 1.69.39 2.24 1"/></svg>