<svg xmlns="http://www.w3.org/2000/svg" xmlns:xlink="http://www.w3.org/1999/xlink" viewBox="0 0 16 16"><defs><path id="a" d="M7.25 10.04a.75.75 0 0 1 .46.96l-1.25 3.5a.75.75 0 1 1-1.42-.5l1.25-3.5a.75.75 0 0 1 .96-.46m5.25 0a.75.75 0 0 1 .46.96l-1.25 3.5a.75.75 0 1 1-1.42-.5l1.25-3.5a.75.75 0 0 1 .96-.46m-2.25-1a.75.75 0 0 1 .46.96l-1.25 3.5a.75.75 0 1 1-1.42-.5L9.3 9.5a.75.75 0 0 1 .96-.46m5.25 0a.75.75 0 0 1 .46.96l-1.25 3.5a.75.75 0 1 1-1.42-.5l1.25-3.5a.75.75 0 0 1 .96-.46"/><path id="b" d="M9.5 3H12a3 3 0 0 1 3 3v1.01l-.16.02A3 3 0 0 0 12 5H4a3 3 0 0 0-3 3V4a3 3 0 0 1 3-3h1.5C8 1 8 3 9.5 3"/></defs><use xlink:href="#a" fill="#16a34a" fill-rule="evenodd"/><use xlink:href="#a" fill="#020617" fill-opacity="0.1" fill-rule="evenodd"/><use xlink:href="#b" fill="#16a34a" fill-opacity=".4" fill-rule="evenodd"/><use xlink:href="#b" fill="#020617" fill-opacity="0.1" fill-rule="evenodd"/><path fill="#16a34a" fill-opacity=".8" fill-rule="evenodd" d="M12 5a3 3 0 0 1 2.84 2.03 2.8 2.8 0 0 0-1.8 1.09 3 3 0 0 0-.92-.12 3 3 0 0 0-.94-.73l-.26-.11a2.75 2.75 0 0 0-3.13.96 2.75 2.75 0 0 0-3.38 1.7l-1.25 3.5a3 3 0 0 0-.1 1.53A3 3 0 0 1 1 12V8a3 3 0 0 1 3-3z"/><path fill="#020617" fill-opacity="0.1" fill-rule="evenodd" d="M12 5a3 3 0 0 1 2.84 2.03q-.5.08-.95.33A2 2 0 0 0 12 6H4a2 2 0 0 0-2 2v4a2 2 0 0 0 1.05 1.76q-.1.56.02 1.09A3 3 0 0 1 1 12V8a3 3 0 0 1 3-3z"/></svg>