<svg xmlns="http://www.w3.org/2000/svg" xmlns:xlink="http://www.w3.org/1999/xlink" viewBox="0 0 16 16"><defs><path id="a" d="M11.59 7q.9 0 1.7.31.8.3 1.4.86.6.54.96 1.29.35.75.35 1.61 0 1.3-.79 1.99-.79.7-1.91.69h-.83q-.1 0-.14.06a.2.2 0 0 0-.04.12q0 .14.17.39.16.25.16.58 0 .56-.3.83-.31.27-.82.27a4 4 0 0 1-1.74-.35 5 5 0 0 1-1.44-.97 5 5 0 0 1-.97-1.44A4 4 0 0 1 7 11.5q0-.93.37-1.75a5 5 0 0 1 .99-1.43 5 5 0 0 1 1.45-.96A5 5 0 0 1 11.6 7M9 10a1 1 0 1 0 0 2 1 1 0 0 0 0-2m5 0a1 1 0 1 0 0 2 1 1 0 0 0 0-2m-2.5-2a1 1 0 1 0 0 2 1 1 0 0 0 0-2"/><path id="b" d="M9.5 3H12a3 3 0 0 1 3 2.92 7 7 0 0 0-2.22-.82A3 3 0 0 0 12 5H4a3 3 0 0 0-3 3V4a3 3 0 0 1 3-3h1.5C8 1 8 3 9.5 3"/></defs><use xlink:href="#a" fill="#7c3aed"/><use xlink:href="#a" fill="#020617" fill-opacity="0.1"/><use xlink:href="#b" fill="#7c3aed" fill-opacity=".4" fill-rule="evenodd"/><use xlink:href="#b" fill="#020617" fill-opacity="0.1" fill-rule="evenodd"/><path fill="#7c3aed" fill-opacity=".8" fill-rule="evenodd" d="M4 5h7.59a6.5 6.5 0 0 0-4.63 1.88 7 7 0 0 0-1.42 2.05 6.4 6.4 0 0 0-.02 5.1q.22.51.51.97H4a3 3 0 0 1-3-3V8a3 3 0 0 1 3-3"/><path fill="#020617" fill-opacity="0.1" fill-rule="evenodd" d="M4 14h1.5l.02.04q.22.5.51.96H4a3 3 0 0 1-3-3V8a3 3 0 0 1 3-3h7.59q-1.35 0-2.56.51a7 7 0 0 0-.94.49H4a2 2 0 0 0-2 2v4a2 2 0 0 0 2 2"/></svg>