<svg xmlns="http://www.w3.org/2000/svg" xmlns:xlink="http://www.w3.org/1999/xlink" viewBox="0 0 16 16"><defs><path id="a" d="M15.87 11q.13.48.13 1a4 4 0 0 1-3.5 3.97V12.5a.5.5 0 1 0-1 0v3.47A4 4 0 0 1 8.13 11zM9.85 7.15l1.02 1.01a4 4 0 0 1 2.26 0l1.02-1.01a.5.5 0 0 1 .7.7l-.74.75a4 4 0 0 1 1.36 1.4H8.54a4 4 0 0 1 1.35-1.4l-.74-.75a.5.5 0 1 1 .7-.7"/><path id="b" d="M9.5 3H13a2 2 0 0 1 2 2H1V4a3 3 0 0 1 3-3h1.5C8 1 8 3 9.5 3"/></defs><use xlink:href="#a" fill="#e11d48" fill-rule="evenodd"/><use xlink:href="#a" fill="#020617" fill-opacity="0.1" fill-rule="evenodd"/><use xlink:href="#b" fill="#e11d48" fill-opacity=".4" fill-rule="evenodd"/><use xlink:href="#b" fill="#020617" fill-opacity="0.1" fill-rule="evenodd"/><path fill="#e11d48" fill-opacity=".8" fill-rule="evenodd" d="M7.18 8.43 6.8 9q-.21.38-.26.78-.24.3-.35.72A6 6 0 0 0 6.8 15H3.9a3 3 0 0 1-2.92-2.35L.04 8.44 0 8.16v-.32A2 2 0 0 1 2 6h5.5a2.5 2.5 0 0 0-.32 2.43"/><path fill="#020617" fill-opacity="0.1" fill-rule="evenodd" d="M7.05 7H1.99a1 1 0 0 0-.97 1.22l.93 4.21A2 2 0 0 0 3.91 14h2.43q.19.53.46 1H3.9a3 3 0 0 1-2.92-2.35L.04 8.44 0 8.16v-.32A2 2 0 0 1 2 6h5.5a2.5 2.5 0 0 0-.45 1"/></svg>