<svg xmlns="http://www.w3.org/2000/svg" xmlns:xlink="http://www.w3.org/1999/xlink" viewBox="0 0 16 16"><defs><path id="a" d="M9 14.25v.5q.02.23.25.25h.5a.25.25 0 0 1 .25.25v.5a.25.25 0 0 1-.25.25h-1.5a.25.25 0 0 1-.25-.25v-1.5a.25.25 0 0 1 .25-.25h.5a.25.25 0 0 1 .25.25m7-6v3.64a.3.3 0 0 1-.08.18l-1.84 1.6a.3.3 0 0 0-.08.2v1.88a.25.25 0 0 1-.25.25H11.6a.3.3 0 0 1-.17-.07l-.79-.79a.25.25 0 0 1-.03-.31l.28-.4a.25.25 0 0 0-.03-.33l-.96-.96a.25.25 0 0 0-.32-.03l-.4.28a.25.25 0 0 1-.33-.03l-.78-.79A.3.3 0 0 1 8 12.4v-2.15a.25.25 0 0 1 .25-.25h2.13a.3.3 0 0 0 .2-.1l1.34-1.8a.3.3 0 0 1 .2-.1h3.63a.25.25 0 0 1 .25.25M14 9a1 1 0 1 0 0 2 1 1 0 0 0 0-2"/><path id="b" d="M9.5 3H12a3 3 0 0 1 3 3h-.76A3 3 0 0 0 12 5H4a3 3 0 0 0-3 3V4a3 3 0 0 1 3-3h1.5C8 1 8 3 9.5 3"/></defs><use xlink:href="#a" fill="#0284c7" fill-rule="evenodd"/><use xlink:href="#a" fill="#020617" fill-opacity="0.1" fill-rule="evenodd"/><use xlink:href="#b" fill="#0284c7" fill-opacity=".4" fill-rule="evenodd"/><use xlink:href="#b" fill="#020617" fill-opacity="0.1" fill-rule="evenodd"/><path fill="#0284c7" fill-opacity=".8" fill-rule="evenodd" d="M12 5c.89 0 1.69.39 2.24 1H12a2 2 0 0 0-1.6.8L9.5 8H8a2 2 0 0 0-2 2v5H4a3 3 0 0 1-3-3V8a3 3 0 0 1 3-3z"/><path fill="#020617" fill-opacity="0.1" fill-rule="evenodd" d="M14.24 6H4a2 2 0 0 0-2 2v4a2 2 0 0 0 2 2h2v1H4a3 3 0 0 1-3-3V8a3 3 0 0 1 3-3h8c.89 0 1.69.39 2.24 1"/></svg>