<svg xmlns="http://www.w3.org/2000/svg" xmlns:xlink="http://www.w3.org/1999/xlink" viewBox="0 0 16 16"><defs><path id="a" d="m11 7.68.13-.1q.84-.62 1.65-.6.46.02.87.28c.76.47.98 1.3.83 2.31.94.4 1.52 1.04 1.52 1.93s-.58 1.52-1.52 1.93c.15 1-.07 1.84-.83 2.31a2 2 0 0 1-.87.28 2.8 2.8 0 0 1-1.78-.7q-.9.71-1.78.7a2 2 0 0 1-.87-.28c-.76-.47-.98-1.3-.83-2.31C6.58 13.03 6 12.39 6 11.5s.58-1.52 1.52-1.93c-.15-1 .07-1.84.83-2.31a2 2 0 0 1 .87-.28 2.8 2.8 0 0 1 1.78.7m-1.99 7q.1.07.24.08.34.02.83-.3-.22-.25-.43-.53a10 10 0 0 1-.92-.14q-.05.68.28.89m4.27-.74v-.15l-.18.04q-.36.06-.75.1l-.43.52q.48.33.83.3l.24-.07q.3-.19.29-.74m-3.34-1.78.25.4.13.17a14 14 0 0 0 1.36 0 14 14 0 0 0 .77-1.23l-.4-.66-.23-.37-.14-.2a14 14 0 0 0-1.37 0 15 15 0 0 0-.76 1.23q.17.32.39.66m-2.1-1.37-.06.03q-.53.31-.53.68 0 .4.6.71.13-.35.3-.71zm6.3 0-.11.28-.13.29-.06.14q.17.36.3.71.6-.31.6-.71c0-.4-.2-.5-.6-.71M9.01 8.32q-.34.21-.28.89.43-.1.92-.14l.43-.52a2 2 0 0 0-.72-.3.6.6 0 0 0-.35.07m2.95.2-.04.03q.22.24.43.52.48.05.92.14.05-.68-.28-.89l-.24-.08q-.32-.02-.8.28"/><path id="b" d="M9.5 3H12a3 3 0 0 1 2.99 2.76l-.28-.2a3.8 3.8 0 0 0-2.46-.55L12 5H9.66l-.53-.01-.18.01H4a3 3 0 0 0-3 3V4a3 3 0 0 1 3-3h1.5C8 1 8 3 9.5 3"/></defs><use xlink:href="#a" fill="#0284c7" fill-rule="evenodd"/><use xlink:href="#a" fill="#020617" fill-opacity="0.1" fill-rule="evenodd"/><use xlink:href="#b" fill="#0284c7" fill-opacity=".4" fill-rule="evenodd"/><use xlink:href="#b" fill="#020617" fill-opacity="0.1" fill-rule="evenodd"/><path fill="#0284c7" fill-opacity=".8" fill-rule="evenodd" d="M4 5h4.95l.18-.01a4 4 0 0 0-1.84.57 3.8 3.8 0 0 0-1.78 2.9C4.56 9.2 4 10.23 4 11.5s.56 2.3 1.5 3.04q.03.24.08.46H4a3 3 0 0 1-3-3V8a3 3 0 0 1 3-3m8 0 .25.01q-.64.08-1.25.35A4 4 0 0 0 9.66 5z"/><path fill="#020617" fill-opacity="0.1" fill-rule="evenodd" d="M4 5h4.95l.18-.01a4 4 0 0 0-1.84.57 4 4 0 0 0-.58.44H4a2 2 0 0 0-2 2v4a2 2 0 0 0 2 2h.93q.26.3.58.54.02.24.07.46H4a3 3 0 0 1-3-3V8a3 3 0 0 1 3-3m8 0 .25.01q-.64.08-1.25.35A4 4 0 0 0 9.66 5z"/></svg>