<svg xmlns="http://www.w3.org/2000/svg" xmlns:xlink="http://www.w3.org/1999/xlink" viewBox="0 0 16 16"><defs><path id="a" d="M10.56 8.17a1 1 0 0 1 .27 1.38L9.2 12l1.63 2.44a1 1 0 1 1-1.66 1.12l-2-3a1 1 0 0 1 0-1.12l2-3a1 1 0 0 1 1.39-.27m3.27.28 2 3a1 1 0 0 1 0 1.1l-2 3a1 1 0 1 1-1.66-1.1L13.8 12l-1.63-2.44a1 1 0 1 1 1.66-1.12"/><path id="b" d="M9.5 3H13a2 2 0 0 1 2 2H1V4a3 3 0 0 1 3-3h1.5C8 1 8 3 9.5 3"/></defs><use xlink:href="#a" fill="#16a34a" fill-rule="evenodd"/><use xlink:href="#a" fill="#020617" fill-opacity="0.1" fill-rule="evenodd"/><use xlink:href="#b" fill="#16a34a" fill-opacity=".4" fill-rule="evenodd"/><use xlink:href="#b" fill="#020617" fill-opacity="0.1" fill-rule="evenodd"/><path fill="#16a34a" fill-opacity=".8" fill-rule="evenodd" d="M14 6a2 2 0 0 1 2 1.83v.26l-.5-.75a3 3 0 0 0-3.83-1.02l-.17.08a3 3 0 0 0-4 .93l-2 3a3 3 0 0 0 0 3.33L6.4 15H3.9a3 3 0 0 1-2.92-2.35L.04 8.44 0 8.16v-.32A2 2 0 0 1 2 6z"/><path fill="#020617" fill-opacity="0.1" fill-rule="evenodd" d="M14 6a2 2 0 0 1 2 1.83v.26l-.5-.75a3 3 0 0 0-3.83-1.02l-.17.08a3 3 0 0 0-3.74.6H2a1 1 0 0 0-.97 1.22l.93 4.21A2 2 0 0 0 3.91 14h1.82l.66 1H3.91a3 3 0 0 1-2.93-2.35L.04 8.44 0 8.16v-.32A2 2 0 0 1 2 6z"/></svg>