<svg xmlns="http://www.w3.org/2000/svg" xmlns:xlink="http://www.w3.org/1999/xlink" viewBox="0 0 16 16"><defs><path id="a" d="M15 11.5q0 .58-.18 1.11l1.03 1.04a.5.5 0 0 1 0 .7l-1.5 1.5a.5.5 0 0 1-.7 0l-1.04-1.03a3.5 3.5 0 0 1-4.46-4.34.5.5 0 0 1 .83-.2l1.67 1.66a.5.5 0 0 0 .7 0l.59-.59a.5.5 0 0 0 0-.7l-1.66-1.67a.5.5 0 0 1 .2-.83A3.5 3.5 0 0 1 15 11.5"/><path id="b" d="M9.5 3H13a2 2 0 0 1 2 2H1V4a3 3 0 0 1 3-3h1.5C8 1 8 3 9.5 3"/></defs><use xlink:href="#a" fill="#ca8a04"/><use xlink:href="#a" fill="#020617" fill-opacity="0.1"/><use xlink:href="#b" fill="#ca8a04" fill-opacity=".4" fill-rule="evenodd"/><use xlink:href="#b" fill="#020617" fill-opacity="0.1" fill-rule="evenodd"/><path fill="#ca8a04" fill-opacity=".8" fill-rule="evenodd" d="M16 7.83v.33l-.02.15.02.03a5.5 5.5 0 0 0-6.1-2.1 2.5 2.5 0 0 0-1.73 1.93A2.5 2.5 0 0 0 6.24 9.9 5.5 5.5 0 0 0 7.26 15H3.9a3 3 0 0 1-2.93-2.35L.04 8.44 0 8.16v-.33A2 2 0 0 1 2 6h12a2 2 0 0 1 2 1.83"/><path fill="#020617" fill-opacity="0.1" fill-rule="evenodd" d="M16 7.83v.33l-.02.15.02.03a5.5 5.5 0 0 0-6.1-2.1A2.5 2.5 0 0 0 8.73 7H1.99a1 1 0 0 0-.97 1.22l.93 4.21A2 2 0 0 0 3.91 14H6.6q.28.54.66 1H3.9a3 3 0 0 1-2.93-2.35L.04 8.44 0 8.16v-.33A2 2 0 0 1 2 6h12a2 2 0 0 1 2 1.83"/></svg>