<svg xmlns="http://www.w3.org/2000/svg" xmlns:xlink="http://www.w3.org/1999/xlink" viewBox="0 0 16 16"><defs><path id="a" d="M12 8v1h-1v6h1v1H9v-1h1v-1H8.5A1.5 1.5 0 0 1 7 12.5v-1A1.5 1.5 0 0 1 8.5 10H10V9H9V8zm2.5 2a1.5 1.5 0 0 1 1.5 1.5v1a1.5 1.5 0 0 1-1.5 1.5H12v-1h2.5a.5.5 0 0 0 .5-.5v-1a.5.5 0 0 0-.5-.5H12v-1zM10 11H8.5a.5.5 0 0 0-.5.5v1a.5.5 0 0 0 .5.5H10z"/><path id="b" d="M9.5 3H13a2 2 0 0 1 2 2H1V4a3 3 0 0 1 3-3h1.5C8 1 8 3 9.5 3"/></defs><use xlink:href="#a" fill="#475569" fill-rule="evenodd"/><use xlink:href="#a" fill="#020617" fill-opacity="0.1" fill-rule="evenodd"/><use xlink:href="#b" fill="#475569" fill-opacity=".4" fill-rule="evenodd"/><use xlink:href="#b" fill="#020617" fill-opacity="0.1" fill-rule="evenodd"/><path fill="#475569" fill-opacity=".8" fill-rule="evenodd" d="M2 6h7a2 2 0 0 0-2 2v.34a3.5 3.5 0 0 0-2 3.16v1c0 .98.4 1.87 1.05 2.5H3.91a3 3 0 0 1-2.93-2.35L.04 8.44 0 8.16v-.32A2 2 0 0 1 2 6m13.98 2.33H16A3.5 3.5 0 0 0 14.5 8H14a2 2 0 0 0-2-2h2a2 2 0 0 1 2 1.84v.32z"/><path fill="#020617" fill-opacity="0.1" fill-rule="evenodd" d="M2 6h7a2 2 0 0 0-1.73 1H1.99a1 1 0 0 0-.97 1.22l.93 4.21A2 2 0 0 0 3.91 14h1.43q.27.57.71 1H3.91a3 3 0 0 1-2.93-2.35L.04 8.44 0 8.16v-.32A2 2 0 0 1 2 6m13.98 2.33H16a4 4 0 0 0-1-.3v.07A1 1 0 0 0 14 7h-.27A2 2 0 0 0 12 6h2a2 2 0 0 1 2 1.84v.32z"/></svg>