<svg xmlns="http://www.w3.org/2000/svg" xmlns:xlink="http://www.w3.org/1999/xlink" viewBox="0 0 16 16"><defs><path id="a" d="m15.95 12.24-.05.23a5 5 0 0 1-.3.95 4 4 0 0 1-.66 1.05 4 4 0 0 1-1.6 1.17l-.42.15a5 5 0 0 1-1.42.2A4.44 4.44 0 0 1 7 11.73v-.22a5 5 0 0 1 .08-.86 5 5 0 0 1 .48-1.36A4.4 4.4 0 0 1 9.4 7.5l.45-.2A5 5 0 0 1 11.5 7a4.4 4.4 0 0 1 4.5 4.5q0 .38-.05.74M11.5 8q-.3 0-.6.05l.1.1a.75.75 0 0 1 .12.97l-.8 1.2a.8.8 0 0 1-.47.32l-.73.14-.53.68a1 1 0 0 1-.58.3 3.5 3.5 0 0 0 4.34 3.14l-.06-.16-.1-.27-.67-.27a.8.8 0 0 1-.47-.7v-1.4a.75.75 0 0 1 .51-.71l1.2-.4a1 1 0 0 1 .32-.03l1.8.2.1.02A3.5 3.5 0 0 0 11.5 8"/><path id="b" d="M9.5 3H12a3 3 0 0 1 3 3v.02a7 7 0 0 0-1.97-.84A3 3 0 0 0 12 5H4a3 3 0 0 0-3 3V4a3 3 0 0 1 3-3h1.5C8 1 8 3 9.5 3"/></defs><use xlink:href="#a" fill="#2563eb" fill-rule="evenodd"/><use xlink:href="#a" fill="#020617" fill-opacity="0.1" fill-rule="evenodd"/><use xlink:href="#b" fill="#2563eb" fill-opacity=".4" fill-rule="evenodd"/><use xlink:href="#b" fill="#020617" fill-opacity="0.1" fill-rule="evenodd"/><path fill="#2563eb" fill-opacity=".8" fill-rule="evenodd" d="M12 5a3 3 0 0 1 1.03.18 6.5 6.5 0 0 0-7 9.82H4a3 3 0 0 1-3-3V8a3 3 0 0 1 3-3z"/><path fill="#020617" fill-opacity="0.1" fill-rule="evenodd" d="M12 5a3 3 0 0 1 1.03.18A7 7 0 0 0 11.5 5a6.5 6.5 0 0 0-3.46 1H4a2 2 0 0 0-2 2v4a2 2 0 0 0 2 2h1.5q.22.53.52 1H4a3 3 0 0 1-3-3V8a3 3 0 0 1 3-3z"/></svg>