<svg xmlns="http://www.w3.org/2000/svg" xmlns:xlink="http://www.w3.org/1999/xlink" viewBox="0 0 16 16"><defs><path id="a" d="M11.5 7a4.5 4.5 0 1 1 0 9 4.5 4.5 0 0 1 0-9m0 1.5a1 1 0 0 0-1 1v1h-1a1 1 0 0 0-1 .88v.12a1 1 0 0 0 1 1h1v1a1 1 0 0 0 .88 1h.12a1 1 0 0 0 1-1v-1h1a1 1 0 0 0 1-.88v-.12a1 1 0 0 0-1-1h-1v-1a1 1 0 0 0-.88-1z"/><path id="b" d="M9.5 3H12a3 3 0 0 1 3 3v.02a7 7 0 0 0-1.97-.84A3 3 0 0 0 12 5H4a3 3 0 0 0-3 3V4a3 3 0 0 1 3-3h1.5C8 1 8 3 9.5 3"/></defs><use xlink:href="#a" fill="#2563eb" fill-rule="evenodd"/><use xlink:href="#a" fill="#020617" fill-opacity="0.1" fill-rule="evenodd"/><use xlink:href="#b" fill="#2563eb" fill-opacity=".4" fill-rule="evenodd"/><use xlink:href="#b" fill="#020617" fill-opacity="0.1" fill-rule="evenodd"/><path fill="#2563eb" fill-opacity=".8" fill-rule="evenodd" d="M4 5h7.5a6.5 6.5 0 0 0-5.48 10H4a3 3 0 0 1-3-3V8a3 3 0 0 1 3-3"/><path fill="#020617" fill-opacity="0.1" fill-rule="evenodd" d="M4 5h7.5a6.5 6.5 0 0 0-3.46 1H4a2 2 0 0 0-2 2v4a2 2 0 0 0 2 2h1.5q.22.53.52 1H4a3 3 0 0 1-3-3V8a3 3 0 0 1 3-3"/></svg>