<svg xmlns="http://www.w3.org/2000/svg" xmlns:xlink="http://www.w3.org/1999/xlink" viewBox="0 0 16 16"><defs><path id="a" d="m12.45 11.14-4 2a1 1 0 0 1-.9 0l-4-2a1 1 0 0 1-.55-.89v-4.5a1 1 0 0 1 .55-.9l4-2a1 1 0 0 1 .9 1.8L5 6.36v3.26l3 1.5 3-1.5V7.46L8.49 8.87a1 1 0 0 1-.98-1.74l4-2.25a1 1 0 0 1 1.49.87v4.5a1 1 0 0 1-.55.9"/></defs><path fill="#ea580c" fill-opacity=".4" fill-rule="evenodd" d="M15 6.03v3.94a3.5 3.5 0 0 1-1.76 3.04l-3.5 2a3.5 3.5 0 0 1-3.48 0l-3.5-2A3.5 3.5 0 0 1 1 9.97V6.03A3.5 3.5 0 0 1 2.76 3l3.5-2a3.5 3.5 0 0 1 3.48 0l3.5 2A3.5 3.5 0 0 1 15 6.03"/><path fill="none" stroke="#020617" stroke-opacity="0.1" d="m9.31 1.33.18.1 3.5 2a3 3 0 0 1 1.51 2.6v3.94a3 3 0 0 1-1.51 2.6l-3.5 2a3 3 0 0 1-2.98 0l-3.5-2a3 3 0 0 1-1.51-2.6V6.03a3 3 0 0 1 1.51-2.6l3.5-2a3 3 0 0 1 2.8-.1Z"/><use fill="#ea580c" href="#a"/><use fill="#020617" fill-opacity="0.1" href="#a"/></svg>