<svg xmlns="http://www.w3.org/2000/svg" xmlns:xlink="http://www.w3.org/1999/xlink" viewBox="0 0 16 16"><defs><path id="a" d="M5.35 4h.21c2.34.27 2.02 2.64 1.12 3.4-1.67 1.44-3.42 0-3.22-1.43A2.2 2.2 0 0 1 5.35 4m.15 1a.5.5 0 1 0 0 1 .5.5 0 0 0 0-1"/><path id="b" d="M10.42 4c.73-.08 1.93.58 2.1 1.97.2 1.44-1.54 2.87-3.22 1.44-.9-.77-1.2-3.14 1.12-3.4m.08.99a.5.5 0 1 0 0 1 .5.5 0 0 0 0-1"/></defs><path fill="#0284c7" fill-opacity=".4" fill-rule="evenodd" d="M14 7v2.25c0 1 .21 1.27 0 2.75-.25 1.75-2 3-6 3s-5.75-1.25-6-3c-.21-1.48 0-1.75 0-2.75V7c0-.42.02-1.07.17-1.8C1.5 5.05 1 4.37 1 3.5a1.5 1.5 0 0 1 2.6-1.02C4.49 1.62 5.86 1 8 1s3.51.62 4.4 1.48A1.5 1.5 0 0 1 15 3.5c0 .72-.5 1.5-1.17 1.7.15.72.17 1.38.17 1.8"/><path fill="none" stroke="#020617" stroke-opacity="0.1" d="m12.05 2.84.37.35.35-.37a1 1 0 0 1 1.73.68c0 .52-.38 1.1-.82 1.22l-.44.13.1.46q.17.82.16 1.69v2.25c0 .3.01.5.05.88v.09c.07.59.06.97-.04 1.71-.23 1.6-2 2.57-5.51 2.57s-5.28-.96-5.5-2.57a6 6 0 0 1-.06-1.71l.01-.1c.04-.36.05-.57.05-.87V7c0-.59.04-1.12.16-1.69l.1-.47-.47-.12c-.45-.11-.79-.6-.79-1.22a1 1 0 0 1 1.73-.68l.35.37.37-.35C4.83 1.98 6.15 1.5 8 1.5s3.16.48 4.05 1.34Z"/><path fill="#020617" fill-opacity=".8" fill-rule="evenodd" d="m8.4 8.53.5.67a.5.5 0 0 1-.4.8h-1a.5.5 0 0 1-.4-.8l.5-.67a.5.5 0 0 1 .8 0"/><use xlink:href="#a" fill="#0284c7" fill-rule="evenodd"/><use xlink:href="#a" fill="#020617" fill-opacity="0.1" fill-rule="evenodd"/><use xlink:href="#b" fill="#0284c7" fill-rule="evenodd"/><use xlink:href="#b" fill="#020617" fill-opacity="0.1" fill-rule="evenodd"/></svg>