<svg xmlns="http://www.w3.org/2000/svg" viewBox="0 0 16 16"><path fill="#ea580c" fill-opacity=".4" fill-rule="evenodd" d="M2 1h2.7a1 1 0 0 1 .55.17l2.2 1.46a1 1 0 0 0 1.1 0l2.2-1.46A1 1 0 0 1 11.3 1H14a1 1 0 0 1 1 1v2.7a1 1 0 0 1-.17.55l-1.46 2.2a1 1 0 0 0 0 1.1l1.46 2.2a1 1 0 0 1 .17.55V14a1 1 0 0 1-1 1h-2.7a1 1 0 0 1-.55-.17l-2.2-1.46a1 1 0 0 0-1.1 0l-2.2 1.46a1 1 0 0 1-.55.17H2a1 1 0 0 1-1-1v-2.7a1 1 0 0 1 .17-.55l1.46-2.2a1 1 0 0 0 0-1.1l-1.46-2.2A1 1 0 0 1 1 4.7V2a1 1 0 0 1 1-1"/><path fill="none" stroke="#020617" stroke-opacity="0.1" d="m4.94 1.57.03.01 2.2 1.47a1.5 1.5 0 0 0 1.66 0l2.2-1.47a.5.5 0 0 1 .27-.08H14a.5.5 0 0 1 .5.5v2.7a.5.5 0 0 1-.08.27l-1.47 2.2a1.5 1.5 0 0 0 0 1.66l1.47 2.2a.5.5 0 0 1 .08.27V14a.5.5 0 0 1-.5.5h-2.7a.5.5 0 0 1-.27-.08l-2.2-1.47a1.5 1.5 0 0 0-1.66 0l-2.2 1.47a.5.5 0 0 1-.27.08H2a.5.5 0 0 1-.5-.5v-2.7a.5.5 0 0 1 .08-.27l1.47-2.2a1.5 1.5 0 0 0 0-1.66l-1.47-2.2a.5.5 0 0 1-.08-.27V2a.5.5 0 0 1 .5-.5h2.7z"/><path fill="#ea580c" fill-rule="evenodd" d="m12.8 8.7-4.1 4.1a1 1 0 0 1-1.4 0L3.2 8.7a1 1 0 0 1 0-1.4l4.1-4.1a1 1 0 0 1 1.4 0l4.1 4.1a1 1 0 0 1 0 1.4"/><path fill="none" stroke="#020617" stroke-opacity="0.1" d="m8.32 3.53.03.03 4.09 4.09a.5.5 0 0 1 0 .7l-4.09 4.09a.5.5 0 0 1-.7 0L3.56 8.35a.5.5 0 0 1 0-.7l4.09-4.09a.5.5 0 0 1 .67-.03Z"/></svg>