<svg xmlns="http://www.w3.org/2000/svg" viewBox="0 0 16 16"><path fill="#e11d48" fill-rule="evenodd" d="M8 2q-3.37 0-6.2-.89a.5.5 0 0 0-.61.67L2.75 5.5Q5 6 8 6t5.25-.5l1.56-3.72a.5.5 0 0 0-.6-.67Q11.37 2 8 2"/><path fill="none" stroke="#020617" stroke-opacity="0.1" d="M12.9 5.06q-2.12.44-4.9.44t-4.9-.44L1.66 1.6q2.9.91 6.35.91t6.35-.9ZM1.64 1.6Zm12.7 0Z"/><path fill="#e11d48" fill-opacity=".6" fill-rule="evenodd" d="M3 8h1V5h2v9.5a.5.5 0 0 1-.5.5h-2a.5.5 0 0 1-.5-.5z"/><path fill="none" stroke="#020617" stroke-opacity="0.1" d="M5.5 14.5h-2v-6h1v-3h1Z"/><path fill="#e11d48" fill-opacity=".6" fill-rule="evenodd" d="M13 8h-1V5h-2v9.5a.5.5 0 0 0 .5.5h2a.5.5 0 0 0 .5-.5z"/><path fill="none" stroke="#020617" stroke-opacity="0.1" d="M11.5 8.5h1v6h-2v-9h1Z"/><path fill="#e11d48" d="M14.98 7.35a.5.5 0 0 1-.33.63 23.5 23.5 0 0 1-13.3 0 .5.5 0 0 1 .3-.96 22.5 22.5 0 0 0 12.7 0 .5.5 0 0 1 .63.33"/></svg>