<svg xmlns="http://www.w3.org/2000/svg" viewBox="0 0 16 16"><path fill="#e11d48" fill-opacity=".4" fill-rule="evenodd" d="m10.12 13.65 2.43.97a.5.5 0 0 0 .67-.6l-.58-2.04a.5.5 0 0 1 .34-.62l2.2-.63a.5.5 0 0 0 .22-.83l-1.55-1.55a.5.5 0 0 1 0-.7L15.4 6.1a.5.5 0 0 0-.22-.83l-2.2-.63a.5.5 0 0 1-.34-.62l.58-2.04a.5.5 0 0 0-.67-.6l-2.43.97a.5.5 0 0 1-.6-.18L8.41.6a.5.5 0 0 0-.82 0L6.48 2.17a.5.5 0 0 1-.6.17l-2.43-.97a.5.5 0 0 0-.67.6l.58 2.04a.5.5 0 0 1-.34.62l-2.2.63a.5.5 0 0 0-.22.83l1.55 1.55a.5.5 0 0 1 0 .7L.6 9.9a.5.5 0 0 0 .22.83l2.2.63a.5.5 0 0 1 .34.62l-.58 2.04a.5.5 0 0 0 .67.6l2.43-.97a.5.5 0 0 1 .6.17l1.11 1.6a.5.5 0 0 0 .82 0l1.11-1.6a.5.5 0 0 1 .6-.17"/><path fill="none" stroke="#020617" stroke-opacity="0.1" d="M9.11 2.46a1 1 0 0 0 1.2.36l2.43-.98-.58 2.04a1 1 0 0 0 .68 1.24l2.2.63-1.54 1.54a1 1 0 0 0 0 1.42l1.55 1.54-2.2.63a1 1 0 0 0-.7 1.24l.59 2.04-2.44-.98a1 1 0 0 0-1.19.36L8 15.13l-1.11-1.6a1 1 0 0 0-1.2-.35l-2.43.98.58-2.04a1 1 0 0 0-.68-1.24l-2.2-.63L2.5 8.71a1 1 0 0 0 0-1.42L.95 5.75l2.2-.63a1 1 0 0 0 .7-1.24l-.59-2.04 2.44.98a1 1 0 0 0 1.19-.36L8 .87Z"/><path fill="#e11d48" fill-opacity=".4" fill-rule="evenodd" d="m8.43 10.24 1.5 2.5a.5.5 0 0 1-.86.52L8 11.47l-1.07 1.79a.5.5 0 0 1-.86-.52l1.5-2.5a.5.5 0 0 1 .86 0M2.88 7.52l2.75.75a.5.5 0 0 1 .28.77l-1.75 2.5a.5.5 0 0 1-.82-.58l1.34-1.91-2.06-.57a.5.5 0 1 1 .26-.96m10.85.35a.5.5 0 0 1-.35.61l-2.06.57 1.34 1.91a.5.5 0 0 1-.82.58l-1.75-2.5a.5.5 0 0 1 .28-.77l2.75-.75a.5.5 0 0 1 .61.35M7 2.75V6a.5.5 0 0 1-.7.46L3.53 5.2a.5.5 0 0 1 .42-.91L6 5.22V2.75a.5.5 0 0 1 1 0m3 0v2.47l2.04-.92a.5.5 0 0 1 .42.9L9.7 6.46A.5.5 0 0 1 9 6V2.75a.5.5 0 0 1 1 0"/><path fill="#e11d48" fill-rule="evenodd" d="M6.25 5.5h3.5L11 9l-3 2-3-2z"/><path fill="none" stroke="#020617" stroke-opacity="0.1" d="M10.4 8.8 8 10.4 5.6 8.8l1-2.8h2.8Z"/></svg>