<svg xmlns="http://www.w3.org/2000/svg" viewBox="0 0 16 16"><path fill="#e11d48" fill-opacity=".4" fill-rule="evenodd" d="M5 1h6a4 4 0 0 1 4 4v6a4 4 0 0 1-4 4H5a4 4 0 0 1-4-4V5a4 4 0 0 1 4-4"/><path fill="none" stroke="#020617" stroke-opacity="0.1" d="M14.5 5v6a3.5 3.5 0 0 1-3.5 3.5H5A3.5 3.5 0 0 1 1.5 11V5A3.5 3.5 0 0 1 5 1.5h6A3.5 3.5 0 0 1 14.5 5Z"/><path fill="#020617" fill-rule="evenodd" d="M5.5 4h5A1.5 1.5 0 0 1 12 5.5V11a1 1 0 0 1-2 0V7a1 1 0 1 0-2 0v3.5A1.5 1.5 0 0 1 6.5 12h-1A1.5 1.5 0 0 1 4 10.5v-5A1.5 1.5 0 0 1 5.5 4"/><path fill="none" stroke="#020617" stroke-opacity="0.1" d="M11.5 5.5V11a.5.5 0 1 1-1 0V7a1.5 1.5 0 0 0-3 0v3.5a1 1 0 0 1-1 1h-1a1 1 0 0 1-1-1v-5a1 1 0 0 1 1-1h5a1 1 0 0 1 1 1Z"/></svg>