<svg xmlns="http://www.w3.org/2000/svg" viewBox="0 0 16 16"><path fill="#2563eb" fill-opacity=".4" fill-rule="evenodd" d="M16 8q0 3.12-1.37 6.68a.5.5 0 0 1-.47.32H13a1 1 0 0 1-1-1 1 1 0 0 0-2 0 1 1 0 0 1-1 1H7.99a1.5 1.5 0 0 1-1.39-.94Q6 12.58 6 12c0-.3-.32-2.03-.45-4C8 8 4.6 3 7 3c0-2 2.64-2 3-2 2.75 0 6 2.5 6 7"/><path fill="none" stroke="#020617" stroke-opacity="0.1" d="M15.5 8q0 3.02-1.34 6.5H13a.5.5 0 0 1-.5-.5 1.5 1.5 0 0 0-3 0 .5.5 0 0 1-.5.5H7.99a1 1 0 0 1-.93-.63A7 7 0 0 1 6.5 12c0-.15-.22-1.72-.25-2.02q-.1-.8-.16-1.56.76-.26.88-1.14c.06-.46 0-.89-.19-1.88a5 5 0 0 1-.18-1.55c.03-.27.1-.34.4-.34h.5V3q0-1 1.17-1.32A5 5 0 0 1 10 1.5c2.88 0 5.5 2.7 5.5 6.5Z"/><path fill="#2563eb" fill-rule="evenodd" d="M5 15c-2 0-4-1.5-4-8 0-3.25 2-5.5 5.75-5.5C8.25 1.5 10 3 10 6c0 1.59-1.5 5-3.5 5h-1c-.75 0-1.5.25-1.5 1s.25 1 1 1a1 1 0 0 1 0 2M5 5a1 1 0 1 0 0 2 1 1 0 0 0 0-2"/><path fill="none" stroke="#020617" stroke-opacity="0.1" d="M9.5 6c0 1.79-1.61 4.5-3 4.5h-1c-1.14 0-2 .48-2 1.5 0 1.03.47 1.5 1.5 1.5a.5.5 0 1 1 0 1c-2.19 0-3.5-2.08-3.5-7.5 0-3.1 1.9-5 5.25-5C8.2 2 9.5 3.56 9.5 6Zm-6 0a1.5 1.5 0 1 0 3 0 1.5 1.5 0 0 0-3 0Z"/></svg>