<svg xmlns="http://www.w3.org/2000/svg" xmlns:xlink="http://www.w3.org/1999/xlink" viewBox="0 0 16 16"><defs><path id="a" d="M8 6.5V7a1 1 0 1 1-2 0v-.5a.5.5 0 0 0-1 0V7a1 1 0 1 1-2 0v-.5a2.5 2.5 0 0 1 5 0m5 4.5a1 1 0 0 1-1 1H4a1 1 0 0 1 0-2h8a1 1 0 0 1 1 1m-.3-6.7a1 1 0 0 1 0 1.4l-2 2a1 1 0 0 1-1.4-1.4l2-2a1 1 0 0 1 1.4 0"/></defs><path fill="#0d9488" fill-opacity=".4" fill-rule="evenodd" d="M1.59 3.41 3.4 1.6A2 2 0 0 1 4.83 1h6.34a2 2 0 0 1 1.42.59L14.4 3.4a2 2 0 0 1 .6 1.43v6.34a2 2 0 0 1-.59 1.42L12.6 14.4a2 2 0 0 1-1.42.59H4.83a2 2 0 0 1-1.42-.59L1.6 12.6a2 2 0 0 1-.6-1.43V4.83a2 2 0 0 1 .59-1.42"/><path fill="none" stroke="#020617" stroke-opacity="0.1" d="m12.12 1.84.11.1 1.83 1.83a1.5 1.5 0 0 1 .44 1.06v6.34a1.5 1.5 0 0 1-.44 1.06l-1.83 1.83a1.5 1.5 0 0 1-1.06.44H4.83a1.5 1.5 0 0 1-1.06-.44l-1.83-1.83a1.5 1.5 0 0 1-.44-1.06V4.83c0-.4.16-.78.44-1.06l1.83-1.83a1.5 1.5 0 0 1 1.06-.44h6.34a1.5 1.5 0 0 1 .95.34Z"/><use xlink:href="#a" fill="#0d9488" fill-rule="evenodd"/><use xlink:href="#a" fill="#020617" fill-opacity="0.1" fill-rule="evenodd"/></svg>