<svg xmlns="http://www.w3.org/2000/svg" xmlns:xlink="http://www.w3.org/1999/xlink" viewBox="0 0 16 16"><defs><path id="a" d="M11.6 4c.67.59.82 1.4.46 2.16a3.4 3.4 0 0 1-1.4 1.44 3.6 3.6 0 0 1-3.8.13.75.75 0 1 1 .7-1.33c.83.44 1.5.39 2.35-.1a2 2 0 0 0 .8-.77c.07-.18.06-.27-.1-.4l-.02-.01-.18-.06A3 3 0 0 0 9.72 5c-.6 0-1.3.13-1.92.37A7 7 0 0 0 5.96 6.4q-.36.3-.57.55l-.14.2c-.01.17.18.38.82.76l.23.14.24.14q.45.27.7.55c.94-.16 1.97 0 2.46.5q.37.38.37.9 0 .36-.13.7l-.08.2c-.1.29-.38.5-.71.5-.27-.03-.27-.03-.53-.22-.17-.22-.17-.22-.21-.4-.02-.2-.02-.2 0-.29l.04-.13.03-.07.07-.17h-.01a2 2 0 0 0-.42-.07h-.36c0 .45-.14.85-.43 1.3-.6.96-2.08 1.42-2.94.52-.37-.38-.4-.88-.18-1.33q.2-.41.67-.8.32-.27.72-.5l-.3-.18a5 5 0 0 1-1.03-.78q-.62-.64-.5-1.5c.16-1 1.81-2.33 3.5-2.97 1.63-.61 3.58-.63 4.33.03"/></defs><circle cx="8" cy="8" r="7" fill="#c026d3" fill-opacity=".4" fill-rule="evenodd"/><circle cx="8" cy="8" r="6.5" fill="none" stroke="#020617" stroke-opacity="0.1"/><use fill="#c026d3" href="#a"/><use fill="#020617" fill-opacity="0.1" href="#a"/></svg>