<svg xmlns="http://www.w3.org/2000/svg" viewBox="0 0 16 16"><path fill="#7c3aed" fill-rule="evenodd" d="M6 9.9v3.3a1 1 0 0 0 .47.84l2.77 1.73a.5.5 0 0 0 .76-.42v-3.3a1 1 0 0 0-.47-.84L6.77 9.48A.5.5 0 0 0 6 9.9"/><path fill="none" stroke="#020617" stroke-opacity="0.1" d="m6.5 9.9 2.77 1.73a.5.5 0 0 1 .23.42v3.3l-2.76-1.73a.5.5 0 0 1-.24-.42z"/><path fill="#7c3aed" fill-rule="evenodd" d="M6 3.9v3.55a1 1 0 0 0 .47.84l2.77 1.73A.5.5 0 0 0 10 9.6V6.05a1 1 0 0 0-.47-.84L6.77 3.48A.5.5 0 0 0 6 3.9"/><path fill="none" stroke="#020617" stroke-opacity="0.1" d="m6.5 3.9 2.77 1.73a.5.5 0 0 1 .23.42V9.6L6.74 7.87a.5.5 0 0 1-.24-.42z"/><path fill="#7c3aed" fill-opacity=".4" fill-rule="evenodd" d="M1 .9v3.55a1 1 0 0 0 .47.84l2.77 1.73A.5.5 0 0 0 5 6.6V3.05a1 1 0 0 0-.47-.84L1.76.48A.5.5 0 0 0 1 .9"/><path fill="none" stroke="#020617" stroke-opacity="0.1" d="m1.5.9 2.76 1.73a.5.5 0 0 1 .24.42V6.6L1.74 4.87a.5.5 0 0 1-.24-.42z"/><path fill="#7c3aed" fill-opacity=".4" fill-rule="evenodd" d="M15 3.9v3.55a1 1 0 0 1-.47.84l-2.76 1.73A.5.5 0 0 1 11 9.6V6.05a1 1 0 0 1 .47-.84l2.77-1.73a.5.5 0 0 1 .76.42"/><path fill="none" stroke="#020617" stroke-opacity="0.1" d="M14.5 7.45a.5.5 0 0 1-.23.42L11.5 9.6V6.05a.5.5 0 0 1 .24-.42L14.5 3.9Z"/></svg>