<svg xmlns="http://www.w3.org/2000/svg" viewBox="0 0 16 16"><path fill="#a65439" fill-rule="evenodd" d="M7 12h2v2.5a.5.5 0 0 1-.5.5h-1a.5.5 0 0 1-.5-.5z"/><path fill="none" stroke="#020617" stroke-opacity="0.1" d="M8.5 14.5h-1v-2h1Z"/><path fill="#16a34a" fill-opacity=".4" fill-rule="evenodd" d="M7.6 2.5a.5.5 0 0 1 .8 0l4.46 5.7a.5.5 0 0 1-.39.8h-.18l1.46 1.77a.75.75 0 0 1-.48 1.22l-.1.01H2.83a.75.75 0 0 1-.58-1.23L3.7 9h-.17a.5.5 0 0 1-.44-.74l.05-.07z"/><path fill="none" stroke="#020617" stroke-opacity="0.1" d="M12.47 8.5h-1.23l.67.82 1.45 1.77a.25.25 0 0 1-.16.4l-.07.01H2.83a.25.25 0 0 1-.2-.4L4.1 9.31l.67-.82H3.53l.02-.03L8 2.8Zm-8.94 0Z"/><path fill="#16a34a" fill-opacity=".6" fill-rule="evenodd" d="M7.6 2.5 3.15 8.2a.5.5 0 0 0 .39.8h8.94a.5.5 0 0 0 .4-.8l-4.5-5.7a.5.5 0 0 0-.78 0"/><path fill="none" stroke="#020617" stroke-opacity="0.1" d="M12.47 8.5H3.53L8 2.81Z"/><path fill="#16a34a" fill-rule="evenodd" d="M7.62 1.2 4.21 5.16a.5.5 0 0 0 .38.83h6.82a.5.5 0 0 0 .38-.82L8.38 1.18a.5.5 0 0 0-.76 0"/><path fill="none" stroke="#020617" stroke-opacity="0.1" d="M11.41 5.5H4.6L8 1.52Z"/></svg>