<svg xmlns="http://www.w3.org/2000/svg" xmlns:xlink="http://www.w3.org/1999/xlink" viewBox="0 0 16 16"><defs><path id="a" d="m8.75 3.5.18 6.8.25-.55 2.85-6.41a.5.5 0 0 1 .94.33L8.96 12.7a.5.5 0 0 1-.46.3H7.22a.5.5 0 0 1-.5-.47l-.44-8.27q-1.23.38-1.9 1.2c-.3.35-.43.8-.38 1.23.04.34.16.46.58.5l.22.02a.5.5 0 1 1-.06 1l-.27-.02Q3.17 8.04 3 6.8a2.7 2.7 0 0 1 .61-1.98A5.3 5.3 0 0 1 6.79 3.1q.48-.1.96-.09h.5a.5.5 0 0 1 .5.5"/></defs><path fill="#7c3aed" fill-opacity=".4" fill-rule="evenodd" d="M5 1h6a4 4 0 0 1 4 4v6a4 4 0 0 1-4 4H5a4 4 0 0 1-4-4V5a4 4 0 0 1 4-4"/><path fill="none" stroke="#020617" stroke-opacity="0.1" d="M14.5 5v6a3.5 3.5 0 0 1-3.5 3.5H5A3.5 3.5 0 0 1 1.5 11V5A3.5 3.5 0 0 1 5 1.5h6A3.5 3.5 0 0 1 14.5 5Z"/><use xlink:href="#a" fill="#7c3aed" fill-rule="evenodd"/><use xlink:href="#a" fill="#020617" fill-opacity="0.1" fill-rule="evenodd"/></svg>