<svg xmlns="http://www.w3.org/2000/svg" viewBox="0 0 16 16"><path fill="#65a30d" fill-opacity=".6" fill-rule="evenodd" d="M1.89 4.59 7 8l-4.76 3.97a7 7 0 0 1-.35-7.38"/><path fill="#475569" fill-opacity=".4" fill-rule="evenodd" d="M8 1a7 7 0 0 1 4.91 2.01L7 8 1.89 4.59A7 7 0 0 1 8 1"/><path fill="#16a34a" fill-rule="evenodd" d="m7 8 6.53 4.29A7 7 0 0 1 8 15a7 7 0 0 1-5.76-3.03z"/><path fill="#0d9488" fill-opacity=".6" fill-rule="evenodd" d="M12.91 3.01A7 7 0 0 1 15 8a7 7 0 0 1-1.47 4.29L7 8z"/><circle cx="8" cy="8" r="6.5" fill="none" stroke="#020617" stroke-opacity="0.1"/></svg>