<svg xmlns="http://www.w3.org/2000/svg" xmlns:xlink="http://www.w3.org/1999/xlink" viewBox="0 0 16 16"><defs><path id="a" d="M12.5 7A2.5 2.5 0 0 1 15 9.5v.59a1.5 1.5 0 0 1 1 1.41v3a1.5 1.5 0 0 1-1.5 1.5h-4A1.5 1.5 0 0 1 9 14.5v-3a1.5 1.5 0 0 1 1-1.41V9.5A2.5 2.5 0 0 1 12.5 7m0 1A1.5 1.5 0 0 0 11 9.5v.5h3v-.5A1.5 1.5 0 0 0 12.5 8"/></defs><use xlink:href="#a" fill="#475569" fill-rule="evenodd"/><use xlink:href="#a" fill="#020617" fill-opacity="0.1" fill-rule="evenodd"/><path fill="#7c3aed" fill-rule="evenodd" d="M8.97 1.6s.7-.4.77-.25a6 6 0 0 1-.22 4.78 4.5 4.5 0 0 0-1.5 2.9A3.5 3.5 0 0 0 7 11.5v3q0 .23.03.45l-1.73.1c-1.7.02-1.26-1.3-.65-1.53-.4-.22-.41-.43-.5-.41-.42 2.27-1.58 1.58-2.3 1.38-.54-.29.05-.97.05-.97-.54.23-.96-.78-.9-1.77.06-.8.95-1.56.95-1.56-.06-1.97.52-3.26 2.05-4.33-.53-.63-1.15-1.65-.34-2.83 1.06-.3 1.27-1.55 3.28-1.44 0 0 .63-1.92 1.2-1.54.19.11.83 1.55.83 1.55"/><path fill="#020617" fill-opacity="0.1" fill-rule="evenodd" d="M8.97 1.6s.7-.4.77-.25a6 6 0 0 1-.22 4.78 4.5 4.5 0 0 0-1.4 2.33l-.18-.17a1 1 0 0 1-.1-1.35A5.2 5.2 0 0 0 9.02 2.6a1 1 0 0 1-.96-.6l-.12-.26-.03.1-.02.04v.01a1 1 0 0 1-1.01.69c-.7-.04-1.01.09-1.5.5l-.22.2q-.41.36-.8.55c-.2.43-.05.84.4 1.37a1 1 0 0 1-.18 1.46c-1.23.87-1.68 1.82-1.63 3.5a1 1 0 0 1-.35.78l-.33.36q-.25.33-.27.5-.01.4.08.72c.55.1.93.66.8 1.21h.01q.16-.14.28-.82a1 1 0 0 1 .7-.77q.43-.12.81.1c.16.08.35.3.4.37l.05.02a1 1 0 0 1 .38 1.4l.76-.05.28-.02.45-.02v.55q0 .23.03.45l-1.73.1c-1.7.02-1.26-1.3-.65-1.53-.4-.22-.41-.43-.5-.41-.42 2.27-1.58 1.58-2.3 1.38-.54-.29.05-.97.05-.97-.54.23-.96-.78-.9-1.77.06-.8.95-1.56.95-1.56-.06-1.97.52-3.26 2.05-4.33-.53-.63-1.15-1.65-.34-2.83 1.06-.3 1.27-1.55 3.28-1.44 0 0 .63-1.92 1.2-1.54.19.11.83 1.55.83 1.55"/></svg>