<svg xmlns="http://www.w3.org/2000/svg" viewBox="0 0 16 16"><path fill="#e879f9" fill-opacity=".4" fill-rule="evenodd" d="M13 4a3 3 0 1 1-6 0 3 3 0 0 1 6 0m-8 9v-1.75C5 9.25 7.25 8 8.25 8h3.5c1 0 3.25 1.25 3.25 3.25V13a1 1 0 0 1-1 1H6a1 1 0 0 1-1-1"/><path fill="none" stroke="#1e293b" stroke-opacity="0.1" d="M14.5 11.25V13a.5.5 0 0 1-.5.5H6a.5.5 0 0 1-.5-.5v-1.75c0-1.4 1.65-2.75 2.75-2.75h3.5c1.1 0 2.75 1.35 2.75 2.75ZM12.5 4a2.5 2.5 0 1 1-5 0 2.5 2.5 0 0 1 5 0Z"/><path fill="#e879f9" fill-rule="evenodd" d="M9 5a3 3 0 1 1-6 0 3 3 0 0 1 6 0m-8 9v-1.75C1 10.25 3.25 9 4.25 9h3.5c1 0 3.25 1.25 3.25 3.25V14a1 1 0 0 1-1 1H2a1 1 0 0 1-1-1"/><path fill="none" stroke="#1e293b" stroke-opacity="0.1" d="M10.5 12.25V14a.5.5 0 0 1-.5.5H2a.5.5 0 0 1-.5-.5v-1.75c0-1.4 1.65-2.75 2.75-2.75h3.5c1.1 0 2.75 1.35 2.75 2.75ZM8.5 5a2.5 2.5 0 1 1-5 0 2.5 2.5 0 0 1 5 0Z"/></svg>