<svg xmlns="http://www.w3.org/2000/svg" viewBox="0 0 16 16"><path fill="#c88857" fill-opacity=".4" fill-rule="evenodd" d="M2 7h12a1 1 0 0 1 1 1v5a2 2 0 0 1-2 2H3a2 2 0 0 1-2-2V8a1 1 0 0 1 1-1"/><path fill="none" stroke="#1e293b" stroke-opacity="0.1" d="M14.5 8v5a1.5 1.5 0 0 1-1.5 1.5H3A1.5 1.5 0 0 1 1.5 13V8a.5.5 0 0 1 .5-.5h12a.5.5 0 0 1 .5.5Z"/><path fill="#facc15" fill-rule="evenodd" d="M1 8c0-.47.24-.9.64-1.15l7.71-4.82a2 2 0 0 1 2.73.59l2.42 3.62a3 3 0 0 1 .5 1.67V8z"/><path fill="none" stroke="#1e293b" stroke-opacity="0.1" d="m11.66 2.9 2.42 3.62q.3.45.38.98H1.66a1 1 0 0 1 .24-.22l7.72-4.83a1.5 1.5 0 0 1 2.04.44Z"/><path fill="#1e293b" fill-opacity="0.1" d="M14 12H2v-1h12z"/><circle cx="7" cy="4" r="2" fill="#fb7185" fill-rule="evenodd"/><circle cx="7" cy="4" r="1.5" fill="none" stroke="#1e293b" stroke-opacity="0.1"/><path fill="#fb7185" d="M5.35.65Q7 2.26 7 3.5a.5.5 0 0 1-1 0q0-.76-1.35-2.15a.5.5 0 1 1 .7-.7"/></svg>