<svg xmlns="http://www.w3.org/2000/svg" xmlns:xlink="http://www.w3.org/1999/xlink" viewBox="0 0 16 16"><defs><path id="a" d="M8 4a2 2 0 0 1 1 3.73V10a1 1 0 1 1-2 0V7.73A2 2 0 0 1 8 4"/></defs><path fill="#fb923c" fill-opacity=".4" fill-rule="evenodd" d="m8.98 1.09 4.17 1.44a2 2 0 0 1 1.35 1.9V8c0 3-3.25 7-6.5 7s-6.5-4-6.5-7V4.42a2 2 0 0 1 1.35-1.89L7.02 1.1a3 3 0 0 1 1.96 0"/><path fill="none" stroke="#1e293b" stroke-opacity="0.1" d="m8.62 1.5.2.06 4.17 1.45A1.5 1.5 0 0 1 14 4.42V8c0 2.9-3.19 6.5-6 6.5S2 10.9 2 8V4.42a1.5 1.5 0 0 1 1.01-1.41l4.17-1.45a2.5 2.5 0 0 1 1.44-.06Z"/><use xlink:href="#a" fill="#fb923c" fill-rule="evenodd"/><use xlink:href="#a" fill="#1e293b" fill-opacity="0.1" fill-rule="evenodd"/></svg>