<svg xmlns="http://www.w3.org/2000/svg" viewBox="0 0 16 16"><path fill="#e879f9" fill-opacity=".4" fill-rule="evenodd" d="M4.5 1h7A2.5 2.5 0 0 1 14 3.5v9a2.5 2.5 0 0 1-2.5 2.5h-7A2.5 2.5 0 0 1 2 12.5v-9A2.5 2.5 0 0 1 4.5 1"/><path fill="none" stroke="#1e293b" stroke-opacity="0.1" d="M13.5 3.5v9a2 2 0 0 1-2 2h-7a2 2 0 0 1-2-2v-9a2 2 0 0 1 2-2h7a2 2 0 0 1 2 2Z"/><path fill="#e879f9" fill-rule="evenodd" d="M6 0h4a1 1 0 0 1 1 1v1H5V1a1 1 0 0 1 1-1"/><path fill="none" stroke="#1e293b" stroke-opacity="0.1" d="M10.5 1v.5h-5V1A.5.5 0 0 1 6 .5h4a.5.5 0 0 1 .5.5Z"/><path fill="#e879f9" d="M7.04 10.52c.42.32.63.48.96.48s.54-.16.96-.48C9.84 9.85 11 8.78 11 7.76c0-1.73-1.65-2.38-3-1.04-1.35-1.34-3-.7-3 1.04 0 1.02 1.17 2.1 2.04 2.76"/><path fill="none" stroke="#1e293b" stroke-opacity="0.1" d="m7.65 7.07.35.35.35-.35c1.03-1.02 2.15-.61 2.15.69 0 .64-.72 1.51-1.85 2.36-.32.25-.42.31-.51.35L8 10.5l-.13-.02a3 3 0 0 1-.52-.36C6.23 9.27 5.5 8.4 5.5 7.76c0-1.3 1.12-1.7 2.15-.69Z"/></svg>