<svg xmlns="http://www.w3.org/2000/svg" viewBox="0 0 16 16"><path fill="#facc15" fill-opacity=".4" fill-rule="evenodd" d="M14 4.5v7c0 1.93-2.69 3.5-6 3.5s-6-1.57-6-3.5v-7z"/><path fill="none" stroke="#1e293b" stroke-opacity="0.1" d="M13.5 11.5c0 1.59-2.43 3-5.5 3s-5.5-1.41-5.5-3V5h11Z"/><path fill="#facc15" fill-opacity=".4" fill-rule="evenodd" d="M14 4.5V8c0 1.93-2.69 3.5-6 3.5S2 9.93 2 8V4.5z"/><path fill="none" stroke="#1e293b" stroke-opacity="0.1" d="M13.5 8c0 1.59-2.43 3-5.5 3S2.5 9.59 2.5 8V5h11Z"/><ellipse cx="8" cy="4.5" fill="#facc15" fill-rule="evenodd" rx="6" ry="3.5"/><ellipse cx="8" cy="4.5" fill="none" stroke="#1e293b" stroke-opacity="0.1" rx="5.5" ry="3"/></svg>