<svg xmlns="http://www.w3.org/2000/svg" xmlns:xlink="http://www.w3.org/1999/xlink" viewBox="0 0 16 16"><defs><path id="a" d="M11 8.5a.5.5 0 0 1-.5.5h-5a.5.5 0 0 1 0-1h5a.5.5 0 0 1 .5.5m-2-3a.5.5 0 0 1-.5.5h-3a.5.5 0 0 1 0-1h3a.5.5 0 0 1 .5.5m2 6a.5.5 0 0 1-.5.5h-5a.5.5 0 1 1 0-1h5a.5.5 0 0 1 .5.5"/></defs><path fill="#94a3b8" fill-opacity=".4" fill-rule="evenodd" d="M5 1h3.76a3 3 0 0 1 2.12.88l2.24 2.24A3 3 0 0 1 14 6.24V12a3 3 0 0 1-3 3H5a3 3 0 0 1-3-3V4a3 3 0 0 1 3-3"/><path fill="none" stroke="#1e293b" stroke-opacity="0.1" d="m10.34 2.07.19.16 2.24 2.24a2.5 2.5 0 0 1 .73 1.77V12a2.5 2.5 0 0 1-2.5 2.5H5A2.5 2.5 0 0 1 2.5 12V4A2.5 2.5 0 0 1 5 1.5h3.76a2.5 2.5 0 0 1 1.58.57Z"/><use xlink:href="#a" fill="#94a3b8" fill-rule="evenodd"/><use xlink:href="#a" fill="#1e293b" fill-opacity="0.1" fill-rule="evenodd"/></svg>