<svg xmlns="http://www.w3.org/2000/svg" viewBox="0 0 16 16"><path fill="#60a5fa" fill-rule="evenodd" d="m3.15 2.95.2-.18 2.2 2.2a4 4 0 0 0 5.48 5.48l2.2 2.2a7 7 0 1 1-10.08-9.7M8 1a7 7 0 0 1 6.35 9.94l-1.9-1.9a4 4 0 0 0-5.48-5.49l-1.91-1.9A7 7 0 0 1 8 1"/><path fill="none" stroke="#1e293b" stroke-opacity="0.1" d="M4.94 5.06a4.5 4.5 0 0 0 6 6l1.59 1.59A6.4 6.4 0 0 1 8 14.5 6.5 6.5 0 0 1 3.06 3.78l.29-.31ZM14.5 8a7 7 0 0 1-.33 2.05l-1.11-1.11a4.5 4.5 0 0 0-6-6L5.95 1.83A6.5 6.5 0 0 1 14.5 8Z"/><circle cx="9" cy="7" r="2" fill="#60a5fa" fill-opacity=".4" fill-rule="evenodd"/><circle cx="9" cy="7" r="1.5" fill="none" stroke="#1e293b" stroke-opacity="0.1"/></svg>