<svg xmlns="http://www.w3.org/2000/svg" xmlns:xlink="http://www.w3.org/1999/xlink" viewBox="0 0 16 16"><defs><path id="a" d="M14.7 2.05a.5.5 0 0 1 .26.66l-5 11a.5.5 0 1 1-.92-.42l5-11a.5.5 0 0 1 .67-.24"/></defs><path fill="#4ade80" fill-rule="evenodd" d="m1.22 7.55 2.5-5a1 1 0 0 1 .9-.55h1.26a1 1 0 0 1 .9 1.45l-2.06 4.1a1 1 0 0 0 0 .9l2.06 4.1a1 1 0 0 1-.9 1.45H4.62a1 1 0 0 1-.9-.55l-2.5-5a1 1 0 0 1 0-.9"/><path fill="none" stroke="#1e293b" stroke-opacity="0.1" d="m6.36 3.16-.03.06-2.05 4.1a1.5 1.5 0 0 0 0 1.35l2.05 4.1a.5.5 0 0 1-.45.73H4.62a.5.5 0 0 1-.45-.28l-2.5-5a.5.5 0 0 1 0-.44l2.5-5a.5.5 0 0 1 .45-.28h1.26a.5.5 0 0 1 .48.66Z"/><use fill="#4ade80" fill-opacity=".4" href="#a"/><use fill="#1e293b" fill-opacity="0.1" href="#a"/><circle cx="10" cy="4" r="2" fill="#4ade80" fill-opacity=".4" fill-rule="evenodd"/><circle cx="10" cy="4" r="1.5" fill="none" stroke="#1e293b" stroke-opacity="0.1"/><circle cx="14" cy="12" r="2" fill="#4ade80" fill-opacity=".4" fill-rule="evenodd"/><circle cx="14" cy="12" r="1.5" fill="none" stroke="#1e293b" stroke-opacity="0.1"/></svg>