<svg xmlns="http://www.w3.org/2000/svg" viewBox="0 0 16 16"><path fill="#60a5fa" fill-opacity=".4" fill-rule="evenodd" d="M4 2h8a3 3 0 0 1 3 3v6a3 3 0 0 1-3 3H4a3 3 0 0 1-3-3V5a3 3 0 0 1 3-3"/><path fill="none" stroke="#1e293b" stroke-opacity="0.1" d="M14.5 5v6a2.5 2.5 0 0 1-2.5 2.5H4A2.5 2.5 0 0 1 1.5 11V5A2.5 2.5 0 0 1 4 2.5h8A2.5 2.5 0 0 1 14.5 5Z"/><path fill="#60a5fa" fill-rule="evenodd" d="M4 2h8a3 3 0 0 1 3 3v1.5l-5.31 3.6a3 3 0 0 1-3.38 0L1 6.5V5a3 3 0 0 1 3-3"/><path fill="none" stroke="#1e293b" stroke-opacity="0.1" d="M14.5 5v1.24L9.4 9.69a2.5 2.5 0 0 1-2.8 0L1.5 6.24V5A2.5 2.5 0 0 1 4 2.5h8A2.5 2.5 0 0 1 14.5 5Z"/></svg>