<svg xmlns="http://www.w3.org/2000/svg" xmlns:xlink="http://www.w3.org/1999/xlink" viewBox="0 0 16 16"><defs><path id="a" d="M6 5c0-1 .75-2 2-2s2 1 2 2z"/></defs><path fill="#fb7185" fill-opacity=".4" d="M3 13c-1.5-1.5-2-3-2-5s.5-3.5 2-5H0v9.99z"/><path fill="none" stroke="#1e293b" stroke-opacity="0.1" d="M.5 8c0 1.82.4 3.21 1.39 4.5L.5 12.49V3.5h1.4A7 7 0 0 0 .5 8Z"/><path fill="#fb7185" d="M14 13a10 10 0 0 0 1.5-2L13 10c-1 1.5-2.29 1.99-4 2-1.5 0-3-1.25-3-4h9c0-1.5 0-3.5-1.5-5H16v9.99z"/><path fill="none" stroke="#1e293b" stroke-opacity="0.1" d="M15.5 12.49h-.4q.21-.27.4-.55Zm0-2.03-2.31-.92-.38-.15-.23.33C11.74 11 10.68 11.5 9 11.5c-1.31 0-2.33-1.07-2.48-3h8.98Zm0-2.46c0-1.22-.03-1.84-.2-2.6a6 6 0 0 0-.76-1.9h.96Z"/><use xlink:href="#a" fill="#fb7185"/><use xlink:href="#a" fill="#1e293b" fill-opacity="0.1"/></svg>