<svg xmlns="http://www.w3.org/2000/svg" xmlns:xlink="http://www.w3.org/1999/xlink" viewBox="0 0 16 16"><defs><path id="a" d="M11.5 6.5a.5.5 0 0 1 .5.5v1.04a3.5 3.5 0 0 1 1.9.9l.8-.64a.5.5 0 1 1 .63.79l-.81.64a3.5 3.5 0 0 1 .47 2.05l1 .23a.5.5 0 0 1-.21.98l-1.01-.23a3.5 3.5 0 0 1-1.32 1.64l.45.94a.5.5 0 1 1-.9.43l-.45-.93a3.5 3.5 0 0 1-2.1 0l-.45.93a.5.5 0 1 1-.9-.43l.45-.94a3.5 3.5 0 0 1-1.32-1.64l-1 .23A.5.5 0 1 1 7 12l1.01-.23a3.5 3.5 0 0 1 .47-2.05l-.81-.65a.5.5 0 1 1 .62-.78l.81.65a3.5 3.5 0 0 1 1.9-.91V7a.5.5 0 0 1 .5-.5m0 6.15-.61 1.27a2.5 2.5 0 0 0 1.22 0zm-.9-.43-1.38.31q.27.58.77.96zm1.8 0 .61 1.27a2.5 2.5 0 0 0 .77-.96zM9 11.5v.06l1.38-.32-1.1-.88A2.5 2.5 0 0 0 9 11.5m3.62-.26 1.38.32v-.06q0-.62-.27-1.14zM9.9 9.58l1.1.88V9.05a2.5 2.5 0 0 0-1.1.53m2.1-.53v1.41l1.1-.88a2.5 2.5 0 0 0-1.1-.53"/><path id="b" d="M9.5 3H13a2 2 0 0 1 2 2h-2a2.5 2.5 0 0 0-3 0H1V4a3 3 0 0 1 3-3h1.5C8 1 8 3 9.5 3"/></defs><use xlink:href="#a" fill="#60a5fa" fill-rule="evenodd"/><use xlink:href="#a" fill="#1e293b" fill-opacity="0.1" fill-rule="evenodd"/><use xlink:href="#b" fill="#60a5fa" fill-opacity=".4" fill-rule="evenodd"/><use xlink:href="#b" fill="#1e293b" fill-opacity="0.1" fill-rule="evenodd"/><path fill="#60a5fa" fill-opacity=".8" fill-rule="evenodd" d="M6.94 15h.17-3.2a3 3 0 0 1-2.93-2.35L.04 8.44 0 8.16v-.32A2 2 0 0 1 2 6h7.2q-.1.21-.14.44a2.5 2.5 0 0 0-3.04 3.81A2.5 2.5 0 0 0 6.94 15m7.07-9a2 2 0 0 1 .87.2q-.5.03-.94.24L13.79 6z"/><path fill="#1e293b" fill-opacity="0.1" fill-rule="evenodd" d="M6.93 15h.18-3.2a3 3 0 0 1-2.93-2.35L.04 8.44 0 8.16v-.32A2 2 0 0 1 2 6h7.2q-.1.21-.14.44A2.5 2.5 0 0 0 6.14 7H2a1 1 0 0 0-.97 1.22l.93 4.21A2 2 0 0 0 3.91 14h1.2c.43.57 1.1.94 1.82 1M14 6a2 2 0 0 1 .87.2q-.5.03-.95.24L13.8 6z"/></svg>