<svg xmlns="http://www.w3.org/2000/svg" xmlns:xlink="http://www.w3.org/1999/xlink" viewBox="0 0 16 16"><defs><path id="a" d="M15.54 8.46c.69.7.5 2.1-.38 3.54.87 1.45 1.07 2.84.38 3.54-.7.69-2.1.5-3.54-.38-1.45.87-2.84 1.07-3.54.38-.69-.7-.5-2.1.38-3.54-.87-1.45-1.07-2.84-.38-3.54.7-.69 2.1-.5 3.54.38 1.45-.87 2.84-1.07 3.54-.38m-5.7 4.88-.2-.21-.03.07q-.1.23-.17.44c-.2.6-.17.93-.1 1.01s.43.1 1.01-.09q.25-.08.52-.2a11 11 0 0 1-1.04-1.02m4.52-.21-.05.06a10 10 0 0 1-1.17 1.16q.26.13.51.21c.6.2.93.17 1.01.1s.1-.43-.09-1.02zM12 10.34l-.2.16a9 9 0 0 0-1.46 1.5q.35.46.78.88s.58.55.88.77A9 9 0 0 0 13.66 12a9 9 0 0 0-.78-.88l-.3-.3zm-2.65-1c-.08.09-.1.43.09 1.02q.08.25.2.51.28-.32.6-.64.3-.31.63-.58l-.51-.21c-.6-.2-.93-.17-1.01-.1m4.3.1-.52.2a10 10 0 0 1 1.22 1.23q.13-.26.21-.51c.2-.59.17-.93.1-1.01s-.43-.1-1.02.09"/><path id="b" d="M9.5 3H13a2 2 0 0 1 2 2H1V4a3 3 0 0 1 3-3h1.5C8 1 8 3 9.5 3"/></defs><use xlink:href="#a" fill="#60a5fa" fill-rule="evenodd"/><use xlink:href="#a" fill="#1e293b" fill-opacity="0.1" fill-rule="evenodd"/><use xlink:href="#b" fill="#60a5fa" fill-opacity=".4" fill-rule="evenodd"/><use xlink:href="#b" fill="#1e293b" fill-opacity="0.1" fill-rule="evenodd"/><path fill="#60a5fa" fill-opacity=".8" fill-rule="evenodd" d="M14 6q.23 0 .44.05l-.62.03a6 6 0 0 0-1.82.51 6 6 0 0 0-1.82-.51 3.7 3.7 0 0 0-3.13.97 3.7 3.7 0 0 0-.97 3.13q.1.9.51 1.82a6 6 0 0 0-.51 1.82q-.07.6.01 1.18H3.91a3 3 0 0 1-2.93-2.35L.04 8.44 0 8.16v-.32A2 2 0 0 1 2 6z"/><path fill="#1e293b" fill-opacity="0.1" fill-rule="evenodd" d="M14 6q.23 0 .44.05l-.62.03a6 6 0 0 0-1.82.51 6 6 0 0 0-1.82-.51A3.7 3.7 0 0 0 7.1 7H2a1 1 0 0 0-.98 1.22l.93 4.21A2 2 0 0 0 3.91 14h2.15v.08q-.04.47.03.92H3.91a3 3 0 0 1-2.93-2.35L.04 8.44 0 8.16v-.32A2 2 0 0 1 2 6z"/></svg>