<svg xmlns="http://www.w3.org/2000/svg" xmlns:xlink="http://www.w3.org/1999/xlink" viewBox="0 0 16 16"><defs><path id="a" d="M12.5 7A1.5 1.5 0 0 1 14 8.5V9h1a1 1 0 0 1 1 1v1h-.5a1.5 1.5 0 0 0 0 3h.5v1a1 1 0 0 1-1 1h-5a1 1 0 0 1-1-1v-1h-.5A1.5 1.5 0 0 1 7 12.64v-.14A1.5 1.5 0 0 1 8.5 11H9v-1a1 1 0 0 1 1-1h1v-.5A1.5 1.5 0 0 1 12.36 7z"/><path id="b" d="M9.5 3H13a2 2 0 0 1 2 2H1V4a3 3 0 0 1 3-3h1.5C8 1 8 3 9.5 3"/></defs><use xlink:href="#a" fill="#4ade80" fill-rule="evenodd"/><use xlink:href="#a" fill="#1e293b" fill-opacity="0.1" fill-rule="evenodd"/><use xlink:href="#b" fill="#4ade80" fill-opacity=".4" fill-rule="evenodd"/><use xlink:href="#b" fill="#1e293b" fill-opacity="0.1" fill-rule="evenodd"/><path fill="#4ade80" fill-opacity=".8" fill-rule="evenodd" d="M5 12.3v.44l.01.05v.05c.09.85.47 1.6 1.04 2.16H3.91a3 3 0 0 1-2.93-2.35L.04 8.44 0 8.16v-.32A2 2 0 0 1 2 6h8.05q-.47.46-.75 1.09A3 3 0 0 0 7.08 9.3a3.5 3.5 0 0 0-2.08 3"/><path fill="#1e293b" fill-opacity="0.1" fill-rule="evenodd" d="m9.45 6.78-.1.22H1.98a1 1 0 0 0-.97 1.22l.93 4.21A2 2 0 0 0 3.91 14h1.43q.27.57.71 1H3.91a3 3 0 0 1-2.93-2.35L.04 8.44 0 8.16v-.32A2 2 0 0 1 2 6h8.05q-.35.35-.6.78"/></svg>