<svg xmlns="http://www.w3.org/2000/svg" xmlns:xlink="http://www.w3.org/1999/xlink" viewBox="0 0 16 16"><defs><path id="a" d="M13.91 15a1.5 1.5 0 0 1-2.82 0zM12.5 7a.5.5 0 0 1 .5.5v.55a2.5 2.5 0 0 1 2 2.45V13h.5a.5.5 0 0 1 0 1h-6a.5.5 0 1 1 0-1h.5v-2.5a2.5 2.5 0 0 1 2-2.45V7.5a.5.5 0 0 1 .5-.5"/><path id="b" d="M9.5 3H12a3 3 0 0 1 3 3v.76l-.15-.1a2.5 2.5 0 0 0-2.59-1.65L12 5H4a3 3 0 0 0-3 3V4a3 3 0 0 1 3-3h1.5C8 1 8 3 9.5 3"/></defs><use xlink:href="#a" fill="#facc15" fill-rule="evenodd"/><use xlink:href="#a" fill="#1e293b" fill-opacity="0.1" fill-rule="evenodd"/><use xlink:href="#b" fill="#facc15" fill-opacity=".4" fill-rule="evenodd"/><use xlink:href="#b" fill="#1e293b" fill-opacity="0.1" fill-rule="evenodd"/><path fill="#facc15" fill-opacity=".8" fill-rule="evenodd" d="m12 5 .26.01a2.5 2.5 0 0 0-2.11 1.66A4.5 4.5 0 0 0 8 10.5v1a2.5 2.5 0 0 0-.5 3.5H4a3 3 0 0 1-3-3V8a3 3 0 0 1 3-3z"/><path fill="#1e293b" fill-opacity="0.1" fill-rule="evenodd" d="m12 5 .26.01A2.5 2.5 0 0 0 10.5 6H4a2 2 0 0 0-2 2v4a2 2 0 0 0 2 2h3.05q.12.56.45 1H4a3 3 0 0 1-3-3V8a3 3 0 0 1 3-3z"/></svg>