<svg xmlns="http://www.w3.org/2000/svg" xmlns:xlink="http://www.w3.org/1999/xlink" viewBox="0 0 16 16"><defs><path id="a" d="M13.35 8.72c.58.53.9 1.29.91 2.07.99.08 1.74 1 1.74 2.1 0 1.15-.83 2.11-1.89 2.11H9.36C8.05 15 7 13.84 7 12.43c0-1.26.84-2.33 1.97-2.53a2.8 2.8 0 0 1 1.7-1.75 2.7 2.7 0 0 1 2.68.57"/><path id="b" d="M9.5 3H13a2 2 0 0 1 2 2H1V4a3 3 0 0 1 3-3h1.5C8 1 8 3 9.5 3"/></defs><use xlink:href="#a" fill="#38bdf8"/><use xlink:href="#a" fill="#1e293b" fill-opacity="0.1"/><use xlink:href="#b" fill="#38bdf8" fill-opacity=".4" fill-rule="evenodd"/><use xlink:href="#b" fill="#1e293b" fill-opacity="0.1" fill-rule="evenodd"/><path fill="#38bdf8" fill-opacity=".8" fill-rule="evenodd" d="M14 6a2 2 0 0 1 2 1.85v.3q0 .14-.04.28l-.1.45a5 5 0 0 0-1.15-1.63 4.7 4.7 0 0 0-4.7-.99 4.7 4.7 0 0 0-2.5 2.04A4.6 4.6 0 0 0 5 12.43c0 .95.28 1.83.76 2.57H3.9a3 3 0 0 1-2.93-2.35L.04 8.44 0 8.16v-.32A2 2 0 0 1 2 6z"/><path fill="#1e293b" fill-opacity="0.1" fill-rule="evenodd" d="M14 6a2 2 0 0 1 2 1.85v.3q0 .14-.04.28l-.1.45a5 5 0 0 0-1.15-1.63A4.65 4.65 0 0 0 8.66 7H2a1 1 0 0 0-.97 1.22l.93 4.21A2 2 0 0 0 3.91 14h1.36q.18.54.49 1H3.9a3 3 0 0 1-2.93-2.35L.04 8.44 0 8.16v-.32A2 2 0 0 1 2 6z"/></svg>