<svg xmlns="http://www.w3.org/2000/svg" xmlns:xlink="http://www.w3.org/1999/xlink" viewBox="0 0 16 16"><defs><path id="a" d="M15.93 13.18a.75.75 0 0 1-.36 1l-3.75 1.75a.8.8 0 0 1-.64 0l-3.75-1.75a.75.75 0 0 1 .64-1.36l3.43 1.6 3.43-1.6a.75.75 0 0 1 1 .36m-3.75-5.75a.75.75 0 0 1-.36 1L8.5 9.98v.04l3 1.4 3-1.4v-.1l-.53-.31-2.14 1.06a.75.75 0 1 1-.66-1.34l2.5-1.25a.8.8 0 0 1 .72.03l1.25.75a.8.8 0 0 1 .36.64v1a.8.8 0 0 1-.43.68l-3.75 1.75a.8.8 0 0 1-.64 0l-3.75-1.75A.8.8 0 0 1 7 10.5v-1a.8.8 0 0 1 .43-.68l3.75-1.75a.75.75 0 0 1 1 .36"/><path id="b" d="M9.5 3H13a2 2 0 0 1 2 2H1V4a3 3 0 0 1 3-3h1.5C8 1 8 3 9.5 3"/></defs><use xlink:href="#a" fill="#2dd4bf" fill-rule="evenodd"/><use xlink:href="#a" fill="#1e293b" fill-opacity="0.1" fill-rule="evenodd"/><use xlink:href="#b" fill="#2dd4bf" fill-opacity=".4" fill-rule="evenodd"/><use xlink:href="#b" fill="#1e293b" fill-opacity="0.1" fill-rule="evenodd"/><path fill="#2dd4bf" fill-opacity=".8" fill-rule="evenodd" d="M8.74 6 6.6 7A2.8 2.8 0 0 0 5 9.5v1q0 .83.45 1.5l-.2.34a2.8 2.8 0 0 0 .2 2.66H3.9a3 3 0 0 1-2.93-2.35L.04 8.44 0 8.16v-.32A2 2 0 0 1 2 6z"/><path fill="#1e293b" fill-opacity="0.1" fill-rule="evenodd" d="M8.74 6 6.6 7H2a1 1 0 0 0-.98 1.22l.93 4.21A2 2 0 0 0 3.91 14h1.14q.1.54.4 1H3.9a3 3 0 0 1-2.92-2.35L.04 8.44 0 8.16v-.32A2 2 0 0 1 2 6z"/></svg>