<svg xmlns="http://www.w3.org/2000/svg" xmlns:xlink="http://www.w3.org/1999/xlink" viewBox="0 0 16 16"><defs><path id="a" d="M9 11.64v-1.55c0-.17.17-.29.33-.23l6.32 2.03a.5.5 0 0 1 .35.47v1.55a.25.25 0 0 1-.33.23l-6.32-2.03a.5.5 0 0 1-.35-.47"/><path id="b" d="m9.38 9.65 6-1.5a.5.5 0 0 1 .62.49v1.22a.5.5 0 0 1-.38.49l-6 1.5a.5.5 0 0 1-.62-.49v-1.22a.5.5 0 0 1 .38-.49m-.02 4.25 6-1.72a.5.5 0 0 1 .64.48v1.44a.5.5 0 0 1-.4.48l-6 1.29a.5.5 0 0 1-.6-.49v-1a.5.5 0 0 1 .36-.48"/><path id="c" d="M9.5 3H12a3 3 0 0 1 3 3v.19l-.1.03-.42.1A3 3 0 0 0 12 5H4a3 3 0 0 0-3 3V4a3 3 0 0 1 3-3h1.5C8 1 8 3 9.5 3"/></defs><use xlink:href="#a" fill="#facc15" fill-rule="evenodd"/><use xlink:href="#a" fill="#1e293b" fill-opacity="0.1" fill-rule="evenodd"/><use xlink:href="#b" fill="#facc15" fill-opacity=".8" fill-rule="evenodd"/><use xlink:href="#b" fill="#1e293b" fill-opacity="0.1" fill-rule="evenodd"/><use xlink:href="#c" fill="#facc15" fill-opacity=".4" fill-rule="evenodd"/><use xlink:href="#c" fill="#1e293b" fill-opacity="0.1" fill-rule="evenodd"/><path fill="#facc15" fill-opacity=".8" fill-rule="evenodd" d="M12 5a3 3 0 0 1 2.48 1.32L8.9 7.72a2.5 2.5 0 0 0-1.72 1.52q-.17.4-.17.85v1.55q.01.76.41 1.37-.4.61-.41 1.37V15H4a3 3 0 0 1-3-3V8a3 3 0 0 1 3-3z"/><path fill="#1e293b" fill-opacity="0.1" fill-rule="evenodd" d="M12 5a3 3 0 0 1 2.48 1.32l-1.07.26A2 2 0 0 0 12 6H4a2 2 0 0 0-2 2v4a2 2 0 0 0 2 2h3.03q-.03.19-.03.38V15H4a3 3 0 0 1-3-3V8a3 3 0 0 1 3-3z"/></svg>