<svg xmlns="http://www.w3.org/2000/svg" xmlns:xlink="http://www.w3.org/1999/xlink" viewBox="0 0 16 16"><defs><path id="a" d="m15.95 12.24-.05.23a5 5 0 0 1-.3.95 4 4 0 0 1-.66 1.05 4 4 0 0 1-1.6 1.17l-.42.15a5 5 0 0 1-1.42.2A4.44 4.44 0 0 1 7 11.73v-.22a5 5 0 0 1 .08-.86 5 5 0 0 1 .48-1.36A4.4 4.4 0 0 1 9.4 7.5l.45-.2A5 5 0 0 1 11.5 7a4.4 4.4 0 0 1 4.5 4.5q0 .38-.05.74M11.5 8q-.3 0-.6.05l.1.1a.75.75 0 0 1 .12.97l-.8 1.2a.8.8 0 0 1-.47.32l-.73.14-.53.68a1 1 0 0 1-.58.3 3.5 3.5 0 0 0 4.34 3.14l-.06-.16-.1-.27-.67-.27a.8.8 0 0 1-.47-.7v-1.4a.75.75 0 0 1 .51-.71l1.2-.4a1 1 0 0 1 .32-.03l1.8.2.1.02A3.5 3.5 0 0 0 11.5 8"/><path id="b" d="M9.5 3H13a2 2 0 0 1 2 2H1V4a3 3 0 0 1 3-3h1.5C8 1 8 3 9.5 3"/></defs><use xlink:href="#a" fill="#60a5fa" fill-rule="evenodd"/><use xlink:href="#a" fill="#1e293b" fill-opacity="0.1" fill-rule="evenodd"/><use xlink:href="#b" fill="#60a5fa" fill-opacity=".4" fill-rule="evenodd"/><use xlink:href="#b" fill="#1e293b" fill-opacity="0.1" fill-rule="evenodd"/><path fill="#60a5fa" fill-opacity=".8" fill-rule="evenodd" d="M5 11.5c0 1.29.38 2.49 1.02 3.5H3.91a3 3 0 0 1-2.93-2.35L.04 8.44 0 8.16v-.32A2 2 0 0 1 2 6h6.03A6.5 6.5 0 0 0 5 11.5"/><path fill="#1e293b" fill-opacity="0.1" fill-rule="evenodd" d="M6.81 7H1.99a1 1 0 0 0-.97 1.22l.93 4.21A2 2 0 0 0 3.91 14H5.5q.22.53.52 1H3.91a3 3 0 0 1-2.93-2.35L.04 8.44 0 8.16v-.32A2 2 0 0 1 2 6h6.03q-.67.42-1.22 1"/></svg>