<svg xmlns="http://www.w3.org/2000/svg" xmlns:xlink="http://www.w3.org/1999/xlink" viewBox="0 0 16 16"><defs><path id="a" d="M11 8a4 4 0 1 1 0 8 4 4 0 0 1 0-8m1 1.5a1.5 1.5 0 1 0 0 3 1.5 1.5 0 0 0 0-3M15 7a1 1 0 1 1 0 2 1 1 0 0 1 0-2"/><path id="b" d="M9.5 3H13a2 2 0 0 1 2 2H1V4a3 3 0 0 1 3-3h1.5C8 1 8 3 9.5 3"/></defs><use xlink:href="#a" fill="#60a5fa" fill-rule="evenodd"/><use xlink:href="#a" fill="#1e293b" fill-opacity="0.1" fill-rule="evenodd"/><use xlink:href="#b" fill="#60a5fa" fill-opacity=".4" fill-rule="evenodd"/><use xlink:href="#b" fill="#1e293b" fill-opacity="0.1" fill-rule="evenodd"/><path fill="#60a5fa" fill-opacity=".8" fill-rule="evenodd" d="M12.59 6.22A6 6 0 0 0 11 6a6 6 0 0 0-5.2 9H3.9a3 3 0 0 1-2.92-2.35L.04 8.44 0 8.16v-.32A2 2 0 0 1 2 6h10.77q-.1.1-.18.22"/><path fill="#1e293b" fill-opacity="0.1" fill-rule="evenodd" d="M12.59 6.22a6 6 0 0 0-4.9.78h-5.7a1 1 0 0 0-.97 1.22l.93 4.21A2 2 0 0 0 3.91 14h1.43q.19.53.46 1H3.9a3 3 0 0 1-2.92-2.35L.04 8.44 0 8.16v-.32A2 2 0 0 1 2 6h10.77q-.1.1-.18.22"/></svg>