<svg xmlns="http://www.w3.org/2000/svg" xmlns:xlink="http://www.w3.org/1999/xlink" viewBox="0 0 16 16"><defs><path id="a" d="M4 1h1.5C8 1 8 3 9.5 3H13a2 2 0 0 1 2 2H1V4a3 3 0 0 1 3-3"/></defs><use xlink:href="#a" fill="#38bdf8" fill-opacity=".4" fill-rule="evenodd"/><use xlink:href="#a" fill="#1e293b" fill-opacity="0.1" fill-rule="evenodd"/><path fill="#38bdf8" fill-opacity=".8" fill-rule="evenodd" d="M2 6h12a2 2 0 0 1 1.96 2.43l-.94 4.22A3 3 0 0 1 12.1 15H3.91a3 3 0 0 1-2.93-2.35L.04 8.44A2 2 0 0 1 2 6"/><path fill="none" stroke="#1e293b" stroke-opacity="0.1" d="m15.5 8.15-.03.18-.94 4.21a2.5 2.5 0 0 1-2.44 1.96H3.91a2.5 2.5 0 0 1-2.44-1.96L.53 8.33A1.5 1.5 0 0 1 1.99 6.5h12.02a1.5 1.5 0 0 1 1.49 1.65Z"/></svg>