<svg xmlns="http://www.w3.org/2000/svg" xmlns:xlink="http://www.w3.org/1999/xlink" viewBox="0 0 16 16"><defs><path id="a" d="m15.99 8.6-.07.3c-.38 1.49-1.33 2.63-2.83 3.72l-.74.5-.33.22q.09.3.1.6c0 1.14-.93 2.06-2.06 2.06H8.5a.5.5 0 0 1-.5-.5v-1.55a2.06 2.06 0 0 1 2.66-1.97l.16-.25q.3-.46.56-.82c1.17-1.6 2.39-2.57 4.02-2.9a.5.5 0 0 1 .59.59"/><path id="b" d="M9.5 3H13a2 2 0 0 1 2 2H1V4a3 3 0 0 1 3-3h1.5C8 1 8 3 9.5 3"/></defs><use xlink:href="#a" fill="#60a5fa"/><use xlink:href="#a" fill="#1e293b" fill-opacity="0.1"/><use xlink:href="#b" fill="#60a5fa" fill-opacity=".4" fill-rule="evenodd"/><use xlink:href="#b" fill="#1e293b" fill-opacity="0.1" fill-rule="evenodd"/><path fill="#60a5fa" fill-opacity=".8" fill-rule="evenodd" d="m9.98 9.45-.21.29-.13.17A4.06 4.06 0 0 0 6 13.95V15H3.9a3 3 0 0 1-2.92-2.35L.04 8.44 0 8.16v-.32A2 2 0 0 1 2 6h12q.37 0 .69.12c-1.86.45-3.35 1.55-4.7 3.33"/><path fill="#1e293b" fill-opacity="0.1" fill-rule="evenodd" d="M14 6q.37 0 .69.12a7 7 0 0 0-2.11.88H1.99a1 1 0 0 0-.97 1.22l.93 4.21A2 2 0 0 0 3.91 14H6v1H3.9a3 3 0 0 1-2.92-2.35L.04 8.44 0 8.16v-.32A2 2 0 0 1 2 6z"/></svg>