<svg xmlns="http://www.w3.org/2000/svg" xmlns:xlink="http://www.w3.org/1999/xlink" viewBox="0 0 16 16"><defs><path id="a" d="M12.5 8A1.5 1.5 0 0 1 14 9.5v.5h.25c.97 0 1.75.78 1.75 1.75v2.5A1.75 1.75 0 0 1 14.25 16h-4.5A1.75 1.75 0 0 1 8 14.25v-2.5c0-.97.78-1.75 1.75-1.75H10v-.5A1.5 1.5 0 0 1 11.5 8zm-1 1a.5.5 0 0 0-.5.5v.5h2v-.5a.5.5 0 0 0-.5-.5z"/><path id="b" d="M9.5 3H13a2 2 0 0 1 2 2H1V4a3 3 0 0 1 3-3h1.5C8 1 8 3 9.5 3"/></defs><use xlink:href="#a" fill="#fb7185" fill-rule="evenodd"/><use xlink:href="#a" fill="#1e293b" fill-opacity="0.1" fill-rule="evenodd"/><use xlink:href="#b" fill="#fb7185" fill-opacity=".4" fill-rule="evenodd"/><use xlink:href="#b" fill="#1e293b" fill-opacity="0.1" fill-rule="evenodd"/><path fill="#fb7185" fill-opacity=".8" fill-rule="evenodd" d="M2 6h9.5a3.5 3.5 0 0 0-3.3 2.34A3.7 3.7 0 0 0 6 11.75v2.5q0 .39.08.75H3.9a3 3 0 0 1-2.93-2.35L.04 8.44 0 8.16v-.32A2 2 0 0 1 2 6m13.96 2.42.04.02-.2-.1A3.5 3.5 0 0 0 12.53 6h1.48a2 2 0 0 1 2 1.84v.32z"/><path fill="#1e293b" fill-opacity="0.1" fill-rule="evenodd" d="M2 6h9.5c-.95 0-1.82.38-2.45 1H2a1 1 0 0 0-.97 1.22l.93 4.21A2 2 0 0 0 3.91 14H6v.25q0 .39.08.75H3.9a3 3 0 0 1-2.93-2.35L.04 8.44 0 8.16v-.32A2 2 0 0 1 2 6m13.96 2.42.04.02-.2-.1A3.5 3.5 0 0 0 12.53 6h1.48a2 2 0 0 1 2 1.84v.32z"/></svg>