<svg xmlns="http://www.w3.org/2000/svg" xmlns:xlink="http://www.w3.org/1999/xlink" viewBox="0 0 16 16"><defs><path id="a" d="m14.23 7.17 1.5 1.25A.8.8 0 0 1 16 9v5a.8.8 0 0 1-.27.58l-1.5 1.25a.75.75 0 0 1-.96-1.16l1.23-1.02v-4.3l-1.23-1.02a.75.75 0 0 1 .96-1.16M12.5 10.5a1 1 0 1 1 0 2 1 1 0 0 1 0-2M8.83 7.27a.75.75 0 0 1-.1 1.06L7.5 9.35v4.3l1.23 1.02a.75.75 0 0 1-.96 1.16l-1.5-1.25A.8.8 0 0 1 6 14V9a.8.8 0 0 1 .27-.58l1.5-1.25a.75.75 0 0 1 1.06.1m.67 3.23a1 1 0 1 1 0 2 1 1 0 0 1 0-2"/><path id="b" d="M9.5 3H12a3 3 0 0 1 2.9 2.25 2.8 2.8 0 0 0-2-.11A3 3 0 0 0 12 5H4a3 3 0 0 0-3 3V4a3 3 0 0 1 3-3h1.5C8 1 8 3 9.5 3"/></defs><use xlink:href="#a" fill="#38bdf8" fill-rule="evenodd"/><use xlink:href="#a" fill="#1e293b" fill-opacity="0.1" fill-rule="evenodd"/><use xlink:href="#b" fill="#38bdf8" fill-opacity=".4" fill-rule="evenodd"/><use xlink:href="#b" fill="#1e293b" fill-opacity="0.1" fill-rule="evenodd"/><path fill="#38bdf8" fill-opacity=".8" fill-rule="evenodd" d="m6.49 5.64-1.5 1.25A2.8 2.8 0 0 0 4 9v5q0 .53.19 1H4a3 3 0 0 1-3-3V8a3 3 0 0 1 3-3h4.22a2.7 2.7 0 0 0-1.73.64M12 5q.47 0 .9.14a3 3 0 0 0-1.14.71l-.12.14A2.7 2.7 0 0 0 11 7.74a2.7 2.7 0 0 0-.64-1.75A2.7 2.7 0 0 0 8.28 5z"/><path fill="#1e293b" fill-opacity="0.1" fill-rule="evenodd" d="M6.49 5.64 6.05 6H4a2 2 0 0 0-2 2v4a2 2 0 0 0 2 2q0 .53.19 1H4a3 3 0 0 1-3-3V8a3 3 0 0 1 3-3h4.22a2.7 2.7 0 0 0-1.73.64m5.27.21-.13.15h-1.26v-.01A2.7 2.7 0 0 0 8.27 5H12q.47 0 .9.14a3 3 0 0 0-1.14.71"/></svg>