<svg xmlns="http://www.w3.org/2000/svg" xmlns:xlink="http://www.w3.org/1999/xlink" viewBox="0 0 16 16"><defs><path id="a" d="M13.78 7.22a.75.75 0 0 1 0 1.06l-1.25 1.25.94.94 1.25-1.25a.75.75 0 0 1 1.06 1.06l-1.25 1.25.07.07a1.25 1.25 0 0 1-.01 1.78l-.61.6a3.5 3.5 0 0 1-4.37.47l-1.33 1.33a.75.75 0 0 1-1.06-1.06l1.33-1.33a3.5 3.5 0 0 1 .47-4.37l.6-.6a1.25 1.25 0 0 1 1.78-.02l.07.07 1.25-1.25a.75.75 0 0 1 1.06 0"/><path id="b" d="M9.5 3H12a3 3 0 0 1 2.98 2.6 2.8 2.8 0 0 0-2.34-.53A3 3 0 0 0 12 5H4a3 3 0 0 0-3 3V4a3 3 0 0 1 3-3h1.5C8 1 8 3 9.5 3"/></defs><use xlink:href="#a" fill="#4ade80" fill-rule="evenodd"/><use xlink:href="#a" fill="#1e293b" fill-opacity="0.1" fill-rule="evenodd"/><use xlink:href="#b" fill="#4ade80" fill-opacity=".4" fill-rule="evenodd"/><use xlink:href="#b" fill="#1e293b" fill-opacity="0.1" fill-rule="evenodd"/><path fill="#4ade80" fill-opacity=".8" fill-rule="evenodd" d="M12 5q.33 0 .64.07-.75.15-1.33.73l-.28.28a3.2 3.2 0 0 0-2.85.94l-.6.62a5.5 5.5 0 0 0-1.39 5.28l-.38.39A2.7 2.7 0 0 0 5 15H4a3 3 0 0 1-3-3V8a3 3 0 0 1 3-3z"/><path fill="#1e293b" fill-opacity="0.1" fill-rule="evenodd" d="M12 5q.33 0 .64.07-.75.15-1.33.73l-.2.2H4a2 2 0 0 0-2 2v4a2 2 0 0 0 2 2h1.3a3 3 0 0 0-.29 1H4a3 3 0 0 1-3-3V8a3 3 0 0 1 3-3z"/></svg>