<svg xmlns="http://www.w3.org/2000/svg" xmlns:xlink="http://www.w3.org/1999/xlink" viewBox="0 0 16 16"><defs><path id="a" d="m11.69 7.25 3.06 2.57a3.5 3.5 0 1 1-5.43 4.14l-.54.64a1 1 0 0 1-1.53-1.29L9.19 11H8a1 1 0 0 1 0-2h2.66l-.26-.22a1 1 0 0 1 1.29-1.53M12.5 11a1.5 1.5 0 1 0 0 3 1.5 1.5 0 0 0 0-3"/><path id="b" d="M9.5 3H13a2 2 0 0 1 2 2H1V4a3 3 0 0 1 3-3h1.5C8 1 8 3 9.5 3"/></defs><use xlink:href="#a" fill="#fb923c" fill-rule="evenodd"/><use xlink:href="#a" fill="#1e293b" fill-opacity="0.1" fill-rule="evenodd"/><use xlink:href="#b" fill="#fb923c" fill-opacity=".4" fill-rule="evenodd"/><use xlink:href="#b" fill="#1e293b" fill-opacity="0.1" fill-rule="evenodd"/><path fill="#fb923c" fill-opacity=".8" fill-rule="evenodd" d="m8.82 6-.07.09q-.36.42-.53.91H8a3 3 0 0 0-3 3c0 .76.28 1.46.75 1.98l-.03.05A3 3 0 0 0 5.2 15H3.9a3 3 0 0 1-2.92-2.35L.04 8.44 0 8.16v-.32A2 2 0 0 1 2 6zM16 7.83v.33l-.01.09L13.31 6h.7a2 2 0 0 1 2 1.83"/><path fill="#1e293b" fill-opacity="0.1" fill-rule="evenodd" d="M8.22 7H2a1 1 0 0 0-.97 1.22l.93 4.21A2 2 0 0 0 3.91 14H5a3 3 0 0 0 .2 1H3.9a3 3 0 0 1-2.93-2.35L.04 8.44 0 8.16v-.32A2 2 0 0 1 2 6h6.82l-.07.09q-.36.42-.53.91m7.78.83v.42L13.3 6h.7a2 2 0 0 1 2 1.83"/></svg>