<svg xmlns="http://www.w3.org/2000/svg" xmlns:xlink="http://www.w3.org/1999/xlink" viewBox="0 0 16 16"><defs><path id="a" d="M14.5 13a.5.5 0 0 1 .5.5v.5h.5a.5.5 0 1 1 0 1H15v.5a.5.5 0 1 1-1 0V15h-.5a.5.5 0 1 1 0-1h.5v-.5a.5.5 0 0 1 .5-.5m-2.92-5.53.36 1.24a2 2 0 0 0 1.36 1.35l1.23.36a.6.6 0 0 1 0 1.16l-1.23.36a2 2 0 0 0-1.36 1.36l-.36 1.23a.6.6 0 0 1-1.16 0l-.36-1.23a2 2 0 0 0-1.35-1.36l-1.24-.36a.6.6 0 0 1 0-1.16l1.24-.36a2 2 0 0 0 1.35-1.35l.36-1.24a.6.6 0 0 1 1.16 0"/><path id="b" d="M9.5 3H12a3 3 0 0 1 3 3v2a3 3 0 0 0-3-3H4a3 3 0 0 0-3 3V4a3 3 0 0 1 3-3h1.5C8 1 8 3 9.5 3"/></defs><use xlink:href="#a" fill="#a78bfa" fill-rule="evenodd"/><use xlink:href="#a" fill="#1e293b" fill-opacity="0.1" fill-rule="evenodd"/><use xlink:href="#b" fill="#a78bfa" fill-opacity=".4" fill-rule="evenodd"/><use xlink:href="#b" fill="#1e293b" fill-opacity="0.1" fill-rule="evenodd"/><path fill="#a78bfa" fill-opacity=".8" fill-rule="evenodd" d="M12 5a3 3 0 0 1 3 3v.48l-1.14-.34-.37-1.23c-.72-2.5-4.26-2.5-4.99 0l-.36 1.23-1.23.37c-2.5.72-2.5 4.26 0 4.99l1.23.36.34 1.14H4a3 3 0 0 1-3-3V8a3 3 0 0 1 3-3z"/><path fill="#1e293b" fill-opacity="0.1" fill-rule="evenodd" d="M12 5a3 3 0 0 1 3 3v.48l-1-.3V8a2 2 0 0 0-.65-1.47A2.6 2.6 0 0 0 8.97 6H4a2 2 0 0 0-2 2v4a2 2 0 0 0 2 2h4.18l.3 1H4a3 3 0 0 1-3-3V8a3 3 0 0 1 3-3z"/></svg>