<svg xmlns="http://www.w3.org/2000/svg" xmlns:xlink="http://www.w3.org/1999/xlink" viewBox="0 0 16 16"><defs><path id="a" d="M11 10v4a2 2 0 1 1-4 0v-.5a1 1 0 0 1 2 0V10a1 1 0 1 1 2 0m3 1v.22l.02.23v.05c1.13.01 1.76.73 1.93 1.72.04.26.05.45.05.78 0 1.05-.95 2-2 2h-1a1 1 0 0 1 0-2h1l-.02-.45v-.05c-1.13-.01-1.76-.73-1.93-1.72A4 4 0 0 1 12 11c0-1.05.95-2 2-2h1a1 1 0 0 1 0 2z"/><path id="b" d="M9.5 3H12a3 3 0 0 1 3 3v1h-.17A3 3 0 0 0 12 5H4a3 3 0 0 0-3 3V4a3 3 0 0 1 3-3h1.5C8 1 8 3 9.5 3"/></defs><use xlink:href="#a" fill="#facc15" fill-rule="evenodd"/><use xlink:href="#a" fill="#1e293b" fill-opacity="0.1" fill-rule="evenodd"/><use xlink:href="#b" fill="#facc15" fill-opacity=".4" fill-rule="evenodd"/><use xlink:href="#b" fill="#1e293b" fill-opacity="0.1" fill-rule="evenodd"/><path fill="#facc15" fill-opacity=".8" fill-rule="evenodd" d="M12 5a3 3 0 0 1 2.83 2H14q-1.18.02-2.14.65A3 3 0 0 0 7 10v.67a3 3 0 0 0-2 2.83v.5q0 .52.13 1H4a3 3 0 0 1-3-3V8a3 3 0 0 1 3-3z"/><path fill="#1e293b" fill-opacity="0.1" fill-rule="evenodd" d="M12 5a3 3 0 0 1 2.83 2H14l-.26.01A2 2 0 0 0 12 6H4a2 2 0 0 0-2 2v4a2 2 0 0 0 2 2h1v.27q.04.38.13.73H4a3 3 0 0 1-3-3V8a3 3 0 0 1 3-3z"/></svg>