<svg xmlns="http://www.w3.org/2000/svg" xmlns:xlink="http://www.w3.org/1999/xlink" viewBox="0 0 16 16"><defs><path id="a" d="M8.5 8h4a.5.5 0 0 1 .5.5v1a.5.5 0 0 1-.5.5h-4a.5.5 0 0 1-.5-.5v-1a.5.5 0 0 1 .5-.5m6 0h1a.5.5 0 0 1 .5.5v1a.5.5 0 0 1-.5.5h-1a.5.5 0 0 1-.5-.5v-1a.5.5 0 0 1 .5-.5m-6 3h4a.5.5 0 0 1 .5.5v1a.5.5 0 0 1-.5.5h-4a.5.5 0 0 1-.5-.5v-1a.5.5 0 0 1 .5-.5m6 0h1a.5.5 0 0 1 .5.5v1a.5.5 0 0 1-.5.5h-1a.5.5 0 0 1-.5-.5v-1a.5.5 0 0 1 .5-.5m-6 3h4a.5.5 0 0 1 .5.5v1a.5.5 0 0 1-.5.5h-4a.5.5 0 0 1-.5-.5v-1a.5.5 0 0 1 .5-.5m6 0h1a.5.5 0 0 1 .5.5v1a.5.5 0 0 1-.5.5h-1a.5.5 0 0 1-.5-.5v-1a.5.5 0 0 1 .5-.5"/><path id="b" d="M9.5 3H12a3 3 0 0 1 3 3h-.5l-.25.01A3 3 0 0 0 12 5H4a3 3 0 0 0-3 3V4a3 3 0 0 1 3-3h1.5C8 1 8 3 9.5 3"/></defs><use xlink:href="#a" fill="#38bdf8" fill-rule="evenodd"/><use xlink:href="#a" fill="#1e293b" fill-opacity="0.1" fill-rule="evenodd"/><use xlink:href="#b" fill="#38bdf8" fill-opacity=".4" fill-rule="evenodd"/><use xlink:href="#b" fill="#1e293b" fill-opacity="0.1" fill-rule="evenodd"/><path fill="#38bdf8" fill-opacity=".8" fill-rule="evenodd" d="M12 5a3 3 0 0 1 2.25 1.01 3 3 0 0 0-.75.2 3 3 0 0 0-1-.21h-4A2.5 2.5 0 0 0 6 8.5v1q0 .54.21 1-.21.46-.21 1v1q0 .54.21 1-.21.46-.21 1v.5H4a3 3 0 0 1-3-3V8a3 3 0 0 1 3-3z"/><path fill="#1e293b" fill-opacity="0.1" fill-rule="evenodd" d="M12.5 6H4a2 2 0 0 0-2 2v4a2 2 0 0 0 2 2h2.05q-.05.24-.05.5v.5H4a3 3 0 0 1-3-3V8a3 3 0 0 1 3-3h8a3 3 0 0 1 2.25 1.01 3 3 0 0 0-.75.2 3 3 0 0 0-1-.21"/></svg>