<svg xmlns="http://www.w3.org/2000/svg" viewBox="0 0 16 16"><path fill="#94a3b8" fill-opacity=".4" fill-rule="evenodd" d="M14 6a1 1 0 0 1 1 1v6a1 1 0 0 1-1.91.41 4 4 0 1 1 0-6.82A1 1 0 0 1 14 6m-3 3a1 1 0 1 0 0 2 1 1 0 0 0 0-2"/><path fill="none" stroke="#1e293b" stroke-opacity="0.1" d="M14.5 7v6a.5.5 0 0 1-.96.2l-.23-.51-.49.3a3.5 3.5 0 1 1 0-5.97l.5.3.22-.53a.5.5 0 0 1 .96.21Zm-5 3a1.5 1.5 0 1 0 3 0 1.5 1.5 0 0 0-3 0Z"/><path fill="#94a3b8" d="M3.58 2a1.5 1.5 0 0 1 2.84 0l3.5 10a1.5 1.5 0 1 1-2.84 1l-.34-1H3.26l-.34 1a1.5 1.5 0 0 1-1.78.96L1 13.92A1.5 1.5 0 0 1 .08 12zM5 7.04 4.31 9H5.7z"/><path fill="none" stroke="#1e293b" stroke-opacity="0.1" d="m5.91 2.09.03.08 3.5 10a1 1 0 1 1-1.88.66l-.35-1-.12-.33H2.91l-.12.34-.35 1a1 1 0 0 1-1.18.63l-.11-.03a1 1 0 0 1-.6-1.27l3.5-10a1 1 0 0 1 1.86-.08ZM4.53 6.87l-.69 1.96-.23.67h2.78l-.23-.66-.69-1.97L5 5.53Z"/></svg>