<svg xmlns="http://www.w3.org/2000/svg" viewBox="0 0 16 16"><path fill="#e879f9" fill-opacity=".4" fill-rule="evenodd" d="M9.04 13.8 6 15.48a1 1 0 0 1-1.47-.75l-.42-3.44a1 1 0 0 0-.32-.61L1.26 8.3a1 1 0 0 1 .26-1.64L4.66 5.2a1 1 0 0 0 .48-.49l1.47-3.14a1 1 0 0 1 1.64-.26l2.36 2.54a1 1 0 0 0 .61.3l3.45.43a1 1 0 0 1 .75 1.48L13.74 9.1a1 1 0 0 0-.1.68l.65 3.4a1 1 0 0 1-1.17 1.18l-3.4-.67a1 1 0 0 0-.68.11"/><path fill="none" stroke="#1e293b" stroke-opacity="0.1" d="m7.83 1.62.05.04 2.37 2.54a1.5 1.5 0 0 0 .91.46l3.45.43a.5.5 0 0 1 .37.73L13.3 8.86a1.5 1.5 0 0 0-.16 1.01l.66 3.4a.5.5 0 0 1-.58.6L9.8 13.2a1.5 1.5 0 0 0-1.01.16l-3.04 1.69a.5.5 0 0 1-.74-.38l-.42-3.44a1.5 1.5 0 0 0-.46-.92L1.6 7.94a.5.5 0 0 1 .13-.81l3.14-1.47a1.5 1.5 0 0 0 .73-.73L7.06 1.8a.5.5 0 0 1 .77-.17Z"/><path fill="#e879f9" d="M10.18 9.51a.5.5 0 0 1 .15.7 2 2 0 0 1-2.95.46.5.5 0 1 1 .63-.77 1 1 0 0 0 1.48-.24.5.5 0 0 1 .69-.15"/><path fill="#e879f9" fill-rule="evenodd" d="M6.67 9.44a1 1 0 1 0-.31-1.98 1 1 0 0 0 .3 1.98m3.96-.63a1 1 0 1 0-.31-1.97 1 1 0 0 0 .3 1.97"/></svg>