<svg xmlns="http://www.w3.org/2000/svg" viewBox="0 0 16 16"><path fill="#2dd4bf" fill-opacity=".4" fill-rule="evenodd" d="M.5 15H2q.25-1.75 1.5-1.75T5 15h2q.25-1.75 1.5-1.75T10 15h2c1-7 4-5 4-10 0-2.25-1.5-3-2.5-3s-1.5.25-2.25 1l.75.5c2.25-1 2.5.5 2.5 1s0 1.5-1.25 1.5S9.75 4 7 4s-4 .5-4.25 1q-.25.5 0 1.25C1.25 7-1 9.5.5 15"/><path fill="none" stroke="#1e293b" stroke-opacity="0.1" d="M15.5 5c0 1.76-.3 2.54-1.18 3.56l-.42.48-.46.55c-.9 1.2-1.5 2.64-1.87 4.91h-1.16c-.27-1.12-.91-1.75-1.91-1.75s-1.64.63-1.91 1.75H5.4c-.27-1.12-.91-1.75-1.91-1.75s-1.64.63-1.91 1.75h-.7c-1.03-4.14.08-6.8 2.08-7.8l.4-.2-.15-.4q-.18-.58-.02-.88c.17-.35 1.52-.72 3.8-.72 1.09 0 2.11.31 3.48.95l1.45.7c.54.23.95.35 1.32.35.97 0 1.53-.5 1.7-1.29.04-.22.05-.4.05-.71a2 2 0 0 0-.57-1.43q-.8-.73-2.35-.14c.43-.33.8-.43 1.42-.43 1.08 0 2 .86 2 2.5Z"/><path fill="#2dd4bf" fill-rule="evenodd" d="M7 10c2.5 0 3.75-.5 5-1s4-1 4-4c0-2.25-1.5-3-2.5-3s-1.5.25-2.25 1l.75.5c2.25-1 2.5.5 2.5 1s0 1.5-1.25 1.5S9.75 4 7 4s-4 .5-4.25 1q-.25.5 0 1.25C3.5 8 4.5 10 7 10"/><path fill="none" stroke="#1e293b" stroke-opacity="0.1" d="M15.5 5c0 1.46-.68 2.3-2.01 2.9-.4.19-1.66.63-1.68.64-1.82.72-2.8.96-4.81.96-1.82 0-2.75-1.01-3.79-3.45q-.16-.51-.01-.83c.17-.35 1.52-.72 3.8-.72 1.09 0 2.11.31 3.48.95l1.45.7c.54.23.95.35 1.32.35.97 0 1.53-.5 1.7-1.29.04-.22.05-.4.05-.71a2 2 0 0 0-.57-1.43q-.8-.73-2.35-.14c.43-.33.8-.43 1.42-.43 1.08 0 2 .86 2 2.5Z"/></svg>