<svg xmlns="http://www.w3.org/2000/svg" xmlns:xlink="http://www.w3.org/1999/xlink" viewBox="0 0 16 16"><defs><path id="a" d="m5.7 3.5 1.7 4.87a1 1 0 0 1 .1.3L7.96 10a.75.75 0 0 1-1.42.5l-.34-1H3.8l-.34 1a.75.75 0 1 1-1.42-.5l.47-1.34v-.01a1 1 0 0 1 .1-.3L4.29 3.5a.75.75 0 0 1 1.42 0M5 6.04 4.32 8h1.36z"/><path id="b" d="M10.5 4.5a.5.5 0 0 1 .5.5v1h2.5a.5.5 0 1 1 0 1h-.52a5.8 5.8 0 0 1-1.72 3.73q.99.73 2.43 1.3a.5.5 0 1 1-.38.93q-1.6-.64-2.73-1.5 0-.16-.05-.32l-.35-1.4.21.23.11.1A5 5 0 0 0 11.98 7H9.5l-.25-1H10V5a.5.5 0 0 1 .5-.5"/></defs><path fill="#60a5fa" fill-opacity=".4" fill-rule="evenodd" d="M2.5 1h4.33a1.5 1.5 0 0 1 1.45 1.14l2.25 9A1.5 1.5 0 0 1 9.08 13H2.5A2.5 2.5 0 0 1 0 10.5v-7A2.5 2.5 0 0 1 2.5 1"/><path fill="none" stroke="#1e293b" stroke-opacity="0.1" d="m7.78 2.18.02.08 2.25 9a1 1 0 0 1-.97 1.24H2.5a2 2 0 0 1-2-2v-7a2 2 0 0 1 2-2h4.33a1 1 0 0 1 .94.68Z"/><use xlink:href="#a" fill="#60a5fa" fill-rule="evenodd"/><use xlink:href="#a" fill="#1e293b" fill-opacity="0.1" fill-rule="evenodd"/><path fill="#facc15" fill-opacity=".4" fill-rule="evenodd" d="M13.5 3A2.5 2.5 0 0 1 16 5.5v7a2.5 2.5 0 0 1-2.5 2.5H8.17a1.5 1.5 0 0 1-1.45-1.14L6.5 13h2.58a1.5 1.5 0 0 0 1.45-1.86L8.5 3z"/><path fill="#1e293b" fill-opacity="0.1" fill-rule="evenodd" d="M13.5 3A2.5 2.5 0 0 1 16 5.5v7a2.5 2.5 0 0 1-2.5 2.5H8.17a1.5 1.5 0 0 1-1.45-1.14L6.5 13h1.03l.16.62a.5.5 0 0 0 .48.38h5.33a1.5 1.5 0 0 0 1.5-1.5v-7A1.5 1.5 0 0 0 13.5 4H8.75L8.5 3z"/><use xlink:href="#b" fill="#facc15" fill-rule="evenodd"/><use xlink:href="#b" fill="#1e293b" fill-opacity="0.1" fill-rule="evenodd"/></svg>