<svg xmlns="http://www.w3.org/2000/svg" viewBox="0 0 16 16"><path fill="#60a5fa" fill-opacity=".4" fill-rule="evenodd" d="M5 1h6a4 4 0 0 1 4 4v6a4 4 0 0 1-4 4H5a4 4 0 0 1-4-4V5a4 4 0 0 1 4-4"/><path fill="none" stroke="#1e293b" stroke-opacity="0.1" d="M14.5 5v6a3.5 3.5 0 0 1-3.5 3.5H5A3.5 3.5 0 0 1 1.5 11V5A3.5 3.5 0 0 1 5 1.5h6A3.5 3.5 0 0 1 14.5 5Z"/><path fill="#60a5fa" fill-rule="evenodd" d="M6.5 3h4A1.5 1.5 0 0 1 12 4.5v4a1.5 1.5 0 0 1-1.5 1.5h-4A1.5 1.5 0 0 1 5 8.5v-4A1.5 1.5 0 0 1 6.5 3"/><path fill="none" stroke="#1e293b" stroke-opacity="0.1" d="M11.5 4.5v4a1 1 0 0 1-1 1h-4a1 1 0 0 1-1-1v-4a1 1 0 0 1 1-1h4a1 1 0 0 1 1 1Z"/><path fill="#4ade80" fill-rule="evenodd" d="m10.93 5.74 2.63 4.5a.5.5 0 0 1-.43.76H7.87a.5.5 0 0 1-.43-.75l2.63-4.51a.5.5 0 0 1 .86 0"/><path fill="none" stroke="#1e293b" stroke-opacity="0.1" d="M13.13 10.5H7.87L10.5 6Z"/><circle cx="6" cy="10" r="3" fill="#fb923c" fill-rule="evenodd"/><circle cx="6" cy="10" r="2.5" fill="none" stroke="#1e293b" stroke-opacity="0.1"/></svg>