<svg xmlns="http://www.w3.org/2000/svg" viewBox="0 0 16 16"><path fill="#fb7185" fill-opacity=".4" fill-rule="evenodd" d="M13.88 1H7.12a1 1 0 0 0-.95 1.3L8 8l2.5-3L13 8l1.83-5.7a1 1 0 0 0-.95-1.3"/><path fill="none" stroke="#1e293b" stroke-opacity="0.1" d="M13.88 1.5a.5.5 0 0 1 .49.6l-.02.05-1.55 4.83-1.92-2.3-.38-.46-.38.46-1.92 2.3-1.55-4.83a.5.5 0 0 1 .47-.65Z"/><path fill="#fb7185" fill-rule="evenodd" d="M10.5 14c-1.5.25-1.5 1-5 1-1 0-2.75-.25-3.25-2q-.34-1.2.14-3.1.29.1.61.1.22 0 .42-.04Q4.02 11 5.5 11C8 11 7.5 8 9 7h4q2.5 1.5 2 4c-.5 2.5-3 2.75-4.5 3"/><path fill="none" stroke="#1e293b" stroke-opacity="0.1" d="m14.55 10.63-.04.27c-.25 1.24-1.05 1.91-2.42 2.28l-.86.2-.81.13a5 5 0 0 0-1.2.36l-.3.13c-.86.35-1.7.5-3.42.5-1.4 0-2.43-.47-2.77-1.64q-.26-.9.03-2.37h.42q.78 1 2.32 1.01c1.52 0 2.1-.68 2.8-2.48.35-.88.55-1.27.86-1.52h3.7q1.95 1.23 1.7 3.13Zm-4.13 2.88Z"/><circle cx="13" cy="8" r="2" fill="#facc15" fill-rule="evenodd"/><circle cx="13" cy="8" r="1.5" fill="none" stroke="#1e293b" stroke-opacity="0.1"/><circle cx="8" cy="8" r="2" fill="#facc15" fill-rule="evenodd"/><circle cx="8" cy="8" r="1.5" fill="none" stroke="#1e293b" stroke-opacity="0.1"/><circle cx="3" cy="8" r="2" fill="#fb7185" fill-opacity=".4" fill-rule="evenodd"/><circle cx="3" cy="8" r="1.5" fill="none" stroke="#1e293b" stroke-opacity="0.1"/></svg>