<svg xmlns="http://www.w3.org/2000/svg" xmlns:xlink="http://www.w3.org/1999/xlink" viewBox="0 0 16 16"><defs><path id="a" d="M8 7a1 1 0 1 0 0-2 1 1 0 0 0 0 2"/><path id="d" d="M7.5 12H7v-2a1 1 0 0 1 2 0c0 .5-.1.6-.3.8z"/><path id="b" d="M6.5 3a1 1 0 0 1-1 1c-.37 0-.57.15-.74.54A4 4 0 0 0 4.5 6q-.02.76-.54 1.31c-.22.23-.44.4-.8.63l-.1.06.1.07c.36.22.58.39.8.62q.52.54.54 1.31c0 .54.08 1.08.26 1.47s.37.53.74.53a1 1 0 0 1 0 2 2.7 2.7 0 0 1-2.57-1.71 6 6 0 0 1-.43-2.23 3 3 0 0 0-.41-.31l-.27-.17a3 3 0 0 1-.62-.5Q.76 8.63.75 8c-.01-.63.17-.78.45-1.08q.23-.25.62-.5l.27-.17q.32-.2.4-.3l.01-.01c0-.78.13-1.56.43-2.22A2.7 2.7 0 0 1 5.5 2a1 1 0 0 1 1 1"/><path id="c" d="M9.5 3a1 1 0 0 0 1 1c.37 0 .57.15.74.54.18.38.26.92.26 1.46q.01.76.54 1.31c.22.23.44.4.8.63l.1.06-.1.07c-.36.22-.58.39-.8.62q-.53.54-.54 1.31c0 .54-.08 1.08-.26 1.47s-.37.53-.74.53a1 1 0 0 0 0 2 2.7 2.7 0 0 0 2.57-1.71c.3-.67.42-1.45.43-2.23q.1-.11.41-.31l.27-.17q.38-.25.62-.5.43-.45.45-1.08c.02-.63-.17-.78-.45-1.08a3 3 0 0 0-.62-.5l-.26-.17a2 2 0 0 1-.41-.3l-.01-.01c0-.78-.13-1.56-.43-2.22A2.7 2.7 0 0 0 10.5 2a1 1 0 0 0-1 1"/></defs><use xlink:href="#a" fill="#facc15" fill-opacity=".4"/><use xlink:href="#a" fill="#1e293b" fill-opacity="0.1"/><use fill="#facc15" href="#b"/><use fill="#1e293b" fill-opacity="0.1" href="#b"/><use fill="#facc15" href="#c"/><use fill="#1e293b" fill-opacity="0.1" href="#c"/><use xlink:href="#d" fill="#facc15" fill-opacity=".4"/><use xlink:href="#d" fill="#1e293b" fill-opacity="0.1"/></svg>