<svg xmlns="http://www.w3.org/2000/svg" viewBox="0 0 16 16"><path fill="#a78bfa" fill-rule="evenodd" d="m4.5 2.5 2.88 2.27a1 1 0 0 0 1.24 0L11.5 2.5A2.16 2.16 0 0 1 15 4.2V12a3 3 0 0 1-3 3H4a3 3 0 0 1-3-3V4.2c0-1.8 2.08-2.82 3.5-1.7"/><path fill="none" stroke="#1e293b" stroke-opacity="0.1" d="M14.5 4.2V12a2.5 2.5 0 0 1-2.5 2.5H4A2.5 2.5 0 0 1 1.5 12V4.2c0-1.39 1.6-2.16 2.7-1.3l2.87 2.26a1.5 1.5 0 0 0 1.86 0l2.88-2.27A1.66 1.66 0 0 1 14.5 4.2Z"/><path fill="#1e293b" fill-rule="evenodd" d="M4 6h8a2 2 0 0 1 2 2v4a2 2 0 0 1-2 2H4a2 2 0 0 1-2-2V8a2 2 0 0 1 2-2"/><path fill="#f8fafc" fill-rule="evenodd" d="M5 7a2 2 0 1 1 0 4 2 2 0 0 1 0-4m0 1a1 1 0 1 0 0 2 1 1 0 0 0 0-2m6-1a2 2 0 1 1 0 4 2 2 0 0 1 0-4m0 1a1 1 0 1 0 0 2 1 1 0 0 0 0-2"/><path fill="#f8fafc" d="M9.85 11.65a.5.5 0 0 1 0 .7Q9.2 13 8 13c-1.2 0-1.42-.2-1.85-.65a.5.5 0 0 1 .7-.7Q7.2 12 8 12c.81 0 .92-.12 1.15-.35a.5.5 0 0 1 .7 0"/></svg>