<svg xmlns="http://www.w3.org/2000/svg" viewBox="0 0 16 16"><path fill="#94a3b8" fill-rule="evenodd" d="M14 0a2 2 0 1 1-.52 3.93L8.93 8.48A2 2 0 0 1 7 11a2 2 0 1 1 .52-3.93l4.55-4.55A2 2 0 0 1 14 0"/><path fill="none" stroke="#1e293b" stroke-opacity="0.1" d="M15.5 2a1.5 1.5 0 0 1-1.89 1.45l-.28-.07-4.95 4.95.07.28A1.5 1.5 0 0 1 7 10.5a1.5 1.5 0 1 1 .39-2.95l.28.08 4.96-4.96-.08-.28A1.5 1.5 0 0 1 14 .5 1.5 1.5 0 0 1 15.5 2Z"/><path fill="#4ade80" fill-opacity=".4" fill-rule="evenodd" d="M7 2q1.54.02 2.86.6l-2.9 2.9h-.15a3.5 3.5 0 0 0 .19 7h.2a3.5 3.5 0 0 0 3.3-3.3v-.16l2.9-2.9A7 7 0 1 1 7 2"/><path fill="#4ade80" fill-rule="evenodd" d="M13.4 6.14q.59 1.33.6 2.86h-3.47zM7 2q1.54.02 2.86.6L7 5.47zm2.85 9.03 2.85 2.04a7 7 0 0 1-1.18 1.27l-2.26-2.67a4 4 0 0 0 .59-.64M5.6 12.21l.22.09-1.18 3.3a7 7 0 0 1-2.37-1.44l2.37-2.58q.42.4.96.63M2.9 3.32l.22-.14 1.94 2.9A3.5 3.5 0 0 0 3.5 9H0a7 7 0 0 1 2.9-5.68"/><path fill="none" stroke="#1e293b" stroke-opacity="0.1" d="m8.95 2.8-2.2 2.21A4 4 0 0 0 7 13h.2A4 4 0 0 0 11 9.24l2.2-2.2A6.5 6.5 0 1 1 8.96 2.8Z"/></svg>