<svg xmlns="http://www.w3.org/2000/svg" viewBox="0 0 16 16"><path fill="#60a5fa" fill-opacity=".4" fill-rule="evenodd" d="M12 1c2 0 4 2.5 4 5 0 3.5-1.5 5-3 5q-1.01 0-1.57-1.36l-.31.27Q8.56 15 6 15c-2.85 0-4.34-1.8-4.49-4.55C.65 9.73 0 8.3 0 6c0-2.5 2-5 4-5q1.13 0 1.69.56a5 5 0 0 1 4.62 0Q10.87 1 12 1M4.57 9.64q-.44 1.07-1.16 1.3Q4.27 12 5 12q.58 0 1.16-1.35a5 5 0 0 1-1.48-.91z"/><path fill="none" stroke="#1e293b" stroke-opacity="0.1" d="M15.5 6c0 2.92-1.1 4.5-2.5 4.5-.44 0-.8-.31-1.1-1.05l-.28-.68-.53.5-.29.25-.13.17C9.04 12.93 7.46 14.5 6 14.5c-2.47 0-3.85-1.47-3.99-4.08L2 10.2l-.17-.14C1.01 9.38.5 8 .5 6 .5 3.76 2.3 1.5 4 1.5q.93 0 1.34.42l.26.26.32-.17a4.5 4.5 0 0 1 4.16 0l.33.17.26-.26q.4-.41 1.33-.42c1.7 0 3.5 2.26 3.5 4.5ZM4.1 9.45q-.35.87-.84 1.01l-.7.22.46.57Q4 12.5 5 12.5c.66 0 1.16-.58 1.62-1.65l.2-.47-.48-.2a5 5 0 0 1-1.33-.82l-.1-.1-.53-.48Z"/><path fill="#60a5fa" d="M5.73 5.79a.75.75 0 0 1 .49.94l-1.5 4.74a.75.75 0 1 1-1.43-.45l1.5-4.74a.75.75 0 0 1 .94-.5"/><circle cx="5.5" cy="6.5" r="3.5" fill="#60a5fa" fill-rule="evenodd"/><circle cx="5.5" cy="6.5" r="3" fill="none" stroke="#1e293b" stroke-opacity="0.1"/></svg>