<svg xmlns="http://www.w3.org/2000/svg" xmlns:xlink="http://www.w3.org/1999/xlink" viewBox="0 0 16 16"><defs><path id="a" d="M9 5a2 2 0 0 1 2 2v2a2 2 0 0 1-2 2H7a2 2 0 0 1-2-2V7a2 2 0 0 1 2-2zM8 7a1 1 0 1 0 0 2 1 1 0 0 0 0-2"/></defs><circle cx="8" cy="8" r="7" fill="#fb7185" fill-opacity=".4" fill-rule="evenodd"/><circle cx="8" cy="8" r="6.5" fill="none" stroke="#1e293b" stroke-opacity="0.1"/><path fill="#fb7185" fill-opacity=".25" fill-rule="evenodd" d="m9.21 1.67 5.06 6.95A1.5 1.5 0 0 1 13.05 11H2.95a1.5 1.5 0 0 1-1.22-2.38L6.8 1.67a1.5 1.5 0 0 1 2.42 0"/><path fill="none" stroke="#1e293b" stroke-opacity="0.1" d="m8.73 1.87.08.1 5.05 6.94a1 1 0 0 1-.8 1.59H2.94a1 1 0 0 1-.81-1.59l5.05-6.95a1 1 0 0 1 1.54-.1Z"/><use xlink:href="#a" fill="#fb7185" fill-rule="evenodd"/><use xlink:href="#a" fill="#1e293b" fill-opacity="0.1" fill-rule="evenodd"/></svg>