<svg xmlns="http://www.w3.org/2000/svg" xmlns:xlink="http://www.w3.org/1999/xlink" viewBox="0 0 16 16"><defs><path id="a" d="M9.82 4.05C11.22 4.52 12 5.56 12 7s-.78 2.48-2.18 2.95a1 1 0 0 1-.32.05H7v1a1 1 0 0 1-2 0V5a1 1 0 0 1 1-1h3.5a1 1 0 0 1 .32.05M7 6v2h2.32c.5-.2.68-.48.68-1s-.18-.8-.68-1z"/></defs><path fill="#facc15" fill-opacity=".4" fill-rule="evenodd" d="m14.67 10.83-3.84 3.84a4 4 0 0 1-5.66 0l-3.84-3.84a4 4 0 0 1 0-5.66l3.84-3.84a4 4 0 0 1 5.66 0l3.84 3.84a4 4 0 0 1 0 5.66"/><path fill="none" stroke="#1e293b" stroke-opacity="0.1" d="m10.21 1.44.27.24 3.84 3.85a3.5 3.5 0 0 1 0 4.95l-3.84 3.84a3.5 3.5 0 0 1-4.95 0l-3.85-3.84a3.5 3.5 0 0 1 0-4.95l3.85-3.85a3.5 3.5 0 0 1 4.68-.24Z"/><use fill="#facc15" href="#a"/><use fill="#1e293b" fill-opacity="0.1" href="#a"/></svg>