<svg xmlns="http://www.w3.org/2000/svg" xmlns:xlink="http://www.w3.org/1999/xlink" viewBox="0 0 16 16"><defs><path id="a" d="m1.18 6.85 1.3-.75a.5.5 0 0 1 .69.19l1.75 3.03a.5.5 0 0 1-.19.68l-1.3.75a.5.5 0 0 1-.68-.18L1 7.54a.5.5 0 0 1 .18-.69"/></defs><path fill="#60a5fa" fill-opacity=".4" fill-rule="evenodd" d="m6.77 5.2.86.5A1 1 0 0 1 8 7.08l-3.5 6.06a1 1 0 0 1-1.37.37l-.86-.5a1 1 0 0 1-.37-1.37l3.5-6.06a1 1 0 0 1 1.37-.36"/><path fill="none" stroke="#1e293b" stroke-opacity="0.1" d="m6.47 5.62.05.02.86.5a.5.5 0 0 1 .19.68l-3.5 6.06a.5.5 0 0 1-.69.19l-.86-.5a.5.5 0 0 1-.18-.69l3.5-6.06a.5.5 0 0 1 .63-.2Z"/><use xlink:href="#a" fill="#2dd4bf" fill-rule="evenodd"/><use xlink:href="#a" fill="#1e293b" fill-opacity="0.1" fill-rule="evenodd"/><path fill="#60a5fa" fill-rule="evenodd" d="M8 1a7 7 0 1 1 0 14h-.25a.75.75 0 0 1-.75-.75v-1.5a.75.75 0 0 1 .75-.75H8a4 4 0 1 0 0-8h-.25A.75.75 0 0 1 7 3.25v-1.5A.75.75 0 0 1 7.75 1z"/><path fill="none" stroke="#1e293b" stroke-opacity="0.1" d="M14.5 8A6.5 6.5 0 0 1 8 14.5h-.25a.25.25 0 0 1-.25-.25v-1.5a.25.25 0 0 1 .25-.25H8a4.5 4.5 0 1 0 0-9h-.25a.25.25 0 0 1-.25-.25v-1.5a.25.25 0 0 1 .25-.25H8A6.5 6.5 0 0 1 14.5 8Z"/></svg>