<svg xmlns="http://www.w3.org/2000/svg" viewBox="0 0 16 16"><path fill="#facc15" fill-opacity=".6" d="m7.93 4.37.04-.11 1.77 1.77a1 1 0 0 0-.7.71L7.25 4.97a1 1 0 0 0 .67-.6m-.56 6.7-.11-.04 1.77-1.77a1 1 0 0 0 .71.7l-1.77 1.78a1 1 0 0 0-.6-.67"/><path fill="#facc15" fill-opacity=".4" fill-rule="evenodd" d="M5 11h2a1 1 0 0 1 1 1v2a1 1 0 0 1-1 1H5a1 1 0 0 1-1-1v-2a1 1 0 0 1 1-1"/><path fill="none" stroke="#1e293b" stroke-opacity="0.1" d="M7.5 12v2a.5.5 0 0 1-.5.5H5a.5.5 0 0 1-.5-.5v-2a.5.5 0 0 1 .5-.5h2a.5.5 0 0 1 .5.5Z"/><path fill="#facc15" fill-rule="evenodd" d="M10 6h2a1 1 0 0 1 1 1v2a1 1 0 0 1-1 1h-2a1 1 0 0 1-1-1V7a1 1 0 0 1 1-1"/><path fill="none" stroke="#1e293b" stroke-opacity="0.1" d="M12.5 7v2a.5.5 0 0 1-.5.5h-2a.5.5 0 0 1-.5-.5V7a.5.5 0 0 1 .5-.5h2a.5.5 0 0 1 .5.5Z"/><path fill="#facc15" fill-opacity=".4" fill-rule="evenodd" d="M5 1h2a1 1 0 0 1 1 1v2a1 1 0 0 1-1 1H5a1 1 0 0 1-1-1V2a1 1 0 0 1 1-1"/><path fill="none" stroke="#1e293b" stroke-opacity="0.1" d="M7.5 2v2a.5.5 0 0 1-.5.5H5a.5.5 0 0 1-.5-.5V2a.5.5 0 0 1 .5-.5h2a.5.5 0 0 1 .5.5Z"/></svg>