<svg xmlns="http://www.w3.org/2000/svg" xmlns:xlink="http://www.w3.org/1999/xlink" viewBox="0 0 16 16"><defs><path id="a" d="M4.4 4h6.45a.3.3 0 0 1 .22.14l.75 1.5a.25.25 0 0 1-.22.36H5.16a.3.3 0 0 1-.23-.14l-.75-1.5A.25.25 0 0 1 4.41 4m.75 3h6.44a.25.25 0 0 1 .22.36l-.75 1.5a.3.3 0 0 1-.22.14H4.4a.25.25 0 0 1-.23-.36l.75-1.5A.3.3 0 0 1 5.16 7m-.75 3h6.44a.3.3 0 0 1 .22.14l.75 1.5a.25.25 0 0 1-.22.36H5.16a.3.3 0 0 1-.23-.14l-.75-1.5a.25.25 0 0 1 .23-.36"/><path id="b" d="M3.7 6.16a.75.75 0 0 1 .14 1.05L1.7 10l2.14 2.8a.75.75 0 0 1-1.18.9l-2.5-3.24a.75.75 0 0 1 0-.92l2.5-3.25a.75.75 0 0 1 1.05-.13m9.63-3.87 2.5 3.25a.75.75 0 0 1 0 .92l-2.5 3.25a.75.75 0 1 1-1.18-.92L14.3 6l-2.14-2.8a.75.75 0 1 1 1.18-.9"/></defs><use xlink:href="#a" fill="#94a3b8" fill-rule="evenodd"/><use xlink:href="#a" fill="#1e293b" fill-opacity="0.1" fill-rule="evenodd"/><use xlink:href="#b" fill="#94a3b8" fill-opacity=".4" fill-rule="evenodd"/><use xlink:href="#b" fill="#1e293b" fill-opacity="0.1" fill-rule="evenodd"/></svg>