<svg xmlns="http://www.w3.org/2000/svg" xmlns:xlink="http://www.w3.org/1999/xlink" viewBox="0 0 16 16"><defs><path id="a" d="M7 4a4 4 0 0 1 3.3 6.27l.45.43a.75.75 0 0 1-1 1.1l-.53-.47A4 4 0 1 1 7 4m0 2a2 2 0 1 0 .64 3.9L7 9.3a.75.75 0 0 1 1-1.1l.79.7A2 2 0 0 0 7 6"/><path id="b" d="M13 6h1V5h1v1h1v1h-1v2h1v1h-1v1h-1v-1h-1v1h-1v-1h-1V9h1V7h-1V6h1V5h1zm0 1v2h1V7z"/></defs><path fill="#facc15" fill-opacity=".4" fill-rule="evenodd" d="M15 6.03v3.94a3.5 3.5 0 0 1-1.76 3.04l-3.5 2a3.5 3.5 0 0 1-3.48 0l-3.5-2A3.5 3.5 0 0 1 1 9.97V6.03A3.5 3.5 0 0 1 2.76 3l3.5-2a3.5 3.5 0 0 1 3.48 0l3.5 2A3.5 3.5 0 0 1 15 6.03"/><path fill="none" stroke="#1e293b" stroke-opacity="0.1" d="m9.31 1.33.18.1 3.5 2a3 3 0 0 1 1.51 2.6v3.94a3 3 0 0 1-1.51 2.6l-3.5 2a3 3 0 0 1-2.98 0l-3.5-2a3 3 0 0 1-1.51-2.6V6.03a3 3 0 0 1 1.51-2.6l3.5-2a3 3 0 0 1 2.8-.1Z"/><use xlink:href="#a" fill="#facc15" fill-rule="evenodd"/><use xlink:href="#a" fill="#1e293b" fill-opacity="0.1" fill-rule="evenodd"/><use fill="#facc15" href="#b"/><use fill="#1e293b" fill-opacity="0.1" href="#b"/></svg>