<svg xmlns="http://www.w3.org/2000/svg" viewBox="0 0 16 16"><path fill="#2dd4bf" fill-opacity=".4" fill-rule="evenodd" d="M7.78 2c1.44 0 2.38.46 3.32 1.37l.24.23c.42.42.56.53.72.57.42.1.75-.04 1.15-.56.65-.86 2.03-.2 1.76.86-.53 2.07-1.96 3.2-4.08 3.2-1.58 0-2.44-.49-3.57-1.6-.41-.42-.56-.53-.71-.57-.42-.1-.76.04-1.15.55-.66.87-2.03.2-1.76-.85C4.22 3.13 5.66 2 7.78 2"/><path fill="none" stroke="#1e293b" stroke-opacity="0.1" d="m10.59 3.57.17.16.23.23c.47.47.67.62.95.7.65.15 1.17-.1 1.66-.74.33-.43 1.02-.1.88.43-.47 1.85-1.7 2.82-3.6 2.82-1.35 0-2.1-.36-3.2-1.46-.48-.48-.67-.63-.95-.7-.65-.15-1.17.09-1.67.74-.33.43-1.01.1-.88-.43.47-1.85 1.71-2.82 3.6-2.82a3.8 3.8 0 0 1 2.8 1.07Z"/><path fill="#2dd4bf" d="M5.11 8.33A4.4 4.4 0 0 1 8.44 9.7l.24.24c.41.41.56.52.71.56.42.1.75-.04 1.15-.55.66-.87 2.03-.2 1.76.85-.53 2.07-1.96 3.2-4.08 3.2a4.4 4.4 0 0 1-3.33-1.37l-.23-.23c-.42-.42-.56-.53-.72-.57-.42-.1-.75.04-1.15.55-.66.87-2.03.2-1.76-.85.53-2.07 1.96-3.2 4.08-3.2"/><path fill="none" stroke="#1e293b" stroke-opacity="0.1" d="m7.92 9.9.17.16.23.23c.48.48.67.63.95.7.65.15 1.17-.09 1.67-.74.33-.43 1.01-.1.88.43-.47 1.85-1.71 2.82-3.6 2.82a4 4 0 0 1-2.98-1.23l-.23-.23c-.48-.47-.67-.62-.95-.7-.65-.15-1.17.1-1.66.74-.33.43-1.02.1-.89-.43C2 9.8 3.22 8.83 5.11 8.83A3.8 3.8 0 0 1 7.92 9.9Z"/></svg>