<svg xmlns="http://www.w3.org/2000/svg" xmlns:xlink="http://www.w3.org/1999/xlink" viewBox="0 0 16 16"><defs><path id="a" d="M11.24 4.03C12.31 4.3 13 4.98 13 6a1 1 0 0 1-2 .06L10.86 6h-.36c-.37 0-.5.14-.5.5 0 .15.02.2.07.25q.14.14.67.28C12.2 7.39 13 8.17 13 9.5a2.4 2.4 0 0 1-2.5 2.5H10l-.24-.03C8.69 11.7 8 11.02 8 10a1 1 0 0 1 2-.06l.13.06h.36c.37 0 .5-.14.5-.5 0-.15-.02-.2-.07-.25q-.14-.14-.67-.28C8.8 8.61 8 7.83 8 6.5 8 5.07 8.99 4 10.5 4h.5z"/><path id="b" d="M7.5 5a1 1 0 0 1-1 1H6v5a1 1 0 0 1-2 0V6h-.5a1 1 0 1 1 0-2h3a1 1 0 0 1 1 1"/></defs><path fill="#60a5fa" fill-opacity=".4" fill-rule="evenodd" d="M5 1h6a4 4 0 0 1 4 4v6a4 4 0 0 1-4 4H5a4 4 0 0 1-4-4V5a4 4 0 0 1 4-4"/><path fill="none" stroke="#1e293b" stroke-opacity="0.1" d="M14.5 5v6a3.5 3.5 0 0 1-3.5 3.5H5A3.5 3.5 0 0 1 1.5 11V5A3.5 3.5 0 0 1 5 1.5h6A3.5 3.5 0 0 1 14.5 5Z"/><use fill="#60a5fa" href="#a"/><use fill="#1e293b" fill-opacity="0.1" href="#a"/><use fill="#60a5fa" href="#b"/><use fill="#1e293b" fill-opacity="0.1" href="#b"/></svg>