<svg xmlns="http://www.w3.org/2000/svg" viewBox="0 0 16 16"><path fill="#2dd4bf" fill-opacity=".4" fill-rule="evenodd" d="M3.94 7h6.76a1 1 0 0 0 .98-.77l.25-1.08a1 1 0 0 0-1.1-1.22l-7.27.93A.85.85 0 0 0 2.88 6l.13.35a1 1 0 0 0 .93.65"/><path fill="none" stroke="#1e293b" stroke-opacity="0.1" d="m11.45 4.97-.01.07-.25 1.07a.5.5 0 0 1-.49.39H3.94a.5.5 0 0 1-.47-.32l-.13-.36a.35.35 0 0 1 .28-.46l7.27-.93a.5.5 0 0 1 .56.54Z"/><path fill="#2dd4bf" fill-rule="evenodd" d="m5.51 2.71 2.75-1.54a.5.5 0 0 1 .74.44v9.64q0 2.03 2.24.19a.5.5 0 0 1 .78.19l.34.8a.5.5 0 0 1-.14.56Q9.9 15 8.25 15c-1 0-3.25-.75-3.25-3V3.59a1 1 0 0 1 .51-.88"/><path fill="none" stroke="#1e293b" stroke-opacity="0.1" d="M8.5 11.25c0 1.91 1.3 2.02 3.06.58l.34.79Q9.69 14.5 8.25 14.5c-1.33 0-2.75-.97-2.75-2.5V3.59a.5.5 0 0 1 .26-.44L8.5 1.6Z"/></svg>