<svg xmlns="http://www.w3.org/2000/svg" xmlns:xlink="http://www.w3.org/1999/xlink" viewBox="0 0 16 16"><defs><path id="a" d="M9.72 1.55 8.9 3.21a1 1 0 0 1-1.78 0l-.83-1.66a1 1 0 0 0-.9-.55H4.5a.88.88 0 0 0-.77 1.31l3.4 6.12a1 1 0 0 0 1.74 0l3.4-6.12A.88.88 0 0 0 11.5 1h-.88a1 1 0 0 0-.9.55"/></defs><path fill="#4ade80" fill-opacity=".4" fill-rule="evenodd" d="m.78 2.47 6.34 11.88a1 1 0 0 0 1.76 0l6.34-11.88A1 1 0 0 0 14.33 1h-3.71a1 1 0 0 0-.9.55L8.9 3.21a1 1 0 0 1-1.78 0l-.83-1.66a1 1 0 0 0-.9-.55H1.67a1 1 0 0 0-.89 1.47"/><path fill="none" stroke="#1e293b" stroke-opacity="0.1" d="m5.81 1.75.02.03.83 1.66a1.5 1.5 0 0 0 2.68 0l.83-1.66a.5.5 0 0 1 .45-.28h3.71a.5.5 0 0 1 .45.74L8.44 14.1a.5.5 0 0 1-.88 0L1.23 2.24a.5.5 0 0 1 .44-.74h3.71a.5.5 0 0 1 .43.24Z"/><use xlink:href="#a" fill="#4ade80" fill-rule="evenodd"/><use xlink:href="#a" fill="#1e293b" fill-opacity="0.1" fill-rule="evenodd"/></svg>