<svg xmlns="http://www.w3.org/2000/svg" xmlns:xlink="http://www.w3.org/1999/xlink" viewBox="0 0 16 16"><defs><path id="a" d="M15.2 9.02a1 1 0 0 1 .78 1.18l-1 5c-.2 1-1.59 1.1-1.92.13l-.56-1.57-.56 1.57c-.33.96-1.72.86-1.92-.13l-1-5a1 1 0 0 1 1.96-.4l.29 1.44.29-.82a1 1 0 0 1 1.88 0l.3.82.28-1.44a1 1 0 0 1 1.18-.78"/></defs><use fill="#60a5fa" href="#a"/><use fill="#1e293b" fill-opacity="0.1" href="#a"/><path fill="#60a5fa" fill-rule="evenodd" d="M7.06 10.59 7.94 15H5a4 4 0 0 1-4-4v-1h6q0 .3.06.59"/><path fill="#60a5fa" fill-opacity=".6" fill-rule="evenodd" d="M1 5h14v2c-.76 0-1.48.29-2.02.79a3 3 0 0 0-.96 0 3 3 0 0 0-2.6-.73A3 3 0 0 0 7 10H1z"/><path fill="#60a5fa" fill-opacity=".4" fill-rule="evenodd" d="M11 1a4 4 0 0 1 4 4H1a4 4 0 0 1 4-4z"/><path fill="none" stroke="#1e293b" stroke-opacity="0.1" d="M11 1.5A3.5 3.5 0 0 1 14.5 5v1.54a3.4 3.4 0 0 0-1.68.73q-.32-.03-.64 0a3.5 3.5 0 0 0-2.87-.7 3.5 3.5 0 0 0-2.74 4.12l.76 3.81H5A3.5 3.5 0 0 1 1.5 11V5A3.5 3.5 0 0 1 5 1.5Z"/></svg>