<svg xmlns="http://www.w3.org/2000/svg" viewBox="0 0 16 16"><path fill="#93c5fd" fill-opacity=".4" fill-rule="evenodd" d="M2.13 12.42.91 3.85A2.5 2.5 0 0 1 3.38 1h9.24a2.5 2.5 0 0 1 2.47 2.85l-1.22 8.57A3 3 0 0 1 10.9 15H5.1a3 3 0 0 1-2.97-2.58"/><path fill="none" stroke="#f8fafc" stroke-opacity="0.1" d="m14.62 3.56-.02.22-1.23 8.57a2.5 2.5 0 0 1-2.47 2.15H5.1a2.5 2.5 0 0 1-2.47-2.15L1.4 3.78A2 2 0 0 1 3.38 1.5h9.24a2 2 0 0 1 2 2.06Z"/><path fill="#93c5fd" fill-rule="evenodd" d="M5.93 5h7.99l-.14 1h-2.71l-.01.16-.67 4a1 1 0 0 1-.99.84H6.6a1 1 0 0 1-.99-.84l-.67-4A1 1 0 0 1 5.93 5"/><path fill="none" stroke="#f8fafc" stroke-opacity="0.1" d="M13.34 5.5h-2.77v.58l-.67 4a.5.5 0 0 1-.5.42H6.6a.5.5 0 0 1-.5-.42l-.66-4a.5.5 0 0 1 .49-.58z"/></svg>