<svg xmlns="http://www.w3.org/2000/svg" viewBox="0 0 16 16"><path fill="#fdba74" fill-opacity=".6" d="M3.2 8.03a.5.5 0 0 1-.23.67c-.8.4-1.1.94-.98 1.72.18 1.05.96 1.57 2.51 1.58a.5.5 0 0 1 0 1c-2-.02-3.23-.83-3.5-2.42-.2-1.22.34-2.18 1.53-2.78a.5.5 0 0 1 .67.23"/><path fill="#fdba74" fill-rule="evenodd" d="M2.12 7.39Q3.29 15 8.5 15t6.39-7.42a.5.5 0 0 0-.66-.55Q11.36 8 8.5 8 5.65 8 2.8 6.85a.5.5 0 0 0-.68.54"/><path fill="none" stroke="#f8fafc" stroke-opacity="0.1" d="M2.62 7.31Q5.55 8.5 8.5 8.5t5.89-1c-.74 4.73-2.7 7-5.89 7s-5.14-2.33-5.89-7.19z"/><path fill="#fdba74" fill-opacity=".4" d="M7.5 1.5A.5.5 0 0 1 7 2h-.43c-.42.11-.57.27-.57.5s.14.38.56.5c.35-.02.78-.25 1.64-.9C9.28 1.29 9.86 1 10.5 1l.12.02c.87.21 1.38.72 1.38 1.48s-.51 1.27-1.38 1.49L10.5 4H10a.5.5 0 0 1 0-1h.44c.42-.11.56-.27.56-.5s-.14-.38-.56-.5c-.34.02-.77.25-1.64.9C7.72 3.7 7.14 4 6.5 4l-.12-.01C5.5 3.76 5 3.26 5 2.5s.51-1.27 1.38-1.48L6.5 1H7a.5.5 0 0 1 .5.5"/><path fill="#fdba74" fill-opacity=".6" d="M14.95 4.53a.5.5 0 0 1-.23.67Q12.61 6.25 8.5 6.25c-4.11 0-4.8-.34-6.22-1.05a.5.5 0 0 1 .44-.9q1.88.95 5.78.95c3.9 0 4.53-.32 5.78-.95a.5.5 0 0 1 .67.23"/></svg>