<svg xmlns="http://www.w3.org/2000/svg" xmlns:xlink="http://www.w3.org/1999/xlink" viewBox="0 0 16 16"><defs><path id="a" d="M11.33 5.78A1 1 0 0 1 9.67 6.9a2 2 0 1 0 0 2.21 1 1 0 0 1 1.67 1.1 4 4 0 1 1-.01-4.42"/><path id="b" d="M15 10h1v1h-1v1h-1v-1h-1v-1h1V9h1zm0-5h1v1h-1v1h-1V6h-1V5h1V4h1z"/></defs><path fill="#93c5fd" fill-opacity=".4" fill-rule="evenodd" d="M15 6.03v3.94a3.5 3.5 0 0 1-1.76 3.04l-3.5 2a3.5 3.5 0 0 1-3.48 0l-3.5-2A3.5 3.5 0 0 1 1 9.97V6.03A3.5 3.5 0 0 1 2.76 3l3.5-2a3.5 3.5 0 0 1 3.48 0l3.5 2A3.5 3.5 0 0 1 15 6.03"/><path fill="none" stroke="#f8fafc" stroke-opacity="0.1" d="m9.31 1.33.18.1 3.5 2a3 3 0 0 1 1.51 2.6v3.94a3 3 0 0 1-1.51 2.6l-3.5 2a3 3 0 0 1-2.98 0l-3.5-2a3 3 0 0 1-1.51-2.6V6.03a3 3 0 0 1 1.51-2.6l3.5-2a3 3 0 0 1 2.8-.1Z"/><use fill="#93c5fd" href="#a"/><use fill="#f8fafc" fill-opacity="0.1" href="#a"/><use fill="#93c5fd" href="#b"/><use fill="#f8fafc" fill-opacity="0.1" href="#b"/></svg>