<svg xmlns="http://www.w3.org/2000/svg" xmlns:xlink="http://www.w3.org/1999/xlink" viewBox="0 0 16 16"><defs><path id="a" d="M12.63 7.6a.8.8 0 0 1-.03.85 7.3 7.3 0 0 1-4.35 2.63c-2.15.38-4.1-.5-5.4-2.7A.75.75 0 0 1 3 7.44c2.54-2.25 3.96-2.25 6.5 0a.75.75 0 0 1-.27 1.27l-.26.09-.58.19-.06.02-.57.2a.75.75 0 0 1-.52-1.41l.22-.08c-1.08-.74-1.73-.6-2.97.42A3.4 3.4 0 0 0 8 9.6a6 6 0 0 0 3.06-1.65c-2.83-3.98-6.4-3.93-9.21.16.88 2.33 2.53 3.6 4.64 3.8S11 11.19 13 9.44a.75.75 0 1 1 1 1.12c-2.29 2.02-5.11 3.08-7.66 2.84-2.82-.26-5.01-2.05-6.05-5.16a.8.8 0 0 1 .08-.65c3.55-5.45 8.71-5.45 12.26 0"/></defs><path fill="#86efac" fill-opacity=".4" fill-rule="evenodd" d="M6 1h6a4 4 0 0 1 4 4v6a4 4 0 0 1-4 4H6a4 4 0 0 1-4-4V5a4 4 0 0 1 4-4"/><path fill="none" stroke="#f8fafc" stroke-opacity="0.1" d="M15.5 5v6a3.5 3.5 0 0 1-3.5 3.5H6A3.5 3.5 0 0 1 2.5 11V5A3.5 3.5 0 0 1 6 1.5h6A3.5 3.5 0 0 1 15.5 5Z"/><use fill="#86efac" href="#a"/><use fill="#f8fafc" fill-opacity="0.1" href="#a"/></svg>