<svg xmlns="http://www.w3.org/2000/svg" viewBox="0 0 16 16"><circle cx="8" cy="8" r="7" fill="#cbd5e1" fill-opacity=".4" fill-rule="evenodd"/><circle cx="8" cy="8" r="6.5" fill="none" stroke="#f8fafc" stroke-opacity="0.1"/><path fill="#cbd5e1" fill-rule="evenodd" d="M11.64 4.88c1.32.6 1.73 1.61 1.36 2.62S11.19 9 10.06 8.94q-.72-.05-1.29-.16a5 5 0 0 1-.76-.2.1.1 0 0 0-.1.03q-.04.06 0 .1c.1.12.43.36.68.47-.22.18-.36.58-.42.8a3 3 0 0 0-.07.84c.07.6.34 1.47.9 1.93 1.23 1.03 2.63 1.05 3.5.6A7 7 0 0 1 8 15a7 7 0 0 1-3.98-1.24A7 7 0 0 1 3.25 12c-1-3.25 1.02-7.36 3.16-8.54.79-.44 1.56-.6 2.25-.32 1.06.43 1.67 1.14 2.98 1.74M8 4a1 1 0 1 0 0 2 1 1 0 0 0 0-2"/><path fill="none" stroke="#f8fafc" stroke-opacity="0.1" d="M6.5 5a1.5 1.5 0 1 0 2.4-1.2l.6.36.43.3q.26.18.47.3a9 9 0 0 0 1.04.57c1.03.47 1.38 1.2 1.09 2-.24.67-1.36 1.16-2.45 1.11a9 9 0 0 1-.97-.11l-.26-.04a4 4 0 0 1-.68-.18.6.6 0 0 0-.66.2.6.6 0 0 0 .03.74q.12.13.33.28a3 3 0 0 0-.18.51 3 3 0 0 0-.09 1.04c.11.88.48 1.75 1.08 2.25a4 4 0 0 0 1.75.9A6 6 0 0 1 8 14.5a6.4 6.4 0 0 1-3.61-1.1q-.37-.6-.66-1.55C2.87 9.07 4.5 5.1 6.65 3.9q.75-.41 1.33-.4A1.5 1.5 0 0 0 6.5 5Zm3.42-.54z"/></svg>