<svg xmlns="http://www.w3.org/2000/svg" viewBox="0 0 16 16"><path fill="#cbd5e1" fill-rule="evenodd" d="M13.75 4.75c.9-.12 1.51-.17 2.25.5 0 0-.25 2.75-2.25 2.5-1.5 4-3.25 7.25-7.25 7.25C0 15 0 9 0 7h11l.75-.5c-.75-1-1-2.25-.25-3.5 1.07.63 1.4 1.38 2.25 1.75M4 9a1 1 0 1 0 0 2 1 1 0 0 0 0-2"/><path fill="none" stroke="#f8fafc" stroke-opacity="0.1" d="m11.83 3.84.35.32.34.33c.37.35.65.56 1.03.72l.13.05.13-.01c.89-.12 1.25-.1 1.65.2l-.01.1a4 4 0 0 1-.24.76q-.43 1.06-1.4.94l-.39-.05-.14.37c-1.83 4.9-3.57 6.93-6.78 6.93-3.17 0-4.88-1.45-5.6-3.96C.62 9.57.52 8.71.5 7.5h10.65l.13-.08.75-.5.44-.3-.32-.42c-.59-.78-.76-1.63-.45-2.46zM2.5 10a1.5 1.5 0 1 0 3 0 1.5 1.5 0 0 0-3 0Z"/><path fill="#cbd5e1" fill-opacity=".4" fill-rule="evenodd" d="M1.25 4h1.5a.25.25 0 0 1 .25.25v1.5a.25.25 0 0 1-.25.25h-1.5A.25.25 0 0 1 1 5.75v-1.5A.25.25 0 0 1 1.25 4m3 0h1.5a.25.25 0 0 1 .25.25v1.5a.25.25 0 0 1-.25.25h-1.5A.25.25 0 0 1 4 5.75v-1.5A.25.25 0 0 1 4.25 4m3 0h1.5a.25.25 0 0 1 .25.25v1.5a.25.25 0 0 1-.25.25h-1.5A.25.25 0 0 1 7 5.75v-1.5A.25.25 0 0 1 7.25 4m0-3h1.5a.25.25 0 0 1 .25.25v1.5a.25.25 0 0 1-.25.25h-1.5A.25.25 0 0 1 7 2.75v-1.5A.25.25 0 0 1 7.25 1m-3 0h1.5a.25.25 0 0 1 .25.25v1.5a.25.25 0 0 1-.25.25h-1.5A.25.25 0 0 1 4 2.75v-1.5A.25.25 0 0 1 4.25 1"/></svg>