<svg xmlns="http://www.w3.org/2000/svg" xmlns:xlink="http://www.w3.org/1999/xlink" viewBox="0 0 16 16"><defs><path id="a" d="M13 15a.5.5 0 1 1 0 1h-3a.5.5 0 1 1 0-1H8a1 1 0 0 1-1-1V9a1 1 0 0 1 1-1h7a1 1 0 0 1 1 1v5a1 1 0 0 1-1 1zM8.5 9.5v4h6v-4z"/><path id="b" d="M9.5 3H13a2 2 0 0 1 2 2H1V4a3 3 0 0 1 3-3h1.5C8 1 8 3 9.5 3"/></defs><use xlink:href="#a" fill="#c4b5fd" fill-rule="evenodd"/><use xlink:href="#a" fill="#f8fafc" fill-opacity="0.1" fill-rule="evenodd"/><use xlink:href="#b" fill="#c4b5fd" fill-opacity=".4" fill-rule="evenodd"/><use xlink:href="#b" fill="#f8fafc" fill-opacity="0.1" fill-rule="evenodd"/><path fill="#c4b5fd" fill-opacity=".8" fill-rule="evenodd" d="M2 6h6a3 3 0 0 0-3 3v5q0 .53.17 1H3.91a3 3 0 0 1-2.93-2.35L.04 8.44 0 8.16v-.33A2 2 0 0 1 2 6"/><path fill="#f8fafc" fill-opacity="0.1" fill-rule="evenodd" d="M2 6h6c-.89 0-1.69.39-2.24 1H2a1 1 0 0 0-.97 1.22l.93 4.21A2 2 0 0 0 3.91 14H5v.23q.04.4.17.77H3.91a3 3 0 0 1-2.93-2.35L.04 8.44 0 8.16v-.33A2 2 0 0 1 2 6"/></svg>