<svg xmlns="http://www.w3.org/2000/svg" xmlns:xlink="http://www.w3.org/1999/xlink" viewBox="0 0 16 16"><defs><path id="a" d="M14 15.75V12.5a.5.5 0 0 0-.5-.5H12v2h.25c.13 0 .25.11.25.26v1.49q-.02.23-.25.25h-1.5a.26.26 0 0 1-.25-.25v-1.5q.02-.23.25-.25H11v-2H9.5a.5.5 0 0 0-.5.5v3.25q-.02.23-.25.25h-1.5a.26.26 0 0 1-.25-.26v-1.49q.02-.23.26-.25H8v-1.5A1.5 1.5 0 0 1 9.5 11H11v-1h-.5a1 1 0 0 1-1-1V8a1 1 0 0 1 1-1h2a1 1 0 0 1 1 1v1a1 1 0 0 1-1 1H12v1h1.5a1.5 1.5 0 0 1 1.5 1.5V14h.75c.13 0 .25.11.25.26v1.49q-.02.23-.25.25h-1.5a.26.26 0 0 1-.25-.25"/><path id="b" d="M9.5 3H13a2 2 0 0 1 2 2H1V4a3 3 0 0 1 3-3h1.5C8 1 8 3 9.5 3"/></defs><use xlink:href="#a" fill="#5eead4" fill-rule="evenodd"/><use xlink:href="#a" fill="#f8fafc" fill-opacity="0.1" fill-rule="evenodd"/><use xlink:href="#b" fill="#5eead4" fill-opacity=".4" fill-rule="evenodd"/><use xlink:href="#b" fill="#f8fafc" fill-opacity="0.1" fill-rule="evenodd"/><path fill="#5eead4" fill-opacity=".8" fill-rule="evenodd" d="M7.5 8v1q0 .3.06.59A3.5 3.5 0 0 0 6 12.38a2.3 2.3 0 0 0-1 1.88V15H3.9a3 3 0 0 1-2.92-2.35L.04 8.44 0 8.16v-.32A2 2 0 0 1 2 6h6.26a3 3 0 0 0-.76 2m7.41-1.78.04.02c.6.31 1 .92 1.05 1.6v.32l-.04.27-.3 1.32-.22-.16q.06-.29.06-.59V8a3 3 0 0 0-.59-1.78"/><path fill="#f8fafc" fill-opacity="0.1" fill-rule="evenodd" d="M7.76 6.78 7.67 7H2a1 1 0 0 0-.97 1.22l.93 4.21A2 2 0 0 0 3.91 14H5l-.01.26V15H3.9a3 3 0 0 1-2.92-2.35L.04 8.44 0 8.16v-.32A2 2 0 0 1 2 6h6.26q-.3.35-.5.78m7.15-.56.04.02c.6.31 1 .92 1.05 1.6v.32l-.04.27-.3 1.32-.22-.16q.06-.29.06-.59V8a3 3 0 0 0-.59-1.78"/></svg>