<svg xmlns="http://www.w3.org/2000/svg" xmlns:xlink="http://www.w3.org/1999/xlink" viewBox="0 0 16 16"><defs><path id="a" d="M7 15s1.52-.8 3.04-.8l1.15-3.85q.08-.3.31-.31c.23-.01.27.12.31.3l1.15 3.86c1.8 0 3.04.8 3.04.8l-2.52-7.16A1.25 1.25 0 0 0 12.3 7h-1.6a1.25 1.25 0 0 0-1.18.84z"/><path id="b" d="M9.5 3H12a3 3 0 0 1 3 3v.44a3.3 3.3 0 0 0-2.51-1.43L12.3 5H4a3 3 0 0 0-3 3V4a3 3 0 0 1 3-3h1.5C8 1 8 3 9.5 3"/></defs><use xlink:href="#a" fill="#c4b5fd" fill-rule="evenodd"/><use xlink:href="#a" fill="#f8fafc" fill-opacity="0.1" fill-rule="evenodd"/><path fill="#fda4af" fill-rule="evenodd" d="M10.93 14h1.14a.5.5 0 0 1 .41.78l-.56.85a.5.5 0 0 1-.84 0l-.56-.85a.5.5 0 0 1 .41-.78"/><use xlink:href="#b" fill="#c4b5fd" fill-opacity=".4" fill-rule="evenodd"/><use xlink:href="#b" fill="#f8fafc" fill-opacity="0.1" fill-rule="evenodd"/><path fill="#c4b5fd" fill-opacity=".8" fill-rule="evenodd" d="M4 5h6.7a3.25 3.25 0 0 0-3.07 2.17L5.06 14.5a2 2 0 0 0-.11.5H4a3 3 0 0 1-3-3V8a3 3 0 0 1 3-3"/><path fill="#f8fafc" fill-opacity="0.1" fill-rule="evenodd" d="M4 5h6.7a3.3 3.3 0 0 0-2.35 1H4a2 2 0 0 0-2 2v4a2 2 0 0 0 2 2h1.23l-.18.5a2 2 0 0 0-.1.5H4a3 3 0 0 1-3-3V8a3 3 0 0 1 3-3"/></svg>