<svg xmlns="http://www.w3.org/2000/svg" xmlns:xlink="http://www.w3.org/1999/xlink" viewBox="0 0 16 16"><defs><path id="a" d="m12 7 4 1.58c0 3.93-.11 6.01-4 7.42-3.75-1.4-4-3.49-4-7.42z"/><path id="b" d="M9.5 3H13a2 2 0 0 1 2 2H1V4a3 3 0 0 1 3-3h1.5C8 1 8 3 9.5 3"/></defs><use xlink:href="#a" fill="#86efac" fill-rule="evenodd"/><use xlink:href="#a" fill="#f8fafc" fill-opacity="0.1" fill-rule="evenodd"/><use xlink:href="#b" fill="#86efac" fill-opacity=".4" fill-rule="evenodd"/><use xlink:href="#b" fill="#f8fafc" fill-opacity="0.1" fill-rule="evenodd"/><path fill="#86efac" fill-opacity=".8" fill-rule="evenodd" d="M6.77 14.05q.22.5.52.95H3.91a3 3 0 0 1-2.93-2.35L.04 8.44 0 8.16v-.32A2 2 0 0 1 2 6h7.08l-1.81.71A2 2 0 0 0 6 8.57c0 2.71.15 4.1.77 5.48"/><path fill="#f8fafc" fill-opacity="0.1" fill-rule="evenodd" d="M3.9 14h2.85l.02.05q.22.5.52.95H3.91a3 3 0 0 1-2.93-2.35L.04 8.44 0 8.16v-.32A2 2 0 0 1 2 6h7.08l-1.81.71q-.28.11-.5.29H1.99a1 1 0 0 0-.97 1.22l.93 4.21A2 2 0 0 0 3.92 14"/></svg>