<svg xmlns="http://www.w3.org/2000/svg" viewBox="0 0 16 16"><path fill="#cbd5e1" fill-opacity=".4" fill-rule="evenodd" d="M4 1h1.75C8 1 8 3 9 3h3a3 3 0 0 1 3 3v6a3 3 0 0 1-3 3H4a3 3 0 0 1-3-3V4a3 3 0 0 1 3-3"/><path fill="none" stroke="#f8fafc" stroke-opacity="0.1" d="m7.46 2.32.42.54c.34.42.66.64 1.12.64h3A2.5 2.5 0 0 1 14.5 6v6a2.5 2.5 0 0 1-2.5 2.5H4A2.5 2.5 0 0 1 1.5 12V4A2.5 2.5 0 0 1 4 1.5h1.75c.8 0 1.25.26 1.7.82Z"/><path fill="#93c5fd" fill-rule="evenodd" d="M5 4h6a2 2 0 0 1 2 2v5a2 2 0 0 1-2 2H5a2 2 0 0 1-2-2V6a2 2 0 0 1 2-2"/><path fill="none" stroke="#f8fafc" stroke-opacity="0.1" d="M12.5 6v5a1.5 1.5 0 0 1-1.5 1.5H5A1.5 1.5 0 0 1 3.5 11V6A1.5 1.5 0 0 1 5 4.5h6A1.5 1.5 0 0 1 12.5 6Z"/><path fill="#cbd5e1" fill-opacity=".8" fill-rule="evenodd" d="M2 6h12a2 2 0 0 1 1.96 2.43l-.94 4.22A3 3 0 0 1 12.1 15H3.91a3 3 0 0 1-2.93-2.35L.04 8.44A2 2 0 0 1 2 6"/><path fill="none" stroke="#f8fafc" stroke-opacity="0.1" d="m15.5 8.15-.03.18-.94 4.21a2.5 2.5 0 0 1-2.44 1.96H3.91a2.5 2.5 0 0 1-2.44-1.96L.53 8.33A1.5 1.5 0 0 1 1.99 6.5h12.02a1.5 1.5 0 0 1 1.49 1.65Z"/></svg>