<svg xmlns="http://www.w3.org/2000/svg" xmlns:xlink="http://www.w3.org/1999/xlink" viewBox="0 0 16 16"><defs><path id="a" d="M15.18 6.24a.5.5 0 0 1-.17.69l-1.08.65-.14.45Q15.4 8.2 16 9l-.23 3.98a1 1 0 0 1-.17.5l-.25.37a1 1 0 0 0-.14.32l-.37 1.45a.5.5 0 0 1-.48.38h-2.72a.5.5 0 0 1-.48-.38l-.37-1.45a1 1 0 0 0-.14-.31l-.25-.38a1 1 0 0 1-.17-.5L10 9q.71-.95 2.76-1l.26-.89a.5.5 0 0 1 .22-.29l1.25-.75a.5.5 0 0 1 .69.17"/><path id="b" d="M9.5 3H13a2 2 0 0 1 1.73 1 2.5 2.5 0 0 0-1.27.36L12.4 5H1V4a3 3 0 0 1 3-3h1.5C8 1 8 3 9.5 3"/></defs><use xlink:href="#a" fill="#fda4af" fill-rule="evenodd"/><use xlink:href="#a" fill="#f8fafc" fill-opacity="0.1" fill-rule="evenodd"/><use xlink:href="#b" fill="#fda4af" fill-opacity=".4" fill-rule="evenodd"/><use xlink:href="#b" fill="#f8fafc" fill-opacity="0.1" fill-rule="evenodd"/><path fill="#fda4af" fill-opacity=".8" fill-rule="evenodd" d="M11.25 6.15A4.5 4.5 0 0 0 8.4 7.8 2 2 0 0 0 8 9.12l.24 3.98a3 3 0 0 0 .5 1.49l.15.23.05.18H3.9a3 3 0 0 1-2.93-2.35L.04 8.44 0 8.16v-.32A2 2 0 0 1 2 6h9.34z"/><path fill="#f8fafc" fill-opacity="0.1" fill-rule="evenodd" d="M11.25 6.15q-1.2.23-2.04.85H1.99a1 1 0 0 0-.97 1.22l.93 4.21A2 2 0 0 0 3.91 14h4.52a3 3 0 0 0 .3.59l.16.23.05.18H3.9a3 3 0 0 1-2.93-2.35L.04 8.44 0 8.16v-.32A2 2 0 0 1 2 6h9.34z"/></svg>