<svg xmlns="http://www.w3.org/2000/svg" xmlns:xlink="http://www.w3.org/1999/xlink" viewBox="0 0 16 16"><defs><path id="a" d="M12.5 8A1.5 1.5 0 0 1 14 9.5v.5h1a1 1 0 0 1 1 1v.75a.25.25 0 0 1-.25.25h-2.5a.25.25 0 0 0-.25.25v.5a.25.25 0 0 1-.25.25h-1.5a.25.25 0 0 1-.25-.25v-.5a.25.25 0 0 0-.25-.25h-2.5a.25.25 0 0 1-.25-.25V11a1 1 0 0 1 1-1h1v-.5A1.5 1.5 0 0 1 11.5 8zm-1 1a.5.5 0 0 0-.5.5v.5h2v-.5a.5.5 0 0 0-.5-.5zm-3.25 4h1.5a.25.25 0 0 1 .25.25v.5q.02.23.25.25h3.5a.25.25 0 0 0 .25-.25v-.5a.25.25 0 0 1 .25-.25h1.5a.25.25 0 0 1 .25.25V15a1 1 0 0 1-1 1H9a1 1 0 0 1-1-1v-1.75a.25.25 0 0 1 .25-.25"/><path id="b" d="M9.5 3H13a2 2 0 0 1 2 2H1V4a3 3 0 0 1 3-3h1.5C8 1 8 3 9.5 3"/></defs><use xlink:href="#a" fill="#fde047" fill-rule="evenodd"/><use xlink:href="#a" fill="#f8fafc" fill-opacity="0.1" fill-rule="evenodd"/><use xlink:href="#b" fill="#fde047" fill-opacity=".4" fill-rule="evenodd"/><use xlink:href="#b" fill="#f8fafc" fill-opacity="0.1" fill-rule="evenodd"/><path fill="#fde047" fill-opacity=".8" fill-rule="evenodd" d="M2 6h9.5a3.5 3.5 0 0 0-3.2 2.09A3 3 0 0 0 6 11v.75q0 .4.13.75a2 2 0 0 0-.13.75V15H3.9a3 3 0 0 1-2.92-2.35L.04 8.44 0 8.16v-.32A2 2 0 0 1 2 6m14 1.84v.33l-.3-.08A3.5 3.5 0 0 0 12.5 6H14a2 2 0 0 1 2 1.84"/><path fill="#f8fafc" fill-opacity="0.1" fill-rule="evenodd" d="M2 6h9.5c-.95 0-1.82.38-2.45 1H1.99a1 1 0 0 0-.97 1.22l.93 4.21A2 2 0 0 0 3.92 14H6v1H3.9a3 3 0 0 1-2.92-2.35L.04 8.44 0 8.16v-.32A2 2 0 0 1 2 6m14 1.84v.33l-.3-.08A3.5 3.5 0 0 0 12.5 6H14a2 2 0 0 1 2 1.84"/></svg>