<svg xmlns="http://www.w3.org/2000/svg" xmlns:xlink="http://www.w3.org/1999/xlink" viewBox="0 0 16 16"><defs><path id="a" d="M14.5 8A1.5 1.5 0 0 1 16 9.5V11h-4a1 1 0 0 0-1 .88V14H9.5A1.5 1.5 0 0 1 8 12.5v-3A1.5 1.5 0 0 1 9.5 8z"/><path id="b" d="M12 15.6v-3.1a.5.5 0 0 1 .5-.5h3.1c.33 0 .5.4.26.64l-.86.86 1 1V16h-1.5l-1-1-.86.86a.38.38 0 0 1-.64-.26"/><path id="c" d="M9.5 3H12a3 3 0 0 1 3 3v.04L14.5 6h-.26A3 3 0 0 0 12 5H4a3 3 0 0 0-3 3V4a3 3 0 0 1 3-3h1.5C8 1 8 3 9.5 3"/></defs><use xlink:href="#a" fill="#cbd5e1" fill-rule="evenodd"/><use xlink:href="#a" fill="#f8fafc" fill-opacity="0.1" fill-rule="evenodd"/><use xlink:href="#b" fill="#93c5fd" fill-rule="evenodd"/><use xlink:href="#b" fill="#f8fafc" fill-opacity="0.1" fill-rule="evenodd"/><use xlink:href="#c" fill="#93c5fd" fill-opacity=".4" fill-rule="evenodd"/><use xlink:href="#c" fill="#f8fafc" fill-opacity="0.1" fill-rule="evenodd"/><path fill="#93c5fd" fill-opacity=".8" fill-rule="evenodd" d="M12 5c.89 0 1.69.39 2.24 1H9.5A3.5 3.5 0 0 0 6 9.5v3c0 .98.4 1.87 1.05 2.5H4a3 3 0 0 1-3-3V8a3 3 0 0 1 3-3z"/><path fill="#f8fafc" fill-opacity="0.1" fill-rule="evenodd" d="M14.24 6H4a2 2 0 0 0-2 2v4a2 2 0 0 0 2 2h2.34q.27.57.71 1H4a3 3 0 0 1-3-3V8a3 3 0 0 1 3-3h8c.89 0 1.69.39 2.24 1"/></svg>