<svg xmlns="http://www.w3.org/2000/svg" xmlns:xlink="http://www.w3.org/1999/xlink" viewBox="0 0 16 16"><defs><path id="a" d="m12.44 8.45 1.13 2.58.98-2.55a.75.75 0 1 1 1.4.54l-2.5 6.5a.75.75 0 0 1-1.4-.54l.75-1.95-1.74-3.98a.75.75 0 0 1 1.38-.6M9.63 9.84l-.1-.07a1.25 1.25 0 1 0 0 1.96.75.75 0 1 1 .94 1.17 2.75 2.75 0 1 1 0-4.3.75.75 0 0 1-.85 1.24"/><path id="b" d="M9.5 3H13a2 2 0 0 1 2 2H1V4a3 3 0 0 1 3-3h1.5C8 1 8 3 9.5 3"/></defs><use xlink:href="#a" fill="#86efac" fill-rule="evenodd"/><use xlink:href="#a" fill="#f8fafc" fill-opacity="0.1" fill-rule="evenodd"/><use xlink:href="#b" fill="#86efac" fill-opacity=".4" fill-rule="evenodd"/><use xlink:href="#b" fill="#f8fafc" fill-opacity="0.1" fill-rule="evenodd"/><path fill="#86efac" fill-opacity=".8" fill-rule="evenodd" d="m10.65 6.23-.19.1A5 5 0 0 0 8.75 6a4.75 4.75 0 0 0-2.12 9H3.91a3 3 0 0 1-2.93-2.35L.04 8.44 0 8.16v-.32A2 2 0 0 1 2 6h9.74a3 3 0 0 0-1.1.23M14.02 6q.3 0 .57.08a3 3 0 0 0-1.08.55A2.8 2.8 0 0 0 11.8 6z"/><path fill="#f8fafc" fill-opacity="0.1" fill-rule="evenodd" d="m10.65 6.23-.19.1A4.7 4.7 0 0 0 5.83 7H2a1 1 0 0 0-.97 1.22l.93 4.21A2 2 0 0 0 3.91 14h1.38q.57.61 1.34 1H3.9a3 3 0 0 1-2.93-2.35L.04 8.44 0 8.16v-.32A2 2 0 0 1 2 6h9.74a3 3 0 0 0-1.1.23M14.02 6q.3 0 .57.08a3 3 0 0 0-1.08.55A2.8 2.8 0 0 0 11.8 6z"/></svg>