<svg xmlns="http://www.w3.org/2000/svg" xmlns:xlink="http://www.w3.org/1999/xlink" viewBox="0 0 16 16"><defs><path id="a" d="M10.25 13.75V11.6l3.17 3.88.06.06a4.5 4.5 0 1 1 1.2-.86l-.1-.16-4.5-5.5a.75.75 0 0 0-1.33.48v4.25c0 .41.34.75.75.75h.1a.75.75 0 0 0 .65-.75m3.25-5a.75.75 0 0 0-.75.75v2a.75.75 0 1 0 1.5 0v-2a.75.75 0 0 0-.75-.75"/><path id="b" d="M9.5 3H12a3 3 0 0 1 3 3v.02a7 7 0 0 0-1.97-.84A3 3 0 0 0 12 5H4a3 3 0 0 0-3 3V4a3 3 0 0 1 3-3h1.5C8 1 8 3 9.5 3"/></defs><use xlink:href="#a" fill="#cbd5e1" fill-rule="evenodd"/><use xlink:href="#a" fill="#f8fafc" fill-opacity="0.1" fill-rule="evenodd"/><use xlink:href="#b" fill="#cbd5e1" fill-opacity=".4" fill-rule="evenodd"/><use xlink:href="#b" fill="#f8fafc" fill-opacity="0.1" fill-rule="evenodd"/><path fill="#cbd5e1" fill-opacity=".8" fill-rule="evenodd" d="M12 5a3 3 0 0 1 1.03.18 6.5 6.5 0 0 0-7 9.82H4a3 3 0 0 1-3-3V8a3 3 0 0 1 3-3z"/><path fill="#f8fafc" fill-opacity="0.1" fill-rule="evenodd" d="M12 5a3 3 0 0 1 1.03.18A7 7 0 0 0 11.5 5a6.5 6.5 0 0 0-3.46 1H4a2 2 0 0 0-2 2v4a2 2 0 0 0 2 2h1.5q.22.53.52 1H4a3 3 0 0 1-3-3V8a3 3 0 0 1 3-3z"/></svg>