<svg xmlns="http://www.w3.org/2000/svg" xmlns:xlink="http://www.w3.org/1999/xlink" viewBox="0 0 16 16"><defs><path id="a" d="M11.75 7a.25.25 0 0 1 .25.25v.79q.76.11 1.39.51l.76-.76a.25.25 0 0 1 .36 0l.7.7a.25.25 0 0 1 0 .36l-.76.76q.4.62.51 1.39h.79a.25.25 0 0 1 .25.25v.5a.25.25 0 0 1-.25.25h-.78a3.5 3.5 0 0 1-.52 1.39l.76.76a.25.25 0 0 1 0 .35l-.7.71a.25.25 0 0 1-.36 0l-.76-.76a3.5 3.5 0 0 1-1.39.51v.79a.25.25 0 0 1-.25.25h-.5a.25.25 0 0 1-.25-.25v-.78a3.5 3.5 0 0 1-1.39-.52l-.76.76a.25.25 0 0 1-.35 0l-.71-.7a.25.25 0 0 1 0-.36l.76-.76A3.5 3.5 0 0 1 8.03 12h-.78a.25.25 0 0 1-.25-.25v-.5a.25.25 0 0 1 .25-.25h.79q.11-.76.51-1.39l-.76-.76a.25.25 0 0 1 0-.35l.7-.71a.25.25 0 0 1 .36 0l.76.76A3.5 3.5 0 0 1 11 8.03v-.78a.25.25 0 0 1 .25-.25z"/><path id="b" d="M9.5 3H13a2 2 0 0 1 2 2H1V4a3 3 0 0 1 3-3h1.5C8 1 8 3 9.5 3"/></defs><use xlink:href="#a" fill="#bef264" fill-rule="evenodd"/><use xlink:href="#a" fill="#f8fafc" fill-opacity="0.1" fill-rule="evenodd"/><use xlink:href="#b" fill="#bef264" fill-opacity=".4" fill-rule="evenodd"/><use xlink:href="#b" fill="#f8fafc" fill-opacity="0.1" fill-rule="evenodd"/><path fill="#bef264" fill-opacity=".8" fill-rule="evenodd" d="m7.08 6.37-.7.71a2.3 2.3 0 0 0-.51 2.4A2.2 2.2 0 0 0 5 11.25v.5c0 .72.34 1.36.87 1.77A2.3 2.3 0 0 0 5.82 15H3.9a3 3 0 0 1-2.93-2.35L.04 8.44 0 8.16v-.32A2 2 0 0 1 2 6h5.57a2 2 0 0 0-.49.37"/><path fill="#f8fafc" fill-opacity="0.1" fill-rule="evenodd" d="M7.08 6.37 6.45 7H2a1 1 0 0 0-.97 1.22l.93 4.21A2 2 0 0 0 3.92 14h1.83q-.07.5.08 1H3.9a3 3 0 0 1-2.93-2.35L.04 8.44 0 8.16v-.32A2 2 0 0 1 2 6h5.57a2 2 0 0 0-.49.37"/></svg>