<svg xmlns="http://www.w3.org/2000/svg" xmlns:xlink="http://www.w3.org/1999/xlink" viewBox="0 0 16 16"><defs><path id="a" d="M15.59 9.08q-.87.15-1.6.25v1.55q.77-.1 1.53-.27A.4.4 0 0 1 16 11a.6.6 0 0 1-.49.62l-.51.1v4.03a.25.25 0 0 1-.25.25h-1.5a.25.25 0 0 1-.25-.25v-3.78a16 16 0 0 1-2 0v3.78a.25.25 0 0 1-.25.25h-1.5a.25.25 0 0 1-.25-.25v-4.03l-.51-.1A.6.6 0 0 1 8 11a.4.4 0 0 1 .48-.39q.76.17 1.52.27V9.32l-1.59-.25a.5.5 0 0 1-.41-.5V7.6a.5.5 0 0 1 .58-.5q2.24.4 3.42.4t3.42-.4a.5.5 0 0 1 .58.5v.98a.5.5 0 0 1-.41.5M13 9.45q-.57.05-1 .05t-1-.05v1.52a16 16 0 0 0 2 0z"/><path id="b" d="M9.5 3H13a2 2 0 0 1 2 2H1V4a3 3 0 0 1 3-3h1.5C8 1 8 3 9.5 3"/></defs><use xlink:href="#a" fill="#fda4af" fill-rule="evenodd"/><use xlink:href="#a" fill="#f8fafc" fill-opacity="0.1" fill-rule="evenodd"/><use xlink:href="#b" fill="#fda4af" fill-opacity=".4" fill-rule="evenodd"/><use xlink:href="#b" fill="#f8fafc" fill-opacity="0.1" fill-rule="evenodd"/><path fill="#fda4af" fill-opacity=".8" fill-rule="evenodd" d="M6 7.6v.98q.01.67.32 1.23A2.4 2.4 0 0 0 6 11a2.6 2.6 0 0 0 1 2.05V15H3.9a3 3 0 0 1-2.92-2.35L.04 8.44 0 8.16v-.32A2 2 0 0 1 2 6h4.58c-.36.43-.58.99-.58 1.6"/><path fill="#f8fafc" fill-opacity="0.1" fill-rule="evenodd" d="M6.12 6.82 6.07 7H2a1 1 0 0 0-.97 1.22l.93 4.21A2 2 0 0 0 3.91 14H7v1H3.9a3 3 0 0 1-2.92-2.35L.04 8.44 0 8.16v-.32A2 2 0 0 1 2 6h4.58a3 3 0 0 0-.46.82"/></svg>