<svg xmlns="http://www.w3.org/2000/svg" xmlns:xlink="http://www.w3.org/1999/xlink" viewBox="0 0 16 16"><defs><path id="a" d="M9 8v1.75c0 .69.56 1.25 1.25 1.25h1.5c.69 0 1.25-.56 1.25-1.25V8h.54a.5.5 0 0 1 .36.15l1.95 1.95a.5.5 0 0 1 .15.36v5.04a.5.5 0 0 1-.5.5H15v-2.75a1.25 1.25 0 0 0-1.12-1.24l-.13-.01h-3.5C9.56 12 9 12.56 9 13.25V16h-.5a.5.5 0 0 1-.5-.5v-7a.5.5 0 0 1 .5-.5zm1.25 5h3.5a.25.25 0 0 1 .25.25V16h-4v-2.75a.25.25 0 0 1 .2-.24zM12 8v1.75a.25.25 0 0 1-.25.25h-1.5a.25.25 0 0 1-.25-.25V8z"/><path id="b" d="M9.5 3H12a3 3 0 0 1 3 3v.47a3 3 0 0 0-.65-.34A3 3 0 0 0 12 5H4a3 3 0 0 0-3 3V4a3 3 0 0 1 3-3h1.5C8 1 8 3 9.5 3"/></defs><use xlink:href="#a" fill="#cbd5e1" fill-rule="evenodd"/><use xlink:href="#a" fill="#f8fafc" fill-opacity="0.1" fill-rule="evenodd"/><use xlink:href="#b" fill="#cbd5e1" fill-opacity=".4" fill-rule="evenodd"/><use xlink:href="#b" fill="#f8fafc" fill-opacity="0.1" fill-rule="evenodd"/><path fill="#cbd5e1" fill-opacity=".8" fill-rule="evenodd" d="M12 5a3 3 0 0 1 2.35 1.13 3 3 0 0 0-.8-.13H8.5A2.5 2.5 0 0 0 6 8.5V15H4a3 3 0 0 1-3-3V8a3 3 0 0 1 3-3z"/><path fill="#f8fafc" fill-opacity="0.1" fill-rule="evenodd" d="M13.54 6H4a2 2 0 0 0-2 2v4a2 2 0 0 0 2 2h2v1H4a3 3 0 0 1-3-3V8a3 3 0 0 1 3-3h8a3 3 0 0 1 2.35 1.13 3 3 0 0 0-.8-.13"/></svg>