<svg xmlns="http://www.w3.org/2000/svg" xmlns:xlink="http://www.w3.org/1999/xlink" viewBox="0 0 16 16"><defs><path id="a" d="M11.5 7a1.5 1.5 0 0 1 1.08 2.54l1.73 3.47.19-.01a1.5 1.5 0 1 1-1.41 2H9.9a1.5 1.5 0 1 1-1.23-1.99l1.74-3.47A1.5 1.5 0 0 1 11.5 7m-.19 2.99-1.73 3.47a2 2 0 0 1 .34.54h3.17a2 2 0 0 1 .33-.54l-1.74-3.47z"/><path id="b" d="M9.5 3H13a2 2 0 0 1 2 2H1V4a3 3 0 0 1 3-3h1.5C8 1 8 3 9.5 3"/></defs><use xlink:href="#a" fill="#fde047" fill-rule="evenodd"/><use xlink:href="#a" fill="#f8fafc" fill-opacity="0.1" fill-rule="evenodd"/><use xlink:href="#b" fill="#fde047" fill-opacity=".4" fill-rule="evenodd"/><use xlink:href="#b" fill="#f8fafc" fill-opacity="0.1" fill-rule="evenodd"/><path fill="#fde047" fill-opacity=".8" fill-rule="evenodd" d="M8 8.5q0 .56.17 1.07l-.81 1.62A3.5 3.5 0 0 0 5.04 15H3.9a3 3 0 0 1-2.93-2.35L.04 8.44 0 8.16v-.32A2 2 0 0 1 2 6h7.05A3.5 3.5 0 0 0 8 8.5M13.95 6h.06a2 2 0 0 1 2 1.84l-.01.32-.04.28-.53 2.34-.6-1.2A3.5 3.5 0 0 0 13.95 6"/><path fill="#f8fafc" fill-opacity="0.1" fill-rule="evenodd" d="M8.45 6.78 8.34 7H1.99a1 1 0 0 0-.97 1.22l.93 4.21A2 2 0 0 0 3.91 14h1.12a4 4 0 0 0 0 1H3.92a3 3 0 0 1-2.93-2.35L.04 8.44 0 8.16v-.32A2 2 0 0 1 2 6h7.05q-.35.35-.6.78m5.5-.78h.06a2 2 0 0 1 2 1.84l-.01.32-.04.28-.53 2.34-.6-1.2a3 3 0 0 0 .16-1.38l.01-.1a1 1 0 0 0-.16-.65 3.5 3.5 0 0 0-.9-1.45"/></svg>