<svg xmlns="http://www.w3.org/2000/svg" xmlns:xlink="http://www.w3.org/1999/xlink" viewBox="0 0 16 16"><defs><path id="a" d="m11.79 8.06-3.77 4.6a.5.5 0 0 0 .02.66l2.05 2.24a1 1 0 0 0 1 .29l4.53-1.18a.5.5 0 0 0 .3-.74l-3.3-5.8a.5.5 0 0 0-.83-.07"/><path id="b" d="M9.5 3H12a3 3 0 0 1 3 3v2a3 3 0 0 0-3-3H4a3 3 0 0 0-3 3V4a3 3 0 0 1 3-3h1.5C8 1 8 3 9.5 3"/></defs><use xlink:href="#a" fill="#5eead4" fill-rule="evenodd"/><use xlink:href="#a" fill="#f8fafc" fill-opacity="0.1" fill-rule="evenodd"/><use xlink:href="#b" fill="#5eead4" fill-opacity=".4" fill-rule="evenodd"/><use xlink:href="#b" fill="#f8fafc" fill-opacity="0.1" fill-rule="evenodd"/><path fill="#5eead4" fill-opacity=".8" fill-rule="evenodd" d="M12 5a3 3 0 0 1 3 3v.28l-.65-1.14a2.5 2.5 0 0 0-3.76-.7l-.13.12-.22.24-3.76 4.6a2.5 2.5 0 0 0 .09 3.27l.3.33H4a3 3 0 0 1-3-3V8a3 3 0 0 1 3-3z"/><path fill="#f8fafc" fill-opacity="0.1" fill-rule="evenodd" d="M12 5a3 3 0 0 1 3 3v.28l-.65-1.14A2.5 2.5 0 0 0 11.4 6H4a2 2 0 0 0-2 2v4a2 2 0 0 0 2 2h2.13q.15.37.44.67l.3.33H4a3 3 0 0 1-3-3V8a3 3 0 0 1 3-3z"/></svg>