<svg xmlns="http://www.w3.org/2000/svg" xmlns:xlink="http://www.w3.org/1999/xlink" viewBox="0 0 16 16"><defs><path id="a" d="M7.03 11h2.02q-.05.24-.05.5a2.5 2.5 0 0 0 2 2.45v2.02A4.5 4.5 0 0 1 7.03 11"/><path id="b" d="M11.5 7a4.5 4.5 0 1 1-.5 8.97v-2.02q.24.05.5.05a2.5 2.5 0 1 0-.5-4.95V7.03z"/><path id="d" d="M9.5 3H13a2 2 0 0 1 2 2H1V4a3 3 0 0 1 3-3h1.5C8 1 8 3 9.5 3"/><circle id="c" cx="11.5" cy="11.5" r="1.5"/></defs><use xlink:href="#a" fill="#fda4af" fill-rule="evenodd"/><use xlink:href="#a" fill="#f8fafc" fill-opacity="0.1" fill-rule="evenodd"/><use xlink:href="#b" fill="#93c5fd" fill-rule="evenodd"/><use xlink:href="#b" fill="#f8fafc" fill-opacity="0.1" fill-rule="evenodd"/><use xlink:href="#c" fill="#cbd5e1" fill-rule="evenodd"/><use xlink:href="#c" fill="#f8fafc" fill-opacity="0.1" fill-rule="evenodd"/><use xlink:href="#d" fill="#93c5fd" fill-opacity=".4" fill-rule="evenodd"/><use xlink:href="#d" fill="#f8fafc" fill-opacity="0.1" fill-rule="evenodd"/><path fill="#93c5fd" fill-opacity=".8" fill-rule="evenodd" d="M9 6v3H5.5a6.5 6.5 0 0 0 .52 6H3.91a3 3 0 0 1-2.93-2.35L.04 8.44 0 8.16v-.32A2 2 0 0 1 2 6z"/><path fill="#f8fafc" fill-opacity="0.1" fill-rule="evenodd" d="M9 6v1H2a1 1 0 0 0-.98 1.22l.93 4.21A2 2 0 0 0 3.91 14H5.5q.22.53.52 1H3.91a3 3 0 0 1-2.93-2.35L.04 8.44 0 8.16v-.32A2 2 0 0 1 2 6z"/></svg>