<svg xmlns="http://www.w3.org/2000/svg" xmlns:xlink="http://www.w3.org/1999/xlink" viewBox="0 0 16 16"><defs><path id="a" d="M11 8q.43 0 .84.09A2.5 2.5 0 0 0 12.5 13a2.5 2.5 0 0 0 2.41-1.84q.09.4.09.84a4 4 0 1 1-4-4m3-1a2 2 0 1 1 0 4 2 2 0 0 1 0-4"/><path id="b" d="M9.5 3H12a3 3 0 0 1 2.86 2.1 4 4 0 0 0-1.93.05A3 3 0 0 0 12 5H4a3 3 0 0 0-3 3V4a3 3 0 0 1 3-3h1.5C8 1 8 3 9.5 3"/></defs><use xlink:href="#a" fill="#c4b5fd" fill-rule="evenodd"/><use xlink:href="#a" fill="#f8fafc" fill-opacity="0.1" fill-rule="evenodd"/><use xlink:href="#b" fill="#c4b5fd" fill-opacity=".4" fill-rule="evenodd"/><use xlink:href="#b" fill="#f8fafc" fill-opacity="0.1" fill-rule="evenodd"/><path fill="#c4b5fd" fill-opacity=".8" fill-rule="evenodd" d="M12 5q.49 0 .93.15a4 4 0 0 0-1.58.86A6 6 0 0 0 5.8 15H4a3 3 0 0 1-3-3V8a3 3 0 0 1 3-3z"/><path fill="#f8fafc" fill-opacity="0.1" fill-rule="evenodd" d="M12 5q.49 0 .93.15-.9.25-1.57.85H4a2 2 0 0 0-2 2v4a2 2 0 0 0 2 2h1.34q.19.53.46 1H4a3 3 0 0 1-3-3V8a3 3 0 0 1 3-3z"/></svg>