<svg xmlns="http://www.w3.org/2000/svg" viewBox="0 0 16 16"><path fill="#7dd3fc" fill-rule="evenodd" d="M5.71 1.58 1.18 6.26a2.5 2.5 0 0 0 0 3.48l4.53 4.68A.75.75 0 0 0 7 13.9v-1.7a.5.5 0 0 0-.15-.35l-3.5-3.5a.5.5 0 0 1 0-.7l3.5-3.5A.5.5 0 0 0 7 3.79V2.1a.75.75 0 0 0-1.29-.52"/><path fill="none" stroke="#f8fafc" stroke-opacity="0.1" d="M6.5 2.1v1.7L3 7.3a1 1 0 0 0 0 1.4l3.5 3.5v1.7a.25.25 0 0 1-.43.17L1.54 9.39a2 2 0 0 1 0-2.78l4.53-4.68a.25.25 0 0 1 .43.17Z"/><path fill="#7dd3fc" fill-rule="evenodd" d="M8 6.2v3.6a.5.5 0 0 1-.85.35l-1.8-1.8a.5.5 0 0 1 0-.7l1.8-1.8a.5.5 0 0 1 .85.36"/><path fill="none" stroke="#f8fafc" stroke-opacity="0.1" d="M7.5 9.8 5.7 8l1.8-1.8Z"/><path fill="#7dd3fc" fill-opacity=".4" fill-rule="evenodd" d="m10.29 1.58 4.53 4.68a2.5 2.5 0 0 1 0 3.48l-4.53 4.68A.75.75 0 0 1 9 13.9v-1.7a.5.5 0 0 1 .15-.35l3.5-3.5a.5.5 0 0 0 0-.7l-3.5-3.5A.5.5 0 0 1 9 3.79V2.1a.75.75 0 0 1 1.29-.52"/><path fill="none" stroke="#f8fafc" stroke-opacity="0.1" d="m9.93 1.93 4.53 4.68a2 2 0 0 1 0 2.78l-4.53 4.68a.25.25 0 0 1-.43-.17v-1.7L13 8.7a1 1 0 0 0 0-1.4L9.5 3.8V2.1a.25.25 0 0 1 .43-.17Z"/></svg>