<svg xmlns="http://www.w3.org/2000/svg" xmlns:xlink="http://www.w3.org/1999/xlink" viewBox="0 0 16 16"><defs><path id="a" d="M15 4.5a.5.5 0 0 1-.5.5h-3a.5.5 0 1 1 0-1h3a.5.5 0 0 1 .5.5m0 3a.5.5 0 0 1-.5.5H13a.5.5 0 1 1 0-1h1.5a.5.5 0 0 1 .5.5"/></defs><use xlink:href="#a" fill="#c4b5fd" fill-rule="evenodd"/><use xlink:href="#a" fill="#f8fafc" fill-opacity="0.1" fill-rule="evenodd"/><path fill="#c4b5fd" fill-opacity=".4" fill-rule="evenodd" d="M3.14 13.74 6 8.5 3.14 3.26A.5.5 0 0 0 2.7 3H.6a.5.5 0 0 0-.45.74l2.6 4.76-2.6 4.76A.5.5 0 0 0 .6 14h2.1a.5.5 0 0 0 .44-.26"/><path fill="none" stroke="#f8fafc" stroke-opacity="0.1" d="m5.43 8.5-2.73 5H.6l2.59-4.76.13-.24-.13-.24L.59 3.5H2.7Z"/><path fill="#c4b5fd" fill-rule="evenodd" d="m8.4 3.24 6.13 10a.5.5 0 0 1-.42.76h-2.83a.5.5 0 0 1-.43-.24L9.5 11.5l-1.35 2.26a.5.5 0 0 1-.43.24h-2.8a.5.5 0 0 1-.43-.77L7.5 8.5 4.9 3.74A.5.5 0 0 1 5.34 3h2.63a.5.5 0 0 1 .43.24"/><path fill="none" stroke="#f8fafc" stroke-opacity="0.1" d="M14.1 13.5h-2.82l-1.35-2.26-.43-.71-.43.71-1.35 2.26H4.9l3.01-4.73.16-.25-.14-.26-2.6-4.76h2.63Z"/></svg>