<svg xmlns="http://www.w3.org/2000/svg" xmlns:xlink="http://www.w3.org/1999/xlink" viewBox="0 0 16 16"><defs><path id="b" d="M12.6 7.2a1 1 0 0 1 .2 1.4L11.75 10l1.05 1.4a1 1 0 0 1-1.6 1.2l-.7-.93-.7.93a1 1 0 0 1-1.6-1.2L9.25 10 8.2 8.6a1 1 0 1 1 1.6-1.2l.7.93.7-.93a1 1 0 0 1 1.4-.2"/><path id="a" d="M8 6.5v4a2.5 2.5 0 1 1-5 0v-4a2.5 2.5 0 0 1 5 0m-3 0v4a.5.5 0 1 0 1 0v-4a.5.5 0 0 0-1 0"/></defs><path fill="#cbd5e1" fill-opacity=".4" fill-rule="evenodd" d="M5 1h6a4 4 0 0 1 4 4v6a4 4 0 0 1-4 4H5a4 4 0 0 1-4-4V5a4 4 0 0 1 4-4"/><path fill="none" stroke="#f8fafc" stroke-opacity="0.1" d="M14.5 5v6a3.5 3.5 0 0 1-3.5 3.5H5A3.5 3.5 0 0 1 1.5 11V5A3.5 3.5 0 0 1 5 1.5h6A3.5 3.5 0 0 1 14.5 5Z"/><use fill="#cbd5e1" href="#a"/><use fill="#f8fafc" fill-opacity="0.1" href="#a"/><use xlink:href="#b" fill="#cbd5e1" fill-rule="evenodd"/><use xlink:href="#b" fill="#f8fafc" fill-opacity="0.1" fill-rule="evenodd"/></svg>