<svg xmlns="http://www.w3.org/2000/svg" viewBox="0 0 16 16"><path fill="#fde047" fill-opacity=".4" fill-rule="evenodd" d="M5 1h6a4 4 0 0 1 4 4v6a4 4 0 0 1-4 4H5a4 4 0 0 1-4-4V5a4 4 0 0 1 4-4"/><path fill="none" stroke="#f8fafc" stroke-opacity="0.1" d="M14.5 5v6a3.5 3.5 0 0 1-3.5 3.5H5A3.5 3.5 0 0 1 1.5 11V5A3.5 3.5 0 0 1 5 1.5h6A3.5 3.5 0 0 1 14.5 5Z"/><path fill="#fde047" fill-opacity=".4" fill-rule="evenodd" d="M14 10.56V11a3 3 0 0 1-3 3H5a3 3 0 0 1-3-3V9.54a1 1 0 0 1 .46-.84L6.2 6.26a1.5 1.5 0 0 1 1.6-.02l5.7 3.47a1 1 0 0 1 .49.85"/><circle cx="10.5" cy="4.5" r="1.5" fill="#fdba74" fill-rule="evenodd"/><circle cx="10.5" cy="4.5" r="1" fill="none" stroke="#f8fafc" stroke-opacity="0.1"/><path fill="#fde047" fill-rule="evenodd" d="M14 10.56V11a3 3 0 0 1-3 3H8c0-1-2-1-2-2s2-1 2-2-2-1-2-2q0-.75.57-1.65A.75.75 0 0 1 7.6 6.1l5.93 3.6a1 1 0 0 1 .48.85"/></svg>