<svg xmlns="http://www.w3.org/2000/svg" viewBox="0 0 16 16"><path fill="#86efac" fill-opacity=".4" fill-rule="evenodd" d="M5 1h6a4 4 0 0 1 4 4v6a4 4 0 0 1-4 4H5a4 4 0 0 1-4-4V5a4 4 0 0 1 4-4"/><path fill="none" stroke="#f8fafc" stroke-opacity="0.1" d="M14.5 5v6a3.5 3.5 0 0 1-3.5 3.5H5A3.5 3.5 0 0 1 1.5 11V5A3.5 3.5 0 0 1 5 1.5h6A3.5 3.5 0 0 1 14.5 5Z"/><circle cx="9.5" cy="5.5" r="1.5" fill="#fde047" fill-rule="evenodd"/><circle cx="9.5" cy="5.5" r="1" fill="none" stroke="#f8fafc" stroke-opacity="0.1"/><path fill="#86efac" fill-rule="evenodd" d="M12.58 8.58 14 10v1a3 3 0 0 1-3 3H5a3 3 0 0 1-3-3V9l1.5-1.81a1.5 1.5 0 0 1 2.16-.16l2.76 2.46a1 1 0 0 0 1.22.08l1.68-1.11a1 1 0 0 1 1.26.12"/><path fill="none" stroke="#f8fafc" stroke-opacity="0.1" d="m5.24 7.34.08.06L8.1 9.86a1.5 1.5 0 0 0 1.83.13l1.68-1.12a.5.5 0 0 1 .63.06l1.27 1.28V11a2.5 2.5 0 0 1-2.5 2.5H5A2.5 2.5 0 0 1 2.5 11V9.18l1.4-1.67a1 1 0 0 1 1.34-.17Z"/></svg>