<svg xmlns="http://www.w3.org/2000/svg" xmlns:xlink="http://www.w3.org/1999/xlink" viewBox="0 0 16 16"><defs><linearGradient id="a" x1="71.36%" x2="0%" y1="10.65%" y2="66.72%"><stop offset="0%" stop-color="#c4b5fd" stop-opacity=".4"/><stop offset="100%" stop-color="#93c5fd" stop-opacity=".4"/></linearGradient></defs><path fill="url(#a)" d="m0 8.85 4.55-1.77q.7-.88 1.56-1.63c.38-.19 1.08-.08 2.38-1.64C9.75 2.3 10.15 1 10.74 1c.93 0 1.61 1.94 2.65 4.88a63 63 0 0 0 2.61 6.6c-1.09-.98-2.01-2.03-3.07-2-.98.02-2.07 1.14-3.27 2.58-.95 1.16-2.2 1.96-2.7 1.94 0 0-1.26-3.46-2.33-4.02a1.6 1.6 0 0 0-1.36.1z"/><path fill="none" stroke="#f8fafc" stroke-opacity="0.1" d="M11.37 2.16c.39.68.7 1.49 1.55 3.88a61 61 0 0 0 1.72 4.57l-.04-.03a2.7 2.7 0 0 0-1.68-.6c-1.07.02-2.07.87-3.64 2.77a7 7 0 0 1-2 1.66l-.1-.24a22 22 0 0 0-.66-1.44 8 8 0 0 0-1.06-1.7 2 2 0 0 0-.6-.5 2 2 0 0 0-1.54-.02L1.07 8.97l3.67-1.43.12-.05.09-.1a11 11 0 0 1 1.43-1.51l.07-.02c.56-.18.62-.2.94-.39q.7-.4 1.49-1.34c.57-.7 1.72-2.5 1.86-2.62h.01q.21-.01.62.65Zm1.55 3.89z"/><path fill="#fda4af" d="M4.05 10.86c1.29-.2 2.4 2.89 2.92 4.14 2.29-.37 4.18-4.07 6.03-4 1.06.04 1.91.5 3 1.48C13.52 7.44 12.36 1 10.74 1c-1.24 0-2.1 6.33-6.7 9.86"/><path fill="none" stroke="#f8fafc" stroke-opacity="0.1" d="M11.49 2.38c.53.99 2.67 7.09 2.82 7.46l.46 1.13a4 4 0 0 0-1.75-.47c-1.02-.04-1.56.38-3.4 2.15-1.05 1.01-1.71 1.54-2.35 1.76l-.17-.42-.44-1.02a6 6 0 0 0-1.59-2.32 15 15 0 0 0 2.7-3.3c.87-1.42 2.7-5.58 2.97-5.82l.02-.03q.24.02.73.88Z"/></svg>