<svg xmlns="http://www.w3.org/2000/svg" viewBox="0 0 16 16"><path fill="#c4b5fd" fill-rule="evenodd" d="M13.1 3.29a2.5 2.5 0 0 1 1.66 3.12l-.3.95a2.5 2.5 0 1 0-.87 2.87l-.88 2.87a2.5 2.5 0 0 1-3.12 1.66l-6.7-2.05A2.5 2.5 0 0 1 1.25 9.6L3.3 2.9a2.5 2.5 0 0 1 3.1-1.65z"/><path fill="none" stroke="#f8fafc" stroke-opacity="0.1" d="m6.26 1.72 6.7 2.04a2 2 0 0 1 1.35 2.4 3 3 0 1 0-1.52 4.98l-.55 1.82a2 2 0 0 1-2.5 1.32l-6.7-2.04a2 2 0 0 1-1.32-2.5l2.04-6.7a2 2 0 0 1 2.5-1.32Z"/><path fill="#c4b5fd" fill-opacity=".4" fill-rule="evenodd" d="M11.75 9.4a1.25 1.25 0 1 0 .73-2.38 1.25 1.25 0 0 0-.73 2.39"/><path fill="none" stroke="#f8fafc" stroke-opacity="0.1" d="m12.26 7.48.08.02a.75.75 0 1 1-.08-.02Z"/></svg>