<svg xmlns="http://www.w3.org/2000/svg" xmlns:xlink="http://www.w3.org/1999/xlink" viewBox="0 0 16 16"><defs><linearGradient id="a" x1="50%" x2="50%" y1="0%" y2="100%"><stop offset="0%" stop-color="#fde047"/><stop offset="100%" stop-color="#cbd5e1" stop-opacity=".4"/></linearGradient></defs><path fill="url(#a)" fill-rule="evenodd" d="M14 3v9a2 2 0 0 1-2 2H3a2 2 0 0 1-2-2v-1.5A1.5 1.5 0 0 1 2.5 9H5V6H2.5A1.5 1.5 0 0 1 1 4.5V3a2 2 0 0 1 2-2h9a2 2 0 0 1 2 2"/><path fill="none" stroke="#f8fafc" stroke-opacity="0.1" d="M13.5 3v9a1.5 1.5 0 0 1-1.5 1.5H3A1.5 1.5 0 0 1 1.5 12v-1.5a1 1 0 0 1 1-1h3v-4h-3a1 1 0 0 1-1-1V3A1.5 1.5 0 0 1 3 1.5h9A1.5 1.5 0 0 1 13.5 3Z"/><path fill="#f8fafc" fill-opacity="0.1" d="M6 10v3H5v-3zm4-8v3h3v1h-3v3h3v1h-3v3H9v-3H6V9h3V6H6V5h3V2zM6 2v3H5V2z"/></svg>