<svg xmlns="http://www.w3.org/2000/svg" xmlns:xlink="http://www.w3.org/1999/xlink" viewBox="0 0 16 16"><defs><path id="a" d="M5.5 4a2.5 2.5 0 1 1 0 5 2.5 2.5 0 0 1 0-5m0 1.5a1 1 0 1 0 0 2 1 1 0 0 0 0-2"/><path id="b" d="M10.5 4a2.5 2.5 0 1 1 0 5 2.5 2.5 0 0 1 0-5m0 1.5a1 1 0 1 0 0 2 1 1 0 0 0 0-2"/><path id="c" d="m6.9 9.74.66 1.2a.5.5 0 0 0 .88 0l.66-1.2A.5.5 0 0 0 8.66 9H7.34a.5.5 0 0 0-.44.74"/></defs><path fill="#fdba74" fill-opacity=".4" d="M13.46.69q-.41 1.03-.25 1.83A7.6 7.6 0 0 1 15.25 8c0 1.32-.14 2.03-.53 3.13l-.03.1a7 7 0 0 0-.44 2.52.5.5 0 0 1-.85.35l-.9-.9-.32.33q.32.46.32.97-.01.72-.65 1.35a.5.5 0 0 1-.84-.23c-.11-.46-.27-.62-.51-.62s-.4.16-.51.62a.5.5 0 0 1-.84.23q-.51-.52-.62-1.35H7.47a2.3 2.3 0 0 1-.62 1.35.5.5 0 0 1-.84-.23c-.11-.46-.27-.62-.51-.62s-.4.16-.51.62a.5.5 0 0 1-.84.23 2 2 0 0 1-.65-1.35q0-.5.33-.97l-.33-.32-.9.9a.5.5 0 0 1-.85-.36c0-1.04-.11-1.58-.44-2.52l-.03-.1A8 8 0 0 1 .75 8q0-3.38 2.08-5.53.34-.71-.26-1.71A.5.5 0 0 1 3 0q1.62 0 2.54.97A3.5 3.5 0 0 1 8 0a3.5 3.5 0 0 1 2.46.97Q11.37.01 13 0a.5.5 0 0 1 .46.69"/><path fill="none" stroke="#f8fafc" stroke-opacity="0.1" d="m10.12 1.34.37.34.34-.37a2.7 2.7 0 0 1 1.83-.8L13 .5q-.47 1.16-.28 2.12l.03.14.1.1q1.9 1.97 1.9 5.14a8 8 0 0 1-.5 2.97l-.03.1a7 7 0 0 0-.47 2.49v.19L12.5 12.5l-.97.97.23.35q.24.34.24.68 0 .46-.44.94l-.06.06q-.22-.98-1-1-.73.01-.97.88l-.03.12q-.38-.37-.47-1.06L8.97 14H7.03l-.06.44q-.08.6-.38.96l-.09.1q-.22-.98-1-1-.73.01-.97.88l-.03.12q-.5-.5-.5-1 0-.34.24-.68l.23-.35-.3-.3-.67-.67-.35.35-.9.9c0-1.06-.1-1.65-.47-2.69l-.03-.1A8 8 0 0 1 1.25 8q0-3.2 1.94-5.18l.1-.14q.4-.93-.2-2.03L3 .5q1.42 0 2.17.81l.35.37.36-.34A3 3 0 0 1 8 .5q1.23 0 2.12.84Z"/><use xlink:href="#a" fill="#fdba74" fill-rule="evenodd"/><use xlink:href="#a" fill="#f8fafc" fill-opacity="0.1" fill-rule="evenodd"/><use xlink:href="#b" fill="#fdba74" fill-rule="evenodd"/><use xlink:href="#b" fill="#f8fafc" fill-opacity="0.1" fill-rule="evenodd"/><use xlink:href="#c" fill="#fdba74" fill-rule="evenodd"/><use xlink:href="#c" fill="#f8fafc" fill-opacity="0.1" fill-rule="evenodd"/></svg>