<svg xmlns="http://www.w3.org/2000/svg" viewBox="0 0 16 16"><path fill="#7dd3fc" fill-opacity=".4" fill-rule="evenodd" d="M4.54 10c2.2 3.83 5.3 6.18 7.46 4.93s1.67-5.1-.54-8.93S6.16-.18 4 1.07s-1.67 5.1.54 8.93"/><path fill="none" stroke="#f8fafc" stroke-opacity="0.1" d="m10.61 5.56.42.69c2.2 3.8 2.47 7.23.72 8.24s-4.59-.94-6.78-4.74-2.47-7.23-.72-8.24c1.64-.95 4.24.7 6.36 4.05Z"/><path fill="#7dd3fc" fill-opacity=".4" fill-rule="evenodd" d="M4.54 6c-2.21 3.83-2.7 7.68-.54 8.93s5.26-1.1 7.46-4.93 2.7-7.68.54-8.93S6.75 2.17 4.54 6"/><path fill="none" stroke="#f8fafc" stroke-opacity="0.1" d="m11.41 1.35.34.16c1.75 1 1.48 4.44-.72 8.24S6 15.51 4.25 14.5s-1.47-4.45.72-8.25c2.06-3.56 4.68-5.5 6.44-4.9Z"/><path fill="#7dd3fc" fill-opacity=".4" fill-rule="evenodd" d="M8 12c4.42 0 8-1.5 8-4s-3.58-4-8-4-8 1.5-8 4 3.58 4 8 4"/><path fill="none" stroke="#f8fafc" stroke-opacity="0.1" d="M15.5 8c0 2.02-3.11 3.5-7.5 3.5S.5 10.02.5 8 3.61 4.5 8 4.5s7.5 1.48 7.5 3.5Z"/><circle cx="8" cy="8" r="2" fill="#f8fafc" fill-opacity=".6" fill-rule="evenodd"/><circle cx="8" cy="8" r="1.5" fill="none" stroke="#f8fafc" stroke-opacity="0.1"/></svg>