<svg xmlns="http://www.w3.org/2000/svg" xmlns:xlink="http://www.w3.org/1999/xlink" viewBox="0 0 16 16"><defs><path id="a" d="M8 4.45V0L5.77 3.3z"/><path id="b" d="m8 4.45 2.23-1.15L8 0z"/></defs><use xlink:href="#a" fill="#fdba74" fill-opacity=".4"/><use xlink:href="#a" fill="#f8fafc" fill-opacity="0.1"/><path fill="#fda4af" d="M8 5.77v4.46l5.12-2.67-2.23-3.3z"/><path fill="none" stroke="#f8fafc" stroke-opacity="0.1" d="M12.39 7.38 8.5 9.4V6.07l2.22-1.15Z"/><use xlink:href="#b" fill="#fdba74"/><use xlink:href="#b" fill="#f8fafc" fill-opacity="0.1"/><path fill="#fda4af" d="m13.77 8.54-5.77 3V16l8-4.16z"/><path fill="none" stroke="#f8fafc" stroke-opacity="0.1" d="M15.27 11.65 8.5 15.18v-3.33l5.1-2.66Z"/><path fill="#fda4af" fill-opacity=".4" d="M0 11.84 8 16v-4.45l-5.77-3z"/><path fill="none" stroke="#f8fafc" stroke-opacity="0.1" d="M7.5 11.85v3.33L.73 11.65 2.4 9.2Z"/><path fill="#fda4af" fill-opacity=".4" d="m5.12 4.27-2.23 3.3L8 10.22V5.77z"/><path fill="none" stroke="#f8fafc" stroke-opacity="0.1" d="M7.5 6.07v3.34L3.61 7.38l1.67-2.46Z"/></svg>