<svg xmlns="http://www.w3.org/2000/svg" viewBox="0 0 16 16"><path fill="#fda4af" fill-opacity=".4" fill-rule="evenodd" d="m2.04 5.96 3.92-3.92a3 3 0 0 1 2.5-.86l3.91.5A3 3 0 0 1 15 4.64V12a3 3 0 0 1-3 3H4.65a3 3 0 0 1-2.98-2.63l-.49-3.91a3 3 0 0 1 .86-2.5"/><path fill="#fda4af" fill-opacity=".8" fill-rule="evenodd" d="m4 4 6 2-4 4z"/><path fill="#fda4af" fill-rule="evenodd" d="M1.3 7.18 6 10l-2.78 4.63a3 3 0 0 1-1.55-2.27l-.49-3.91a3 3 0 0 1 .12-1.28m7.16-6 3.91.5a3 3 0 0 1 2.27 1.54L10 6 7.18 1.3a3 3 0 0 1 1.28-.12"/><path fill="#fda4af" fill-opacity=".6" fill-rule="evenodd" d="M15 4.65v7.53a3 3 0 0 1-.63 1.68L10 6l4.21-3.38a3 3 0 0 1 .78 2.02M12.1 15H4.66a3 3 0 0 1-2.02-.78L6 10.01l7.85 4.36c-.48.38-1.09.61-1.74.63"/><path fill="none" stroke="#f8fafc" stroke-opacity="0.1" d="m8.4 1.68 3.91.49a2.5 2.5 0 0 1 2.2 2.48V12a2.5 2.5 0 0 1-2.5 2.5l-7.36-.01a2.5 2.5 0 0 1-2.48-2.19l-.5-3.92a2.5 2.5 0 0 1 .72-2.07l3.93-3.93a2.5 2.5 0 0 1 2.07-.71Z"/></svg>