<svg xmlns="http://www.w3.org/2000/svg" viewBox="0 0 16 16"><path fill="#cbd5e1" fill-opacity=".4" fill-rule="evenodd" d="M10.97 12.85a2 2 0 0 1 1.58-.11 1.1 1.1 0 0 0 1.18-.3 7 7 0 0 0 1.2-1.97c.17-.41.01-.86-.34-1.15A1.7 1.7 0 0 1 13.94 8c0-.53.25-1 .65-1.32.35-.29.5-.74.34-1.15a7 7 0 0 0-1.2-1.97 1.1 1.1 0 0 0-1.18-.3 2 2 0 0 1-1.58-.11 1.7 1.7 0 0 1-.9-1.24 1 1 0 0 0-.85-.81 8 8 0 0 0-2.44 0 1 1 0 0 0-.85.8 1.7 1.7 0 0 1-.9 1.25 2 2 0 0 1-1.58.11 1.1 1.1 0 0 0-1.18.3 7 7 0 0 0-1.2 1.97c-.17.41-.01.86.34 1.15.4.32.66.79.66 1.32S1.8 9 1.4 9.33a1 1 0 0 0-.34 1.14q.43 1.08 1.2 1.97a1.1 1.1 0 0 0 1.18.3 2 2 0 0 1 1.58.11c.5.28.82.74.9 1.24a1 1 0 0 0 .85.81 8 8 0 0 0 2.44 0 1 1 0 0 0 .85-.8c.08-.51.4-.97.9-1.25"/><path fill="none" stroke="#f8fafc" stroke-opacity="0.1" d="M9.14 1.6c.23.03.4.2.44.39.1.67.52 1.26 1.15 1.6a2.4 2.4 0 0 0 2 .14.6.6 0 0 1 .62.16q.72.83 1.12 1.82c.07.2 0 .42-.2.57A2.2 2.2 0 0 0 13.44 8c0 .67.3 1.3.84 1.72.2.15.27.38.19.56a6 6 0 0 1-1.11 1.83.6.6 0 0 1-.64.16 2.4 2.4 0 0 0-2 .14 2.2 2.2 0 0 0-1.14 1.6c-.03.2-.21.36-.44.4a7 7 0 0 1-2.28 0 .5.5 0 0 1-.44-.4 2.2 2.2 0 0 0-1.15-1.6 2.4 2.4 0 0 0-2-.14.6.6 0 0 1-.62-.16 6 6 0 0 1-1.12-1.82q-.1-.31.2-.57c.52-.43.84-1.05.84-1.72s-.32-1.3-.84-1.72c-.2-.15-.27-.38-.2-.56a6 6 0 0 1 1.12-1.83.6.6 0 0 1 .63-.16 2.4 2.4 0 0 0 1.99-.14 2.2 2.2 0 0 0 1.15-1.6c.03-.2.2-.36.44-.4a7 7 0 0 1 2.28 0Z"/><path fill="#cbd5e1" fill-rule="evenodd" d="m8.76 4.94 1.5.88a1.5 1.5 0 0 1 .74 1.3v1.77a1.5 1.5 0 0 1-.74 1.3l-1.5.87a1.5 1.5 0 0 1-1.52 0l-1.5-.88A1.5 1.5 0 0 1 5 8.88V7.12a1.5 1.5 0 0 1 .74-1.3l1.5-.87a1.5 1.5 0 0 1 1.52 0"/><path fill="none" stroke="#f8fafc" stroke-opacity="0.1" d="m8.45 5.34.05.03 1.5.88a1 1 0 0 1 .5.86V8.9a1 1 0 0 1-.5.86l-1.5.88a1 1 0 0 1-1 0L6 9.75a1 1 0 0 1-.5-.86V7.1a1 1 0 0 1 .5-.86l1.5-.88a1 1 0 0 1 .95-.03Z"/></svg>