<svg xmlns="http://www.w3.org/2000/svg" xmlns:xlink="http://www.w3.org/1999/xlink" viewBox="0 0 16 16"><defs><path id="a" d="m3.95 10.28 1 2a.5.5 0 1 1-.9.44l-1-2a.5.5 0 1 1 .9-.44m2 0 1 2a.5.5 0 1 1-.9.44l-1-2a.5.5 0 1 1 .9-.44m4.77-.23a.5.5 0 0 1 .23.67l-1 2a.5.5 0 0 1-.9-.44l1-2a.5.5 0 0 1 .67-.23m2 0a.5.5 0 0 1 .23.67l-1 2a.5.5 0 0 1-.9-.44l1-2a.5.5 0 0 1 .67-.23"/></defs><path fill="#cbd5e1" fill-opacity=".4" fill-rule="evenodd" d="M1 5.14v8.72c0 .4.23.76.6.92Q4.4 16 8 16t6.4-1.22a1 1 0 0 0 .6-.92V5.14a1 1 0 0 0-.6-.92Q11.6 3 8 3T1.6 4.22a1 1 0 0 0-.6.92"/><path fill="none" stroke="#f8fafc" stroke-opacity="0.1" d="M14.2 4.68c.18.08.3.26.3.46v8.72a.5.5 0 0 1-.3.46Q11.5 15.5 8 15.5t-6.2-1.18a.5.5 0 0 1-.3-.46V5.14q.02-.32.3-.46Q4.5 3.5 8 3.5t6.2 1.18Z"/><use fill="#cbd5e1" href="#a"/><use fill="#f8fafc" fill-opacity="0.1" href="#a"/><path fill="#fdba74" fill-rule="evenodd" d="M8 0a4 4 0 1 1 0 8 4 4 0 0 1 0-8m0 4a1 1 0 0 0-1 1v1a1 1 0 1 0 2 0V5a1 1 0 0 0-1-1"/><path fill="none" stroke="#f8fafc" stroke-opacity="0.1" d="M11.5 4a3.5 3.5 0 0 1-3.35 3.5H8A3.5 3.5 0 1 1 11.5 4Zm-5 1v1A1.5 1.5 0 0 0 8 7.5h.15A1.5 1.5 0 0 0 9.5 6V5a1.5 1.5 0 0 0-3 0Z"/></svg>