<svg xmlns="http://www.w3.org/2000/svg" viewBox="0 0 16 16"><path fill="#fdba74" fill-opacity=".4" fill-rule="evenodd" d="M10.78 7.7c-1.33-.96-6.66-5.3-6.66-5.3L7.2 7.6 1.49 3.8s4.04 5.1 6.5 7.02c1.26.93 2.2.57 3.01-.57 1.01-1.41 1-2.25-.22-2.56"/><path fill="none" stroke="#f8fafc" stroke-opacity="0.1" d="m7.2 5.53.1.08a93 93 0 0 0 3.2 2.49l.16.08c.77.19.8.58-.07 1.78-.72 1-1.35 1.16-2.3.46Q7.38 9.7 6.04 8.3l-.9-.97L4.06 6.1 6.92 8l1.82 1.21-1.11-1.88-1.65-2.78z"/><path fill="#fdba74" fill-rule="evenodd" d="M9.4 1.08a.5.5 0 0 0-.61.07.46.46 0 0 0-.02.6c.03.04 2.07 2.57 1.34 5.46q-.73 2.38-2.61 2.9c-1.12.42-3.56.85-6.78-1.18a.5.5 0 0 0-.58.05.46.46 0 0 0-.08.57C.17 9.73 2.76 14 8.2 14c1.5 0 2.37-.43 3.08-.78.43-.22.77-.39 1.14-.39.93 0 1.54.94 1.54.95a.47.47 0 0 0 .84-.06c.67-1.6-.49-3.27-.96-3.86.34-1.1 1.1-5.16-4.44-8.78"/><path fill="none" stroke="#f8fafc" stroke-opacity="0.1" d="M13.34 6.56c.35 1.2.29 2.29.02 3.16l-.07.25.16.2c.84 1.06 1.31 2.26.9 3.3a2.3 2.3 0 0 0-1.93-1.14q-.2 0-.39.05c-.28.06-.47.14-.97.39l-.36.17a5.4 5.4 0 0 1-2.5.56 9 9 0 0 1-5.76-2.04A9 9 0 0 1 .57 9.42c2.73 1.7 5.15 1.88 7.1 1.17q2.1-.62 2.92-3.23a6.5 6.5 0 0 0-.4-4.14 8 8 0 0 0-.9-1.61c2.27 1.52 3.55 3.2 4.05 4.95Z"/></svg>