<svg xmlns="http://www.w3.org/2000/svg" viewBox="0 0 16 16"><path fill="#93c5fd" fill-opacity=".4" fill-rule="evenodd" d="M5.5 2h5A3.5 3.5 0 0 1 14 5.5v5a3.5 3.5 0 0 1-3.5 3.5h-5A3.5 3.5 0 0 1 2 10.5v-5A3.5 3.5 0 0 1 5.5 2"/><path fill="none" stroke="#f8fafc" stroke-opacity="0.1" d="M13.5 5.5v5a3 3 0 0 1-3 3h-5a3 3 0 0 1-3-3v-5a3 3 0 0 1 3-3h5a3 3 0 0 1 3 3Z"/><path fill="#93c5fd" fill-rule="evenodd" d="M7 5h2a2 2 0 0 1 2 2v2a2 2 0 0 1-2 2H7a2 2 0 0 1-2-2V7a2 2 0 0 1 2-2"/><path fill="none" stroke="#f8fafc" stroke-opacity="0.1" d="M10.5 7v2A1.5 1.5 0 0 1 9 10.5H7A1.5 1.5 0 0 1 5.5 9V7A1.5 1.5 0 0 1 7 5.5h2A1.5 1.5 0 0 1 10.5 7Z"/><path fill="#93c5fd" d="M7 15H6v-2h1zm3 0H9v-2h1zm5-5h-2V9h2zM3 10H1V9h2zm12-3h-2V6h2zM3 7H1V6h2zm4-4H6V1h1zm3 0H9V1h1z"/></svg>