<svg xmlns="http://www.w3.org/2000/svg" viewBox="0 0 16 16"><circle cx="8" cy="8" r="7" fill="#93c5fd" fill-opacity=".4" fill-rule="evenodd"/><circle cx="8" cy="8" r="6.5" fill="none" stroke="#f8fafc" stroke-opacity="0.1"/><path fill="#93c5fd" fill-rule="evenodd" d="M7.76 8.13 8 8c2-1 3-2 3-3.75 0-1.68-1.84-3.13-3.31-3.24h.07L8 1a7 7 0 0 1 .28 14C6.38 14.89 5 13.43 5 11.75s.92-2.66 2.76-3.62M8.5 10a1.5 1.5 0 1 0 0 3 1.5 1.5 0 0 0 0-3"/><path fill="none" stroke="#f8fafc" stroke-opacity="0.1" d="M14.5 8a6.5 6.5 0 0 1-6.24 6.5c-1.55-.1-2.76-1.31-2.76-2.75 0-1.3.61-2.14 2.17-3l.32-.18.24-.12c2.28-1.15 3.27-2.32 3.27-4.2 0-.8-.36-1.57-.91-2.21A6.5 6.5 0 0 1 14.5 8Zm-8 3.5a2 2 0 1 0 4 0 2 2 0 0 0-4 0Z"/><circle cx="7.5" cy="4.5" r="1.5" fill="#93c5fd" fill-rule="evenodd"/><circle cx="7.5" cy="4.5" r="1" fill="none" stroke="#f8fafc" stroke-opacity="0.1"/></svg>