<svg xmlns="http://www.w3.org/2000/svg" viewBox="0 0 16 16"><path fill="#fde047" fill-opacity=".4" fill-rule="evenodd" d="M3.5 3h9A2.5 2.5 0 0 1 15 5.5v5a2.5 2.5 0 0 1-2.5 2.5h-9A2.5 2.5 0 0 1 1 10.5v-5A2.5 2.5 0 0 1 3.5 3"/><path fill="none" stroke="#f8fafc" stroke-opacity="0.1" d="M14.5 5.5v5a2 2 0 0 1-2 2h-9a2 2 0 0 1-2-2v-5a2 2 0 0 1 2-2h9a2 2 0 0 1 2 2Z"/><path fill="#fde047" fill-rule="evenodd" d="M7.73 6h-2.7a.25.25 0 0 1-.19-.41l2.09-2.5A.3.3 0 0 1 7.12 3h3.82l.11-.03 2.92-1.46c.24-.12.48.17.31.38l-6.2 7.7a.25.25 0 0 0 .2.41h2.69a.25.25 0 0 1 .19.41l-2.08 2.5a.3.3 0 0 1-.2.09H5.06l-.11.03-2.92 1.46c-.24.12-.48-.17-.31-.38l6.2-7.7a.25.25 0 0 0-.2-.41"/><path fill="none" stroke="#f8fafc" stroke-opacity="0.1" d="M7.69 9.28a.75.75 0 0 0 .58 1.22h2.16l-1.66 2H5.06a1 1 0 0 0-.34.08l-1.9.95 5.5-6.81a.75.75 0 0 0-.6-1.22H5.58l1.66-2h3.71a1 1 0 0 0 .34-.08l1.9-.95Z"/></svg>