<svg xmlns="http://www.w3.org/2000/svg" viewBox="0 0 16 16"><path fill="#fb7185" fill-opacity=".4" fill-rule="evenodd" d="M6 7v5.5a2.5 2.5 0 1 1-1-2V7z"/><path fill="none" stroke="#f8fafc" stroke-opacity="0.1" d="m4.7 10.9.8.6v1a2 2 0 1 1-.8-1.6Z"/><path fill="#fb7185" fill-opacity=".4" fill-rule="evenodd" d="M13 4.5v6a2.5 2.5 0 1 1-1-2v-4z"/><path fill="none" stroke="#f8fafc" stroke-opacity="0.1" d="m11.7 8.9.8.6v1a2 2 0 1 1-.8-1.6Z"/><path fill="#fb7185" fill-rule="evenodd" d="m5.97 3.14 5-1.88A1.5 1.5 0 0 1 13 2.66V4.5l-8 3V4.54a1.5 1.5 0 0 1 .97-1.4"/><path fill="none" stroke="#f8fafc" stroke-opacity="0.1" d="M12.5 2.67v1.48l-7 2.63V4.54a1 1 0 0 1 .65-.94l5-1.87a1 1 0 0 1 1.35.93Z"/></svg>