<svg xmlns="http://www.w3.org/2000/svg" xmlns:xlink="http://www.w3.org/1999/xlink" viewBox="0 0 16 16"><defs><path id="a" d="M6 4h1a.5.5 0 0 1 .5.5V5h-2v-.5A.5.5 0 0 1 6 4m-2 8h2v.5a.5.5 0 0 1-.5.5h-1a.5.5 0 0 1-.5-.5z"/><path id="b" d="M5.5 7.25c0-.03.18.09.82.3C7.46 7.93 8 8.61 8 9.75 8 11.07 6.97 12 5.5 12H4a1 1 0 0 1 0-2h1.5c.41 0 .5-.08.5-.25 0-.24.05-.18-.32-.3-1.44-.48-2.18-1-2.18-2.2C3.5 5.93 4.53 5 6 5h1.5a1 1 0 1 1 0 2H6c-.41 0-.5.08-.5.25m6 2.75a1 1 0 0 1 0 2h-2a1 1 0 0 1 0-2z"/></defs><path fill="#4ade80" fill-opacity=".4" fill-rule="evenodd" d="M5.23 2h7.68a3 3 0 0 1 2.9 3.73l-1.65 6.62a3.5 3.5 0 0 1-3.4 2.65H3.1a3 3 0 0 1-2.9-3.73l1.65-6.62A3.5 3.5 0 0 1 5.24 2"/><path fill="none" stroke="#f8fafc" stroke-opacity="0.1" d="m15.39 5.31-.06.3-1.65 6.62a3 3 0 0 1-2.91 2.27H3.09a2.5 2.5 0 0 1-2.42-3.1l1.65-6.63A3 3 0 0 1 5.23 2.5h7.68a2.5 2.5 0 0 1 2.48 2.81Z"/><use xlink:href="#a" fill="#4ade80" fill-rule="evenodd"/><use xlink:href="#a" fill="#f8fafc" fill-opacity="0.1" fill-rule="evenodd"/><use xlink:href="#b" fill="#4ade80" fill-rule="evenodd"/><use xlink:href="#b" fill="#f8fafc" fill-opacity="0.1" fill-rule="evenodd"/></svg>