<svg xmlns="http://www.w3.org/2000/svg" xmlns:xlink="http://www.w3.org/1999/xlink" viewBox="0 0 16 16"><defs><circle id="a" cx="5" cy="8" r="1"/><circle id="b" cx="11" cy="8" r="1"/><path id="c" d="M6.25 10h3.5c0 .5-.5 1.5-1.75 1.5s-1.75-1-1.75-1.5"/></defs><path fill="#e879f9" fill-opacity=".4" d="M16 8.6c0-2.2-1.37-4.13-3.48-5.28-.86-.47-1.53-.9-2.1-1.24C9.38 1.4 8.73 1 8 1s-1.56.52-2.64 1.2q-.92.6-1.88 1.12C1.37 4.47 0 6.41 0 8.6 0 12.13 3.58 15 8 15s8-2.87 8-6.4"/><path fill="none" stroke="#f8fafc" stroke-opacity="0.1" d="M10.16 2.5c.94.59 1.4.87 2.12 1.26 2.01 1.1 3.22 2.9 3.22 4.84 0 3.23-3.34 5.9-7.5 5.9S.5 11.83.5 8.6c0-1.95 1.2-3.74 3.22-4.84q.97-.54 1.9-1.14C7.03 1.75 7.53 1.5 8 1.5c.49 0 .87.19 2.16 1Z"/><use xlink:href="#a" fill="#94a3b8" fill-rule="evenodd"/><use xlink:href="#a" fill="#f8fafc" fill-opacity="0.1" fill-rule="evenodd"/><use xlink:href="#b" fill="#94a3b8" fill-rule="evenodd"/><use xlink:href="#b" fill="#f8fafc" fill-opacity="0.1" fill-rule="evenodd"/><use xlink:href="#c" fill="#e879f9" fill-rule="evenodd"/><use xlink:href="#c" fill="#f8fafc" fill-opacity="0.1" fill-rule="evenodd"/></svg>