<svg xmlns="http://www.w3.org/2000/svg" xmlns:xlink="http://www.w3.org/1999/xlink" viewBox="0 0 16 16"><defs><path id="a" d="m6.37 9.27.71.28a6 6 0 0 0-.08.95q0 .6.18 1.25l-2.05-.82a1 1 0 0 1-.61-.73l-.1-.5a1 1 0 0 1 1.95-.43M11 3a1 1 0 0 1 .56 1.83l-.57.38A5.5 5.5 0 0 0 7.59 8H6.5a1 1 0 0 1-.56-1.83L7.7 5H5a1 1 0 1 1 0-2z"/></defs><path fill="#fb7185" fill-rule="evenodd" d="M12.5 16q3.5-3.57 3.5-5.5a3.5 3.5 0 0 0-7 0q0 1.93 3.5 5.5"/><path fill="none" stroke="#f8fafc" stroke-opacity="0.1" d="M15.5 10.5q0 1.6-3 4.78c-2-2.1-3-3.73-3-4.78a3 3 0 0 1 6 0Z"/><path fill="#60a5fa" fill-opacity=".4" fill-rule="evenodd" d="M12.46 1a2.5 2.5 0 0 1 2.49 2.77l-.19 1.72A5.5 5.5 0 0 0 7 10.5c0 1.32.62 2.73 1.82 4.33a3 3 0 0 1-2.07-.15l-3.2-1.47a3 3 0 0 1-1.73-2.4l-.77-7.04A2.5 2.5 0 0 1 3.54 1z"/><path fill="#f8fafc" fill-opacity="0.1" fill-rule="evenodd" d="M12.46 1a2.5 2.5 0 0 1 2.49 2.77l-.19 1.72a6 6 0 0 0-.97-.34l.17-1.49V3.5a1.5 1.5 0 0 0-1.5-1.5H3.54a1.5 1.5 0 0 0-1.5 1.66l.77 7.04a2 2 0 0 0 1.15 1.6l3.2 1.47a2 2 0 0 0 1.04.17q.28.43.62.9a3 3 0 0 1-2.07-.16l-3.2-1.47a3 3 0 0 1-1.73-2.4l-.77-7.04A2.5 2.5 0 0 1 3.54 1z"/><use fill="#60a5fa" href="#a"/><use fill="#f8fafc" fill-opacity="0.1" href="#a"/></svg>