<svg xmlns="http://www.w3.org/2000/svg" xmlns:xlink="http://www.w3.org/1999/xlink" viewBox="0 0 16 16"><defs><path id="a" d="M11 5a2 2 0 0 1 2 2v4a2 2 0 0 1-2 2H5a2 2 0 0 1-2-2V7a2 2 0 0 1 2-2zm-2 5v1h2v-1zm-4 0v1h2v-1zm6-3H9v1h2zM5 8h2V7H5z"/></defs><path fill="#4ade80" fill-opacity=".4" fill-rule="evenodd" d="M4 1h1.5C8 1 8 3 9.5 3H12a3 3 0 0 1 3 3v6a3 3 0 0 1-3 3H4a3 3 0 0 1-3-3V4a3 3 0 0 1 3-3"/><path fill="none" stroke="#f8fafc" stroke-opacity="0.1" d="m7.52 2.35.36.37c.53.53.97.78 1.62.78H12A2.5 2.5 0 0 1 14.5 6v6a2.5 2.5 0 0 1-2.5 2.5H4A2.5 2.5 0 0 1 1.5 12V4A2.5 2.5 0 0 1 4 1.5h1.5c.92 0 1.42.25 2.02.85Z"/><use xlink:href="#a" fill="#4ade80" fill-rule="evenodd"/><use xlink:href="#a" fill="#f8fafc" fill-opacity="0.1" fill-rule="evenodd"/></svg>