<svg xmlns="http://www.w3.org/2000/svg" viewBox="0 0 16 16"><path fill="#94a3b8" fill-opacity=".4" fill-rule="evenodd" d="M3.5 13h9a.5.5 0 0 1 .5.5v1a.5.5 0 0 1-.5.5h-9a.5.5 0 0 1-.5-.5v-1a.5.5 0 0 1 .5-.5"/><path fill="#60a5fa" fill-rule="evenodd" d="M12 1a1 1 0 0 1 1 1v9a1 1 0 0 1-1 1h-1a1 1 0 0 1-.97-.78A4.5 4.5 0 1 1 10 3.76V2a1 1 0 0 1 1-1zM7.5 6a1.5 1.5 0 1 0 0 3 1.5 1.5 0 0 0 0-3"/><path fill="none" stroke="#f8fafc" stroke-opacity="0.1" d="M12.5 2v9a.5.5 0 0 1-.5.5h-1a.5.5 0 0 1-.49-.39l-.16-.71-.6.41a4 4 0 1 1-.03-6.64l.78.53V2a.5.5 0 0 1 .5-.5h1a.5.5 0 0 1 .5.5Zm-7 5.5a2 2 0 1 0 4 0 2 2 0 0 0-4 0Z"/></svg>