<svg xmlns="http://www.w3.org/2000/svg" viewBox="0 0 16 16"><path fill="#e879f9" fill-opacity=".4" fill-rule="evenodd" d="M1 12.25c0-3.98 1.4-6.56 3.04-7.73Q4.45 1 7.5 1c2.12.24 1.58 2.46 1.1 2.93q1.03.43 1.9 1.57.16.21.3.43Q11.56 5 13 5c1 0 2.25 1.25 2 2.5-.22 1.08-.99 1.97-2.97 2.52q-.13 1.3-1.28 2.48C9.1 14.15 7.5 15 4 15c-2.5 0-3-2.25-3-2.75"/><path fill="none" stroke="#f8fafc" stroke-opacity="0.1" d="M8.53 2.43c.04.44-.13.99-.29 1.14l-.54.53.7.3q.94.4 1.7 1.4l.3.41.37.56.43-.53q.58-.75 1.8-.74c.77 0 1.68 1.05 1.51 1.9-.2 1-.95 1.68-2.61 2.14l-.32.08-.04.33q-.14 1.19-1.14 2.2C8.67 13.87 7.1 14.5 4 14.5c-.94 0-1.6-.36-2.03-.97-.3-.44-.47-1-.47-1.28 0-3.5 1.13-6.1 2.83-7.33l.18-.12.03-.22C4.78 2.47 5.74 1.5 7.5 1.5c.66.08.97.4 1.02.93Z"/><path fill="#e879f9" fill-rule="evenodd" d="M6 9.5C6 9.25 6.25 8 7.5 8c2.25 0 3 1.25 3 2S10 11.5 9 11.5c-1.25 0-3-.5-3-2"/><path fill="none" stroke="#f8fafc" stroke-opacity="0.1" d="M10 10c0 .58-.37 1-1 1-1.41 0-2.5-.57-2.5-1.5 0-.44.36-1 1-1 1.64 0 2.5.74 2.5 1.5Z"/><path fill="#e879f9" fill-rule="evenodd" d="M1.5 7c0-1 1.5-1.5 3-1S6 7.5 6 8s-1 1-2 .75C2.56 8.39 1.5 8 1.5 7"/><path fill="none" stroke="#f8fafc" stroke-opacity="0.1" d="M4.34 6.47c.56.19.87.44 1.02.75.11.22.14.42.14.78 0 .14-.71.43-1.38.27C2.55 7.87 2 7.54 2 7c0-.56 1.12-.93 2.34-.53Z"/></svg>