<svg xmlns="http://www.w3.org/2000/svg" xmlns:xlink="http://www.w3.org/1999/xlink" viewBox="0 0 16 16"><defs><linearGradient id="a" x1="50%" x2="50%" y1="100%" y2="0%"><stop offset="0%" stop-color="#a78bfa" stop-opacity=".25"/><stop offset="25.19%" stop-color="#a78bfa" stop-opacity=".4"/><stop offset="50.24%" stop-color="#a78bfa" stop-opacity=".8"/><stop offset="100%" stop-color="#a78bfa"/></linearGradient></defs><path fill="url(#a)" d="M7.53 15C4.5 15 3 12.84 3 10.16c0-3.03 2.25-7.55 4.62-9.12a.2.2 0 0 1 .24 0 .2.2 0 0 1 .11.21 5.7 5.7 0 0 0 .98 3.8c.3.47.63.87 1.02 1.38.54.71.94 1.1 1.53 2.24v.02A4.33 4.33 0 0 1 7.53 15"/><path fill="none" stroke="#f8fafc" stroke-opacity="0.1" d="M8.54 5.34q.15.24.36.5c.13.19.61.81.67.89l.24.31.23.29a9 9 0 0 1 1.01 1.57l.01.02q.45.82.44 1.75c0 2.1-1.65 3.83-3.97 3.83-2.55 0-4.03-1.71-4.03-4.34 0-2.7 1.9-6.66 3.95-8.37a6 6 0 0 0 1.09 3.55ZM7.47 1.23Z"/></svg>