<svg xmlns="http://www.w3.org/2000/svg" xmlns:xlink="http://www.w3.org/1999/xlink" viewBox="0 0 16 16"><defs><path id="a" d="M11.75 7a.25.25 0 0 1 .25.25v.79q.76.11 1.39.51l.76-.76a.25.25 0 0 1 .36 0l.7.7a.25.25 0 0 1 0 .36l-.76.76q.4.62.51 1.39h.79a.25.25 0 0 1 .25.25v.5a.25.25 0 0 1-.25.25h-.78a3.5 3.5 0 0 1-.52 1.39l.76.76a.25.25 0 0 1 0 .35l-.7.71a.25.25 0 0 1-.36 0l-.76-.76a3.5 3.5 0 0 1-1.39.51v.79a.25.25 0 0 1-.25.25h-.5a.25.25 0 0 1-.25-.25v-.78a3.5 3.5 0 0 1-1.39-.52l-.76.76a.25.25 0 0 1-.35 0l-.71-.7a.25.25 0 0 1 0-.36l.76-.76A3.5 3.5 0 0 1 8.03 12h-.78a.25.25 0 0 1-.25-.25v-.5a.25.25 0 0 1 .25-.25h.79q.11-.76.51-1.39l-.76-.76a.25.25 0 0 1 0-.35l.7-.71a.25.25 0 0 1 .36 0l.76.76A3.5 3.5 0 0 1 11 8.03v-.78a.25.25 0 0 1 .25-.25z"/><path id="b" d="M9.5 3H12a3 3 0 0 1 3 2.82 2 2 0 0 0-1.03-.08A3 3 0 0 0 12 5H4a3 3 0 0 0-3 3V4a3 3 0 0 1 3-3h1.5C8 1 8 3 9.5 3"/></defs><use xlink:href="#a" fill="#a3e635" fill-rule="evenodd"/><use xlink:href="#a" fill="#f8fafc" fill-opacity="0.1" fill-rule="evenodd"/><use xlink:href="#b" fill="#a3e635" fill-opacity=".4" fill-rule="evenodd"/><use xlink:href="#b" fill="#f8fafc" fill-opacity="0.1" fill-rule="evenodd"/><path fill="#a3e635" fill-opacity=".8" fill-rule="evenodd" d="M4 5h7.25c-.72 0-1.36.34-1.77.87a2.3 2.3 0 0 0-2.4.5l-.7.71a2.3 2.3 0 0 0-.52 2.4A2.2 2.2 0 0 0 5 11.25v.5c0 .72.34 1.36.87 1.77A2.3 2.3 0 0 0 5.82 15H4a3 3 0 0 1-3-3V8a3 3 0 0 1 3-3m8 0a3 3 0 0 1 1.98.74l-.3.07-.16.06A2.2 2.2 0 0 0 11.75 5z"/><path fill="#f8fafc" fill-opacity="0.1" fill-rule="evenodd" d="M4 5h7.25c-.72 0-1.36.34-1.77.87a2.3 2.3 0 0 0-1.9.13H4a2 2 0 0 0-2 2v4a2 2 0 0 0 2 2h1.74q-.07.5.08 1H4a3 3 0 0 1-3-3V8a3 3 0 0 1 3-3m8 0a3 3 0 0 1 1.98.74l-.3.07-.16.06A2.2 2.2 0 0 0 11.75 5z"/></svg>