<svg xmlns="http://www.w3.org/2000/svg" xmlns:xlink="http://www.w3.org/1999/xlink" viewBox="0 0 16 16"><defs><path id="a" d="M11.5 7a.5.5 0 0 1 .5.5V16H7.5a.5.5 0 0 1-.5-.5v-8a.5.5 0 0 1 .5-.5zM8 12v1h1v-1zm3 0h-1v1h1zm-3-2v1h1v-1zm2 0v1h1v-1zM8 8v1h1V8zm2 0v1h1V8z"/><path id="b" d="M15.75 9a.25.25 0 0 1 .25.25v6.5a.25.25 0 0 1-.25.25H12v-3h1v-1h-1v-1h1v-1h-1V9zM15 12h-1v1h1zm-1-2v1h1v-1z"/><path id="c" d="M9.5 3H13a2 2 0 0 1 2 2H1V4a3 3 0 0 1 3-3h1.5C8 1 8 3 9.5 3"/></defs><use xlink:href="#a" fill="#60a5fa" fill-rule="evenodd"/><use xlink:href="#a" fill="#f8fafc" fill-opacity="0.1" fill-rule="evenodd"/><use xlink:href="#b" fill="#4ade80" fill-rule="evenodd"/><use xlink:href="#b" fill="#f8fafc" fill-opacity="0.1" fill-rule="evenodd"/><use xlink:href="#c" fill="#60a5fa" fill-opacity=".4" fill-rule="evenodd"/><use xlink:href="#c" fill="#f8fafc" fill-opacity="0.1" fill-rule="evenodd"/><path fill="#60a5fa" fill-opacity=".8" fill-rule="evenodd" d="M5 7.5V15H3.9a3 3 0 0 1-2.92-2.35L.04 8.44 0 8.16v-.32A2 2 0 0 1 2 6h3.5A2.5 2.5 0 0 0 5 7.5M14 6a2 2 0 0 1 1.74 1h-1.8a2.5 2.5 0 0 0-.44-1z"/><path fill="#f8fafc" fill-opacity="0.1" fill-rule="evenodd" d="M5.05 7H1.99a1 1 0 0 0-.97 1.22l.93 4.21A2 2 0 0 0 3.91 14H5v1H3.9a3 3 0 0 1-2.92-2.35L.04 8.44 0 8.16v-.32A2 2 0 0 1 2 6h3.5q-.33.44-.45 1m8.96-1a2 2 0 0 1 1.73 1h-1.8a2.5 2.5 0 0 0-.44-1z"/></svg>