<svg xmlns="http://www.w3.org/2000/svg" xmlns:xlink="http://www.w3.org/1999/xlink" viewBox="0 0 16 16"><defs><path id="a" d="m11.69 7.25 3.06 2.57a3.5 3.5 0 1 1-5.43 4.14l-.54.64a1 1 0 0 1-1.53-1.29L9.19 11H8a1 1 0 0 1 0-2h2.66l-.26-.22a1 1 0 0 1 1.29-1.53M12.5 11a1.5 1.5 0 1 0 0 3 1.5 1.5 0 0 0 0-3"/><path id="b" d="M9.5 3H12a3 3 0 0 1 3 3v1.42l-.07-.06A3 3 0 0 0 12 5H4a3 3 0 0 0-3 3V4a3 3 0 0 1 3-3h1.5C8 1 8 3 9.5 3"/></defs><use xlink:href="#a" fill="#fb923c" fill-rule="evenodd"/><use xlink:href="#a" fill="#f8fafc" fill-opacity="0.1" fill-rule="evenodd"/><use xlink:href="#b" fill="#fb923c" fill-opacity=".4" fill-rule="evenodd"/><use xlink:href="#b" fill="#f8fafc" fill-opacity="0.1" fill-rule="evenodd"/><path fill="#fb923c" fill-opacity=".8" fill-rule="evenodd" d="M12 5a3 3 0 0 1 2.93 2.36l-1.96-1.64a3 3 0 0 0-4.1.22l-.12.15q-.36.42-.53.91H8a3 3 0 0 0-3 3c0 .76.28 1.46.75 1.98l-.03.05A3 3 0 0 0 5.2 15H4a3 3 0 0 1-3-3V8a3 3 0 0 1 3-3z"/><path fill="#f8fafc" fill-opacity="0.1" fill-rule="evenodd" d="M12 5a3 3 0 0 1 2.93 2.36l-1.96-1.64a3 3 0 0 0-4.1.22L8.82 6H4a2 2 0 0 0-2 2v4a2 2 0 0 0 2 2h1.01a3 3 0 0 0 .2 1H4a3 3 0 0 1-3-3V8a3 3 0 0 1 3-3z"/></svg>