<svg xmlns="http://www.w3.org/2000/svg" xmlns:xlink="http://www.w3.org/1999/xlink" viewBox="0 0 16 16"><defs><path id="a" d="M10 12v1h4.51a1.5 1.5 0 1 1-1.42 1h-2.17q.08.24.08.5a1.5 1.5 0 1 1-2-1.41V8H7.5a.5.5 0 0 1 0-1h2a.5.5 0 0 1 .5.5V8h5.64a.25.25 0 0 1 .23.34l-1.19 3.17a.8.8 0 0 1-.7.49z"/><path id="b" d="M9.5 3H12a3 3 0 0 1 3 3h-.76A3 3 0 0 0 12 5H4a3 3 0 0 0-3 3V4a3 3 0 0 1 3-3h1.5C8 1 8 3 9.5 3"/></defs><use xlink:href="#a" fill="#facc15" fill-rule="evenodd"/><use xlink:href="#a" fill="#f8fafc" fill-opacity="0.1" fill-rule="evenodd"/><use xlink:href="#b" fill="#facc15" fill-opacity=".4" fill-rule="evenodd"/><use xlink:href="#b" fill="#f8fafc" fill-opacity="0.1" fill-rule="evenodd"/><path fill="#facc15" fill-opacity=".8" fill-rule="evenodd" d="M4 5h3.5A2.5 2.5 0 0 0 7 9.95v2.1A3.5 3.5 0 0 0 6.04 15H4a3 3 0 0 1-3-3V8a3 3 0 0 1 3-3m8 0c.89 0 1.69.39 2.24 1H11.5c-.46-.6-1.18-1-2-1z"/><path fill="#f8fafc" fill-opacity="0.1" fill-rule="evenodd" d="M4 5h3.5c-.82 0-1.54.4-2 1H4a2 2 0 0 0-2 2v4a2 2 0 0 0 2 2h2.04a4 4 0 0 0 0 1H4a3 3 0 0 1-3-3V8a3 3 0 0 1 3-3m10.24 1H11.5c-.46-.6-1.18-1-2-1H12c.89 0 1.69.39 2.24 1"/></svg>