<svg xmlns="http://www.w3.org/2000/svg" xmlns:xlink="http://www.w3.org/1999/xlink" viewBox="0 0 16 16"><defs><path id="a" d="M12 8v1h-1v6h1v1H9v-1h1v-1H8.5A1.5 1.5 0 0 1 7 12.5v-1A1.5 1.5 0 0 1 8.5 10H10V9H9V8zm2.5 2a1.5 1.5 0 0 1 1.5 1.5v1a1.5 1.5 0 0 1-1.5 1.5H12v-1h2.5a.5.5 0 0 0 .5-.5v-1a.5.5 0 0 0-.5-.5H12v-1zM10 11H8.5a.5.5 0 0 0-.5.5v1a.5.5 0 0 0 .5.5H10z"/><path id="b" d="M9.5 3H12a3 3 0 0 1 3 3v2a3 3 0 0 0-3-3H4a3 3 0 0 0-3 3V4a3 3 0 0 1 3-3h1.5C8 1 8 3 9.5 3"/></defs><use xlink:href="#a" fill="#94a3b8" fill-rule="evenodd"/><use xlink:href="#a" fill="#f8fafc" fill-opacity="0.1" fill-rule="evenodd"/><use xlink:href="#b" fill="#94a3b8" fill-opacity=".4" fill-rule="evenodd"/><use xlink:href="#b" fill="#f8fafc" fill-opacity="0.1" fill-rule="evenodd"/><path fill="#94a3b8" fill-opacity=".8" fill-rule="evenodd" d="M15 7.82v.22L14.5 8H14a2 2 0 0 0-2-2H9a2 2 0 0 0-2 2v.34a3.5 3.5 0 0 0-2 3.16v1c0 .98.4 1.87 1.05 2.5H4a3 3 0 0 1-3-3V8a3 3 0 0 1 3-3h8a3 3 0 0 1 3 2.82"/><path fill="#f8fafc" fill-opacity="0.1" fill-rule="evenodd" d="M15 7.82v.22L14.5 8H14a2 2 0 0 0-1.85-2H4a2 2 0 0 0-2 2v4a2 2 0 0 0 2 2h1.34q.27.57.71 1H4a3 3 0 0 1-3-3V8a3 3 0 0 1 3-3h8a3 3 0 0 1 3 2.82"/></svg>