<svg xmlns="http://www.w3.org/2000/svg" xmlns:xlink="http://www.w3.org/1999/xlink" viewBox="0 0 16 16"><defs><path id="a" d="M11.91 14.53q.77.72 1.77 1.1a4 4 0 0 1-3.17.08 3 3 0 0 0 1.4-1.18m-1.81-4.34v-.16a3 3 0 0 1 2.26 3.01 3 3 0 0 1-.45 1.49 5.6 5.6 0 0 1-1.82-4.34"/><path id="b" d="M11.9 14.53a5.6 5.6 0 0 1-1.8-4.5 3 3 0 0 0-1.57.02A4 4 0 0 0 8 11.88a4 4 0 0 0 2.5 3.84 3 3 0 0 0 1.4-1.19"/><path id="c" d="M12.21 6a5.6 5.6 0 0 0-1.73 2.34 6 6 0 0 0-.38 1.7 3 3 0 0 1 2.26 3 3 3 0 0 1-.45 1.49 6 6 0 0 0 1.77 1.1A4 4 0 0 0 16 12.16c.03-1-.35-1.9-.9-2.66-.58-.8-2.9-3.5-2.9-3.5z"/><path id="d" d="M9.5 3H13a2 2 0 0 1 2 2h-1.01l-.18-.21-.07-.08a2 2 0 0 0-2.77-.28 8 8 0 0 0-.64.57H1V4a3 3 0 0 1 3-3h1.5C8 1 8 3 9.5 3"/></defs><use xlink:href="#a" fill="#fb923c"/><use xlink:href="#a" fill="#f8fafc" fill-opacity="0.1"/><use xlink:href="#b" fill="#facc15"/><use xlink:href="#b" fill="#f8fafc" fill-opacity="0.1"/><use xlink:href="#c" fill="#fb7185"/><use xlink:href="#c" fill="#f8fafc" fill-opacity="0.1"/><use xlink:href="#d" fill="#fb923c" fill-opacity=".4" fill-rule="evenodd"/><use xlink:href="#d" fill="#f8fafc" fill-opacity="0.1" fill-rule="evenodd"/><path fill="#fb923c" fill-opacity=".8" fill-rule="evenodd" d="m8.62 7.6-.15.42-.48.1a2 2 0 0 0-1.2.94 6 6 0 0 0 0 5.94H3.92a3 3 0 0 1-2.93-2.35L.04 8.44 0 8.16v-.32A2 2 0 0 1 2 6h7.49a8 8 0 0 0-.87 1.6"/><path fill="#f8fafc" fill-opacity="0.1" fill-rule="evenodd" d="M9.07 6.66 8.89 7h-6.9a1 1 0 0 0-.97 1.22l.93 4.21A2 2 0 0 0 3.91 14h2.43q.18.52.46 1H3.9a3 3 0 0 1-2.92-2.35L.04 8.44 0 8.16v-.32A2 2 0 0 1 2 6h7.49q-.23.32-.42.66"/></svg>