<svg xmlns="http://www.w3.org/2000/svg" xmlns:xlink="http://www.w3.org/1999/xlink" viewBox="0 0 16 16"><defs><path id="a" d="M8.5 8h3a.5.5 0 0 1 .5.5v1a.5.5 0 0 1-.5.5h-3a.5.5 0 0 1-.5-.5v-1a.5.5 0 0 1 .5-.5m5 0h2a.5.5 0 0 1 .5.5v1a.5.5 0 0 1-.5.5h-2a.5.5 0 0 1-.5-.5v-1a.5.5 0 0 1 .5-.5m-5 3h2a.5.5 0 0 1 .5.5v1a.5.5 0 0 1-.5.5h-2a.5.5 0 0 1-.5-.5v-1a.5.5 0 0 1 .5-.5m4 0h3a.5.5 0 0 1 .5.5v1a.5.5 0 0 1-.5.5h-3a.5.5 0 0 1-.5-.5v-1a.5.5 0 0 1 .5-.5m-1 3h4a.5.5 0 0 1 .5.5v1a.5.5 0 0 1-.5.5h-4a.5.5 0 0 1-.5-.5v-1a.5.5 0 0 1 .5-.5m-3 0h1a.5.5 0 0 1 .5.5v1a.5.5 0 0 1-.5.5h-1a.5.5 0 0 1-.5-.5v-1a.5.5 0 0 1 .5-.5"/><path id="b" d="M9.5 3H13a2 2 0 0 1 2 2H1V4a3 3 0 0 1 3-3h1.5C8 1 8 3 9.5 3"/></defs><use xlink:href="#a" fill="#fb7185" fill-rule="evenodd"/><use xlink:href="#a" fill="#f8fafc" fill-opacity="0.1" fill-rule="evenodd"/><use xlink:href="#b" fill="#fb7185" fill-opacity=".4" fill-rule="evenodd"/><use xlink:href="#b" fill="#f8fafc" fill-opacity="0.1" fill-rule="evenodd"/><path fill="#fb7185" fill-opacity=".8" fill-rule="evenodd" d="M2 6h6.5A2.5 2.5 0 0 0 6 8.5v1q0 .54.21 1-.21.46-.21 1v1q0 .54.21 1-.21.46-.21 1v.5H3.9a3 3 0 0 1-2.92-2.35L.04 8.44 0 8.16v-.32A2 2 0 0 1 2 6m9.52 0h1.98q-.54 0-1 .21-.45-.2-.98-.21"/><path fill="#f8fafc" fill-opacity="0.1" fill-rule="evenodd" d="M2 6h6.5c-.82 0-1.54.4-2 1H2a1 1 0 0 0-.98 1.22l.93 4.21A2 2 0 0 0 3.91 14h2.14q-.05.24-.05.5v.5H3.9a3 3 0 0 1-2.92-2.35L.04 8.44 0 8.16v-.32A2 2 0 0 1 2 6m9.52 0h1.98q-.54 0-1 .21-.45-.2-.98-.21"/></svg>