<svg xmlns="http://www.w3.org/2000/svg" xmlns:xlink="http://www.w3.org/1999/xlink" viewBox="0 0 16 16"><defs><path id="a" d="M8.5 9h5a1.5 1.5 0 0 1 1.5 1.5v.5a1 1 0 0 1 0 2h-.3c-.51 1.47-1.6 3-2.45 3h-2.5C8.58 16 7 13.32 7 11.5v-1A1.5 1.5 0 0 1 8.5 9m1.63-1.26-.13.01V8a.5.5 0 0 1-1 0c0-.74.34-1.25 1-1.25V6.5a.5.5 0 1 1 1 0c0 .7-.3 1.18-.87 1.24m3 0-.13.01V8a.5.5 0 1 1-1 0c0-.74.34-1.25 1-1.25V6.5a.5.5 0 1 1 1 0c0 .7-.3 1.18-.87 1.24"/><path id="b" d="M9.5 3H12a3 3 0 0 1 2.37 1.15A2.5 2.5 0 0 0 12 4.5a2.5 2.5 0 0 0-3.5.5H4a3 3 0 0 0-3 3V4a3 3 0 0 1 3-3h1.5C8 1 8 3 9.5 3"/></defs><use xlink:href="#a" fill="#fb7185" fill-rule="evenodd"/><use xlink:href="#a" fill="#f8fafc" fill-opacity="0.1" fill-rule="evenodd"/><use xlink:href="#b" fill="#fb7185" fill-opacity=".4" fill-rule="evenodd"/><use xlink:href="#b" fill="#f8fafc" fill-opacity="0.1" fill-rule="evenodd"/><path fill="#fb7185" fill-opacity=".8" fill-rule="evenodd" d="M8.34 5.24a3 3 0 0 0-.68.64q-.48.65-.6 1.43A3.5 3.5 0 0 0 5 10.5v1c0 1.12.37 2.38.96 3.5H4a3 3 0 0 1-3-3V8a3 3 0 0 1 3-3h4.5z"/><path fill="#f8fafc" fill-opacity="0.1" fill-rule="evenodd" d="M8.34 5.24a3 3 0 0 0-.68.64L7.58 6H4a2 2 0 0 0-2 2v4a2 2 0 0 0 2 2h1.5q.2.51.46 1H4a3 3 0 0 1-3-3V8a3 3 0 0 1 3-3h4.5z"/></svg>