<svg xmlns="http://www.w3.org/2000/svg" xmlns:xlink="http://www.w3.org/1999/xlink" viewBox="0 0 16 16"><defs><path id="a" d="M13.91 15a1.5 1.5 0 0 1-2.82 0zM12.5 7a.5.5 0 0 1 .5.5v.55a2.5 2.5 0 0 1 2 2.45V13h.5a.5.5 0 0 1 0 1h-6a.5.5 0 1 1 0-1h.5v-2.5a2.5 2.5 0 0 1 2-2.45V7.5a.5.5 0 0 1 .5-.5"/><path id="b" d="M9.5 3H13a2 2 0 0 1 2 2H1V4a3 3 0 0 1 3-3h1.5C8 1 8 3 9.5 3"/></defs><use xlink:href="#a" fill="#facc15" fill-rule="evenodd"/><use xlink:href="#a" fill="#f8fafc" fill-opacity="0.1" fill-rule="evenodd"/><use xlink:href="#b" fill="#facc15" fill-opacity=".4" fill-rule="evenodd"/><use xlink:href="#b" fill="#f8fafc" fill-opacity="0.1" fill-rule="evenodd"/><path fill="#facc15" fill-opacity=".8" fill-rule="evenodd" d="M10.15 6.67A4.5 4.5 0 0 0 8 10.5v1a2.5 2.5 0 0 0-.5 3.5H3.9a3 3 0 0 1-2.92-2.35L.04 8.44 0 8.16v-.32A2 2 0 0 1 2 6h8.5q-.22.3-.35.67m4.4-.6.02.01a2 2 0 0 1 1.4 1.56l.03.03a5 5 0 0 0-1.15-1 3 3 0 0 0-.3-.6"/><path fill="#f8fafc" fill-opacity="0.1" fill-rule="evenodd" d="M10.15 6.67 9.67 7H2a1 1 0 0 0-.97 1.22l.93 4.21A2 2 0 0 0 3.91 14h3.14q.12.56.45 1H3.9a3 3 0 0 1-2.92-2.35L.04 8.44 0 8.16v-.32A2 2 0 0 1 2 6h8.5q-.22.3-.35.67m4.4-.6.02.01a2 2 0 0 1 1.4 1.56l.03.03a5 5 0 0 0-1.15-1 3 3 0 0 0-.3-.6"/></svg>