<svg xmlns="http://www.w3.org/2000/svg" xmlns:xlink="http://www.w3.org/1999/xlink" viewBox="0 0 16 16"><defs><path id="a" d="M7.64 12h7.72a.5.5 0 0 1 .49.62l-.66 2.62a1 1 0 0 1-.97.76H8.78a1 1 0 0 1-.97-.76l-.65-2.62a.5.5 0 0 1 .48-.62m.86-2h6a.5.5 0 1 1 0 1h-6a.5.5 0 1 1 0-1m1-2h4a.5.5 0 1 1 0 1h-4a.5.5 0 0 1 0-1"/><path id="b" d="M9.5 3H13a2 2 0 0 1 2 2H1V4a3 3 0 0 1 3-3h1.5C8 1 8 3 9.5 3"/></defs><use xlink:href="#a" fill="#facc15" fill-rule="evenodd"/><use xlink:href="#a" fill="#f8fafc" fill-opacity="0.1" fill-rule="evenodd"/><use xlink:href="#b" fill="#facc15" fill-opacity=".4" fill-rule="evenodd"/><use xlink:href="#b" fill="#f8fafc" fill-opacity="0.1" fill-rule="evenodd"/><path fill="#facc15" fill-opacity=".8" fill-rule="evenodd" d="M6 10.5v.11a2.5 2.5 0 0 0-.78 2.5L5.69 15H3.9a3 3 0 0 1-2.93-2.35L.04 8.44 0 8.16v-.32A2 2 0 0 1 2 6h7.5A2.5 2.5 0 0 0 7 8.5c-.6.46-1 1.18-1 2m10-2.67v.33l-.01.1A2.5 2.5 0 0 0 13.53 6H14a2 2 0 0 1 2 1.83"/><path fill="#f8fafc" fill-opacity="0.1" fill-rule="evenodd" d="M2 6h7.5c-.82 0-1.54.4-2 1H2a1 1 0 0 0-.98 1.22l.93 4.21A2 2 0 0 0 3.91 14h1.53l.25 1H3.9a3 3 0 0 1-2.93-2.35L.04 8.44 0 8.16v-.32A2 2 0 0 1 2 6m14 1.83v.33l-.01.1A2.5 2.5 0 0 0 13.53 6H14a2 2 0 0 1 2 1.83"/></svg>