<svg xmlns="http://www.w3.org/2000/svg" xmlns:xlink="http://www.w3.org/1999/xlink" viewBox="0 0 16 16"><defs><path id="a" d="M7.64 12h7.72a.5.5 0 0 1 .49.62l-.66 2.62a1 1 0 0 1-.97.76H8.78a1 1 0 0 1-.97-.76l-.65-2.62a.5.5 0 0 1 .48-.62m.86-2h6a.5.5 0 1 1 0 1h-6a.5.5 0 1 1 0-1m1-2h4a.5.5 0 1 1 0 1h-4a.5.5 0 0 1 0-1"/><path id="b" d="M9.5 3H12a3 3 0 0 1 3 3v.5a3 3 0 0 0-.64-.35A3 3 0 0 0 12 5H4a3 3 0 0 0-3 3V4a3 3 0 0 1 3-3h1.5C8 1 8 3 9.5 3"/></defs><use xlink:href="#a" fill="#facc15" fill-rule="evenodd"/><use xlink:href="#a" fill="#f8fafc" fill-opacity="0.1" fill-rule="evenodd"/><use xlink:href="#b" fill="#facc15" fill-opacity=".4" fill-rule="evenodd"/><use xlink:href="#b" fill="#f8fafc" fill-opacity="0.1" fill-rule="evenodd"/><path fill="#facc15" fill-opacity=".8" fill-rule="evenodd" d="M12 5a3 3 0 0 1 2.37 1.15Q13.96 6 13.5 6h-4A2.5 2.5 0 0 0 7 8.5c-.6.46-1 1.18-1 2v.11a2.5 2.5 0 0 0-.78 2.5L5.69 15H4a3 3 0 0 1-3-3V8a3 3 0 0 1 3-3z"/><path fill="#f8fafc" fill-opacity="0.1" fill-rule="evenodd" d="M13.5 6H4a2 2 0 0 0-2 2v4a2 2 0 0 0 2 2h1.44l.25 1H4a3 3 0 0 1-3-3V8a3 3 0 0 1 3-3h8a3 3 0 0 1 2.37 1.15Q13.96 6 13.5 6"/></svg>