<svg xmlns="http://www.w3.org/2000/svg" xmlns:xlink="http://www.w3.org/1999/xlink" viewBox="0 0 16 16"><defs><path id="b" d="M9.5 3H12a3 3 0 0 1 3 3v2a3 3 0 0 0-3-3H4a3 3 0 0 0-3 3V4a3 3 0 0 1 3-3h1.5C8 1 8 3 9.5 3"/><path id="a" d="M12.57 8.2q.19 1.04-.12 2.14l-.05.17.52.8q.94-.14 1.6-.03.66.1 1.07.5c.38.37.5.9.35 1.41-.13.48-.48.78-.92.93a3.2 3.2 0 0 1-2.87-.63q-.58.15-1.14.34a6 6 0 0 1-1.74 1.9c-.64.45-1.67.35-2.1-.4a1.4 1.4 0 0 1 0-1.36q.22-.42.57-.7a8 8 0 0 1 1.86-1.04q.15-.3.28-.63l.06-.16.28-.72a5 5 0 0 1-.54-1.55q-.09-.55.03-1.03c.16-.63.65-1.09 1.36-1.14.66-.05 1.37.53 1.5 1.2"/></defs><use fill="#fb7185" href="#a"/><use fill="#f8fafc" fill-opacity="0.1" href="#a"/><use xlink:href="#b" fill="#fb7185" fill-opacity=".4" fill-rule="evenodd"/><use xlink:href="#b" fill="#f8fafc" fill-opacity="0.1" fill-rule="evenodd"/><path fill="#fb7185" fill-opacity=".8" fill-rule="evenodd" d="M15 8v1.33l-.15-.03-.22-.03q.03-.71-.1-1.43a3.5 3.5 0 0 0-3.6-2.83 3.5 3.5 0 0 0-3.16 2.64c-.15.6-.16 1.15-.07 1.8q.1.64.34 1.3a9 9 0 0 0-1.55.96 4 4 0 0 0-1.1 1.37A3.5 3.5 0 0 0 5 15H4a3 3 0 0 1-3-3V8a3 3 0 0 1 3-3h8a3 3 0 0 1 3 3"/><path fill="#f8fafc" fill-opacity="0.1" fill-rule="evenodd" d="M15 8v1.33l-.15-.03-.22-.03q.03-.71-.1-1.43a3.5 3.5 0 0 0-3.6-2.83A3.5 3.5 0 0 0 8.7 6H4a2 2 0 0 0-2 2v4a2 2 0 0 0 2 2h1.06q-.1.5-.05 1H4a3 3 0 0 1-3-3V8a3 3 0 0 1 3-3h8a3 3 0 0 1 3 3"/></svg>