<svg xmlns="http://www.w3.org/2000/svg" xmlns:xlink="http://www.w3.org/1999/xlink" viewBox="0 0 16 16"><defs><path id="a" d="m14 14-.93 1.86a.3.3 0 0 1-.22.14h-1.43a1 1 0 0 1-.71-.3L7.4 12.4a1 1 0 0 1-.26-.95L8 8z"/><path id="b" d="m14 14 1.86-.93a.3.3 0 0 0 .14-.22v-1.43a1 1 0 0 0-.3-.71L12.4 7.4a1 1 0 0 0-.95-.26L8 8z"/><path id="c" d="M9.5 3H13a2 2 0 0 1 2 2H1V4a3 3 0 0 1 3-3h1.5C8 1 8 3 9.5 3"/></defs><use xlink:href="#a" fill="#2dd4bf" fill-rule="evenodd"/><use xlink:href="#a" fill="#f8fafc" fill-opacity="0.1" fill-rule="evenodd"/><use xlink:href="#b" fill="#60a5fa" fill-rule="evenodd"/><use xlink:href="#b" fill="#f8fafc" fill-opacity="0.1" fill-rule="evenodd"/><use xlink:href="#c" fill="#2dd4bf" fill-opacity=".4" fill-rule="evenodd"/><use xlink:href="#c" fill="#f8fafc" fill-opacity="0.1" fill-rule="evenodd"/><path fill="#2dd4bf" fill-opacity=".8" fill-rule="evenodd" d="m7.75 6-.23.06a2 2 0 0 0-1.46 1.46l-.86 3.45a3 3 0 0 0 .79 2.84L7.17 15H3.91a3 3 0 0 1-2.93-2.35L.04 8.44 0 8.16v-.32A2 2 0 0 1 2 6zm6.26 0a2 2 0 0 1 2 1.83v.33L13.82 6z"/><path fill="#f8fafc" fill-opacity="0.1" fill-rule="evenodd" d="m7.75 6-.23.06A2 2 0 0 0 6.27 7H1.99a1 1 0 0 0-.97 1.22l.93 4.21A2 2 0 0 0 3.91 14h2.26l1 1H3.91a3 3 0 0 1-2.93-2.35L.04 8.44 0 8.16v-.32A2 2 0 0 1 2 6zm6.26 0a2 2 0 0 1 2 1.83v.33L13.82 6z"/></svg>