<svg xmlns="http://www.w3.org/2000/svg" xmlns:xlink="http://www.w3.org/1999/xlink" viewBox="0 0 16 16"><defs><path id="a" d="M11.59 7q.9 0 1.7.31.8.3 1.4.86.6.54.96 1.29.35.75.35 1.61 0 1.3-.79 1.99-.79.7-1.91.69h-.83q-.1 0-.14.06a.2.2 0 0 0-.04.12q0 .14.17.39.16.25.16.58 0 .56-.3.83-.31.27-.82.27a4 4 0 0 1-1.74-.35 5 5 0 0 1-1.44-.97 5 5 0 0 1-.97-1.44A4 4 0 0 1 7 11.5q0-.93.37-1.75a5 5 0 0 1 .99-1.43 5 5 0 0 1 1.45-.96A5 5 0 0 1 11.6 7M9 10a1 1 0 1 0 0 2 1 1 0 0 0 0-2m5 0a1 1 0 1 0 0 2 1 1 0 0 0 0-2m-2.5-2a1 1 0 1 0 0 2 1 1 0 0 0 0-2"/><path id="b" d="M9.5 3H13a2 2 0 0 1 2 2H1V4a3 3 0 0 1 3-3h1.5C8 1 8 3 9.5 3"/></defs><use xlink:href="#a" fill="#a78bfa"/><use xlink:href="#a" fill="#f8fafc" fill-opacity="0.1"/><use xlink:href="#b" fill="#a78bfa" fill-opacity=".4" fill-rule="evenodd"/><use xlink:href="#b" fill="#f8fafc" fill-opacity="0.1" fill-rule="evenodd"/><path fill="#a78bfa" fill-opacity=".8" fill-rule="evenodd" d="M6.96 6.88a7 7 0 0 0-1.42 2.05 6.4 6.4 0 0 0-.02 5.1q.22.51.51.97H3.91a3 3 0 0 1-2.93-2.35L.04 8.44 0 8.16v-.33A2 2 0 0 1 2 6h6.1a7 7 0 0 0-1.14.88"/><path fill="#f8fafc" fill-opacity="0.1" fill-rule="evenodd" d="M3.9 14h1.6l.02.04q.22.5.51.96H3.91a3 3 0 0 1-2.93-2.35L.04 8.44 0 8.16v-.33A2 2 0 0 1 2 6h6.1a7 7 0 0 0-1.14.88L6.84 7H2a1 1 0 0 0-.97 1.22l.93 4.21A2 2 0 0 0 3.91 14"/></svg>