<svg xmlns="http://www.w3.org/2000/svg" xmlns:xlink="http://www.w3.org/1999/xlink" viewBox="0 0 16 16"><defs><path id="a" d="M14.5 7a1.5 1.5 0 1 1-1 2.62L10.94 11a2 2 0 0 1 0 .98l2.56 1.4a1.5 1.5 0 1 1-.48.87l-2.56-1.4a2 2 0 1 1 0-2.73l2.56-1.4A1.5 1.5 0 0 1 14.5 7"/><path id="b" d="M9.5 3H12a3 3 0 0 1 2.84 2.02 3.5 3.5 0 0 0-1.64.23A3 3 0 0 0 12 5H4a3 3 0 0 0-3 3V4a3 3 0 0 1 3-3h1.5C8 1 8 3 9.5 3"/></defs><use xlink:href="#a" fill="#60a5fa" fill-rule="evenodd"/><use xlink:href="#a" fill="#f8fafc" fill-opacity="0.1" fill-rule="evenodd"/><use xlink:href="#b" fill="#60a5fa" fill-opacity=".4" fill-rule="evenodd"/><use xlink:href="#b" fill="#f8fafc" fill-opacity="0.1" fill-rule="evenodd"/><path fill="#60a5fa" fill-opacity=".8" fill-rule="evenodd" d="M12 5a3 3 0 0 1 1.2.25 3.5 3.5 0 0 0-2.05 2.23l-.6.33a4 4 0 0 0-3.48 7.2L4 15a3 3 0 0 1-3-3V8a3 3 0 0 1 3-3z"/><path fill="#f8fafc" fill-opacity="0.1" fill-rule="evenodd" d="M12.05 6H4a2 2 0 0 0-2 2v4a2 2 0 0 0 2 2h1.88q.49.61 1.19 1H4a3 3 0 0 1-3-3V8a3 3 0 0 1 3-3h8a3 3 0 0 1 1.2.25q-.65.26-1.15.75"/></svg>