<svg xmlns="http://www.w3.org/2000/svg" xmlns:xlink="http://www.w3.org/1999/xlink" viewBox="0 0 16 16"><defs><path id="a" d="M12 14.75v1q-.5.25-1 .25t-1-.25v-1Q11.5 14 11.75 13 13 13 13 14q-.25.25-1 .75m2.57-2.06.86.5a2 2 0 0 1-.28 1 2 2 0 0 1-.72.73l-.87-.5q.1-1.67-.64-2.39.63-1.08 1.5-.58.08.34.14 1.24m-5.63.87-.86.5a2 2 0 0 1-.72-.74 2 2 0 0 1-.28-1l.86-.5q1.4.93 2.4.65.62 1.08-.25 1.58-.34-.1-1.15-.5m2.57-2.8a.75.75 0 1 1 0 1.5.75.75 0 0 1 0-1.5m-3.06-.44-.87-.5q.03-.56.28-1t.72-.73l.87.5q-.1 1.67.64 2.39-.63 1.08-1.5.58-.08-.34-.14-1.24m5.63-.87.86-.5q.47.3.72.74t.28 1l-.86.5q-1.4-.93-2.4-.65-.62-1.08.25-1.58.34.1 1.15.5M11 8.24v-1Q11.5 7 12 7t1 .25v1Q11.5 9 11.25 10 10 10 10 9q.25-.25 1-.75"/><path id="b" d="M9.5 3H12a3 3 0 0 1 3 3v.01l-1.1-.55A4 4 0 0 0 12.17 5H4a3 3 0 0 0-3 3V4a3 3 0 0 1 3-3h1.5C8 1 8 3 9.5 3"/></defs><use xlink:href="#a" fill="#60a5fa" fill-rule="evenodd"/><use xlink:href="#a" fill="#f8fafc" fill-opacity="0.1" fill-rule="evenodd"/><use xlink:href="#b" fill="#60a5fa" fill-opacity=".4" fill-rule="evenodd"/><use xlink:href="#b" fill="#f8fafc" fill-opacity="0.1" fill-rule="evenodd"/><path fill="#60a5fa" fill-opacity=".8" fill-rule="evenodd" d="M12 5q-.99 0-1.9.46L9 6.01l-.5-.28-1.03.68a4 4 0 0 0-1.35 1.4 4 4 0 0 0-.55 1.88l-.07 1.23-.5.3.07 1.23q.06 1.01.55 1.87.21.37.5.68H4a3 3 0 0 1-3-3V8a3 3 0 0 1 3-3z"/><path fill="#f8fafc" fill-opacity="0.1" fill-rule="evenodd" d="M12 5q-.99 0-1.9.46L9.04 6h-.05l-.48-.27-.42.27H4a2 2 0 0 0-2 2v4a2 2 0 0 0 2 2h1.46a4 4 0 0 0 .66 1H4a3 3 0 0 1-3-3V8a3 3 0 0 1 3-3z"/></svg>