<svg xmlns="http://www.w3.org/2000/svg" xmlns:xlink="http://www.w3.org/1999/xlink" viewBox="0 0 16 16"><defs><path id="a" d="m12.93 11.5-.33 1.14a.5.5 0 0 1-.48.36H9.9a.5.5 0 0 1-.48-.38l-.31-1.24A.5.5 0 0 0 8.6 11H7.39a.5.5 0 0 0-.48.38l-.32 1.24a.5.5 0 0 1-.48.38H3.88a.5.5 0 0 1-.48-.36l-.33-1.15a.5.5 0 0 0-.3-.33L1 10.5v2C1 13.6 3 15 8 15s7-1.4 7-2.5v-2l-1.76.66a.5.5 0 0 0-.3.33"/></defs><use xlink:href="#a" fill="#60a5fa" fill-opacity=".4"/><use xlink:href="#a" fill="#f8fafc" fill-opacity="0.1"/><path fill="#60a5fa" d="M14.34 2.93 13 3.5 12 3V1.5a.5.5 0 0 0-.5-.5h-2a.5.5 0 0 0-.5.5v1H7v-1a.5.5 0 0 0-.5-.5h-2a.5.5 0 0 0-.5.5V3l-1 .5-1.33-.57a.5.5 0 0 0-.64.21L.18 4.68a.5.5 0 0 0 .09.6l.98.98Q1 7 1 8v1.5l2.19.44a.5.5 0 0 1 .39.37l.32 1.31a.5.5 0 0 0 .49.38h1.22a.5.5 0 0 0 .48-.38l.31-1.24a.5.5 0 0 1 .5-.38h2.22a.5.5 0 0 1 .49.38l.3 1.24a.5.5 0 0 0 .49.38h1.22a.5.5 0 0 0 .49-.38l.32-1.31a.5.5 0 0 1 .39-.37L15 9.5V8q0-1-.25-1.75l.98-.98a.5.5 0 0 0 .09-.6l-.85-1.52a.5.5 0 0 0-.64-.22M3 7.5a1.5 1.5 0 1 1 3 0 1.5 1.5 0 0 1-3 0M7.5 9V7h1v2zM10 7.5a1.5 1.5 0 1 1 3 0 1.5 1.5 0 0 1-3 0"/><path fill="none" stroke="#f8fafc" stroke-opacity="0.1" d="M6.5 1.5V3h3V1.5h2v1.8l1.48.75.22-.09 1.33-.57.85 1.52-1.2 1.2.1.3q.22.67.22 1.59v1.09l-1.79.36a1 1 0 0 0-.77.74l-.33 1.31h-1.22l-.31-1.24a1 1 0 0 0-.97-.76H6.89a1 1 0 0 0-.97.76l-.31 1.24H4.39l-.33-1.31a1 1 0 0 0-.77-.74L1.5 9.09V8q0-.92.22-1.6l.1-.29-1.2-1.2.85-1.52 1.33.57.22.09 1.48-.74V1.5Zm-4 6a2 2 0 1 0 4 0 2 2 0 0 0-4 0Zm7 0a2 2 0 1 0 4 0 2 2 0 0 0-4 0ZM7 6.5v3h2v-3Z"/></svg>