<svg xmlns="http://www.w3.org/2000/svg" xmlns:xlink="http://www.w3.org/1999/xlink" viewBox="0 0 16 16"><defs><path id="a" d="M8.5 9h5a1.5 1.5 0 0 1 1.5 1.5v.5a1 1 0 0 1 0 2h-.3c-.51 1.47-1.6 3-2.45 3h-2.5C8.58 16 7 13.32 7 11.5v-1A1.5 1.5 0 0 1 8.5 9m1.63-1.26-.13.01V8a.5.5 0 0 1-1 0c0-.74.34-1.25 1-1.25V6.5a.5.5 0 1 1 1 0c0 .7-.3 1.18-.87 1.24m3 0-.13.01V8a.5.5 0 1 1-1 0c0-.74.34-1.25 1-1.25V6.5a.5.5 0 1 1 1 0c0 .7-.3 1.18-.87 1.24"/></defs><use xlink:href="#a" fill="#fb7185" fill-rule="evenodd"/><use xlink:href="#a" fill="#f8fafc" fill-opacity="0.1" fill-rule="evenodd"/><path fill="#94a3b8" fill-opacity=".4" fill-rule="evenodd" d="M8.76 1a3 3 0 0 1 2.12.88l2.16 2.16A2.5 2.5 0 0 0 12 4.5a2.5 2.5 0 0 0-3.66.74 3 3 0 0 0-.68.64q-.48.65-.6 1.43A3.5 3.5 0 0 0 5 10.5v1c0 1.12.37 2.38.96 3.5H5a3 3 0 0 1-3-3V4a3 3 0 0 1 3-3z"/><path fill="#f8fafc" fill-opacity="0.1" fill-rule="evenodd" d="M8.76 1a3 3 0 0 1 2.12.88l2.16 2.16a2.5 2.5 0 0 0-.99.43l-1.88-1.88-.15-.14A2 2 0 0 0 8.76 2H5a2 2 0 0 0-2 2v8a2 2 0 0 0 2 2h.5q.2.51.46 1H5a3 3 0 0 1-3-3V4a3 3 0 0 1 3-3z"/></svg>