<svg xmlns="http://www.w3.org/2000/svg" xmlns:xlink="http://www.w3.org/1999/xlink" viewBox="0 0 16 16"><defs><path id="a" d="M14.78 7C14 5.28 11.26 4 8 4S2 5.28 1.22 7Q4 6 8 6t6.78 1"/><path id="b" d="M14.78 9C14 10.73 11.26 12 8 12s-6-1.27-6.78-3Q4 10 8 10t6.78-1"/></defs><circle cx="2.5" cy="2.5" r="1.5" fill="#94a3b8" fill-opacity=".4" fill-rule="evenodd"/><circle cx="2.5" cy="2.5" r="1" fill="none" stroke="#f8fafc" stroke-opacity="0.1"/><circle cx="13.5" cy="2.5" r="1.5" fill="#94a3b8" fill-opacity=".4" fill-rule="evenodd"/><circle cx="13.5" cy="2.5" r="1" fill="none" stroke="#f8fafc" stroke-opacity="0.1"/><circle cx="2.5" cy="13.5" r="1.5" fill="#94a3b8" fill-opacity=".4" fill-rule="evenodd"/><circle cx="2.5" cy="13.5" r="1" fill="none" stroke="#f8fafc" stroke-opacity="0.1"/><ellipse cx="8" cy="8" fill="#fb923c" fill-opacity=".4" fill-rule="evenodd" rx="7" ry="4"/><ellipse cx="8" cy="8" fill="none" stroke="#f8fafc" stroke-opacity="0.1" rx="6.5" ry="3.5"/><use xlink:href="#a" fill="#fb923c" fill-rule="evenodd"/><use xlink:href="#a" fill="#f8fafc" fill-opacity="0.1" fill-rule="evenodd"/><use xlink:href="#b" fill="#fb923c" fill-rule="evenodd"/><use xlink:href="#b" fill="#f8fafc" fill-opacity="0.1" fill-rule="evenodd"/></svg>