<svg xmlns="http://www.w3.org/2000/svg" viewBox="0 0 16 16"><path fill="#e879f9" fill-opacity=".4" fill-rule="evenodd" d="M13.25 5.5a.5.5 0 0 0-.5-.5h-9.5a.5.5 0 0 0-.5.5c0 1.69.25 7.51 2.78 10.35q.14.15.35.15h4.24q.21 0 .35-.15C13 13.06 13.25 7.24 13.25 5.5"/><path fill="none" stroke="#f8fafc" stroke-opacity="0.1" d="M3.26 5.5h9.49c0 3.85-.76 7.92-2.63 10H5.88c-1.86-2.1-2.63-6.2-2.63-10Z"/><path fill="#e879f9" fill-rule="evenodd" d="M11 9q-1.25 1-3 1H5.25q0 1.32.97 3.42a1 1 0 0 0 .91.58h1.82a1 1 0 0 0 .86-.5Q11 11.45 11 9"/><path fill="none" stroke="#f8fafc" stroke-opacity="0.1" d="m9.64 12.76-.26.49a.5.5 0 0 1-.43.25H7.13a.5.5 0 0 1-.45-.29 10 10 0 0 1-.9-2.71H8q1.35 0 2.45-.56a8 8 0 0 1-.8 2.82Z"/><path fill="#e879f9" fill-opacity=".4" d="M7.5 1q0 .71.23 1.2.26.5.77.71V3a1 1 0 1 0 2 0q.01-.7-.23-1.2a1.4 1.4 0 0 0-.77-.71V1a1 1 0 1 0-2 0m-2.75.5q0 .52.11.88.12.35.39.6V3a1 1 0 1 0 2 0q0-.52-.11-.88a1.4 1.4 0 0 0-.39-.6V1.5a1 1 0 1 0-2 0"/></svg>