<svg xmlns="http://www.w3.org/2000/svg" xmlns:xlink="http://www.w3.org/1999/xlink" viewBox="0 0 16 16"><defs><path id="a" d="M10.25 7c1-.25 1.5.75 2.25.75S13.25 9 12.5 9H11c-.75 0-1 2-3.25 2C8 13.5 9 14 9 15h-.75c-.5-1.5-1.5-2.5-2-4h-.5c0 1.25-1 2-1.25 4h-.75c0-1.75.75-2.5.75-4q-1.5.25-2-.5Q2 11.75 1 12V8.25Q1.25 8 1.5 8c1 0 .25-2 1.5-2s.75 2 1.75 2 .5-2 1.75-2 1.25 3 2.25 3 .5-1.75 1.5-2"/></defs><path fill="#fb923c" fill-opacity=".4" fill-rule="evenodd" d="M5 1h6a4 4 0 0 1 4 4v6a4 4 0 0 1-4 4H5a4 4 0 0 1-4-4V5a4 4 0 0 1 4-4"/><path fill="none" stroke="#f8fafc" stroke-opacity="0.1" d="M14.5 5v6a3.5 3.5 0 0 1-3.5 3.5H5A3.5 3.5 0 0 1 1.5 11V5A3.5 3.5 0 0 1 5 1.5h6A3.5 3.5 0 0 1 14.5 5Z"/><use xlink:href="#a" fill="#fb923c" fill-rule="evenodd"/><use xlink:href="#a" fill="#f8fafc" fill-opacity="0.1" fill-rule="evenodd"/></svg>