<svg xmlns="http://www.w3.org/2000/svg" xmlns:xlink="http://www.w3.org/1999/xlink" viewBox="0 0 16 16"><defs><circle id="a" cx="8" cy="7.5" r="1.5"/></defs><path fill="#94a3b8" d="M4.5 0c-2 3-2 4 .5 6L3 8S1 7 1 4.5C1 1.25 4 .5 4.5 0"/><path fill="none" stroke="#f8fafc" stroke-opacity="0.1" d="M4.26 6.03 2.93 7.37A3.4 3.4 0 0 1 1.5 4.5c0-1.35.55-2.29 1.55-3.03-.92 1.9-.56 3.04 1.2 4.56Z"/><path fill="#94a3b8" fill-opacity=".4" d="M15 4.5c0 1.25-.5 2.12-1 2.69V7a7 7 0 0 0-1.51-2.46c.86-1.23.47-2.35-.99-4.54.5.5 3.5 1.25 3.5 4.5"/><path fill="none" stroke="#f8fafc" stroke-opacity="0.1" d="M14.5 4.5q-.01.9-.35 1.59a7 7 0 0 0-1.04-1.61c.5-.89.45-1.76-.15-3A3.5 3.5 0 0 1 14.5 4.5Z"/><path fill="#94a3b8" fill-rule="evenodd" d="M8 3C4.5 3 3 4.5 2 7v4.5s2.75 1.25 5 4.5h1z"/><path fill="none" stroke="#f8fafc" stroke-opacity="0.1" d="M7.5 15.5h-.24a15 15 0 0 0-.95-1.19 15 15 0 0 0-2.8-2.5 12 12 0 0 0-1.01-.62V7.1c.98-2.4 2.35-3.47 5-3.59Z"/><path fill="#94a3b8" fill-opacity=".4" fill-rule="evenodd" d="M8 3c3.5 0 5 1.5 6 4v4.5s-2.75 1.25-5 4.5H8z"/><path fill="none" stroke="#f8fafc" stroke-opacity="0.1" d="M13.5 7.1v4.1l-.08.04a15 15 0 0 0-3.73 3.07q-.5.56-.95 1.19H8.5V3.51c2.65.12 4.02 1.2 5 3.6Z"/><use xlink:href="#a" fill="#f8fafc" fill-rule="evenodd"/><use xlink:href="#a" fill="#f8fafc" fill-opacity="0.1" fill-rule="evenodd"/></svg>