<svg xmlns="http://www.w3.org/2000/svg" xmlns:xlink="http://www.w3.org/1999/xlink" viewBox="0 0 16 16"><defs><linearGradient id="b" x1="50%" x2="50%" y1="0%" y2="100%"><stop offset="0%" stop-color="#facc15"/><stop offset="100%" stop-color="#94a3b8" stop-opacity=".4"/></linearGradient><path id="a" d="M12.5 7A2.5 2.5 0 0 1 15 9.5v.59a1.5 1.5 0 0 1 1 1.41v3a1.5 1.5 0 0 1-1.5 1.5h-4A1.5 1.5 0 0 1 9 14.5v-3a1.5 1.5 0 0 1 1-1.41V9.5A2.5 2.5 0 0 1 12.5 7m0 1A1.5 1.5 0 0 0 11 9.5v.5h3v-.5A1.5 1.5 0 0 0 12.5 8"/></defs><use xlink:href="#a" fill="#94a3b8" fill-rule="evenodd"/><use xlink:href="#a" fill="#f8fafc" fill-opacity="0.1" fill-rule="evenodd"/><path fill="url(#b)" fill-rule="evenodd" d="M12 1a2 2 0 0 1 2 2v2.26a4.5 4.5 0 0 0-5.98 3.77A3.5 3.5 0 0 0 7 11.5V14H3a2 2 0 0 1-2-2v-1.5A1.5 1.5 0 0 1 2.5 9H5V6H2.5A1.5 1.5 0 0 1 1 4.5V3a2 2 0 0 1 2-2z"/><path fill="#f8fafc" fill-opacity="0.1" fill-rule="evenodd" d="M12 1a2 2 0 0 1 2 2v2.26a5 5 0 0 0-1-.23V3a1 1 0 0 0-1-1H3a1 1 0 0 0-1 1v1.5a.5.5 0 0 0 .5.5H6v5H2.5a.5.5 0 0 0-.5.5V12a1 1 0 0 0 1 1h4v1H3a2 2 0 0 1-2-2v-1.5A1.5 1.5 0 0 1 2.5 9H5V6H2.5A1.5 1.5 0 0 1 1 4.5V3a2 2 0 0 1 2-2z"/><path fill="#f8fafc" fill-opacity="0.1" d="M6 10v3H5v-3zm0-1h2.03v.03a4 4 0 0 0-.7.97H6zm4-7v3h3v.03a4.5 4.5 0 0 0-4 1.64V6H6V5h3V2zM6 2v3H5V2z"/></svg>