<svg xmlns="http://www.w3.org/2000/svg" xmlns:xlink="http://www.w3.org/1999/xlink" viewBox="0 0 16 16"><defs><path id="a" d="M8 9a3 3 0 0 1 3 3v1a2 2 0 0 1-2 2H7a2 2 0 0 1-2-2v-1a3 3 0 0 1 3-3m-.7 1.48a.5.5 0 0 0-.6 0l-.2.14a.44.44 0 0 0 .02.73l.76.5a.5.5 0 0 1 .22.42v1.23a.5.5 0 1 0 1 0v-1.23a.5.5 0 0 1 .22-.42l.76-.5a.44.44 0 0 0 .02-.73l-.2-.14a.5.5 0 0 0-.6 0l-.4.3a.5.5 0 0 1-.6 0z"/><path id="b" d="M6 8a1 1 0 1 0 0-2 1 1 0 0 0 0 2m4 0a1 1 0 1 0 0-2 1 1 0 0 0 0 2"/></defs><path fill="#c88857" fill-opacity=".4" d="M6 2h4q1.5 0 3 1.25L14 5v1c0 2 .75 2.5.75 4.5S12 14 10.5 14h-5c-1.5 0-4.25-1.5-4.25-3.5S2 8 2 6V5l1-1.75Q4.5 2 6 2"/><path fill="none" stroke="#f8fafc" stroke-opacity="0.1" d="m12.61 3.58.89 1.55V6c0 .9.1 1.41.4 2.4.27.89.35 1.32.35 2.1 0 1.45-2.17 3-3.75 3h-5c-1.58 0-3.75-1.55-3.75-3 0-.77.09-1.21.35-2.1.3-.99.4-1.5.4-2.4v-.87l.89-1.55A4 4 0 0 1 6 2.5h4q1.28 0 2.61 1.08Z"/><use xlink:href="#a" fill="#c88857" fill-rule="evenodd"/><use xlink:href="#a" fill="#f8fafc" fill-opacity="0.1" fill-rule="evenodd"/><path fill="#c88857" fill-rule="evenodd" d="M4.5 2.5Q.5 2.5 0 6l.5 1.5Q.5 9 3 9q0-4.5 1.5-6.5"/><path fill="none" stroke="#f8fafc" stroke-opacity="0.1" d="M2.51 8.48C1.44 8.41 1 8.08 1 7.5l-.03-.16-.46-1.38c.28-1.73 1.27-2.68 3.07-2.9Q2.56 5.03 2.51 8.48Z"/><path fill="#c88857" fill-rule="evenodd" d="M11.5 2.5q4 0 4.5 3.5l-.5 1q0 2-2.5 2 0-4.5-1.5-6.5"/><path fill="none" stroke="#f8fafc" stroke-opacity="0.1" d="m15.48 5.92-.43.86-.05.1V7c0 .9-.45 1.37-1.51 1.48q-.06-3.45-1.07-5.42c1.78.22 2.77 1.16 3.06 2.86Z"/><use xlink:href="#b" fill="#c88857" fill-rule="evenodd"/><use xlink:href="#b" fill="#f8fafc" fill-opacity="0.1" fill-rule="evenodd"/></svg>