<svg xmlns="http://www.w3.org/2000/svg" viewBox="0 0 16 16"><path fill="#a78bfa" fill-opacity=".4" fill-rule="evenodd" d="m11 0 3 5H8z"/><path fill="none" stroke="#f8fafc" stroke-opacity="0.1" d="M13.12 4.5H8.88L11 .97Z"/><path fill="#a78bfa" fill-opacity=".6" fill-rule="evenodd" d="M11 0 8 5 5 0z"/><path fill="none" stroke="#f8fafc" stroke-opacity="0.1" d="M8 4.03 5.88.5h4.24Z"/><path fill="#a78bfa" fill-opacity=".8" fill-rule="evenodd" d="M8 5H2l3-5z"/><path fill="none" stroke="#f8fafc" stroke-opacity="0.1" d="M7.12 4.5H2.88L5 .97Z"/><path fill="#a78bfa" fill-rule="evenodd" d="m8 5-3 5-3-5z"/><path fill="none" stroke="#f8fafc" stroke-opacity="0.1" d="M5 9.03 2.88 5.5h4.24Z"/><path fill="#a78bfa" fill-opacity=".4" fill-rule="evenodd" d="m5 16-3-5h6z"/><path fill="none" stroke="#f8fafc" stroke-opacity="0.1" d="M5 15.03 2.88 11.5h4.24Z"/><path fill="#a78bfa" fill-opacity=".6" fill-rule="evenodd" d="m5 16 3-5 3 5z"/><path fill="none" stroke="#f8fafc" stroke-opacity="0.1" d="M10.12 15.5H5.88L8 11.97Z"/><path fill="#a78bfa" fill-opacity=".8" fill-rule="evenodd" d="M8 11h6l-3 5z"/><path fill="none" stroke="#f8fafc" stroke-opacity="0.1" d="M11 15.03 8.88 11.5h4.24Z"/><path fill="#a78bfa" fill-rule="evenodd" d="m8 11 3-5 3 5z"/><path fill="none" stroke="#f8fafc" stroke-opacity="0.1" d="M13.12 10.5H8.88L11 6.97Z"/></svg>