<svg xmlns="http://www.w3.org/2000/svg" xmlns:xlink="http://www.w3.org/1999/xlink" viewBox="0 0 16 16"><defs><path id="a" d="m12.45 3.7.37.65a1 1 0 1 1-1.73 1l-.38-.65c-.1-.17-.5-.28-.68-.18L5.7 7.02a.5.5 0 0 0 .5.86l2.6-1.5a2.5 2.5 0 1 1 2.5 4.33l-4.33 2.5a2.6 2.6 0 0 1-3.42-.91l-.37-.65a1 1 0 0 1 1.73-1l.38.65c.1.17.5.28.68.18l4.33-2.5a.5.5 0 0 0-.5-.86l-2.6 1.5a2.5 2.5 0 0 1-2.5-4.33l4.33-2.5a2.6 2.6 0 0 1 3.42.91"/></defs><path fill="#fb923c" fill-opacity=".4" fill-rule="evenodd" d="M8.35.6a4.5 4.5 0 0 1 6.28 5.9 4.5 4.5 0 0 1-1.78 5.9l-5.2 3a4.5 4.5 0 0 1-6.28-5.9 4.5 4.5 0 0 1 1.78-5.9z"/><path fill="none" stroke="#f8fafc" stroke-opacity="0.1" d="m13.84 2.16.22.34a4 4 0 0 1 .12 3.78l-.1.22.1.22a4 4 0 0 1-1.58 5.25l-5.2 3a4 4 0 0 1-5.58-5.25l.1-.22-.1-.23A4 4 0 0 1 3.4 4.05l5.2-3a4 4 0 0 1 5.24 1.12Z"/><use fill="#fb923c" href="#a"/><use fill="#f8fafc" fill-opacity="0.1" href="#a"/></svg>