<svg xmlns="http://www.w3.org/2000/svg" xmlns:xlink="http://www.w3.org/1999/xlink" viewBox="0 0 16 16"><defs><path id="a" d="M15.63 9.22a1 1 0 0 1 .15 1.4l-1.5 1.88 1.5 1.88a1 1 0 1 1-1.56 1.24L13 14.1l-1.22 1.52a1 1 0 1 1-1.56-1.25l1.5-1.87-1.5-1.88a1 1 0 1 1 1.56-1.25L13 10.9l1.22-1.52a1 1 0 0 1 1.4-.16"/></defs><use fill="#4ade80" href="#a"/><use fill="#f8fafc" fill-opacity="0.1" href="#a"/><path fill="#4ade80" fill-rule="evenodd" d="M1 10h7v5H5a4 4 0 0 1-4-4z"/><path fill="#4ade80" fill-opacity=".8" fill-rule="evenodd" d="m8.66 11.87.5.63-.5.63A3 3 0 0 0 8 14.97v-4.92a3 3 0 0 0 .66 1.82M1 5h7v5H1z"/><path fill="#4ade80" fill-opacity=".6" fill-rule="evenodd" d="M8 5h7v2c-.72 0-1.44.26-2 .77a3 3 0 0 0-3.87-.11A3 3 0 0 0 8 9.98z"/><path fill="#4ade80" fill-opacity=".4" fill-rule="evenodd" d="M8 1v4H1a4 4 0 0 1 4-4z"/><path fill="#4ade80" fill-opacity=".25" fill-rule="evenodd" d="M11 1a4 4 0 0 1 4 4H8V1z"/><path fill="none" stroke="#f8fafc" stroke-opacity="0.1" d="M14.5 5v1.54a3.4 3.4 0 0 0-1.5.6 3.5 3.5 0 0 0-4.19.13 3.5 3.5 0 0 0-.54 4.92l.25.31-.25.31a3.5 3.5 0 0 0-.73 1.69H5A3.5 3.5 0 0 1 1.5 11V5A3.5 3.5 0 0 1 5 1.5h6A3.5 3.5 0 0 1 14.5 5Z"/></svg>