<svg xmlns="http://www.w3.org/2000/svg" viewBox="0 0 16 16"><path fill="#facc15" fill-opacity=".4" fill-rule="evenodd" d="M4 9h8a3 3 0 0 1 0 6H4a3 3 0 0 1 0-6"/><path fill="none" stroke="#f8fafc" stroke-opacity="0.1" d="M14.5 12a2.5 2.5 0 0 1-2.5 2.5H4a2.5 2.5 0 1 1 0-5h8a2.5 2.5 0 0 1 2.5 2.5Z"/><path fill="#94a3b8" fill-opacity=".4" fill-rule="evenodd" d="M4 1h8a3 3 0 0 1 0 6H4a3 3 0 1 1 0-6"/><path fill="none" stroke="#f8fafc" stroke-opacity="0.1" d="M14.5 4A2.5 2.5 0 0 1 12 6.5H4a2.5 2.5 0 0 1 0-5h8A2.5 2.5 0 0 1 14.5 4Z"/><path fill="#94a3b8" fill-rule="evenodd" d="M5 3h1a1 1 0 1 1 0 2H5a1 1 0 1 1 0-2"/><path fill="none" stroke="#f8fafc" stroke-opacity="0.1" d="M6.5 4a.5.5 0 0 1-.5.5H5a.5.5 0 0 1 0-1h1a.5.5 0 0 1 .5.5Z"/><path fill="#facc15" fill-rule="evenodd" d="M10 11h1a1 1 0 0 1 0 2h-1a1 1 0 0 1 0-2"/><path fill="none" stroke="#f8fafc" stroke-opacity="0.1" d="M11.5 12a.5.5 0 0 1-.5.5h-1a.5.5 0 1 1 0-1h1a.5.5 0 0 1 .5.5Z"/></svg>