<svg xmlns="http://www.w3.org/2000/svg" xmlns:xlink="http://www.w3.org/1999/xlink" viewBox="0 0 16 16"><defs><path id="a" d="m4.84 1.18-1.5 4.37L1 6a4 4 0 0 1 3.16-4.69zM9.38.3 7.87 4.66 5.6 5.1 7.1.74zm5.36 3.03-4.6.9 1.4-4.07a4 4 0 0 1 3.2 3.17"/></defs><path fill="#60a5fa" fill-opacity=".4" fill-rule="evenodd" d="M1 6h14v6a4 4 0 0 1-4 4H5a4 4 0 0 1-4-4z"/><path fill="none" stroke="#f8fafc" stroke-opacity="0.1" d="M14.5 12a3.5 3.5 0 0 1-3.5 3.5H5A3.5 3.5 0 0 1 1.5 12V6.5h13Z"/><path fill="#60a5fa" fill-rule="evenodd" d="m7.42 8.65 3.11 1.44a1 1 0 0 1 0 1.82l-3.11 1.43a1 1 0 0 1-1.42-.9V9.56a1 1 0 0 1 1.42-.9"/><path fill="none" stroke="#f8fafc" stroke-opacity="0.1" d="m7.15 9.09.06.02 3.11 1.44a.5.5 0 0 1 0 .9L7.21 12.9a.5.5 0 0 1-.71-.45V9.56a.5.5 0 0 1 .65-.47Z"/><use xlink:href="#a" fill="#60a5fa" fill-rule="evenodd"/><use xlink:href="#a" fill="#f8fafc" fill-opacity="0.1" fill-rule="evenodd"/></svg>