<svg xmlns="http://www.w3.org/2000/svg" viewBox="0 0 16 16"><path fill="#60a5fa" fill-opacity=".4" fill-rule="evenodd" d="m12.1 1.54.28.21c.83.64.85 1.89.04 2.56l-9.08 7.5a1 1 0 0 1-1.46-.2l-.64-.9a1 1 0 0 1 .13-1.3l8.14-7.73a2 2 0 0 1 2.6-.14"/><path fill="none" stroke="#f8fafc" stroke-opacity="0.1" d="m11.69 1.86.11.08.27.2c.58.45.6 1.32.03 1.78l-9.08 7.5a.5.5 0 0 1-.73-.1l-.64-.9a.5.5 0 0 1 .07-.65l8.13-7.73a1.5 1.5 0 0 1 1.84-.18Z"/><path fill="#60a5fa" fill-opacity=".8" fill-rule="evenodd" d="m12.38 14.25-.27.2a2 2 0 0 1-2.6-.13L1.37 6.6a1 1 0 0 1-.13-1.3l.64-.9a1 1 0 0 1 1.46-.2l9.08 7.5c.8.67.79 1.92-.04 2.56"/><path fill="none" stroke="#f8fafc" stroke-opacity="0.1" d="m2.97 4.54.05.04 9.08 7.5c.56.46.55 1.33-.03 1.77l-.27.21a1.5 1.5 0 0 1-1.95-.1L1.72 6.23a.5.5 0 0 1-.07-.65l.64-.9a.5.5 0 0 1 .68-.14Z"/><path fill="#60a5fa" fill-rule="evenodd" d="m11.55 1.25 2.54 1.66A2 2 0 0 1 15 4.58v6.84a2 2 0 0 1-.91 1.67l-2.54 1.66A1 1 0 0 1 10 13.9V2.09a1 1 0 0 1 1.55-.84"/><path fill="none" stroke="#f8fafc" stroke-opacity="0.1" d="m11.2 1.64.07.03 2.55 1.66a1.5 1.5 0 0 1 .68 1.25v6.84a1.5 1.5 0 0 1-.68 1.25l-2.55 1.66a.5.5 0 0 1-.77-.42V2.09a.5.5 0 0 1 .7-.45Z"/></svg>