<svg xmlns="http://www.w3.org/2000/svg" xmlns:xlink="http://www.w3.org/1999/xlink" viewBox="0 0 16 16"><defs><path id="a" d="m13.21 8.55.12.06q.26.16.56.06l.64-.23a.6.6 0 0 1 .71.25l.68 1.12a.55.55 0 0 1-.13.72l-.53.41a.6.6 0 0 0-.23.5v.12a.6.6 0 0 0 .23.5l.53.41c.22.18.28.48.13.72l-.68 1.12a.6.6 0 0 1-.71.25l-.64-.23a.7.7 0 0 0-.57.06l-.11.06a.6.6 0 0 0-.34.44l-.11.64a.6.6 0 0 1-.58.47h-1.36a.6.6 0 0 1-.58-.47l-.11-.64a.6.6 0 0 0-.34-.44l-.11-.06a.7.7 0 0 0-.57-.06l-.63.23a.6.6 0 0 1-.72-.25l-.68-1.12a.55.55 0 0 1 .14-.72l.52-.41a.6.6 0 0 0 .23-.5v-.12a.6.6 0 0 0-.23-.5l-.52-.41a.55.55 0 0 1-.14-.72l.68-1.12a.6.6 0 0 1 .72-.25l.63.23a.7.7 0 0 0 .57-.06l.11-.07a.6.6 0 0 0 .34-.43l.11-.64a.6.6 0 0 1 .58-.47h1.36c.29 0 .53.2.58.47l.11.64a.6.6 0 0 0 .34.44M11.5 10a1.5 1.5 0 1 0 0 3 1.5 1.5 0 0 0 0-3"/><path id="b" d="M4.5 1h.88a1 1 0 0 1 .9.55l.83 1.66a1 1 0 0 0 1.78 0l.83-1.66a1 1 0 0 1 .9-.55h.88a.88.88 0 0 1 .77 1.31l-1.5 2.7h-.13A2.6 2.6 0 0 0 8.5 6.4a2.6 2.6 0 0 0-2.08.76L3.73 2.3A.88.88 0 0 1 4.5 1"/></defs><use xlink:href="#a" fill="#94a3b8" fill-rule="evenodd"/><use xlink:href="#a" fill="#f8fafc" fill-opacity="0.1" fill-rule="evenodd"/><path fill="#4ade80" fill-opacity=".4" fill-rule="evenodd" d="M1.67 1h3.71a1 1 0 0 1 .9.55l.83 1.66a1 1 0 0 0 1.78 0l.83-1.66a1 1 0 0 1 .9-.55h3.71a1 1 0 0 1 .89 1.47l-1.59 2.97A2.6 2.6 0 0 0 12.18 5h-1.36a2.6 2.6 0 0 0-2.31 1.42 2.6 2.6 0 0 0-2.46 1.23l-.68 1.13a2.5 2.5 0 0 0-.35 1.64L.78 2.47A1 1 0 0 1 1.67 1"/><path fill="#f8fafc" fill-opacity="0.1" fill-rule="evenodd" d="M5.38 1a1 1 0 0 1 .9.55l.83 1.66a1 1 0 0 0 1.78 0l.83-1.66a1 1 0 0 1 .9-.55h3.71a1 1 0 0 1 .89 1.47l-1.59 2.97a3 3 0 0 0-.93-.39L14.33 2h-3.71l-.83 1.66a2 2 0 0 1-3.58 0L5.38 2H1.67l3.65 6.86-.05.1a2.5 2.5 0 0 0-.25 1.46L.78 2.47A1 1 0 0 1 1.67 1z"/><use xlink:href="#b" fill="#4ade80" fill-rule="evenodd"/><use xlink:href="#b" fill="#f8fafc" fill-opacity="0.1" fill-rule="evenodd"/></svg>