<svg xmlns="http://www.w3.org/2000/svg" viewBox="0 0 16 16"><path fill="#a78bfa" fill-rule="evenodd" d="M8.15.05c.18.12.82 1.55.82 1.55s.7-.4.77-.25c.9 2.73.07 4.66-1.12 6.2 1.58 1.48 1.86 2.99 1.55 4.9 1.48 0 2.25-1.45 4.14-1.54.85-.01.9.98.25 1.14-1.31.18-2.61 1.65-5.26 2.4-.35.52-2.39.46-4 .6-1.7.02-1.26-1.3-.65-1.53-.4-.22-.41-.43-.5-.41-.42 2.27-1.58 1.58-2.3 1.38-.54-.29.05-.97.05-.97-.53.23-.96-.78-.9-1.77.06-.8.95-1.56.95-1.56-.06-1.97.52-3.25 2.05-4.33-.53-.63-1.15-1.65-.34-2.83 1.06-.3 1.27-1.55 3.28-1.44 0 0 .63-1.91 1.2-1.54"/><path fill="none" stroke="#f8fafc" stroke-opacity="0.1" d="m8.1.91.06.13.36.77.22.5.48-.28.18-.1c.55 2.01.1 3.66-1.17 5.32l-.28.36.33.3c1.34 1.26 1.7 2.53 1.4 4.46l-.1.58h.59c.61 0 1.11-.18 1.77-.56l.23-.14.24-.14a4 4 0 0 1 1.92-.7c.2 0 .22.13.11.15h-.01a5 5 0 0 0-1.44.57c-.14.08-1.18.7-1.53.88a11 11 0 0 1-2.3.96l-.18.05-.1.15c-.07.1-.8.22-2.3.3l-.29.02c-.44.02-.74.04-1.03.07-.5 0-.64-.1-.65-.22s.1-.31.21-.35l1.04-.38-.97-.53c-.14-.07-.4-.37-.46-.4a.5.5 0 0 0-.41-.05l-.3.09-.05.3c-.2 1-.44 1.25-.83 1.22a2 2 0 0 1-.5-.12l-.17-.06h-.02l.13-.22 1.4-1.63-1.98.85c.06-.03.06-.03-.02-.18a2.4 2.4 0 0 1-.17-1.1q.03-.33.36-.77.25-.31.4-.44l.18-.16v-.23c-.05-1.84.47-2.95 1.84-3.91l.45-.32-.35-.42c-.63-.73-.81-1.37-.4-2.08.3-.11.53-.28.85-.55l.21-.18c.58-.5 1-.68 1.86-.63l.38.02.12-.36v-.02l.03-.05A7 7 0 0 1 7.77.9q.09-.17.17-.28zm-.69.84Zm0 0zm0 0Zm0 0Z"/></svg>