<svg xmlns="http://www.w3.org/2000/svg" viewBox="0 0 16 16"><path fill="#3b82f6" fill-opacity=".4" fill-rule="evenodd" d="M15 6.03v3.94a3.5 3.5 0 0 1-1.76 3.04l-3.5 2a3.5 3.5 0 0 1-1.74.46V8l6.53-3.73q.46.8.47 1.76"/><path fill="none" stroke="#f8fafc" stroke-opacity="0.1" d="M14.5 6.03v3.94a3 3 0 0 1-1.51 2.6l-3.5 2a3 3 0 0 1-.99.36V8.29l5.8-3.32q.2.51.2 1.06Z"/><path fill="#3b82f6" fill-rule="evenodd" d="M1.48 4.27 8 8v7.47A3.5 3.5 0 0 1 6.28 15l-3.53-2-.17-.1A3.5 3.5 0 0 1 1 9.96V6.03q0-.96.48-1.76"/><path fill="none" stroke="#f8fafc" stroke-opacity="0.1" d="M7.5 8.29v6.64a3 3 0 0 1-.98-.35L3 12.56l-.16-.1a3 3 0 0 1-1.34-2.5V6.04q0-.55.2-1.06Z"/><path fill="#3b82f6" fill-opacity=".8" fill-rule="evenodd" d="m9.52.88.2.1L13.25 3l.18.1q.68.46 1.1 1.17L8 8 1.48 4.27a3.5 3.5 0 0 1 1.28-1.28l3.5-2A3.5 3.5 0 0 1 9.52.88"/><path fill="none" stroke="#f8fafc" stroke-opacity="0.1" d="m9.14 1.25.16.08.2.1 3.5 2 .16.1q.37.24.64.58L8 7.42 2.2 4.11q.34-.4.81-.68l3.5-2a3 3 0 0 1 2.63-.17Z"/></svg>