<svg xmlns="http://www.w3.org/2000/svg" xmlns:xlink="http://www.w3.org/1999/xlink" viewBox="0 0 16 16"><defs><path id="a" d="M11.56 4.83 9.8 6h.95a1 1 0 0 1 1 1.08l-.25 3a1 1 0 0 1-.63.85l-2.5 1a1 1 0 0 1-.74 0l-2.5-1a1 1 0 0 1-.61-.73l-.1-.5a1 1 0 0 1 1.95-.43L8 9.92l1.56-.62.1-1.3H6.5a1 1 0 0 1-.56-1.83L7.7 5H5a1 1 0 1 1 0-2h6a1 1 0 0 1 .56 1.83"/></defs><path fill="#3b82f6" fill-opacity=".4" fill-rule="evenodd" d="M3.54 1h8.92a2.5 2.5 0 0 1 2.49 2.77l-.77 7.04a3 3 0 0 1-1.73 2.4l-3.2 1.47a3 3 0 0 1-2.5 0l-3.2-1.47a3 3 0 0 1-1.73-2.4l-.77-7.04A2.5 2.5 0 0 1 3.54 1"/><path fill="none" stroke="#f8fafc" stroke-opacity="0.1" d="M14.46 3.5v.22l-.77 7.03a2.5 2.5 0 0 1-1.45 2l-3.2 1.47a2.5 2.5 0 0 1-2.08 0l-3.2-1.47a2.5 2.5 0 0 1-1.45-2l-.76-7.03A2 2 0 0 1 3.54 1.5h8.92a2 2 0 0 1 2 2Z"/><use fill="#3b82f6" href="#a"/><use fill="#f8fafc" fill-opacity="0.1" href="#a"/></svg>