<svg xmlns="http://www.w3.org/2000/svg" xmlns:xlink="http://www.w3.org/1999/xlink" viewBox="0 0 16 16"><defs><path id="a" d="M9 3v1h1a1 1 0 0 1 0 2H9v1a1 1 0 1 1-2 0V6H6a1 1 0 1 1 0-2h1V3a1 1 0 1 1 2 0"/><path id="b" d="M11 12a1 1 0 0 1-1 1H6a1 1 0 0 1 0-2h4a1 1 0 0 1 1 1"/></defs><path fill="#22c55e" fill-opacity=".4" fill-rule="evenodd" d="M5 1h6a3 3 0 0 1 3 3v5H2V4a3 3 0 0 1 3-3"/><path fill="none" stroke="#f8fafc" stroke-opacity="0.1" d="M13.5 4v4.5h-11V4A2.5 2.5 0 0 1 5 1.5h6A2.5 2.5 0 0 1 13.5 4Z"/><use fill="#22c55e" href="#a"/><use fill="#f8fafc" fill-opacity="0.1" href="#a"/><path fill="#f43f5e" fill-opacity=".4" fill-rule="evenodd" d="M5 15h6a3 3 0 0 0 3-3V9H2v3a3 3 0 0 0 3 3"/><path fill="none" stroke="#f8fafc" stroke-opacity="0.1" d="M13.5 12a2.5 2.5 0 0 1-2.5 2.5H5A2.5 2.5 0 0 1 2.5 12V9.5h11Z"/><use fill="#f43f5e" href="#b"/><use fill="#f8fafc" fill-opacity="0.1" href="#b"/></svg>