<svg xmlns="http://www.w3.org/2000/svg" viewBox="0 0 16 16"><path fill="#64748b" fill-opacity=".4" fill-rule="evenodd" d="M6.03 1h3.94a3.5 3.5 0 0 1 3.04 1.76l2 3.5a3.5 3.5 0 0 1 0 3.48l-2 3.5A3.5 3.5 0 0 1 9.97 15H6.03A3.5 3.5 0 0 1 3 13.24l-2-3.5a3.5 3.5 0 0 1 0-3.48l2-3.5A3.5 3.5 0 0 1 6.03 1"/><path fill="none" stroke="#f8fafc" stroke-opacity="0.1" d="m12.57 3.01 2 3.5a3 3 0 0 1 0 2.98l-2 3.5a3 3 0 0 1-2.6 1.51H6.03a3 3 0 0 1-2.6-1.51l-2-3.5a3 3 0 0 1 0-2.98l2-3.5a3 3 0 0 1 2.6-1.51h3.94a3 3 0 0 1 2.6 1.51Z"/><path fill="#64748b" fill-rule="evenodd" d="m8.98 4.05 2 1.13A2 2 0 0 1 12 6.92v2.16a2 2 0 0 1-1.02 1.74l-2 1.13a2 2 0 0 1-1.96 0l-2-1.13A2 2 0 0 1 4 9.08V6.92a2 2 0 0 1 1.02-1.74l2-1.13a2 2 0 0 1 1.96 0"/><path fill="none" stroke="#f8fafc" stroke-opacity="0.1" d="m8.65 4.44.08.05 2 1.12a1.5 1.5 0 0 1 .77 1.31v2.16a1.5 1.5 0 0 1-.76 1.3l-2 1.13a1.5 1.5 0 0 1-1.48 0l-2-1.12a1.5 1.5 0 0 1-.76-1.31V6.92a1.5 1.5 0 0 1 .77-1.3l2-1.13a1.5 1.5 0 0 1 1.38-.05Z"/></svg>