<svg xmlns="http://www.w3.org/2000/svg" xmlns:xlink="http://www.w3.org/1999/xlink" viewBox="0 0 16 16"><defs><path id="a" d="M14 7a2 2 0 0 1 2 2v5a2 2 0 0 1-2 2H8a2 2 0 0 1-2-2V9a2 2 0 0 1 2-2zM8 9a1 1 0 0 0-1 1v4a1 1 0 0 0 1 1h6a1 1 0 0 0 1-1v-4a1 1 0 0 0-1-1zm5.25 3a.75.75 0 0 1 .75.75v.5a.75.75 0 0 1-.75.75h-4.5a.75.75 0 0 1-.75-.75v-.5a.75.75 0 0 1 .75-.75zm-1.75-2a.5.5 0 1 1 0 1h-3a.5.5 0 1 1 0-1z"/><path id="b" d="M9.5 3H12a3 3 0 0 1 2.86 2.1A4 4 0 0 0 14 5H4a3 3 0 0 0-3 3V4a3 3 0 0 1 3-3h1.5C8 1 8 3 9.5 3"/></defs><use xlink:href="#a" fill="#0ea5e9" fill-rule="evenodd"/><use xlink:href="#a" fill="#f8fafc" fill-opacity="0.1" fill-rule="evenodd"/><use xlink:href="#b" fill="#0ea5e9" fill-opacity=".4" fill-rule="evenodd"/><use xlink:href="#b" fill="#f8fafc" fill-opacity="0.1" fill-rule="evenodd"/><path fill="#0ea5e9" fill-opacity=".8" fill-rule="evenodd" d="M4 5h4a4 4 0 0 0-4 4v5q0 .52.13 1H4a3 3 0 0 1-3-3V8a3 3 0 0 1 3-3"/><path fill="#f8fafc" fill-opacity="0.1" fill-rule="evenodd" d="M4 5h4c-1.01 0-1.94.38-2.65 1H4a2 2 0 0 0-2 2v4a2 2 0 0 0 2 2q0 .52.13 1H4a3 3 0 0 1-3-3V8a3 3 0 0 1 3-3"/></svg>