<svg xmlns="http://www.w3.org/2000/svg" xmlns:xlink="http://www.w3.org/1999/xlink" viewBox="0 0 16 16"><defs><path id="a" d="m8.66 7 1.35.66-1.05 2.1 1.28-.46.45-.17.95-1.32.44-.6 1.22.87-.44.6-2.32 3.23 2.98-2.49.53-.43 1.11 1.11-.24.49-1.4 2.8 1.35-.79 1.13-.66v1.81l-.01.12-.25 1.5-.12.74-1.48-.24.12-.74.08-.48-1.71 1-.5.29-.41-.41-.25-.25-.38-.38.24-.49 1.04-2.08-3.89 3.25-.73.6-.42-.85-.25-.5-.2-.4.26-.37 2-2.77-1.13.42-1.01.36v-1.75l.08-.16 1.25-2.5z"/><path id="b" d="M9.5 3H13a2 2 0 0 1 2 2H1V4a3 3 0 0 1 3-3h1.5C8 1 8 3 9.5 3"/></defs><use xlink:href="#a" fill="#64748b" fill-rule="evenodd"/><use xlink:href="#a" fill="#f8fafc" fill-opacity="0.1" fill-rule="evenodd"/><use xlink:href="#b" fill="#64748b" fill-opacity=".4" fill-rule="evenodd"/><use xlink:href="#b" fill="#f8fafc" fill-opacity="0.1" fill-rule="evenodd"/><path fill="#64748b" fill-opacity=".8" fill-rule="evenodd" d="m6.93 6-.03.05-1.69 3.38a2 2 0 0 0-.21.9v1.74q0 .62.33 1.1l-.08.1a2 2 0 0 0-.3 1.73H3.92a3 3 0 0 1-2.93-2.35L.04 8.44 0 8.16v-.32A2 2 0 0 1 2 6zm7.08 0a2 2 0 0 1 2 1.83l-.01.28-.54-.54-.2-.18-.12-.08a2 2 0 0 0-.67-.85L13.83 6z"/><path fill="#f8fafc" fill-opacity="0.1" fill-rule="evenodd" d="M2 6h4.93l-.05.1-.46.9H2a1 1 0 0 0-.98 1.22l.94 4.21A2 2 0 0 0 3.9 14h1.01a2 2 0 0 0 .04 1H3.9a3 3 0 0 1-2.93-2.35L.04 8.44 0 8.16v-.32A2 2 0 0 1 2 6m12 0a2 2 0 0 1 2 1.83v.28l-.54-.54-.2-.18-.12-.08a2 2 0 0 0-.67-.85L13.83 6z"/></svg>