<svg xmlns="http://www.w3.org/2000/svg" xmlns:xlink="http://www.w3.org/1999/xlink" viewBox="0 0 16 16"><defs><path id="a" d="m8.07 13.56.25.43a1.75 1.75 0 0 0 2.39.64l3.36-1.94a1.38 1.38 0 0 0-1.38-2.38l-2.38 1.38A1.38 1.38 0 0 1 8.93 9.3l3.36-1.94a1.75 1.75 0 0 1 2.39.64l.25.43"/><path id="b" d="M9.5 3H12a3 3 0 0 1 2.68 1.65 4.5 4.5 0 0 0-3.76.34l-.03.01H4a3 3 0 0 0-3 3V4a3 3 0 0 1 3-3h1.5C8 1 8 3 9.5 3"/></defs><use xlink:href="#a" fill="none" stroke="#f97316" stroke-linecap="round" stroke-linejoin="round" stroke-width="1.5"/><use xlink:href="#a" fill="none" stroke="#f8fafc" stroke-linecap="round" stroke-linejoin="round" stroke-opacity="0.1" stroke-width="1.5"/><use xlink:href="#b" fill="#f97316" fill-opacity=".4" fill-rule="evenodd"/><use xlink:href="#b" fill="#f8fafc" fill-opacity="0.1" fill-rule="evenodd"/><path fill="#f97316" fill-opacity=".8" fill-rule="evenodd" d="M10.9 5 7.55 6.92a4.1 4.1 0 0 0-1.77 5.1 2.7 2.7 0 0 0-.1 2.91l.04.07H4a3 3 0 0 1-3-3V8a3 3 0 0 1 3-3z"/><path fill="#f8fafc" fill-opacity="0.1" fill-rule="evenodd" d="M10.9 5 9.15 6H4a2 2 0 0 0-2 2v4a2 2 0 0 0 2 2h1.36q.07.49.33.93l.04.07H4a3 3 0 0 1-3-3V8a3 3 0 0 1 3-3z"/></svg>