<svg xmlns="http://www.w3.org/2000/svg" xmlns:xlink="http://www.w3.org/1999/xlink" viewBox="0 0 16 16"><defs><path id="a" d="M10 12v1.87q.01.15.25.13H12v-.75c0-.69.56-1.25 1.25-1.25h1.5c.69 0 1.25.56 1.25 1.25v1.5c0 .69-.56 1.25-1.25 1.25h-1.5a1.25 1.25 0 0 1-1.23-1h-1.77C9.47 15 9 14.53 9 13.75v-1.77c-.57-.12-1-.63-1-1.23v-1.5C8 8.56 8.56 8 9.25 8h1.5c.69 0 1.25.56 1.25 1.25v1.5c0 .69-.56 1.25-1.25 1.25z"/><path id="b" d="M9.5 3H12a3 3 0 0 1 3 3v2a3 3 0 0 0-3-3H4a3 3 0 0 0-3 3V4a3 3 0 0 1 3-3h1.5C8 1 8 3 9.5 3"/></defs><use xlink:href="#a" fill="#f97316" fill-rule="evenodd"/><use xlink:href="#a" fill="#f8fafc" fill-opacity="0.1" fill-rule="evenodd"/><use xlink:href="#b" fill="#f97316" fill-opacity=".4" fill-rule="evenodd"/><use xlink:href="#b" fill="#f8fafc" fill-opacity="0.1" fill-rule="evenodd"/><path fill="#f97316" fill-opacity=".8" fill-rule="evenodd" d="M12 5a3 3 0 0 1 3 3v2.01l-.25-.01H14v-.75A3.25 3.25 0 0 0 10.75 6h-1.5A3.25 3.25 0 0 0 6 9.25v1.5c0 .91.38 1.75 1 2.34v.66q0 .68.22 1.25H4a3 3 0 0 1-3-3V8a3 3 0 0 1 3-3z"/><path fill="#f8fafc" fill-opacity="0.1" fill-rule="evenodd" d="M12 6H4a2 2 0 0 0-2 2v4a2 2 0 0 0 2 2h3q.05.54.22 1H4a3 3 0 0 1-3-3V8a3 3 0 0 1 3-3h8a3 3 0 0 1 3 3v2.01l-.25-.01H14V8a2 2 0 0 0-2-2"/></svg>