<svg xmlns="http://www.w3.org/2000/svg" xmlns:xlink="http://www.w3.org/1999/xlink" viewBox="0 0 16 16"><defs><path id="a" d="M7.25 10.04a.75.75 0 0 1 .46.96l-1.25 3.5a.75.75 0 1 1-1.42-.5l1.25-3.5a.75.75 0 0 1 .96-.46m5.25 0a.75.75 0 0 1 .46.96l-1.25 3.5a.75.75 0 1 1-1.42-.5l1.25-3.5a.75.75 0 0 1 .96-.46m-2.25-1a.75.75 0 0 1 .46.96l-1.25 3.5a.75.75 0 1 1-1.42-.5L9.3 9.5a.75.75 0 0 1 .96-.46m5.25 0a.75.75 0 0 1 .46.96l-1.25 3.5a.75.75 0 1 1-1.42-.5l1.25-3.5a.75.75 0 0 1 .96-.46"/><path id="b" d="M9.5 3H13a2 2 0 0 1 2 2H1V4a3 3 0 0 1 3-3h1.5C8 1 8 3 9.5 3"/></defs><use xlink:href="#a" fill="#22c55e" fill-rule="evenodd"/><use xlink:href="#a" fill="#f8fafc" fill-opacity="0.1" fill-rule="evenodd"/><use xlink:href="#b" fill="#22c55e" fill-opacity=".4" fill-rule="evenodd"/><use xlink:href="#b" fill="#f8fafc" fill-opacity="0.1" fill-rule="evenodd"/><path fill="#22c55e" fill-opacity=".8" fill-rule="evenodd" d="M14 6a2 2 0 0 1 1.77 1.05 2.8 2.8 0 0 0-2.73 1.07 3 3 0 0 0-.92-.12 3 3 0 0 0-.94-.73l-.26-.11a2.75 2.75 0 0 0-3.13.96 2.75 2.75 0 0 0-3.38 1.7l-1.25 3.5a2.7 2.7 0 0 0-.09 1.56 3 3 0 0 1-2.1-2.23L.05 8.43Q.01 8.3 0 8.16v-.33A2 2 0 0 1 2 6z"/><path fill="#f8fafc" fill-opacity="0.1" fill-rule="evenodd" d="M14 7H2a1 1 0 0 0-.98 1.22l.93 4.21a2 2 0 0 0 1.09 1.37q-.09.56.03 1.08a3 3 0 0 1-2.1-2.23L.05 8.43Q.01 8.3 0 8.16v-.33A2 2 0 0 1 2 6h12a2 2 0 0 1 1.77 1.05 3 3 0 0 0-1.3.06A1 1 0 0 0 14 7"/></svg>