<svg xmlns="http://www.w3.org/2000/svg" xmlns:xlink="http://www.w3.org/1999/xlink" viewBox="0 0 16 16"><defs><path id="a" d="M13.38 8a1.5 1.5 0 0 1 1.06.44l1.12 1.12a1.5 1.5 0 0 1 .44 1.06v3.88a1.5 1.5 0 0 1-1.5 1.5h-4A1.5 1.5 0 0 1 9 14.5v-5A1.5 1.5 0 0 1 10.5 8zM11 14a.5.5 0 1 0 0 1h3a.5.5 0 1 0 0-1zm0-2a.5.5 0 1 0 0 1h3a.5.5 0 1 0 0-1zm3-2h-3a.5.5 0 1 0 0 1h3a.5.5 0 1 0 0-1"/><path id="b" d="M9.5 3H13a2 2 0 0 1 2 2H1V4a3 3 0 0 1 3-3h1.5C8 1 8 3 9.5 3"/></defs><use xlink:href="#a" fill="#64748b" fill-rule="evenodd"/><use xlink:href="#a" fill="#f8fafc" fill-opacity="0.1" fill-rule="evenodd"/><use xlink:href="#b" fill="#64748b" fill-opacity=".4" fill-rule="evenodd"/><use xlink:href="#b" fill="#f8fafc" fill-opacity="0.1" fill-rule="evenodd"/><path fill="#64748b" fill-opacity=".8" fill-rule="evenodd" d="M2 6h8.5A3.5 3.5 0 0 0 7 9.5v5q0 .26.04.5H3.9a3 3 0 0 1-2.93-2.35L.04 8.44 0 8.16v-.32A2 2 0 0 1 2 6"/><path fill="#f8fafc" fill-opacity="0.1" fill-rule="evenodd" d="M2 6h8.5c-.95 0-1.82.38-2.45 1H1.99a1 1 0 0 0-.97 1.22l.93 4.21A2 2 0 0 0 3.92 14H7v.5q0 .26.04.5H3.9a3 3 0 0 1-2.93-2.35L.04 8.44 0 8.16v-.32A2 2 0 0 1 2 6"/></svg>