<svg xmlns="http://www.w3.org/2000/svg" xmlns:xlink="http://www.w3.org/1999/xlink" viewBox="0 0 16 16"><defs><path id="a" d="M13 7a3 3 0 0 1 1 5.83V13a3 3 0 1 1-4-2.83V10a3 3 0 0 1 3-3m-2 5a1 1 0 1 0 0 2 1 1 0 0 0 0-2m2-3a1 1 0 1 0 0 2 1 1 0 0 0 0-2"/><path id="d" d="M9.5 3H13a2 2 0 0 1 2 2H1V4a3 3 0 0 1 3-3h1.5C8 1 8 3 9.5 3"/><linearGradient id="c" x1="89.51%" x2="10.49%" y1="0%" y2="100%"><stop offset="0%" stop-color="#eab308"/><stop offset="30.1%" stop-color="#eab308"/><stop offset="69.82%" stop-color="#14b8a6"/><stop offset="100%" stop-color="#14b8a6"/></linearGradient></defs><use xlink:href="#a" fill="url(#c)" fill-rule="evenodd"/><use xlink:href="#a" fill="#f8fafc" fill-opacity="0.1" fill-rule="evenodd"/><use xlink:href="#d" fill="#14b8a6" fill-opacity=".4" fill-rule="evenodd"/><use xlink:href="#d" fill="#f8fafc" fill-opacity="0.1" fill-rule="evenodd"/><path fill="#14b8a6" fill-opacity=".8" fill-rule="evenodd" d="M8.12 8.91A5 5 0 0 0 6.42 15H3.9a3 3 0 0 1-2.93-2.35L.04 8.44 0 8.16v-.32A2 2 0 0 1 2 6h8a5 5 0 0 0-1.88 2.92"/><path fill="#f8fafc" fill-opacity="0.1" fill-rule="evenodd" d="M9.18 6.78 9 7H2a1 1 0 0 0-.98 1.22l.93 4.21A2 2 0 0 0 3.91 14H6.1q.1.52.32 1H3.9a3 3 0 0 1-2.93-2.35L.04 8.44 0 8.16v-.32A2 2 0 0 1 2 6h8a5 5 0 0 0-.82.78"/></svg>