<svg xmlns="http://www.w3.org/2000/svg" xmlns:xlink="http://www.w3.org/1999/xlink" viewBox="0 0 16 16"><defs><path id="a" d="M10 12v1.87q.01.15.25.13H12v-.75c0-.69.56-1.25 1.25-1.25h1.5c.69 0 1.25.56 1.25 1.25v1.5c0 .69-.56 1.25-1.25 1.25h-1.5a1.25 1.25 0 0 1-1.23-1h-1.77C9.47 15 9 14.53 9 13.75v-1.77c-.57-.12-1-.63-1-1.23v-1.5C8 8.56 8.56 8 9.25 8h1.5c.69 0 1.25.56 1.25 1.25v1.5c0 .69-.56 1.25-1.25 1.25z"/><path id="b" d="M9.5 3H13a2 2 0 0 1 2 2H1V4a3 3 0 0 1 3-3h1.5C8 1 8 3 9.5 3"/></defs><use xlink:href="#a" fill="#f97316" fill-rule="evenodd"/><use xlink:href="#a" fill="#f8fafc" fill-opacity="0.1" fill-rule="evenodd"/><use xlink:href="#b" fill="#f97316" fill-opacity=".4" fill-rule="evenodd"/><use xlink:href="#b" fill="#f8fafc" fill-opacity="0.1" fill-rule="evenodd"/><path fill="#f97316" fill-opacity=".8" fill-rule="evenodd" d="M2 6h7.25A3.25 3.25 0 0 0 6 9.25v1.5c0 .91.38 1.75 1 2.34v.66q0 .68.22 1.25H3.91a3 3 0 0 1-2.93-2.35L.04 8.44 0 8.16v-.32A2 2 0 0 1 2 6m12 0a2 2 0 0 1 2 1.84v.32l-.04.27-.38 1.68a3 3 0 0 0-.83-.11H14v-.75A3.25 3.25 0 0 0 10.75 6z"/><path fill="#f8fafc" fill-opacity="0.1" fill-rule="evenodd" d="M2 6h7.25A3.2 3.2 0 0 0 6.9 7H2a1 1 0 0 0-.98 1.22l.93 4.21A2 2 0 0 0 3.91 14H7q.04.54.21 1h-3.3a3 3 0 0 1-2.93-2.35L.04 8.44 0 8.16v-.32A2 2 0 0 1 2 6m12 0a2 2 0 0 1 2 1.84v.32l-.04.27-.38 1.68a3 3 0 0 0-.83-.11h-.16l.4-1.78.01-.12A1 1 0 0 0 14 7h-.9a3.2 3.2 0 0 0-2.35-1z"/></svg>