<svg xmlns="http://www.w3.org/2000/svg" xmlns:xlink="http://www.w3.org/1999/xlink" viewBox="0 0 16 16"><defs><path id="a" d="m11.79 8.06-3.77 4.6a.5.5 0 0 0 .02.66l2.05 2.24a1 1 0 0 0 1 .29l4.53-1.18a.5.5 0 0 0 .3-.74l-3.3-5.8a.5.5 0 0 0-.83-.07"/><path id="b" d="M9.5 3H13a2 2 0 0 1 2 2H1V4a3 3 0 0 1 3-3h1.5C8 1 8 3 9.5 3"/></defs><use xlink:href="#a" fill="#14b8a6" fill-rule="evenodd"/><use xlink:href="#a" fill="#f8fafc" fill-opacity="0.1" fill-rule="evenodd"/><use xlink:href="#b" fill="#14b8a6" fill-opacity=".4" fill-rule="evenodd"/><use xlink:href="#b" fill="#f8fafc" fill-opacity="0.1" fill-rule="evenodd"/><path fill="#14b8a6" fill-opacity=".8" fill-rule="evenodd" d="m10.59 6.45-.13.11-.22.24-3.76 4.6a2.5 2.5 0 0 0 .09 3.27l.3.33H3.91a3 3 0 0 1-2.93-2.35L.04 8.44 0 8.16v-.32A2 2 0 0 1 2 6h9.4a3 3 0 0 0-.81.45M14 6a2 2 0 0 1 2 1.83v.33l-.05.27-.25 1.1-1.36-2.4A2.5 2.5 0 0 0 12.95 6z"/><path fill="#f8fafc" fill-opacity="0.1" fill-rule="evenodd" d="m10.59 6.45-.13.11-.22.24-.17.2H2a1 1 0 0 0-.97 1.22l.93 4.21A2 2 0 0 0 3.91 14h2.22q.15.37.44.67l.3.33H3.91a3 3 0 0 1-2.93-2.35L.04 8.44 0 8.16v-.32A2 2 0 0 1 2 6h9.4a3 3 0 0 0-.81.45M14 6a2 2 0 0 1 2 1.83v.33l-.05.27-.25 1.1-.73-1.29v-.02L15 8.1a1 1 0 0 0-.71-1.06l.06.1A2.5 2.5 0 0 0 12.95 6z"/></svg>