<svg xmlns="http://www.w3.org/2000/svg" xmlns:xlink="http://www.w3.org/1999/xlink" viewBox="0 0 16 16"><defs><path id="a" d="m8.66 7 1.35.66-1.05 2.1 1.28-.46.45-.17.95-1.32.44-.6 1.22.87-.44.6-2.32 3.23 2.98-2.49.53-.43 1.11 1.11-.24.49-1.4 2.8 1.35-.79 1.13-.66v1.81l-.01.12-.25 1.5-.12.74-1.48-.24.12-.74.08-.48-1.71 1-.5.29-.41-.41-.25-.25-.38-.38.24-.49 1.04-2.08-3.89 3.25-.73.6-.42-.85-.25-.5-.2-.4.26-.37 2-2.77-1.13.42-1.01.36v-1.75l.08-.16 1.25-2.5z"/><path id="b" d="M9.5 3H12a3 3 0 0 1 3 3v1.03a2 2 0 0 0-.33-.4A3 3 0 0 0 12 5H4a3 3 0 0 0-3 3V4a3 3 0 0 1 3-3h1.5C8 1 8 3 9.5 3"/></defs><use xlink:href="#a" fill="#64748b" fill-rule="evenodd"/><use xlink:href="#a" fill="#f8fafc" fill-opacity="0.1" fill-rule="evenodd"/><use xlink:href="#b" fill="#64748b" fill-opacity=".4" fill-rule="evenodd"/><use xlink:href="#b" fill="#f8fafc" fill-opacity="0.1" fill-rule="evenodd"/><path fill="#64748b" fill-opacity=".8" fill-rule="evenodd" d="M6.88 6.1 5.2 9.43a2 2 0 0 0-.21.9v1.74q.01.62.32 1.09l-.07.1a2 2 0 0 0-.3 1.74H4a3 3 0 0 1-3-3V8a3 3 0 0 1 3-3h4.5a2 2 0 0 0-1.63 1.1M12 5a3 3 0 0 1 2.67 1.62l-.2-.16-1.22-.88a2 2 0 0 0-2.56.19l-1.13-.56A2 2 0 0 0 8.83 5z"/><path fill="#f8fafc" fill-opacity="0.1" fill-rule="evenodd" d="m7.02 5.86-.1.14H4a2 2 0 0 0-2 2v4a2 2 0 0 0 2 2h.92a2 2 0 0 0 .04 1H4a3 3 0 0 1-3-3V8a3 3 0 0 1 3-3h4.5a2 2 0 0 0-1.48.86M12 5a3 3 0 0 1 2.67 1.62l-.2-.16-1.22-.88a2 2 0 0 0-2.56.19l-1.13-.56A2 2 0 0 0 8.83 5z"/></svg>