<svg xmlns="http://www.w3.org/2000/svg" xmlns:xlink="http://www.w3.org/1999/xlink" viewBox="0 0 16 16"><defs><path id="b" d="M9.5 3H12a3 3 0 0 1 2.89 2.18 6 6 0 0 0-2.25-.11A3 3 0 0 0 12 5H4a3 3 0 0 0-3 3V4a3 3 0 0 1 3-3h1.5C8 1 8 3 9.5 3"/><path id="a" d="M11 9v3a1 1 0 0 0 2 0V9.1q.14-.1.5-.1c.36 0 .41.04.5.1v3.4c0 .8-.9 1.5-2 1.5s-2-.7-2-1.5V10a1 1 0 1 0-2 0v2.5c0 2.03 1.89 3.5 4 3.5s4-1.47 4-3.5V9c0-1.19-1.08-2-2.5-2S11 7.81 11 9"/></defs><use fill="#14b8a6" href="#a"/><use fill="#f8fafc" fill-opacity="0.1" href="#a"/><use xlink:href="#b" fill="#14b8a6" fill-opacity=".4" fill-rule="evenodd"/><use xlink:href="#b" fill="#f8fafc" fill-opacity="0.1" fill-rule="evenodd"/><path fill="#14b8a6" fill-opacity=".8" fill-rule="evenodd" d="M12 5q.33 0 .64.07a4.4 4.4 0 0 0-3.11 1.98A3 3 0 0 0 6 10v2.5q.01 1.38.64 2.5H4a3 3 0 0 1-3-3V8a3 3 0 0 1 3-3z"/><path fill="#f8fafc" fill-opacity="0.1" fill-rule="evenodd" d="M12 5q.33 0 .64.07a5 5 0 0 0-2.18.93H4a2 2 0 0 0-2 2v4a2 2 0 0 0 2 2h2.22q.16.53.42 1H4a3 3 0 0 1-3-3V8a3 3 0 0 1 3-3z"/></svg>