<svg xmlns="http://www.w3.org/2000/svg" xmlns:xlink="http://www.w3.org/1999/xlink" viewBox="0 0 16 16"><defs><path id="a" d="M14 15.75V12.5a.5.5 0 0 0-.5-.5H12v2h.25c.13 0 .25.11.25.26v1.49q-.02.23-.25.25h-1.5a.26.26 0 0 1-.25-.25v-1.5q.02-.23.25-.25H11v-2H9.5a.5.5 0 0 0-.5.5v3.25q-.02.23-.25.25h-1.5a.26.26 0 0 1-.25-.26v-1.49q.02-.23.26-.25H8v-1.5A1.5 1.5 0 0 1 9.5 11H11v-1h-.5a1 1 0 0 1-1-1V8a1 1 0 0 1 1-1h2a1 1 0 0 1 1 1v1a1 1 0 0 1-1 1H12v1h1.5a1.5 1.5 0 0 1 1.5 1.5V14h.75c.13 0 .25.11.25.26v1.49q-.02.23-.25.25h-1.5a.26.26 0 0 1-.25-.25"/><path id="b" d="M9.5 3H12a3 3 0 0 1 3 3v.34A3 3 0 0 0 12.5 5H4a3 3 0 0 0-3 3V4a3 3 0 0 1 3-3h1.5C8 1 8 3 9.5 3"/></defs><use xlink:href="#a" fill="#14b8a6" fill-rule="evenodd"/><use xlink:href="#a" fill="#f8fafc" fill-opacity="0.1" fill-rule="evenodd"/><use xlink:href="#b" fill="#14b8a6" fill-opacity=".4" fill-rule="evenodd"/><use xlink:href="#b" fill="#f8fafc" fill-opacity="0.1" fill-rule="evenodd"/><path fill="#14b8a6" fill-opacity=".8" fill-rule="evenodd" d="M4 5h6.5a3 3 0 0 0-3 3v1q0 .3.06.59A3.5 3.5 0 0 0 6 12.38a2.3 2.3 0 0 0-1 1.88V15H4a3 3 0 0 1-3-3V8a3 3 0 0 1 3-3"/><path fill="#f8fafc" fill-opacity="0.1" fill-rule="evenodd" d="M4 5h6.5c-.89 0-1.69.39-2.24 1H4a2 2 0 0 0-2 2v4a2 2 0 0 0 2 2h1.01l-.01.26V15H4a3 3 0 0 1-3-3V8a3 3 0 0 1 3-3"/></svg>