<svg xmlns="http://www.w3.org/2000/svg" xmlns:xlink="http://www.w3.org/1999/xlink" viewBox="0 0 16 16"><defs><path id="a" d="M11.5 7a4.5 4.5 0 1 1 0 9 4.5 4.5 0 0 1 0-9m-3.3 5.25h-.12a3.5 3.5 0 0 0 2.49 2.62l.18.05q-.04-2.57-2.55-2.67m4.05 2.55v.12a3.5 3.5 0 0 0 2.63-2.49l.04-.18q-2.57.04-2.67 2.55m-.75-5.3c1.75 0 1.5 1 3.5 1.25l-.08-.01a3.5 3.5 0 0 0-6.84 0C10 10.47 9.78 9.5 11.5 9.5"/><path id="b" d="M9.5 3H13a2 2 0 0 1 2 2H1V4a3 3 0 0 1 3-3h1.5C8 1 8 3 9.5 3"/></defs><use xlink:href="#a" fill="#8b5cf6" fill-rule="evenodd"/><use xlink:href="#a" fill="#f8fafc" fill-opacity="0.1" fill-rule="evenodd"/><use xlink:href="#b" fill="#8b5cf6" fill-opacity=".4" fill-rule="evenodd"/><use xlink:href="#b" fill="#f8fafc" fill-opacity="0.1" fill-rule="evenodd"/><path fill="#8b5cf6" fill-opacity=".8" fill-rule="evenodd" d="M5 11.5c0 1.29.38 2.49 1.02 3.5H3.91a3 3 0 0 1-2.93-2.35L.04 8.44 0 8.16v-.32A2 2 0 0 1 2 6h6.03A6.5 6.5 0 0 0 5 11.5"/><path fill="#f8fafc" fill-opacity="0.1" fill-rule="evenodd" d="M7.03 6.78 6.81 7H1.99a1 1 0 0 0-.97 1.22l.93 4.21A2 2 0 0 0 3.91 14H5.5q.22.53.52 1H3.91a3 3 0 0 1-2.93-2.35L.04 8.44 0 8.16v-.32A2 2 0 0 1 2 6h6.03a7 7 0 0 0-1 .78"/></svg>