<svg xmlns="http://www.w3.org/2000/svg" xmlns:xlink="http://www.w3.org/1999/xlink" viewBox="0 0 16 16"><defs><path id="a" d="m10.79 15-1.15.6a1 1 0 0 1-1.45-1.05l.22-1.26a1 1 0 0 0-.29-.88l-.91-.9a1 1 0 0 1 .55-1.7L9 9.63a1 1 0 0 0 .78-.6l.56-1.31a1 1 0 0 1 1.84 0l.56 1.31a1 1 0 0 0 .78.6l1.23.18a1 1 0 0 1 .55 1.7l-.91.9a1 1 0 0 0-.3.88l.23 1.26a1 1 0 0 1-1.45 1.06L11.7 15a1 1 0 0 0-.92 0"/><path id="b" d="M9.5 3H13a2 2 0 0 1 2 2H1V4a3 3 0 0 1 3-3h1.5C8 1 8 3 9.5 3"/></defs><use xlink:href="#a" fill="#eab308" fill-rule="evenodd"/><use xlink:href="#a" fill="#f8fafc" fill-opacity="0.1" fill-rule="evenodd"/><use xlink:href="#b" fill="#eab308" fill-opacity=".4" fill-rule="evenodd"/><use xlink:href="#b" fill="#f8fafc" fill-opacity="0.1" fill-rule="evenodd"/><path fill="#eab308" fill-opacity=".8" fill-rule="evenodd" d="m8.5 6.94-.35.8-.67.1a3 3 0 0 0-1.66 5.11l.53.52-.12.74a3 3 0 0 0-.04.8L3.91 15a3 3 0 0 1-2.93-2.35L.04 8.44 0 8.16v-.33A2 2 0 0 1 2 6h7.1q-.37.39-.6.94M14 6a2 2 0 0 1 2 1.84v.3a3 3 0 0 0-.97-.3l-.67-.1-.34-.8A3 3 0 0 0 13.4 6z"/><path fill="#f8fafc" fill-opacity="0.1" fill-rule="evenodd" d="M8.6 6.72 8.45 7H2a1 1 0 0 0-.97 1.22l.93 4.21A2 2 0 0 0 3.91 14h2.35l-.03.21a3 3 0 0 0-.04.8L3.91 15a3 3 0 0 1-2.93-2.35L.04 8.44 0 8.16v-.33A2 2 0 0 1 2 6h7.1q-.3.3-.5.72m6.64 1.15-.25-.04a1 1 0 0 0-.94-.83l-.03-.06A3 3 0 0 0 13.4 6h.6a2 2 0 0 1 2 1.84v.3a3 3 0 0 0-.76-.27"/></svg>