<svg xmlns="http://www.w3.org/2000/svg" xmlns:xlink="http://www.w3.org/1999/xlink" viewBox="0 0 16 16"><defs><path id="a" d="m11.86 12.56 1.4 1.41a.5.5 0 0 1 0 .71l-1.4 1.42a.5.5 0 0 1-.71 0l-1.42-1.42a.5.5 0 0 1 0-.7l1.42-1.42a.5.5 0 0 1 .7 0M9.04 9.73l1.41 1.42a.5.5 0 0 1 0 .7l-1.41 1.42a.5.5 0 0 1-.71 0L6.9 11.85a.5.5 0 0 1 0-.7l1.42-1.42a.5.5 0 0 1 .7 0m5.66 0 1.42 1.42a.5.5 0 0 1 0 .7l-1.42 1.42a.5.5 0 0 1-.7 0l-1.42-1.42a.5.5 0 0 1 0-.7l1.42-1.42a.5.5 0 0 1 .7 0M11.86 6.9l1.41 1.42a.5.5 0 0 1 0 .7l-1.41 1.42a.5.5 0 0 1-.71 0L9.73 9.03a.5.5 0 0 1 0-.71l1.42-1.42a.5.5 0 0 1 .7 0"/><path id="b" d="M9.5 3H12a3 3 0 0 1 3 3v1.22l-.15-.15a3 3 0 0 0-2.09-1.97 2.5 2.5 0 0 0-2.33-.1H4a3 3 0 0 0-3 3V4a3 3 0 0 1 3-3h1.5C8 1 8 3 9.5 3"/></defs><use xlink:href="#a" fill="#f97316" fill-rule="evenodd"/><use xlink:href="#a" fill="#f8fafc" fill-opacity="0.1" fill-rule="evenodd"/><use xlink:href="#b" fill="#f97316" fill-opacity=".4" fill-rule="evenodd"/><use xlink:href="#b" fill="#f8fafc" fill-opacity="0.1" fill-rule="evenodd"/><path fill="#f97316" fill-opacity=".8" fill-rule="evenodd" d="m9.86 5.37-.13.12L5.5 9.73a2.5 2.5 0 0 0 0 3.54L7.22 15H4a3 3 0 0 1-3-3V8a3 3 0 0 1 3-3h6.43q-.3.14-.57.37m3.08-.16-.18-.11.1.02a3 3 0 0 1 2 1.95l-1.6-1.58z"/><path fill="#f8fafc" fill-opacity="0.1" fill-rule="evenodd" d="m9.86 5.37-.13.12-.5.51H4a2 2 0 0 0-2 2v4a2 2 0 0 0 2 2h2.22l1 1H4a3 3 0 0 1-3-3V8a3 3 0 0 1 3-3h6.43q-.3.14-.57.37m3.08-.16-.18-.11.1.02a3 3 0 0 1 2 1.95l-1.6-1.58z"/></svg>