<svg xmlns="http://www.w3.org/2000/svg" xmlns:xlink="http://www.w3.org/1999/xlink" viewBox="0 0 16 16"><defs><path id="a" d="M12.5 7A1.5 1.5 0 0 1 14 8.5V9h1a1 1 0 0 1 1 1v1h-.5a1.5 1.5 0 0 0 0 3h.5v1a1 1 0 0 1-1 1h-5a1 1 0 0 1-1-1v-1h-.5A1.5 1.5 0 0 1 7 12.64v-.14A1.5 1.5 0 0 1 8.5 11H9v-1a1 1 0 0 1 1-1h1v-.5A1.5 1.5 0 0 1 12.36 7z"/><path id="b" d="M9.5 3H12a3 3 0 0 1 3 3v.05a3.5 3.5 0 0 0-2.3-1.04L12.45 5H4a3 3 0 0 0-3 3V4a3 3 0 0 1 3-3h1.5C8 1 8 3 9.5 3"/></defs><use xlink:href="#a" fill="#22c55e" fill-rule="evenodd"/><use xlink:href="#a" fill="#f8fafc" fill-opacity="0.1" fill-rule="evenodd"/><use xlink:href="#b" fill="#22c55e" fill-opacity=".4" fill-rule="evenodd"/><use xlink:href="#b" fill="#f8fafc" fill-opacity="0.1" fill-rule="evenodd"/><path fill="#22c55e" fill-opacity=".8" fill-rule="evenodd" d="M12.24 5.01h-.08A3.5 3.5 0 0 0 9.3 7.1a3 3 0 0 0-2.22 2.2A3.5 3.5 0 0 0 5 12.5v.24l.01.05v.05c.09.85.47 1.6 1.04 2.16H4a3 3 0 0 1-3-3V8a3 3 0 0 1 3-3h8z"/><path fill="#f8fafc" fill-opacity="0.1" fill-rule="evenodd" d="M12.24 5.01h-.08c-.82.09-1.55.45-2.1.99H4a2 2 0 0 0-2 2v4a2 2 0 0 0 2 2h1.34q.27.57.71 1H4a3 3 0 0 1-3-3V8a3 3 0 0 1 3-3h8z"/></svg>