<svg xmlns="http://www.w3.org/2000/svg" xmlns:xlink="http://www.w3.org/1999/xlink" viewBox="0 0 16 16"><defs><path id="a" d="M9 12a2 2 0 1 1 0 4 2 2 0 0 1 0-4m3.98-3.76.05.08c.66 1.24-.15 1.74.46 2.8s1.45.6 2.2 1.8l.04.08.07.12a2 2 0 0 1-3.44 2.02l-.1-.14c-.74-1.3.12-1.8-.5-2.88-.59-1.02-1.4-.64-2.1-1.67l-.14-.21a2 2 0 0 1 3.46-2"/><path id="b" d="M9.5 3H13a2 2 0 0 1 2 2H1V4a3 3 0 0 1 3-3h1.5C8 1 8 3 9.5 3"/></defs><use xlink:href="#a" fill="#8b5cf6" fill-rule="evenodd"/><use xlink:href="#a" fill="#f8fafc" fill-opacity="0.1" fill-rule="evenodd"/><use xlink:href="#b" fill="#8b5cf6" fill-opacity=".4" fill-rule="evenodd"/><use xlink:href="#b" fill="#f8fafc" fill-opacity="0.1" fill-rule="evenodd"/><path fill="#8b5cf6" fill-opacity=".8" fill-rule="evenodd" d="M2 6h6.9a4 4 0 0 0-1.5 4.33A4 4 0 0 0 5.13 15H3.9a3 3 0 0 1-2.93-2.35L.04 8.44 0 8.16v-.33A2 2 0 0 1 2 6m13.96 2.43-.4 1.8-.06-.02-.24-.11v-.08c.12-1 .04-1.7-.46-2.64l-.01-.01-.01-.02-.05-.09v-.01l-.01-.01A4 4 0 0 0 13.6 6h.4a2 2 0 0 1 2 1.84v.32z"/><path fill="#f8fafc" fill-opacity="0.1" fill-rule="evenodd" d="M2 6h6.9a4 4 0 0 0-.97 1H2a1 1 0 0 0-.97 1.22l.93 4.21A2 2 0 0 0 3.91 14H5v.27q.04.38.13.73H3.9a3 3 0 0 1-2.93-2.35L.04 8.44 0 8.16v-.33A2 2 0 0 1 2 6m13.96 2.43-.4 1.8-.06-.02-.24-.11v-.08c.1-.86.06-1.5-.28-2.27a1 1 0 0 0-.18-.36v-.01l-.01-.01-.01-.02-.05-.09v-.01l-.01-.01A4 4 0 0 0 13.6 6h.4a2 2 0 0 1 2 1.84v.32z"/></svg>