<svg xmlns="http://www.w3.org/2000/svg" xmlns:xlink="http://www.w3.org/1999/xlink" viewBox="0 0 16 16"><defs><path id="a" d="M13.7 8.41q.22.45.25.96l.56-.15a1 1 0 0 1 .75.1l.25.14a.7.7 0 0 1 .26.95l-.7 1.22a.7.7 0 0 1-.96.25l-.24-.14a1 1 0 0 1-.47-.6l-.15-.56q-.45.22-.96.25l-1.14-.66a1 1 0 0 1-.43-.52l-.26-.68-1.38.12a1 1 0 0 1-.6-.13l-.2-.12c2.4-2.5 3.96-1.27 5.41-.43m-5.33 5.97 2.27-3.54a.88.88 0 0 1 1.52.88l-1.93 3.73a1.07 1.07 0 1 1-1.85-1.07"/><path id="b" d="M9.5 3H12a3 3 0 0 1 3 3v.9l-.16-.13-.15-.1A3 3 0 0 0 12 5H4a3 3 0 0 0-3 3V4a3 3 0 0 1 3-3h1.5C8 1 8 3 9.5 3"/></defs><use xlink:href="#a" fill="#3b82f6" fill-rule="evenodd"/><use xlink:href="#a" fill="#f8fafc" fill-opacity="0.1" fill-rule="evenodd"/><use xlink:href="#b" fill="#3b82f6" fill-opacity=".4" fill-rule="evenodd"/><use xlink:href="#b" fill="#f8fafc" fill-opacity="0.1" fill-rule="evenodd"/><path fill="#3b82f6" fill-opacity=".8" fill-rule="evenodd" d="m14.7 6.68-.1-.06-.2-.12-.64-.37a5.2 5.2 0 0 0-3.14-.75q-1.98.19-3.78 2.07a2 2 0 0 0 .44 3.12l.2.12q.33.19.69.29L6.68 13.3A3 3 0 0 0 6.2 15H4a3 3 0 0 1-3-3V8a3 3 0 0 1 3-3h8a3 3 0 0 1 2.7 1.68"/><path fill="#f8fafc" fill-opacity="0.1" fill-rule="evenodd" d="m14.7 6.68-.1-.06-.2-.12-.64-.37a5.2 5.2 0 0 0-3.14-.75A5 5 0 0 0 8.67 6H4a2 2 0 0 0-2 2v4a2 2 0 0 0 2 2h2.35a3 3 0 0 0-.15 1H4a3 3 0 0 1-3-3V8a3 3 0 0 1 3-3h8a3 3 0 0 1 2.7 1.68"/></svg>