<svg xmlns="http://www.w3.org/2000/svg" xmlns:xlink="http://www.w3.org/1999/xlink" viewBox="0 0 16 16"><defs><path id="a" d="M10.5 14H16v2h-5.5a4.5 4.5 0 1 1 4.24-6H12.5a2.5 2.5 0 1 0-2 4m2.45-3H16v2h-3.5a2.5 2.5 0 0 0 .45-2"/><path id="b" d="M9.5 3H12a3 3 0 0 1 3 3v.81l-.45-.4A3 3 0 0 0 12 5H4a3 3 0 0 0-3 3V4a3 3 0 0 1 3-3h1.5C8 1 8 3 9.5 3"/></defs><use xlink:href="#a" fill="#f43f5e" fill-rule="evenodd"/><use xlink:href="#a" fill="#f8fafc" fill-opacity="0.1" fill-rule="evenodd"/><use xlink:href="#b" fill="#f43f5e" fill-opacity=".4" fill-rule="evenodd"/><use xlink:href="#b" fill="#f8fafc" fill-opacity="0.1" fill-rule="evenodd"/><path fill="#f43f5e" fill-opacity=".8" fill-rule="evenodd" d="M4 5h6.5a6.5 6.5 0 0 0-5.48 10H4a3 3 0 0 1-3-3V8a3 3 0 0 1 3-3m8 0a3 3 0 0 1 2.55 1.41 6.5 6.5 0 0 0-4-1.41z"/><path fill="#f8fafc" fill-opacity="0.1" fill-rule="evenodd" d="M4 5h6.5a6.5 6.5 0 0 0-3.46 1H4a2 2 0 0 0-2 2v4a2 2 0 0 0 2 2h.5q.22.53.52 1H4a3 3 0 0 1-3-3V8a3 3 0 0 1 3-3m8 0a3 3 0 0 1 2.55 1.41 6.5 6.5 0 0 0-4-1.41z"/></svg>