<svg xmlns="http://www.w3.org/2000/svg" xmlns:xlink="http://www.w3.org/1999/xlink" viewBox="0 0 16 16"><defs><path id="a" d="m15.7 8.57.06.2a8 8 0 0 1-.7 5.72c-.64 1.17-2.43 2.29-2.9.79-1.63 1.34-3.84.76-2.8-1.53l-.14.06c-1.43.53-1.6-.43-1.35-.98l.03-.06a4.5 4.5 0 0 0 .64-1.83c.11-.77.11-1.5.32-2.16.85-3.64 5.71-3.7 6.84-.21M12.5 8a.5.5 0 0 0-.5.5v1a.5.5 0 1 0 1 0v-1a.5.5 0 0 0-.5-.5m2 0a.5.5 0 0 0-.5.5v1a.5.5 0 1 0 1 0v-1a.5.5 0 0 0-.5-.5"/><path id="b" d="M9.5 3H12a3 3 0 0 1 2.6 1.51A6 6 0 0 0 12.27 4 5.4 5.4 0 0 0 9.1 5H4a3 3 0 0 0-3 3V4a3 3 0 0 1 3-3h1.5C8 1 8 3 9.5 3"/></defs><use xlink:href="#a" fill="#8b5cf6" fill-rule="evenodd"/><use xlink:href="#a" fill="#f8fafc" fill-opacity="0.1" fill-rule="evenodd"/><use xlink:href="#b" fill="#8b5cf6" fill-opacity=".4" fill-rule="evenodd"/><use xlink:href="#b" fill="#f8fafc" fill-opacity="0.1" fill-rule="evenodd"/><path fill="#8b5cf6" fill-opacity=".8" fill-rule="evenodd" d="m6.64 9.94-.08.7c-.05.34-.07.43-.14.64l-.01.03-.27.51v.01a2.9 2.9 0 0 0 .11 3l.13.17H4a3 3 0 0 1-3-3V8a3 3 0 0 1 3-3h5.09a5.6 5.6 0 0 0-2.14 3.2c-.16.52-.23.93-.3 1.75"/><path fill="#f8fafc" fill-opacity="0.1" fill-rule="evenodd" d="M8.03 6H4a2 2 0 0 0-2 2v4a2 2 0 0 0 2 2h1.87q.12.44.38.83l.13.17H4a3 3 0 0 1-3-3V8a3 3 0 0 1 3-3h5.09q-.6.42-1.06 1"/></svg>