<svg xmlns="http://www.w3.org/2000/svg" xmlns:xlink="http://www.w3.org/1999/xlink" viewBox="0 0 16 16"><defs><path id="a" d="m12.39 7.74 3.49 6.8a1 1 0 0 1-.9 1.46H8.02a1 1 0 0 1-.89-1.46l3.49-6.8a1 1 0 0 1 1.78 0m-.89 5.76a1 1 0 1 0 0 2 1 1 0 0 0 0-2m0-4.5a1 1 0 0 1 1 1v2a1 1 0 0 1-2 0v-2a1 1 0 0 1 1-1"/><path id="b" d="M9.5 3H13a2 2 0 0 1 2 2H1V4a3 3 0 0 1 3-3h1.5C8 1 8 3 9.5 3"/></defs><use xlink:href="#a" fill="#f97316" fill-rule="evenodd"/><use xlink:href="#a" fill="#f8fafc" fill-opacity="0.1" fill-rule="evenodd"/><use xlink:href="#b" fill="#f97316" fill-opacity=".4" fill-rule="evenodd"/><use xlink:href="#b" fill="#f8fafc" fill-opacity="0.1" fill-rule="evenodd"/><path fill="#f97316" fill-opacity=".8" fill-rule="evenodd" d="m8.93 6.65-.1.17-3.49 6.81Q5 14.32 5.01 15H3.9a3 3 0 0 1-2.93-2.35L.04 8.44 0 8.16v-.32A2 2 0 0 1 2 6h7.45a3 3 0 0 0-.52.65M14 6a2 2 0 0 1 2 1.83v.33l-.05.27-.3 1.31-1.49-2.92a3 3 0 0 0-.61-.82z"/><path fill="#f8fafc" fill-opacity="0.1" fill-rule="evenodd" d="m8.93 6.65-.1.17-.09.18H1.99a1 1 0 0 0-.97 1.22l.93 4.21A2 2 0 0 0 3.91 14h1.27a3 3 0 0 0-.17 1H3.9a3 3 0 0 1-2.93-2.35L.04 8.44 0 8.16v-.32A2 2 0 0 1 2 6h7.45a3 3 0 0 0-.52.65M14 6a2 2 0 0 1 2 1.83v.33l-.05.27-.3 1.31-.7-1.39.02-.13.02-.12a1 1 0 0 0-.72-1.06l-.11-.22a3 3 0 0 0-.62-.82z"/></svg>