<svg xmlns="http://www.w3.org/2000/svg" xmlns:xlink="http://www.w3.org/1999/xlink" viewBox="0 0 16 16"><defs><path id="b" d="M9.5 3H13a2 2 0 0 1 2 2H1V4a3 3 0 0 1 3-3h1.5C8 1 8 3 9.5 3"/><path id="a" d="m12.7 7.5 2.42 7h.13a.75.75 0 1 1 0 1.5h-1.5a.75.75 0 0 1-.2-1.47l-.19-.53h-2.72l-.19.54a.75.75 0 0 1-.22 1.46H8.75a.75.75 0 1 1 0-1.5h.13l2.41-7a.75.75 0 0 1 1.42 0m-1.56 5h1.7L12 10.05z"/></defs><use fill="#64748b" href="#a"/><use fill="#f8fafc" fill-opacity="0.1" href="#a"/><use xlink:href="#b" fill="#64748b" fill-opacity=".4" fill-rule="evenodd"/><use xlink:href="#b" fill="#f8fafc" fill-opacity="0.1" fill-rule="evenodd"/><path fill="#64748b" fill-opacity=".8" fill-rule="evenodd" d="m9.47 6.68-.07.17-2.09 6.06A2.7 2.7 0 0 0 6.01 15h-2.1a3 3 0 0 1-2.93-2.35L.04 8.44 0 8.16v-.32A2 2 0 0 1 2 6h7.87q-.24.3-.4.68m4.78-.53L14.14 6H14a2 2 0 0 1 2 1.83v.33l-.05.27-.32 1.44-1.04-3.02a3 3 0 0 0-.35-.7"/><path fill="#f8fafc" fill-opacity="0.1" fill-rule="evenodd" d="m9.47 6.68-.07.17-.05.15H1.99a1 1 0 0 0-.97 1.22l.93 4.21A2 2 0 0 0 3.91 14H6.3a3 3 0 0 0-.29 1h-2.1a3 3 0 0 1-2.93-2.35L.04 8.44 0 8.16v-.32A2 2 0 0 1 2 6h7.87q-.24.3-.4.68m4.78-.53L14.14 6H14a2 2 0 0 1 2 1.83v.33l-.05.27-.32 1.44L15 8.03v-.05a1 1 0 0 0-.23-.62l-.17-.5a3 3 0 0 0-.35-.7"/></svg>