<svg xmlns="http://www.w3.org/2000/svg" xmlns:xlink="http://www.w3.org/1999/xlink" viewBox="0 0 16 16"><defs><path id="a" d="M9.74 1.29c1.27.42 1.6 2.4.96 3.99-.29.71-.9 1.55-1.59 2.2-.84.8-1.63 1.22-2.35.98-.63-.21-.9-.79-.82-1.48q.09-.72.64-1.81a.75.75 0 1 1 1.34.67 6 6 0 0 0-.43 1.02 5.4 5.4 0 0 0 1.8-2.14c.2-.47.26-1.02.19-1.47a1 1 0 0 0-.15-.46l-.03-.03a3 3 0 0 0-.47.22c-.43.23-.96.59-1.48 1.01-1.18.95-2.11 2.01-2.4 2.77-.57 1.53-.53 2.35-.17 2.71.1.09.55.22 1.13.22.74 0 1.53-.2 2.22-.6a7.4 7.4 0 0 0 2.71-2.95c.37-.66 1.36-.43 1.4.31q.29 4.25-1.39 6.5C9.69 14.5 7.93 15.18 5.69 15a.75.75 0 1 1 .12-1.5c1.76.15 3-.34 3.84-1.45a6 6 0 0 0 1.07-3.15 8 8 0 0 1-1.85 1.5c-1.8 1.03-4.25 1.03-5.15.13q-1.3-1.26-.17-4.3c.4-1.06 1.49-2.3 2.86-3.4C7.79 1.7 9 1.04 9.74 1.28"/></defs><path fill="#14b8a6" fill-opacity=".4" fill-rule="evenodd" d="M7.54 13.75 4.2 15.49a1 1 0 0 1-1.45-1.05l.63-3.7a1 1 0 0 0-.28-.89L.4 7.23a1 1 0 0 1 .56-1.7l3.72-.55a1 1 0 0 0 .75-.54L7.1 1.07a1 1 0 0 1 1.8 0l1.66 3.37a1 1 0 0 0 .75.54l3.72.54a1 1 0 0 1 .55 1.7L12.9 9.86a1 1 0 0 0-.28.89l.63 3.7a1 1 0 0 1-1.45 1.05l-3.32-1.75a1 1 0 0 0-.93 0"/><path fill="none" stroke="#f8fafc" stroke-opacity="0.1" d="m8.41 1.22.04.07 1.66 3.37a1.5 1.5 0 0 0 1.13.82l3.72.54a.5.5 0 0 1 .27.85L12.55 9.5a1.5 1.5 0 0 0-.43 1.33l.64 3.7a.5.5 0 0 1-.73.53L8.7 13.3a1.5 1.5 0 0 0-1.4 0l-3.32 1.75a.5.5 0 0 1-.73-.53l.64-3.7a1.5 1.5 0 0 0-.43-1.33L.75 6.87a.5.5 0 0 1 .28-.85l3.72-.54a1.5 1.5 0 0 0 1.13-.82l1.66-3.37a.5.5 0 0 1 .86-.07Z"/><use fill="#14b8a6" href="#a"/><use fill="#f8fafc" fill-opacity="0.1" href="#a"/></svg>