<svg xmlns="http://www.w3.org/2000/svg" viewBox="0 0 16 16"><path fill="#f97316" d="M3.48 6.91a.6.6 0 0 1-.56.49H1.85c-.45 0-.7-.27-.7-.6v-.6H.56a.6.6 0 0 0-.57.6v.6C0 9.72 1.79 11 4 11c1.96 0 3.59-1 3.93-2.85.31-1.66-.6-3.14-2.2-3.15-1.09 0-2.03.8-2.25 1.91"/><path fill="none" stroke="#f8fafc" stroke-opacity="0.1" d="M7.44 8.06C7.16 9.58 5.82 10.5 4 10.5 1.91 10.5.5 9.3.5 7.4v-.6q.01-.1.07-.1h.07v.1c0 .64.51 1.1 1.2 1.1h1.08c.52 0 .96-.39 1.05-.9.17-.88.91-1.5 1.75-1.5 1.23 0 1.99 1.14 1.72 2.56Z"/><path fill="#f97316" fill-opacity=".4" d="M14.86 6.2v.6c0 .33-.26.6-.7.6h-1.08a.6.6 0 0 1-.56-.49A2.3 2.3 0 0 0 10.27 5c-1.6.01-2.51 1.5-2.2 3.15C8.4 10 10.04 11 12 11c2.21 0 4-1.28 4-3.6v-.6c0-.33-.26-.6-.57-.6z"/><path fill="none" stroke="#f8fafc" stroke-opacity="0.1" d="M12.03 7c.1.51.53.9 1.05.9h1.07c.7 0 1.2-.46 1.2-1.1v-.1h.08q.06 0 .07.1v.6c0 1.9-1.41 3.1-3.5 3.1-1.82 0-3.16-.92-3.44-2.44-.27-1.42.49-2.55 1.72-2.56.84 0 1.58.62 1.75 1.5Z"/></svg>