<svg xmlns="http://www.w3.org/2000/svg" xmlns:xlink="http://www.w3.org/1999/xlink" viewBox="0 0 16 16"><defs><path id="a" d="M13 3.5v9a.5.5 0 0 1-.85.35L9 9.71v2.79a.5.5 0 1 1-1 0v-4a.5.5 0 0 1 .48-.5H8l-.04.2-2 4.5a.5.5 0 0 1-.92 0l-2-4.5a.5.5 0 0 1 .03-.45L3 7.5v-4a.5.5 0 0 1 1 0V7h8V6H8.5a.5.5 0 0 1 0-1H12V4H8.5a.5.5 0 0 1 0-1h4a.5.5 0 0 1 .5.5M8.51 8a.5.5 0 0 1 .34.15L12 11.29V8zm-2.45 2H4.94l.56 1.27zM4.05 8l.44 1h2.02l.44-1z"/></defs><path fill="#3b82f6" fill-opacity=".4" fill-rule="evenodd" d="M5 1h6a4 4 0 0 1 4 4v6a4 4 0 0 1-4 4H5a4 4 0 0 1-4-4V5a4 4 0 0 1 4-4"/><path fill="none" stroke="#f8fafc" stroke-opacity="0.1" d="M14.5 5v6a3.5 3.5 0 0 1-3.5 3.5H5A3.5 3.5 0 0 1 1.5 11V5A3.5 3.5 0 0 1 5 1.5h6A3.5 3.5 0 0 1 14.5 5Z"/><use xlink:href="#a" fill="#3b82f6" fill-rule="evenodd"/><use xlink:href="#a" fill="#f8fafc" fill-opacity="0.1" fill-rule="evenodd"/></svg>