<svg xmlns="http://www.w3.org/2000/svg" xmlns:xlink="http://www.w3.org/1999/xlink" viewBox="0 0 16 16"><defs><path id="a" d="m13.09 11.8 1.04 1.82a.6.6 0 0 1-.59.9l-1.29-.16-.51 1.2a.6.6 0 0 1-1.07.06l-1.05-1.8a7 7 0 0 0 3.47-2.01"/><path id="b" d="m6.07 13.73.3.08-1.04 1.81a.6.6 0 0 1-1.07-.06l-.51-1.2-1.29.16a.6.6 0 0 1-.6-.9l1.05-1.81a7 7 0 0 0 3.16 1.92"/></defs><circle cx="8" cy="7" r="7" fill="#eab308" fill-opacity=".4" fill-rule="evenodd"/><circle cx="8" cy="7" r="6.5" fill="none" stroke="#f8fafc" stroke-opacity="0.1"/><use xlink:href="#a" fill="#f43f5e" fill-opacity=".4" fill-rule="evenodd"/><use xlink:href="#a" fill="#f8fafc" fill-opacity="0.1" fill-rule="evenodd"/><use xlink:href="#b" fill="#f43f5e" fill-opacity=".4" fill-rule="evenodd"/><use xlink:href="#b" fill="#f8fafc" fill-opacity="0.1" fill-rule="evenodd"/><path fill="#eab308" fill-rule="evenodd" d="m8 8.96-1.5.88a.5.5 0 0 1-.74-.53l.38-1.7-1.3-1.16a.5.5 0 0 1 .27-.87l1.74-.16.7-1.6a.5.5 0 0 1 .9 0l.7 1.6 1.74.16a.5.5 0 0 1 .28.87L9.86 7.6l.38 1.7a.5.5 0 0 1-.74.55z"/><path fill="none" stroke="#f8fafc" stroke-opacity="0.1" d="m8.69 5.62.12.27.3.03 1.73.16-1.31 1.15-.22.2.06.28.39 1.7-1.5-.88L8 8.37l-.25.15-1.5.9.38-1.7.06-.3-.22-.2-1.3-1.14L6.9 5.9l.3-.02.11-.27.69-1.6Z"/></svg>