<svg xmlns="http://www.w3.org/2000/svg" xmlns:xlink="http://www.w3.org/1999/xlink" viewBox="0 0 16 16"><defs><path id="a" d="m10 4.4 1.93.51a1 1 0 0 1 .71 1.23l-.52 1.93a1 1 0 0 1-1.22.7l-1.93-.51a1 1 0 0 1-.71-1.23l.52-1.93A1 1 0 0 1 10 4.4"/></defs><path fill="#0ea5e9" fill-opacity=".4" fill-rule="evenodd" d="m6.91.46 5.8 1.56a4 4 0 0 1 2.83 4.9l-1.55 5.79a4 4 0 0 1-4.9 2.83l-5.8-1.55a4 4 0 0 1-2.83-4.9l1.56-5.8A4 4 0 0 1 6.92.46"/><path fill="none" stroke="#f8fafc" stroke-opacity="0.1" d="m6.43.87.35.08 5.8 1.55a3.5 3.5 0 0 1 2.48 4.29l-1.56 5.79a3.5 3.5 0 0 1-4.29 2.48L3.43 13.5A3.5 3.5 0 0 1 .95 9.22l1.55-5.8A3.5 3.5 0 0 1 6.43.87Z"/><use xlink:href="#a" fill="#0ea5e9" fill-rule="evenodd"/><use xlink:href="#a" fill="#f8fafc" fill-opacity="0.1" fill-rule="evenodd"/></svg>