<svg xmlns="http://www.w3.org/2000/svg" xmlns:xlink="http://www.w3.org/1999/xlink" viewBox="0 0 16 16"><defs><path id="a" d="M9 5v3.59l1.3-1.3a1 1 0 0 1 1.4 1.42l-3 3a1 1 0 0 1-.32.21l-.04.02-.05.02h-.04l-.06.02h-.05L8.1 12a1 1 0 0 1-.66-.17l-.04-.03-.03-.03-.08-.06-3-3a1 1 0 0 1 1.42-1.42L7 8.6V5a1 1 0 1 1 2 0"/></defs><path fill="#eab308" fill-opacity=".4" fill-rule="evenodd" d="M5 1h6a4 4 0 0 1 4 4v6a4 4 0 0 1-4 4H5a4 4 0 0 1-4-4V5a4 4 0 0 1 4-4"/><path fill="none" stroke="#f8fafc" stroke-opacity="0.1" d="M14.5 5v6a3.5 3.5 0 0 1-3.5 3.5H5A3.5 3.5 0 0 1 1.5 11V5A3.5 3.5 0 0 1 5 1.5h6A3.5 3.5 0 0 1 14.5 5Z"/><use fill="#eab308" href="#a"/><use fill="#f8fafc" fill-opacity="0.1" href="#a"/></svg>