<svg xmlns="http://www.w3.org/2000/svg" viewBox="0 0 16 16"><path fill="#22c55e" fill-opacity=".4" fill-rule="evenodd" d="M11.5 12a.5.5 0 0 1-.5-.5V10a1 1 0 0 0-2 0v2.5a1.5 1.5 0 0 0 1.5 1.5h3a1.5 1.5 0 0 0 1.5-1.5V5a1 1 0 0 0-1-1h-1a1 1 0 0 0-1 1v6.5a.5.5 0 0 1-.5.5"/><path fill="none" stroke="#f8fafc" stroke-opacity="0.1" d="M14.5 5v7.5a1 1 0 0 1-1 1h-3a1 1 0 0 1-1-1V10a.5.5 0 0 1 1 0v1.5a1 1 0 0 0 2 0V5a.5.5 0 0 1 .5-.5h1a.5.5 0 0 1 .5.5Z"/><path fill="#22c55e" fill-rule="evenodd" d="M1 13V3a1 1 0 0 1 1-1h.38a1 1 0 0 1 .9.55l1.25 2.5c.11.24.47.16.47-.1V3a1 1 0 0 1 1-1h1a1 1 0 0 1 1 1v10a1 1 0 0 1-1 1h-.38a1 1 0 0 1-.9-.55l-1.25-2.5c-.11-.24-.47-.16-.47.1V13a1 1 0 0 1-1 1H2a1 1 0 0 1-1-1"/><path fill="none" stroke="#f8fafc" stroke-opacity="0.1" d="m2.81 2.75.02.03 1.25 2.5c.35.7 1.42.45 1.42-.34V3a.5.5 0 0 1 .5-.5h1a.5.5 0 0 1 .5.5v10a.5.5 0 0 1-.5.5h-.38a.5.5 0 0 1-.45-.28l-1.25-2.5c-.35-.7-1.42-.45-1.42.34V13a.5.5 0 0 1-.5.5H2a.5.5 0 0 1-.5-.5V3a.5.5 0 0 1 .5-.5h.38a.5.5 0 0 1 .43.25Z"/></svg>