<svg xmlns="http://www.w3.org/2000/svg" xmlns:xlink="http://www.w3.org/1999/xlink" viewBox="0 0 16 16"><defs><path id="a" d="M12 9.5c0 .45.01.55.09.67q.12.18.68.57a.5.5 0 0 1 .23.42v3.34a.5.5 0 1 1-1 0v-3.08q-.54-.37-.75-.71c-.22-.34-.25-.57-.25-1.21a.5.5 0 1 1 1 0m-6 0v5a.5.5 0 1 1-1 0v-5a.5.5 0 0 1 1 0m9 0v5a.5.5 0 1 1-1 0v-5a.5.5 0 1 1 1 0m-6 0 .02 2.43.95 2.39a.5.5 0 0 1-.94.36l-.97-2.47-.04-.18L8 9.5a.5.5 0 0 1 1 0"/></defs><use fill="#3b82f6" href="#a"/><use fill="#f8fafc" fill-opacity="0.1" href="#a"/><path fill="#3b82f6" fill-rule="evenodd" d="M14 7q1.25.75 1 3H4.25C3.5 10 3 9.5 3 8.75V6c-1.5 0-2-.5-2-1.5S1.5 3 3 3c.25-.25.5-1.25 2-1.25S7 3 7 4v1q.5-1 1.25-1 .5-3 2.75-3c2.25 0 3 4.5 3 6M5 3a1 1 0 1 0 0 2 1 1 0 0 0 0-2"/><path fill="none" stroke="#f8fafc" stroke-opacity="0.1" d="M13.5 7v.28l.24.15c.57.34.84 1 .8 2.07H4.25c-.47 0-.75-.28-.75-.75V5.5H3c-1.18 0-1.5-.25-1.5-1s.32-1 1.5-1h.2l.15-.15c.1-.1.37-.53.45-.63.26-.3.6-.47 1.2-.47.98 0 1.5.72 1.5 1.75v3.12l.95-1.9q.38-.74.8-.72h.42l.07-.42C9.04 2.3 9.77 1.5 11 1.5c1.4 0 2.5 3.07 2.5 5.5Zm-10-3a1.5 1.5 0 1 0 3 0 1.5 1.5 0 0 0-3 0Z"/></svg>