<svg xmlns="http://www.w3.org/2000/svg" xmlns:xlink="http://www.w3.org/1999/xlink" viewBox="0 0 16 16"><defs><linearGradient id="a" x1="50%" x2="50%" y1="0%" y2="100%"><stop offset="0%" stop-color="#64748b" stop-opacity=".4"/><stop offset="100%" stop-color="#64748b" stop-opacity=".4"/></linearGradient><path id="b" d="M2.5 1H10a5 5 0 0 1 0 10H8.5A1.5 1.5 0 0 0 7 12.5v1A1.5 1.5 0 0 1 5.5 15h-3A1.5 1.5 0 0 1 1 13.5v-11A1.5 1.5 0 0 1 2.5 1M7 5v2h2a1 1 0 1 0 0-2z"/></defs><use xlink:href="#b" fill="url(#a)" fill-opacity="0" fill-rule="evenodd"/><use xlink:href="#b" fill="#64748b" fill-opacity=".4" fill-rule="evenodd"/><path fill="none" stroke="#f8fafc" stroke-opacity="0.1" d="M14.5 6a4.5 4.5 0 0 1-4.5 4.5H8.5a2 2 0 0 0-2 2v1a1 1 0 0 1-1 1h-3a1 1 0 0 1-1-1v-11a1 1 0 0 1 1-1H10A4.5 4.5 0 0 1 14.5 6Zm-8-1.5v3H9a1.5 1.5 0 0 0 0-3Z"/></svg>