<svg xmlns="http://www.w3.org/2000/svg" viewBox="0 0 16 16"><path fill="#f43f5e" fill-opacity=".4" fill-rule="evenodd" d="m.5 8.5 2.87-6.21A.5.5 0 0 1 3.82 2h2.9a.5.5 0 0 1 .45.71L4.5 8.5z"/><path fill="none" stroke="#f8fafc" stroke-opacity="0.1" d="M4.18 8h-2.9l2.54-5.5h2.9Z"/><path fill="#3b82f6" fill-rule="evenodd" d="M6.65 14H3.8a.5.5 0 0 1-.44-.26L.5 8.5l1.75-4 4.84 8.76a.5.5 0 0 1-.44.74"/><path fill="none" stroke="#f8fafc" stroke-opacity="0.1" d="M6.65 13.5H3.8L1.06 8.48 2.3 5.63Z"/><path fill="#eab308" fill-opacity=".4" fill-rule="evenodd" d="m15.5 7.5-2.87 6.21a.5.5 0 0 1-.45.29h-2.9a.5.5 0 0 1-.45-.71L11.5 7.5z"/><path fill="none" stroke="#f8fafc" stroke-opacity="0.1" d="M12.18 13.5h-2.9L11.82 8h2.9Z"/><path fill="#22c55e" fill-rule="evenodd" d="M9.35 2h2.85a.5.5 0 0 1 .44.26L15.5 7.5l-1.75 4-4.84-8.76A.5.5 0 0 1 9.35 2"/><path fill="none" stroke="#f8fafc" stroke-opacity="0.1" d="m14.94 7.52-1.24 2.85L9.35 2.5h2.85Z"/></svg>