<svg xmlns="http://www.w3.org/2000/svg" viewBox="0 0 16 16"><path fill="#f43f5e" fill-opacity=".4" fill-rule="evenodd" d="M13 .5c0 1-5.25 1.25-10 2v3.25C8.75 5 13 5 13 3.5z"/><path fill="none" stroke="#f8fafc" stroke-opacity="0.1" d="M12.5 3.5c0 .45-1.22.81-4.4 1.17l-4.6.51V2.93l.82-.12c1-.14 4.43-.57 4.32-.55a24 24 0 0 0 3.86-.7Z"/><path fill="#f43f5e" fill-rule="evenodd" d="M13 5c0 1-5.25 1.25-10 2v3.25C8.75 9.5 13 9.5 13 8z"/><path fill="none" stroke="#f8fafc" stroke-opacity="0.1" d="M12.5 8c0 .45-1.22.81-4.4 1.17l-4.6.51V7.43l.82-.12c1-.14 4.43-.57 4.32-.55a24 24 0 0 0 3.86-.7Z"/><path fill="#f43f5e" fill-rule="evenodd" d="M13 9.5c0 1-5.25 1.25-10 2v3.25C8.75 14 13 14 13 12.5z"/><path fill="none" stroke="#f8fafc" stroke-opacity="0.1" d="M12.5 12.5c0 .45-1.22.81-4.4 1.17l-4.6.51v-2.25l.82-.12c1-.14 4.43-.57 4.32-.55a24 24 0 0 0 3.86-.7Z"/></svg>