<svg xmlns="http://www.w3.org/2000/svg" viewBox="0 0 16 16"><path fill="#eab308" fill-rule="evenodd" d="M10 12.66v2.09c0 .69-.56 1.25-1.25 1.25h-1.5C6.56 16 6 15.44 6 14.75v-2.1A6 6 0 0 0 8 13a6 6 0 0 0 2-.34"/><path fill="none" stroke="#f8fafc" stroke-opacity="0.1" d="M9.5 14.75a.75.75 0 0 1-.75.75h-1.5a.75.75 0 0 1-.75-.75v-1.43a6.4 6.4 0 0 0 3 0Z"/><path fill="#eab308" d="M11.5 12.5a.5.5 0 0 1-.5.5H5a.5.5 0 1 1 0-1h6a.5.5 0 0 1 .5.5"/><circle cx="8" cy="7" r="6" fill="#eab308" fill-opacity=".4" fill-rule="evenodd"/><circle cx="8" cy="7" r="5.5" fill="none" stroke="#f8fafc" stroke-opacity="0.1"/></svg>