<svg xmlns="http://www.w3.org/2000/svg" xmlns:xlink="http://www.w3.org/1999/xlink" viewBox="0 0 16 16"><defs><circle id="a" cx="8" cy="9" r="1"/><circle id="b" cx="8" cy="6" r="1"/></defs><path fill="#8b5cf6" fill-opacity=".4" fill-rule="evenodd" d="M8 15 5 1H3L0 3.5 2 6 1 8z"/><path fill="none" stroke="#f8fafc" stroke-opacity="0.1" d="M7.16 13.45 1.6 7.9l.84-1.68.14-.28-.2-.25-1.7-2.12L3.19 1.5H4.6Z"/><path fill="#8b5cf6" fill-opacity=".4" fill-rule="evenodd" d="m8 15 3-14h2l3 2.5L14 6l1 2z"/><path fill="none" stroke="#f8fafc" stroke-opacity="0.1" d="m15.3 3.57-1.69 2.12-.2.25.14.28.84 1.68-5.55 5.55L11.4 1.5h1.42Z"/><path fill="#8b5cf6" fill-rule="evenodd" d="m8 4 2.55 1.28a1 1 0 0 0 1.45-.9V1.62a1 1 0 0 0-1.45-.9L8 2 5.45.72a1 1 0 0 0-1.45.9v2.76a1 1 0 0 0 1.45.9z"/><path fill="none" stroke="#f8fafc" stroke-opacity="0.1" d="M11.5 1.62v2.76a.5.5 0 0 1-.72.45L8 3.44 5.22 4.83a.5.5 0 0 1-.72-.45V1.62a.5.5 0 0 1 .72-.45L8 2.56l2.78-1.39a.5.5 0 0 1 .72.45Z"/><use xlink:href="#a" fill="#8b5cf6" fill-rule="evenodd"/><use xlink:href="#a" fill="#f8fafc" fill-opacity="0.1" fill-rule="evenodd"/><use xlink:href="#b" fill="#8b5cf6" fill-rule="evenodd"/><use xlink:href="#b" fill="#f8fafc" fill-opacity="0.1" fill-rule="evenodd"/></svg>