<svg xmlns="http://www.w3.org/2000/svg" viewBox="0 0 16 16"><path fill="#f97316" fill-rule="evenodd" d="M8 4.5a2 2 0 1 0 0-4 2 2 0 0 0 0 4m0 11a2 2 0 1 0 0-4 2 2 0 0 0 0 4m3.03-9.25a2 2 0 1 0 3.47-2 2 2 0 0 0-3.47 2m-9.52 5.5a2 2 0 1 0 3.46-2 2 2 0 0 0-3.46 2m9.52-2a2 2 0 1 0 3.47 2 2 2 0 0 0-3.47-2m-9.52-5.5a2 2 0 1 0 3.46 2 2 2 0 0 0-3.46-2"/><path fill="none" stroke="#f8fafc" stroke-opacity="0.1" d="M9.5 13.5a1.5 1.5 0 1 1-3 0 1.5 1.5 0 0 1 3 0ZM4.45 9.87l.09.13a1.5 1.5 0 1 1-.09-.13Zm8.93-.49.13.07a1.5 1.5 0 1 1-.13-.07Zm.6-5 .08.12a1.5 1.5 0 1 1-.08-.13Zm-10.13-.5.14.07a1.5 1.5 0 1 1-.14-.07ZM9.5 2.5a1.5 1.5 0 1 1-3 0 1.5 1.5 0 0 1 3 0Z"/><path fill="#f97316" fill-opacity=".4" fill-rule="evenodd" d="M9 4v2.27l1.96-1.14 1 1.74L10 8l1.96 1.13-1 1.74L9 9.73V12H7V9.73l-1.96 1.14-1-1.74L6 8 4.04 6.87l1-1.74L7 6.27V4z"/></svg>