<svg xmlns="http://www.w3.org/2000/svg" viewBox="0 0 16 16"><path fill="#64748b" fill-opacity=".4" fill-rule="evenodd" d="m14.67 10.83-3.84 3.84a4 4 0 0 1-5.66 0l-3.84-3.84a4 4 0 0 1 0-5.66l3.84-3.84a4 4 0 0 1 5.66 0l3.84 3.84a4 4 0 0 1 0 5.66"/><path fill="none" stroke="#f8fafc" stroke-opacity="0.1" d="m10.21 1.44.27.24 3.84 3.85a3.5 3.5 0 0 1 0 4.95l-3.84 3.84a3.5 3.5 0 0 1-4.95 0l-3.85-3.84a3.5 3.5 0 0 1 0-4.95l3.85-3.85a3.5 3.5 0 0 1 4.68-.24Z"/><path fill="#22c55e" fill-rule="evenodd" d="m6.3 13.58 7.15-10.16a1 1 0 0 1 .82-.42h.23a.5.5 0 1 0 0-1H9a.5.5 0 0 0 0 1h.25c.31 0 .5.36.31.61L5.91 8.73A.5.5 0 0 1 5 8.44V3.5a.5.5 0 0 1 .5-.5.5.5 0 0 0 0-1h-4a.5.5 0 0 0 0 1 .5.5 0 0 1 .5.5V13a1 1 0 0 0 1 1h2.48a1 1 0 0 0 .82-.42"/><path fill="none" stroke="#f8fafc" stroke-opacity="0.1" d="M4.5 3.5v4.94a1 1 0 0 0 1.81.58L9.97 3.9a.89.89 0 0 0-.72-1.4h5.02a1.5 1.5 0 0 0-1.23.64L5.9 13.29a.5.5 0 0 1-.4.21H3a.5.5 0 0 1-.5-.5V3.5a1 1 0 0 0-1-1h4a1 1 0 0 0-1 1Z"/></svg>