<svg xmlns="http://www.w3.org/2000/svg" viewBox="0 0 16 16"><path fill="#3b82f6" fill-opacity=".4" fill-rule="evenodd" d="M10.49 1.87 13.64 1a1 1 0 0 1 1.2 1.3L10.5 14.34a1 1 0 0 1-.94.66h-3.1a1 1 0 0 1-.93-1.36l4.3-11.17a1 1 0 0 1 .67-.6"/><path fill="none" stroke="#f8fafc" stroke-opacity="0.1" d="m14.4 2.07-.03.07-4.35 12.03a.5.5 0 0 1-.47.33h-3.1a.5.5 0 0 1-.46-.68l4.3-11.17a.5.5 0 0 1 .33-.3l3.15-.86a.5.5 0 0 1 .62.58Z"/><path fill="#3b82f6" fill-rule="evenodd" d="M5.51 1.87 2.36 1a1 1 0 0 0-1.2 1.3L5.5 14.34a1 1 0 0 0 .94.66h3.1a1 1 0 0 0 .93-1.36L6.18 2.47a1 1 0 0 0-.67-.6"/><path fill="none" stroke="#f8fafc" stroke-opacity="0.1" d="m2.15 1.48.08.01 3.15.86a.5.5 0 0 1 .34.3l4.3 11.17a.5.5 0 0 1-.48.68H6.45a.5.5 0 0 1-.47-.33L1.63 2.14a.5.5 0 0 1 .53-.67Z"/></svg>